%TF.GenerationSoftware,KiCad,Pcbnew,9.0.4*%
%TF.CreationDate,2025-12-21T19:05:22-05:00*%
%TF.ProjectId,esc,6573632e-6b69-4636-9164-5f7063625858,rev?*%
%TF.SameCoordinates,Original*%
%TF.FileFunction,Copper,L2,Inr*%
%TF.FilePolarity,Positive*%
%FSLAX46Y46*%
G04 Gerber Fmt 4.6, Leading zero omitted, Abs format (unit mm)*
G04 Created by KiCad (PCBNEW 9.0.4) date 2025-12-21 19:05:22*
%MOMM*%
%LPD*%
G01*
G04 APERTURE LIST*
%TA.AperFunction,ComponentPad*%
%ADD10R,2.000000X2.000000*%
%TD*%
%TA.AperFunction,ComponentPad*%
%ADD11C,2.000000*%
%TD*%
%TA.AperFunction,ComponentPad*%
%ADD12R,3.200000X2.000000*%
%TD*%
%TA.AperFunction,ComponentPad*%
%ADD13C,1.950000*%
%TD*%
%TA.AperFunction,ComponentPad*%
%ADD14C,1.168400*%
%TD*%
%TA.AperFunction,ViaPad*%
%ADD15C,0.750000*%
%TD*%
%TA.AperFunction,ViaPad*%
%ADD16C,0.600000*%
%TD*%
%TA.AperFunction,ViaPad*%
%ADD17C,0.500000*%
%TD*%
%TA.AperFunction,ViaPad*%
%ADD18C,0.400000*%
%TD*%
%TA.AperFunction,ViaPad*%
%ADD19C,0.350000*%
%TD*%
%TA.AperFunction,Conductor*%
%ADD20C,0.200000*%
%TD*%
G04 APERTURE END LIST*
D10*
%TO.N,/STM32/ENC_A*%
%TO.C,SW1*%
X113700000Y-68900000D03*
D11*
%TO.N,/STM32/ENC_B*%
X113700000Y-73900000D03*
%TO.N,GND*%
X113700000Y-71400000D03*
D12*
%TO.N,N/C*%
X121200000Y-65800000D03*
X121200000Y-77000000D03*
D11*
X128200000Y-73900000D03*
X128200000Y-68900000D03*
%TD*%
D13*
%TO.N,/W PHASE/W_PHASE*%
%TO.C,J4*%
X166170000Y-115000000D03*
X171250000Y-115000000D03*
%TD*%
%TO.N,/U PHASE/U_PHASE*%
%TO.C,J2*%
X166170000Y-75000000D03*
X171250000Y-75000000D03*
%TD*%
D14*
%TO.N,+3V3*%
%TO.C,J5*%
X138050000Y-74060000D03*
%TO.N,/STM32/SWDIO*%
X136780000Y-74060000D03*
%TO.N,GND*%
X138050000Y-72790000D03*
%TO.N,/STM32/SWCLK*%
X136780000Y-72790000D03*
%TO.N,GND*%
X138050000Y-71520000D03*
%TO.N,/STM32/SWO*%
X136780000Y-71520000D03*
%TO.N,unconnected-(J5-Pin_7-Pad7)*%
X138050000Y-70250000D03*
%TO.N,unconnected-(J5-Pin_8-Pad8)*%
X136780000Y-70250000D03*
%TO.N,GND*%
X138050000Y-68980000D03*
%TO.N,unconnected-(J5-Pin_10-Pad10)*%
X136780000Y-68980000D03*
%TD*%
D13*
%TO.N,VCC*%
%TO.C,J1*%
X115750000Y-117250000D03*
%TO.N,GND*%
X115750000Y-122250000D03*
%TD*%
%TO.N,/V PHASE/V_PHASE*%
%TO.C,J3*%
X166170000Y-95000000D03*
X171250000Y-95000000D03*
%TD*%
D15*
%TO.N,GND*%
X130800000Y-101200000D03*
D16*
X133200000Y-96400000D03*
X138000000Y-100400000D03*
X132000000Y-96400000D03*
D15*
%TO.N,VCC*%
X125000000Y-114750000D03*
X125000000Y-119750000D03*
X125000000Y-117250000D03*
X127000000Y-117250000D03*
X127000000Y-119750000D03*
X128875000Y-119750000D03*
X128875000Y-114750000D03*
X128875000Y-117250000D03*
X127000000Y-114750000D03*
D16*
%TO.N,/PWR/BUCK_EN*%
X140000000Y-111500000D03*
X134250000Y-111500000D03*
D17*
%TO.N,/STM32/V_LIN*%
X137950000Y-98000000D03*
D16*
%TO.N,GND*%
X139500000Y-87000000D03*
D15*
X148250000Y-95750000D03*
X148250000Y-75750000D03*
X155800000Y-124400000D03*
X157000000Y-124400000D03*
X160600000Y-122400000D03*
D18*
X125612500Y-87725000D03*
X134000000Y-76000000D03*
D15*
X155700000Y-104400000D03*
D18*
X131000000Y-75500000D03*
D15*
X133350000Y-119100000D03*
D18*
X133200000Y-78000000D03*
X126700000Y-95700000D03*
D16*
X134600000Y-86500000D03*
D15*
X159750000Y-82250000D03*
D18*
X123962500Y-89325000D03*
D17*
X115000000Y-103500000D03*
D16*
X144812500Y-106900000D03*
X145062500Y-86775000D03*
D15*
X156962500Y-84300000D03*
D16*
X137100000Y-92100000D03*
D18*
X126700000Y-97300000D03*
X126700000Y-91200000D03*
D15*
X159850000Y-102350000D03*
D18*
X123962500Y-84325000D03*
X128900000Y-84300000D03*
X131900000Y-78000000D03*
X127037500Y-84325000D03*
D15*
X156962500Y-104400000D03*
X155700000Y-84300000D03*
D18*
X132550000Y-78000000D03*
X126700000Y-94350000D03*
X128562500Y-88875000D03*
D16*
X145100000Y-66900000D03*
X139100000Y-94900000D03*
D19*
%TO.N,/PWR/VCC_SENSE*%
X134150000Y-89850000D03*
D16*
%TO.N,/STM32/U_VSENSE*%
X143250000Y-66900000D03*
D19*
X134152025Y-90526912D03*
%TO.N,/STM32/V_VSENSE*%
X134150000Y-91100000D03*
D16*
X143212500Y-86775000D03*
D19*
%TO.N,/STM32/W_VSENSE*%
X134150000Y-91700000D03*
D16*
X143012500Y-106900000D03*
%TO.N,/STM32/SWDIO*%
X134100000Y-74100000D03*
%TO.N,/STM32/SWCLK*%
X134100000Y-72790000D03*
%TO.N,/STM32/SWO*%
X134100000Y-71520000D03*
%TO.N,Net-(U5-HO)*%
X147080000Y-79239996D03*
X147080000Y-75005000D03*
%TO.N,Net-(U5-LO)*%
X147080000Y-80955000D03*
X147080000Y-76705000D03*
%TO.N,Net-(U6-HO)*%
X147062500Y-94975000D03*
X147062500Y-99209996D03*
%TO.N,Net-(U6-LO)*%
X147062500Y-96675000D03*
X147062500Y-100925000D03*
%TO.N,Net-(U7-HO)*%
X147012500Y-119259996D03*
X147012500Y-115025000D03*
%TO.N,Net-(U7-LO)*%
X147012500Y-116725000D03*
X147012500Y-120975000D03*
D17*
%TO.N,/STM32/ENC_B*%
X134600000Y-94900000D03*
D18*
%TO.N,/STM32/ENC_A*%
X132712500Y-92775000D03*
D17*
%TO.N,/STM32/W_HIN*%
X137900000Y-88200000D03*
X138150000Y-119250000D03*
%TO.N,/STM32/W_LIN*%
X135450000Y-94900000D03*
X138150000Y-118050000D03*
%TO.N,/STM32/V_LIN*%
X138450000Y-90450000D03*
%TO.N,/STM32/U_LIN*%
X137900000Y-78000000D03*
X134899997Y-88300000D03*
%TO.N,/STM32/V_HIN*%
X137900000Y-88950000D03*
X137950000Y-99250000D03*
%TO.N,/STM32/U_HIN*%
X137900000Y-79250000D03*
X135600000Y-88300000D03*
%TD*%
D20*
%TO.N,/STM32/ENC_B*%
X115212500Y-75412500D02*
X115212500Y-91312500D01*
X113700000Y-73900000D02*
X115212500Y-75412500D01*
X117250000Y-93350000D02*
X131037500Y-93350000D01*
X115212500Y-91312500D02*
X117250000Y-93350000D01*
X132587500Y-94900000D02*
X134600000Y-94900000D01*
X131037500Y-93350000D02*
X132587500Y-94900000D01*
%TO.N,/STM32/ENC_A*%
X117625000Y-92775000D02*
X115912500Y-91062500D01*
X132712500Y-92775000D02*
X117625000Y-92775000D01*
X115912500Y-71112500D02*
X113700000Y-68900000D01*
X115912500Y-91062500D02*
X115912500Y-71112500D01*
%TD*%
%TA.AperFunction,Conductor*%
%TO.N,GND*%
G36*
X177758288Y-62944454D02*
G01*
X177839070Y-62998430D01*
X177893046Y-63079212D01*
X177912000Y-63174500D01*
X177912000Y-125425500D01*
X177893046Y-125520788D01*
X177839070Y-125601570D01*
X177758288Y-125655546D01*
X177663000Y-125674500D01*
X110862000Y-125674500D01*
X110766712Y-125655546D01*
X110685930Y-125601570D01*
X110631954Y-125520788D01*
X110613000Y-125425500D01*
X110613000Y-120902524D01*
X146462000Y-120902524D01*
X146462000Y-121047475D01*
X146499515Y-121187482D01*
X146499517Y-121187487D01*
X146571988Y-121313011D01*
X146571989Y-121313012D01*
X146571991Y-121313015D01*
X146674485Y-121415509D01*
X146800015Y-121487984D01*
X146940025Y-121525500D01*
X147084974Y-121525500D01*
X147084975Y-121525500D01*
X147224985Y-121487984D01*
X147350515Y-121415509D01*
X147453009Y-121313015D01*
X147525484Y-121187485D01*
X147563000Y-121047475D01*
X147563000Y-120902525D01*
X147525484Y-120762515D01*
X147453009Y-120636985D01*
X147350515Y-120534491D01*
X147350512Y-120534489D01*
X147350511Y-120534488D01*
X147224987Y-120462017D01*
X147224982Y-120462015D01*
X147084975Y-120424500D01*
X146940025Y-120424500D01*
X146800017Y-120462015D01*
X146800012Y-120462017D01*
X146674488Y-120534488D01*
X146571988Y-120636988D01*
X146499517Y-120762512D01*
X146499515Y-120762517D01*
X146462000Y-120902524D01*
X110613000Y-120902524D01*
X110613000Y-119688395D01*
X124374500Y-119688395D01*
X124374500Y-119811604D01*
X124398537Y-119932454D01*
X124445686Y-120046281D01*
X124445689Y-120046286D01*
X124514142Y-120148733D01*
X124601267Y-120235858D01*
X124703714Y-120304311D01*
X124703716Y-120304311D01*
X124703718Y-120304313D01*
X124817545Y-120351462D01*
X124817546Y-120351462D01*
X124817548Y-120351463D01*
X124938394Y-120375500D01*
X124938395Y-120375500D01*
X125061605Y-120375500D01*
X125061606Y-120375500D01*
X125182452Y-120351463D01*
X125296286Y-120304311D01*
X125398733Y-120235858D01*
X125485858Y-120148733D01*
X125554311Y-120046286D01*
X125601463Y-119932452D01*
X125625500Y-119811606D01*
X125625500Y-119688395D01*
X126374500Y-119688395D01*
X126374500Y-119811604D01*
X126398537Y-119932454D01*
X126445686Y-120046281D01*
X126445689Y-120046286D01*
X126514142Y-120148733D01*
X126601267Y-120235858D01*
X126703714Y-120304311D01*
X126703716Y-120304311D01*
X126703718Y-120304313D01*
X126817545Y-120351462D01*
X126817546Y-120351462D01*
X126817548Y-120351463D01*
X126938394Y-120375500D01*
X126938395Y-120375500D01*
X127061605Y-120375500D01*
X127061606Y-120375500D01*
X127182452Y-120351463D01*
X127296286Y-120304311D01*
X127398733Y-120235858D01*
X127485858Y-120148733D01*
X127554311Y-120046286D01*
X127601463Y-119932452D01*
X127625500Y-119811606D01*
X127625500Y-119688395D01*
X128249500Y-119688395D01*
X128249500Y-119811604D01*
X128273537Y-119932454D01*
X128320686Y-120046281D01*
X128320689Y-120046286D01*
X128389142Y-120148733D01*
X128476267Y-120235858D01*
X128578714Y-120304311D01*
X128578716Y-120304311D01*
X128578718Y-120304313D01*
X128692545Y-120351462D01*
X128692546Y-120351462D01*
X128692548Y-120351463D01*
X128813394Y-120375500D01*
X128813395Y-120375500D01*
X128936605Y-120375500D01*
X128936606Y-120375500D01*
X129057452Y-120351463D01*
X129171286Y-120304311D01*
X129273733Y-120235858D01*
X129360858Y-120148733D01*
X129429311Y-120046286D01*
X129476463Y-119932452D01*
X129500500Y-119811606D01*
X129500500Y-119688394D01*
X129476463Y-119567548D01*
X129472224Y-119557314D01*
X129429313Y-119453718D01*
X129429310Y-119453713D01*
X129360860Y-119351270D01*
X129360858Y-119351267D01*
X129273733Y-119264142D01*
X129171286Y-119195689D01*
X129171281Y-119195686D01*
X129057454Y-119148537D01*
X128997029Y-119136518D01*
X128936606Y-119124500D01*
X128813394Y-119124500D01*
X128783182Y-119130509D01*
X128692545Y-119148537D01*
X128578718Y-119195686D01*
X128578713Y-119195689D01*
X128476270Y-119264139D01*
X128389139Y-119351270D01*
X128320689Y-119453713D01*
X128320686Y-119453718D01*
X128273537Y-119567545D01*
X128249500Y-119688395D01*
X127625500Y-119688395D01*
X127625500Y-119688394D01*
X127601463Y-119567548D01*
X127597224Y-119557314D01*
X127554313Y-119453718D01*
X127554310Y-119453713D01*
X127485860Y-119351270D01*
X127485858Y-119351267D01*
X127398733Y-119264142D01*
X127296286Y-119195689D01*
X127296281Y-119195686D01*
X127182454Y-119148537D01*
X127122029Y-119136518D01*
X127061606Y-119124500D01*
X126938394Y-119124500D01*
X126908182Y-119130509D01*
X126817545Y-119148537D01*
X126703718Y-119195686D01*
X126703713Y-119195689D01*
X126601270Y-119264139D01*
X126514139Y-119351270D01*
X126445689Y-119453713D01*
X126445686Y-119453718D01*
X126398537Y-119567545D01*
X126374500Y-119688395D01*
X125625500Y-119688395D01*
X125625500Y-119688394D01*
X125601463Y-119567548D01*
X125597224Y-119557314D01*
X125554313Y-119453718D01*
X125554310Y-119453713D01*
X125485860Y-119351270D01*
X125485858Y-119351267D01*
X125398733Y-119264142D01*
X125296286Y-119195689D01*
X125296281Y-119195686D01*
X125182454Y-119148537D01*
X125122029Y-119136518D01*
X125061606Y-119124500D01*
X124938394Y-119124500D01*
X124908182Y-119130509D01*
X124817545Y-119148537D01*
X124703718Y-119195686D01*
X124703713Y-119195689D01*
X124601270Y-119264139D01*
X124514139Y-119351270D01*
X124445689Y-119453713D01*
X124445686Y-119453718D01*
X124398537Y-119567545D01*
X124374500Y-119688395D01*
X110613000Y-119688395D01*
X110613000Y-117153541D01*
X114524500Y-117153541D01*
X114524500Y-117346458D01*
X114554675Y-117536969D01*
X114614283Y-117720424D01*
X114614287Y-117720434D01*
X114701858Y-117892301D01*
X114701859Y-117892302D01*
X114815241Y-118048359D01*
X114951641Y-118184759D01*
X115107698Y-118298141D01*
X115279571Y-118385715D01*
X115463028Y-118445324D01*
X115508064Y-118452457D01*
X115653541Y-118475499D01*
X115653548Y-118475499D01*
X115653551Y-118475500D01*
X115653554Y-118475500D01*
X115846446Y-118475500D01*
X115846449Y-118475500D01*
X115846452Y-118475499D01*
X115846458Y-118475499D01*
X115936458Y-118461243D01*
X116036972Y-118445324D01*
X116220429Y-118385715D01*
X116392302Y-118298141D01*
X116548359Y-118184759D01*
X116684759Y-118048359D01*
X116731441Y-117984107D01*
X137649500Y-117984107D01*
X137649500Y-118115892D01*
X137683606Y-118243181D01*
X137683607Y-118243183D01*
X137683608Y-118243186D01*
X137749500Y-118357314D01*
X137842686Y-118450500D01*
X137842688Y-118450501D01*
X137842691Y-118450504D01*
X137845236Y-118452457D01*
X137849455Y-118457268D01*
X137854227Y-118462040D01*
X137853914Y-118462352D01*
X137909294Y-118525502D01*
X137940522Y-118617502D01*
X137934167Y-118714449D01*
X137891195Y-118801584D01*
X137845236Y-118847543D01*
X137842691Y-118849495D01*
X137749500Y-118942686D01*
X137683606Y-119056818D01*
X137649500Y-119184107D01*
X137649500Y-119315892D01*
X137683606Y-119443181D01*
X137683607Y-119443183D01*
X137683608Y-119443186D01*
X137749500Y-119557314D01*
X137842686Y-119650500D01*
X137956814Y-119716392D01*
X138084108Y-119750500D01*
X138215892Y-119750500D01*
X138343186Y-119716392D01*
X138457314Y-119650500D01*
X138550500Y-119557314D01*
X138616392Y-119443186D01*
X138650500Y-119315892D01*
X138650500Y-119187520D01*
X146462000Y-119187520D01*
X146462000Y-119332471D01*
X146499515Y-119472478D01*
X146499517Y-119472483D01*
X146571988Y-119598007D01*
X146571989Y-119598008D01*
X146571991Y-119598011D01*
X146674485Y-119700505D01*
X146674487Y-119700506D01*
X146674488Y-119700507D01*
X146737250Y-119736742D01*
X146800015Y-119772980D01*
X146940025Y-119810496D01*
X147084974Y-119810496D01*
X147084975Y-119810496D01*
X147224985Y-119772980D01*
X147350515Y-119700505D01*
X147453009Y-119598011D01*
X147525484Y-119472481D01*
X147563000Y-119332471D01*
X147563000Y-119187521D01*
X147562085Y-119184108D01*
X147546113Y-119124500D01*
X147525484Y-119047511D01*
X147453009Y-118921981D01*
X147350515Y-118819487D01*
X147350512Y-118819485D01*
X147350511Y-118819484D01*
X147224987Y-118747013D01*
X147224982Y-118747011D01*
X147084975Y-118709496D01*
X146940025Y-118709496D01*
X146800017Y-118747011D01*
X146800012Y-118747013D01*
X146674488Y-118819484D01*
X146571988Y-118921984D01*
X146499517Y-119047508D01*
X146499515Y-119047513D01*
X146462000Y-119187520D01*
X138650500Y-119187520D01*
X138650500Y-119184108D01*
X138616392Y-119056814D01*
X138550500Y-118942686D01*
X138457314Y-118849500D01*
X138457311Y-118849498D01*
X138454769Y-118847548D01*
X138450547Y-118842734D01*
X138445773Y-118837960D01*
X138446085Y-118837647D01*
X138390709Y-118774504D01*
X138359478Y-118682506D01*
X138365830Y-118585559D01*
X138408799Y-118498422D01*
X138454769Y-118452452D01*
X138457305Y-118450504D01*
X138457314Y-118450500D01*
X138550500Y-118357314D01*
X138616392Y-118243186D01*
X138650500Y-118115892D01*
X138650500Y-117984108D01*
X138616392Y-117856814D01*
X138550500Y-117742686D01*
X138457314Y-117649500D01*
X138343186Y-117583608D01*
X138343183Y-117583607D01*
X138343181Y-117583606D01*
X138215892Y-117549500D01*
X138084108Y-117549500D01*
X137956818Y-117583606D01*
X137956814Y-117583607D01*
X137956814Y-117583608D01*
X137842686Y-117649500D01*
X137749500Y-117742686D01*
X137686698Y-117851463D01*
X137683606Y-117856818D01*
X137649500Y-117984107D01*
X116731441Y-117984107D01*
X116798141Y-117892302D01*
X116885715Y-117720429D01*
X116945324Y-117536972D01*
X116975500Y-117346449D01*
X116975500Y-117188394D01*
X124374500Y-117188394D01*
X124374500Y-117311606D01*
X124381432Y-117346458D01*
X124398537Y-117432454D01*
X124445686Y-117546281D01*
X124445689Y-117546286D01*
X124514142Y-117648733D01*
X124601267Y-117735858D01*
X124703714Y-117804311D01*
X124703716Y-117804311D01*
X124703718Y-117804313D01*
X124817545Y-117851462D01*
X124817546Y-117851462D01*
X124817548Y-117851463D01*
X124938394Y-117875500D01*
X124938395Y-117875500D01*
X125061605Y-117875500D01*
X125061606Y-117875500D01*
X125182452Y-117851463D01*
X125296286Y-117804311D01*
X125398733Y-117735858D01*
X125485858Y-117648733D01*
X125554311Y-117546286D01*
X125601463Y-117432452D01*
X125625500Y-117311606D01*
X125625500Y-117188394D01*
X126374500Y-117188394D01*
X126374500Y-117311606D01*
X126381432Y-117346458D01*
X126398537Y-117432454D01*
X126445686Y-117546281D01*
X126445689Y-117546286D01*
X126514142Y-117648733D01*
X126601267Y-117735858D01*
X126703714Y-117804311D01*
X126703716Y-117804311D01*
X126703718Y-117804313D01*
X126817545Y-117851462D01*
X126817546Y-117851462D01*
X126817548Y-117851463D01*
X126938394Y-117875500D01*
X126938395Y-117875500D01*
X127061605Y-117875500D01*
X127061606Y-117875500D01*
X127182452Y-117851463D01*
X127296286Y-117804311D01*
X127398733Y-117735858D01*
X127485858Y-117648733D01*
X127554311Y-117546286D01*
X127601463Y-117432452D01*
X127625500Y-117311606D01*
X127625500Y-117188394D01*
X128249500Y-117188394D01*
X128249500Y-117311606D01*
X128256432Y-117346458D01*
X128273537Y-117432454D01*
X128320686Y-117546281D01*
X128320689Y-117546286D01*
X128389142Y-117648733D01*
X128476267Y-117735858D01*
X128578714Y-117804311D01*
X128578716Y-117804311D01*
X128578718Y-117804313D01*
X128692545Y-117851462D01*
X128692546Y-117851462D01*
X128692548Y-117851463D01*
X128813394Y-117875500D01*
X128813395Y-117875500D01*
X128936605Y-117875500D01*
X128936606Y-117875500D01*
X129057452Y-117851463D01*
X129171286Y-117804311D01*
X129236474Y-117760753D01*
X129236476Y-117760753D01*
X129263514Y-117742686D01*
X129273733Y-117735858D01*
X129360858Y-117648733D01*
X129429311Y-117546286D01*
X129476463Y-117432452D01*
X129500500Y-117311606D01*
X129500500Y-117188394D01*
X129476463Y-117067548D01*
X129476462Y-117067545D01*
X129429313Y-116953718D01*
X129429310Y-116953713D01*
X129360860Y-116851270D01*
X129360858Y-116851267D01*
X129273733Y-116764142D01*
X129171286Y-116695689D01*
X129171281Y-116695686D01*
X129067079Y-116652524D01*
X146462000Y-116652524D01*
X146462000Y-116797475D01*
X146499515Y-116937482D01*
X146499517Y-116937487D01*
X146571988Y-117063011D01*
X146571989Y-117063012D01*
X146571991Y-117063015D01*
X146674485Y-117165509D01*
X146674487Y-117165510D01*
X146674488Y-117165511D01*
X146737250Y-117201746D01*
X146800015Y-117237984D01*
X146940025Y-117275500D01*
X147084974Y-117275500D01*
X147084975Y-117275500D01*
X147224985Y-117237984D01*
X147350515Y-117165509D01*
X147453009Y-117063015D01*
X147525484Y-116937485D01*
X147563000Y-116797475D01*
X147563000Y-116652525D01*
X147561931Y-116648537D01*
X147550494Y-116605855D01*
X147525484Y-116512515D01*
X147453009Y-116386985D01*
X147350515Y-116284491D01*
X147350512Y-116284489D01*
X147350511Y-116284488D01*
X147224987Y-116212017D01*
X147224982Y-116212015D01*
X147084975Y-116174500D01*
X146940025Y-116174500D01*
X146800017Y-116212015D01*
X146800012Y-116212017D01*
X146674488Y-116284488D01*
X146571988Y-116386988D01*
X146499517Y-116512512D01*
X146499515Y-116512517D01*
X146462000Y-116652524D01*
X129067079Y-116652524D01*
X129057454Y-116648537D01*
X128997029Y-116636518D01*
X128936606Y-116624500D01*
X128813394Y-116624500D01*
X128783182Y-116630509D01*
X128692545Y-116648537D01*
X128578718Y-116695686D01*
X128578713Y-116695689D01*
X128476270Y-116764139D01*
X128389139Y-116851270D01*
X128320689Y-116953713D01*
X128320686Y-116953718D01*
X128273537Y-117067545D01*
X128256432Y-117153541D01*
X128249500Y-117188394D01*
X127625500Y-117188394D01*
X127601463Y-117067548D01*
X127601462Y-117067545D01*
X127554313Y-116953718D01*
X127554310Y-116953713D01*
X127485860Y-116851270D01*
X127485858Y-116851267D01*
X127398733Y-116764142D01*
X127296286Y-116695689D01*
X127296281Y-116695686D01*
X127182454Y-116648537D01*
X127122029Y-116636518D01*
X127061606Y-116624500D01*
X126938394Y-116624500D01*
X126908182Y-116630509D01*
X126817545Y-116648537D01*
X126703718Y-116695686D01*
X126703713Y-116695689D01*
X126601270Y-116764139D01*
X126514139Y-116851270D01*
X126445689Y-116953713D01*
X126445686Y-116953718D01*
X126398537Y-117067545D01*
X126381432Y-117153541D01*
X126374500Y-117188394D01*
X125625500Y-117188394D01*
X125601463Y-117067548D01*
X125601462Y-117067545D01*
X125554313Y-116953718D01*
X125554310Y-116953713D01*
X125485860Y-116851270D01*
X125485858Y-116851267D01*
X125398733Y-116764142D01*
X125296286Y-116695689D01*
X125296281Y-116695686D01*
X125182454Y-116648537D01*
X125122029Y-116636518D01*
X125061606Y-116624500D01*
X124938394Y-116624500D01*
X124908182Y-116630509D01*
X124817545Y-116648537D01*
X124703718Y-116695686D01*
X124703713Y-116695689D01*
X124601270Y-116764139D01*
X124514139Y-116851270D01*
X124445689Y-116953713D01*
X124445686Y-116953718D01*
X124398537Y-117067545D01*
X124381432Y-117153541D01*
X124374500Y-117188394D01*
X116975500Y-117188394D01*
X116975500Y-117153551D01*
X116975499Y-117153548D01*
X116975499Y-117153541D01*
X116945324Y-116963030D01*
X116945324Y-116963028D01*
X116885715Y-116779571D01*
X116798141Y-116607698D01*
X116684759Y-116451641D01*
X116548359Y-116315241D01*
X116424840Y-116225499D01*
X116392301Y-116201858D01*
X116220434Y-116114287D01*
X116220424Y-116114283D01*
X116036969Y-116054675D01*
X115846458Y-116024500D01*
X115846449Y-116024500D01*
X115653551Y-116024500D01*
X115653541Y-116024500D01*
X115463030Y-116054675D01*
X115279575Y-116114283D01*
X115279565Y-116114287D01*
X115107698Y-116201858D01*
X114951644Y-116315238D01*
X114815238Y-116451644D01*
X114701858Y-116607698D01*
X114614287Y-116779565D01*
X114614283Y-116779575D01*
X114554675Y-116963030D01*
X114524500Y-117153541D01*
X110613000Y-117153541D01*
X110613000Y-114688394D01*
X124374500Y-114688394D01*
X124374500Y-114811606D01*
X124386518Y-114872029D01*
X124398537Y-114932454D01*
X124445686Y-115046281D01*
X124445689Y-115046286D01*
X124514142Y-115148733D01*
X124601267Y-115235858D01*
X124703714Y-115304311D01*
X124703716Y-115304311D01*
X124703718Y-115304313D01*
X124817545Y-115351462D01*
X124817546Y-115351462D01*
X124817548Y-115351463D01*
X124938394Y-115375500D01*
X124938395Y-115375500D01*
X125061605Y-115375500D01*
X125061606Y-115375500D01*
X125182452Y-115351463D01*
X125296286Y-115304311D01*
X125398733Y-115235858D01*
X125485858Y-115148733D01*
X125554311Y-115046286D01*
X125601463Y-114932452D01*
X125625500Y-114811606D01*
X125625500Y-114688394D01*
X126374500Y-114688394D01*
X126374500Y-114811606D01*
X126386518Y-114872029D01*
X126398537Y-114932454D01*
X126445686Y-115046281D01*
X126445689Y-115046286D01*
X126514142Y-115148733D01*
X126601267Y-115235858D01*
X126703714Y-115304311D01*
X126703716Y-115304311D01*
X126703718Y-115304313D01*
X126817545Y-115351462D01*
X126817546Y-115351462D01*
X126817548Y-115351463D01*
X126938394Y-115375500D01*
X126938395Y-115375500D01*
X127061605Y-115375500D01*
X127061606Y-115375500D01*
X127182452Y-115351463D01*
X127296286Y-115304311D01*
X127398733Y-115235858D01*
X127485858Y-115148733D01*
X127554311Y-115046286D01*
X127601463Y-114932452D01*
X127625500Y-114811606D01*
X127625500Y-114688394D01*
X128249500Y-114688394D01*
X128249500Y-114811606D01*
X128261518Y-114872029D01*
X128273537Y-114932454D01*
X128320686Y-115046281D01*
X128320689Y-115046286D01*
X128389142Y-115148733D01*
X128476267Y-115235858D01*
X128578714Y-115304311D01*
X128578716Y-115304311D01*
X128578718Y-115304313D01*
X128692545Y-115351462D01*
X128692546Y-115351462D01*
X128692548Y-115351463D01*
X128813394Y-115375500D01*
X128813395Y-115375500D01*
X128936605Y-115375500D01*
X128936606Y-115375500D01*
X129057452Y-115351463D01*
X129171286Y-115304311D01*
X129273733Y-115235858D01*
X129360858Y-115148733D01*
X129429311Y-115046286D01*
X129468149Y-114952524D01*
X146462000Y-114952524D01*
X146462000Y-115097475D01*
X146499515Y-115237482D01*
X146499517Y-115237487D01*
X146571988Y-115363011D01*
X146571989Y-115363012D01*
X146571991Y-115363015D01*
X146674485Y-115465509D01*
X146674487Y-115465510D01*
X146674488Y-115465511D01*
X146683015Y-115470434D01*
X146800015Y-115537984D01*
X146940025Y-115575500D01*
X147084974Y-115575500D01*
X147084975Y-115575500D01*
X147224985Y-115537984D01*
X147350515Y-115465509D01*
X147453009Y-115363015D01*
X147525484Y-115237485D01*
X147563000Y-115097475D01*
X147563000Y-114952525D01*
X147549875Y-114903541D01*
X164944500Y-114903541D01*
X164944500Y-115096458D01*
X164974675Y-115286969D01*
X165034283Y-115470424D01*
X165034287Y-115470434D01*
X165121858Y-115642301D01*
X165121859Y-115642302D01*
X165235241Y-115798359D01*
X165371641Y-115934759D01*
X165527698Y-116048141D01*
X165699571Y-116135715D01*
X165883028Y-116195324D01*
X165950037Y-116205937D01*
X166073541Y-116225499D01*
X166073548Y-116225499D01*
X166073551Y-116225500D01*
X166073554Y-116225500D01*
X166266446Y-116225500D01*
X166266449Y-116225500D01*
X166266452Y-116225499D01*
X166266458Y-116225499D01*
X166356458Y-116211243D01*
X166456972Y-116195324D01*
X166640429Y-116135715D01*
X166812302Y-116048141D01*
X166968359Y-115934759D01*
X167104759Y-115798359D01*
X167218141Y-115642302D01*
X167305715Y-115470429D01*
X167365324Y-115286972D01*
X167387220Y-115148729D01*
X167395499Y-115096458D01*
X167395500Y-115096446D01*
X167395500Y-114903553D01*
X167395499Y-114903541D01*
X170024500Y-114903541D01*
X170024500Y-115096458D01*
X170054675Y-115286969D01*
X170114283Y-115470424D01*
X170114287Y-115470434D01*
X170201858Y-115642301D01*
X170201859Y-115642302D01*
X170315241Y-115798359D01*
X170451641Y-115934759D01*
X170607698Y-116048141D01*
X170779571Y-116135715D01*
X170963028Y-116195324D01*
X171030037Y-116205937D01*
X171153541Y-116225499D01*
X171153548Y-116225499D01*
X171153551Y-116225500D01*
X171153554Y-116225500D01*
X171346446Y-116225500D01*
X171346449Y-116225500D01*
X171346452Y-116225499D01*
X171346458Y-116225499D01*
X171436458Y-116211243D01*
X171536972Y-116195324D01*
X171720429Y-116135715D01*
X171892302Y-116048141D01*
X172048359Y-115934759D01*
X172184759Y-115798359D01*
X172298141Y-115642302D01*
X172385715Y-115470429D01*
X172445324Y-115286972D01*
X172467220Y-115148729D01*
X172475499Y-115096458D01*
X172475500Y-115096446D01*
X172475500Y-114903553D01*
X172475499Y-114903541D01*
X172445324Y-114713030D01*
X172445324Y-114713028D01*
X172385715Y-114529571D01*
X172298141Y-114357698D01*
X172184759Y-114201641D01*
X172048359Y-114065241D01*
X171892302Y-113951859D01*
X171892303Y-113951859D01*
X171892301Y-113951858D01*
X171720434Y-113864287D01*
X171720424Y-113864283D01*
X171536969Y-113804675D01*
X171346458Y-113774500D01*
X171346449Y-113774500D01*
X171153551Y-113774500D01*
X171153541Y-113774500D01*
X170963030Y-113804675D01*
X170779575Y-113864283D01*
X170779565Y-113864287D01*
X170607698Y-113951858D01*
X170451644Y-114065238D01*
X170315238Y-114201644D01*
X170201858Y-114357698D01*
X170114287Y-114529565D01*
X170114283Y-114529575D01*
X170054675Y-114713030D01*
X170024500Y-114903541D01*
X167395499Y-114903541D01*
X167365324Y-114713030D01*
X167365324Y-114713028D01*
X167305715Y-114529571D01*
X167218141Y-114357698D01*
X167104759Y-114201641D01*
X166968359Y-114065241D01*
X166812302Y-113951859D01*
X166812303Y-113951859D01*
X166812301Y-113951858D01*
X166640434Y-113864287D01*
X166640424Y-113864283D01*
X166456969Y-113804675D01*
X166266458Y-113774500D01*
X166266449Y-113774500D01*
X166073551Y-113774500D01*
X166073541Y-113774500D01*
X165883030Y-113804675D01*
X165699575Y-113864283D01*
X165699565Y-113864287D01*
X165527698Y-113951858D01*
X165371644Y-114065238D01*
X165235238Y-114201644D01*
X165121858Y-114357698D01*
X165034287Y-114529565D01*
X165034283Y-114529575D01*
X164974675Y-114713030D01*
X164944500Y-114903541D01*
X147549875Y-114903541D01*
X147525484Y-114812515D01*
X147524957Y-114811603D01*
X147453011Y-114686988D01*
X147453010Y-114686987D01*
X147453009Y-114686985D01*
X147350515Y-114584491D01*
X147350512Y-114584489D01*
X147350511Y-114584488D01*
X147224987Y-114512017D01*
X147224982Y-114512015D01*
X147084975Y-114474500D01*
X146940025Y-114474500D01*
X146800017Y-114512015D01*
X146800012Y-114512017D01*
X146674488Y-114584488D01*
X146571988Y-114686988D01*
X146499517Y-114812512D01*
X146499515Y-114812517D01*
X146462000Y-114952524D01*
X129468149Y-114952524D01*
X129476463Y-114932452D01*
X129500500Y-114811606D01*
X129500500Y-114688394D01*
X129476463Y-114567548D01*
X129460734Y-114529575D01*
X129429313Y-114453718D01*
X129429310Y-114453713D01*
X129360860Y-114351270D01*
X129360858Y-114351267D01*
X129273733Y-114264142D01*
X129171286Y-114195689D01*
X129171281Y-114195686D01*
X129057454Y-114148537D01*
X128997029Y-114136518D01*
X128936606Y-114124500D01*
X128813394Y-114124500D01*
X128783182Y-114130509D01*
X128692545Y-114148537D01*
X128578718Y-114195686D01*
X128578713Y-114195689D01*
X128476270Y-114264139D01*
X128389139Y-114351270D01*
X128320689Y-114453713D01*
X128320686Y-114453718D01*
X128273537Y-114567545D01*
X128255509Y-114658182D01*
X128249500Y-114688394D01*
X127625500Y-114688394D01*
X127601463Y-114567548D01*
X127585734Y-114529575D01*
X127554313Y-114453718D01*
X127554310Y-114453713D01*
X127485860Y-114351270D01*
X127485858Y-114351267D01*
X127398733Y-114264142D01*
X127296286Y-114195689D01*
X127296281Y-114195686D01*
X127182454Y-114148537D01*
X127122029Y-114136518D01*
X127061606Y-114124500D01*
X126938394Y-114124500D01*
X126908182Y-114130509D01*
X126817545Y-114148537D01*
X126703718Y-114195686D01*
X126703713Y-114195689D01*
X126601270Y-114264139D01*
X126514139Y-114351270D01*
X126445689Y-114453713D01*
X126445686Y-114453718D01*
X126398537Y-114567545D01*
X126380509Y-114658182D01*
X126374500Y-114688394D01*
X125625500Y-114688394D01*
X125601463Y-114567548D01*
X125585734Y-114529575D01*
X125554313Y-114453718D01*
X125554310Y-114453713D01*
X125485860Y-114351270D01*
X125485858Y-114351267D01*
X125398733Y-114264142D01*
X125296286Y-114195689D01*
X125296281Y-114195686D01*
X125182454Y-114148537D01*
X125122029Y-114136518D01*
X125061606Y-114124500D01*
X124938394Y-114124500D01*
X124908182Y-114130509D01*
X124817545Y-114148537D01*
X124703718Y-114195686D01*
X124703713Y-114195689D01*
X124601270Y-114264139D01*
X124514139Y-114351270D01*
X124445689Y-114453713D01*
X124445686Y-114453718D01*
X124398537Y-114567545D01*
X124380509Y-114658182D01*
X124374500Y-114688394D01*
X110613000Y-114688394D01*
X110613000Y-111427524D01*
X133699500Y-111427524D01*
X133699500Y-111572475D01*
X133737015Y-111712482D01*
X133737017Y-111712487D01*
X133809488Y-111838011D01*
X133809489Y-111838012D01*
X133809491Y-111838015D01*
X133911985Y-111940509D01*
X134037515Y-112012984D01*
X134177525Y-112050500D01*
X134322474Y-112050500D01*
X134322475Y-112050500D01*
X134462485Y-112012984D01*
X134588015Y-111940509D01*
X134690509Y-111838015D01*
X134762984Y-111712485D01*
X134800500Y-111572475D01*
X134800500Y-111427525D01*
X134800500Y-111427524D01*
X139449500Y-111427524D01*
X139449500Y-111572475D01*
X139487015Y-111712482D01*
X139487017Y-111712487D01*
X139559488Y-111838011D01*
X139559489Y-111838012D01*
X139559491Y-111838015D01*
X139661985Y-111940509D01*
X139787515Y-112012984D01*
X139927525Y-112050500D01*
X140072474Y-112050500D01*
X140072475Y-112050500D01*
X140212485Y-112012984D01*
X140338015Y-111940509D01*
X140440509Y-111838015D01*
X140512984Y-111712485D01*
X140550500Y-111572475D01*
X140550500Y-111427525D01*
X140512984Y-111287515D01*
X140440509Y-111161985D01*
X140338015Y-111059491D01*
X140338012Y-111059489D01*
X140338011Y-111059488D01*
X140212487Y-110987017D01*
X140212482Y-110987015D01*
X140072475Y-110949500D01*
X139927525Y-110949500D01*
X139787517Y-110987015D01*
X139787512Y-110987017D01*
X139661988Y-111059488D01*
X139559488Y-111161988D01*
X139487017Y-111287512D01*
X139487015Y-111287517D01*
X139449500Y-111427524D01*
X134800500Y-111427524D01*
X134762984Y-111287515D01*
X134690509Y-111161985D01*
X134588015Y-111059491D01*
X134588012Y-111059489D01*
X134588011Y-111059488D01*
X134462487Y-110987017D01*
X134462482Y-110987015D01*
X134322475Y-110949500D01*
X134177525Y-110949500D01*
X134037517Y-110987015D01*
X134037512Y-110987017D01*
X133911988Y-111059488D01*
X133809488Y-111161988D01*
X133737017Y-111287512D01*
X133737015Y-111287517D01*
X133699500Y-111427524D01*
X110613000Y-111427524D01*
X110613000Y-106827524D01*
X142462000Y-106827524D01*
X142462000Y-106972475D01*
X142499515Y-107112482D01*
X142499517Y-107112487D01*
X142571988Y-107238011D01*
X142571989Y-107238012D01*
X142571991Y-107238015D01*
X142674485Y-107340509D01*
X142800015Y-107412984D01*
X142940025Y-107450500D01*
X143084974Y-107450500D01*
X143084975Y-107450500D01*
X143224985Y-107412984D01*
X143350515Y-107340509D01*
X143453009Y-107238015D01*
X143525484Y-107112485D01*
X143563000Y-106972475D01*
X143563000Y-106827525D01*
X143525484Y-106687515D01*
X143453009Y-106561985D01*
X143350515Y-106459491D01*
X143350512Y-106459489D01*
X143350511Y-106459488D01*
X143224987Y-106387017D01*
X143224982Y-106387015D01*
X143084975Y-106349500D01*
X142940025Y-106349500D01*
X142800017Y-106387015D01*
X142800012Y-106387017D01*
X142674488Y-106459488D01*
X142571988Y-106561988D01*
X142499517Y-106687512D01*
X142499515Y-106687517D01*
X142462000Y-106827524D01*
X110613000Y-106827524D01*
X110613000Y-100852524D01*
X146512000Y-100852524D01*
X146512000Y-100997475D01*
X146549515Y-101137482D01*
X146549517Y-101137487D01*
X146621988Y-101263011D01*
X146621989Y-101263012D01*
X146621991Y-101263015D01*
X146724485Y-101365509D01*
X146850015Y-101437984D01*
X146990025Y-101475500D01*
X147134974Y-101475500D01*
X147134975Y-101475500D01*
X147274985Y-101437984D01*
X147400515Y-101365509D01*
X147503009Y-101263015D01*
X147575484Y-101137485D01*
X147613000Y-100997475D01*
X147613000Y-100852525D01*
X147575484Y-100712515D01*
X147503009Y-100586985D01*
X147400515Y-100484491D01*
X147400512Y-100484489D01*
X147400511Y-100484488D01*
X147274987Y-100412017D01*
X147274982Y-100412015D01*
X147134975Y-100374500D01*
X146990025Y-100374500D01*
X146850017Y-100412015D01*
X146850012Y-100412017D01*
X146724488Y-100484488D01*
X146621988Y-100586988D01*
X146549517Y-100712512D01*
X146549515Y-100712517D01*
X146512000Y-100852524D01*
X110613000Y-100852524D01*
X110613000Y-97934107D01*
X137449500Y-97934107D01*
X137449500Y-98065892D01*
X137483606Y-98193181D01*
X137483607Y-98193183D01*
X137483608Y-98193186D01*
X137549500Y-98307314D01*
X137642686Y-98400500D01*
X137642688Y-98400501D01*
X137642689Y-98400502D01*
X137658033Y-98409361D01*
X137731077Y-98473420D01*
X137774047Y-98560556D01*
X137780401Y-98657503D01*
X137749170Y-98749502D01*
X137685111Y-98822546D01*
X137658033Y-98840639D01*
X137642689Y-98849497D01*
X137642686Y-98849500D01*
X137549500Y-98942686D01*
X137517849Y-98997508D01*
X137483606Y-99056818D01*
X137449500Y-99184107D01*
X137449500Y-99315892D01*
X137483606Y-99443181D01*
X137483607Y-99443183D01*
X137483608Y-99443186D01*
X137549500Y-99557314D01*
X137642686Y-99650500D01*
X137756814Y-99716392D01*
X137884108Y-99750500D01*
X138015892Y-99750500D01*
X138143186Y-99716392D01*
X138257314Y-99650500D01*
X138350500Y-99557314D01*
X138416392Y-99443186D01*
X138450500Y-99315892D01*
X138450500Y-99184108D01*
X138438017Y-99137520D01*
X146512000Y-99137520D01*
X146512000Y-99282471D01*
X146549515Y-99422478D01*
X146549517Y-99422483D01*
X146621988Y-99548007D01*
X146621989Y-99548008D01*
X146621991Y-99548011D01*
X146724485Y-99650505D01*
X146850015Y-99722980D01*
X146990025Y-99760496D01*
X147134974Y-99760496D01*
X147134975Y-99760496D01*
X147274985Y-99722980D01*
X147400515Y-99650505D01*
X147503009Y-99548011D01*
X147575484Y-99422481D01*
X147613000Y-99282471D01*
X147613000Y-99137521D01*
X147575484Y-98997511D01*
X147503009Y-98871981D01*
X147400515Y-98769487D01*
X147400512Y-98769485D01*
X147400511Y-98769484D01*
X147274987Y-98697013D01*
X147274982Y-98697011D01*
X147134975Y-98659496D01*
X146990025Y-98659496D01*
X146850017Y-98697011D01*
X146850012Y-98697013D01*
X146724488Y-98769484D01*
X146621988Y-98871984D01*
X146549517Y-98997508D01*
X146549515Y-98997513D01*
X146512000Y-99137520D01*
X138438017Y-99137520D01*
X138416392Y-99056814D01*
X138350500Y-98942686D01*
X138257314Y-98849500D01*
X138257311Y-98849498D01*
X138257310Y-98849497D01*
X138241970Y-98840641D01*
X138168924Y-98776583D01*
X138125953Y-98689448D01*
X138119598Y-98592501D01*
X138150827Y-98500502D01*
X138214885Y-98427456D01*
X138241970Y-98409359D01*
X138246121Y-98406961D01*
X138257314Y-98400500D01*
X138350500Y-98307314D01*
X138416392Y-98193186D01*
X138450500Y-98065892D01*
X138450500Y-97934108D01*
X138416392Y-97806814D01*
X138350500Y-97692686D01*
X138257314Y-97599500D01*
X138143186Y-97533608D01*
X138143183Y-97533607D01*
X138143181Y-97533606D01*
X138015892Y-97499500D01*
X137884108Y-97499500D01*
X137756818Y-97533606D01*
X137756814Y-97533607D01*
X137756814Y-97533608D01*
X137642686Y-97599500D01*
X137549500Y-97692686D01*
X137483606Y-97806818D01*
X137449500Y-97934107D01*
X110613000Y-97934107D01*
X110613000Y-96602524D01*
X146512000Y-96602524D01*
X146512000Y-96747475D01*
X146549515Y-96887482D01*
X146549517Y-96887487D01*
X146621988Y-97013011D01*
X146621989Y-97013012D01*
X146621991Y-97013015D01*
X146724485Y-97115509D01*
X146850015Y-97187984D01*
X146990025Y-97225500D01*
X147134974Y-97225500D01*
X147134975Y-97225500D01*
X147274985Y-97187984D01*
X147400515Y-97115509D01*
X147503009Y-97013015D01*
X147575484Y-96887485D01*
X147613000Y-96747475D01*
X147613000Y-96602525D01*
X147575484Y-96462515D01*
X147503009Y-96336985D01*
X147400515Y-96234491D01*
X147400512Y-96234489D01*
X147400511Y-96234488D01*
X147274987Y-96162017D01*
X147274982Y-96162015D01*
X147134975Y-96124500D01*
X146990025Y-96124500D01*
X146850017Y-96162015D01*
X146850012Y-96162017D01*
X146724488Y-96234488D01*
X146621988Y-96336988D01*
X146549517Y-96462512D01*
X146549515Y-96462517D01*
X146512000Y-96602524D01*
X110613000Y-96602524D01*
X110613000Y-67875323D01*
X112449500Y-67875323D01*
X112449500Y-69924676D01*
X112464033Y-69997739D01*
X112519397Y-70080599D01*
X112519399Y-70080601D01*
X112602260Y-70135966D01*
X112675324Y-70150499D01*
X112675325Y-70150500D01*
X112675326Y-70150500D01*
X114351678Y-70150500D01*
X114446966Y-70169454D01*
X114527748Y-70223430D01*
X115489070Y-71184752D01*
X115543046Y-71265534D01*
X115562000Y-71360822D01*
X115562000Y-74665178D01*
X115543046Y-74760466D01*
X115489070Y-74841248D01*
X115408288Y-74895224D01*
X115313000Y-74914178D01*
X115217712Y-74895224D01*
X115136930Y-74841248D01*
X114921857Y-74626175D01*
X114867881Y-74545393D01*
X114848927Y-74450105D01*
X114861113Y-74373164D01*
X114919709Y-74192826D01*
X114950500Y-73998417D01*
X114950500Y-73801583D01*
X114919709Y-73607174D01*
X114858884Y-73419975D01*
X114769524Y-73244595D01*
X114766382Y-73240271D01*
X114653830Y-73085357D01*
X114653828Y-73085354D01*
X114514646Y-72946172D01*
X114514642Y-72946169D01*
X114355410Y-72830479D01*
X114355407Y-72830477D01*
X114355405Y-72830476D01*
X114180025Y-72741116D01*
X114180024Y-72741115D01*
X114180023Y-72741115D01*
X114180017Y-72741113D01*
X114072928Y-72706318D01*
X113992826Y-72680291D01*
X113992824Y-72680290D01*
X113992822Y-72680290D01*
X113798428Y-72649501D01*
X113798419Y-72649500D01*
X113798417Y-72649500D01*
X113601583Y-72649500D01*
X113601580Y-72649500D01*
X113601571Y-72649501D01*
X113407177Y-72680290D01*
X113219982Y-72741113D01*
X113219976Y-72741115D01*
X113128740Y-72787602D01*
X113044595Y-72830476D01*
X113044592Y-72830477D01*
X113044590Y-72830479D01*
X113044589Y-72830479D01*
X112885357Y-72946169D01*
X112746169Y-73085357D01*
X112630479Y-73244589D01*
X112630479Y-73244590D01*
X112630477Y-73244592D01*
X112630476Y-73244595D01*
X112605598Y-73293421D01*
X112541115Y-73419976D01*
X112541113Y-73419982D01*
X112480290Y-73607177D01*
X112449501Y-73801571D01*
X112449500Y-73801587D01*
X112449500Y-73998412D01*
X112449501Y-73998428D01*
X112480290Y-74192822D01*
X112516243Y-74303476D01*
X112541116Y-74380025D01*
X112630476Y-74555405D01*
X112630479Y-74555409D01*
X112630479Y-74555410D01*
X112741602Y-74708356D01*
X112746172Y-74714646D01*
X112885354Y-74853828D01*
X112897459Y-74862623D01*
X112993670Y-74932525D01*
X113044595Y-74969524D01*
X113219975Y-75058884D01*
X113407174Y-75119709D01*
X113601583Y-75150500D01*
X113601587Y-75150500D01*
X113798413Y-75150500D01*
X113798417Y-75150500D01*
X113992826Y-75119709D01*
X114173163Y-75061113D01*
X114269640Y-75049695D01*
X114363148Y-75076066D01*
X114426175Y-75121857D01*
X114789070Y-75484752D01*
X114843046Y-75565534D01*
X114862000Y-75660822D01*
X114862000Y-91358644D01*
X114876565Y-91413000D01*
X114885886Y-91447788D01*
X114932030Y-91527712D01*
X117034788Y-93630470D01*
X117034790Y-93630471D01*
X117034791Y-93630472D01*
X117114709Y-93676613D01*
X117114711Y-93676613D01*
X117114712Y-93676614D01*
X117203856Y-93700500D01*
X130789178Y-93700500D01*
X130884466Y-93719454D01*
X130965248Y-93773430D01*
X132372288Y-95180470D01*
X132442338Y-95220913D01*
X132452212Y-95226614D01*
X132452216Y-95226615D01*
X132541353Y-95250500D01*
X132541356Y-95250500D01*
X134143001Y-95250500D01*
X134238289Y-95269454D01*
X134278395Y-95292609D01*
X134278552Y-95292339D01*
X134292684Y-95300498D01*
X134292686Y-95300500D01*
X134406814Y-95366392D01*
X134534108Y-95400500D01*
X134665892Y-95400500D01*
X134793186Y-95366392D01*
X134900500Y-95304433D01*
X134992499Y-95273204D01*
X135089446Y-95279558D01*
X135149499Y-95304433D01*
X135256814Y-95366392D01*
X135384108Y-95400500D01*
X135515892Y-95400500D01*
X135643186Y-95366392D01*
X135757314Y-95300500D01*
X135850500Y-95207314D01*
X135916392Y-95093186D01*
X135950500Y-94965892D01*
X135950500Y-94902524D01*
X146512000Y-94902524D01*
X146512000Y-95047475D01*
X146549515Y-95187482D01*
X146549517Y-95187487D01*
X146621988Y-95313011D01*
X146621989Y-95313012D01*
X146621991Y-95313015D01*
X146724485Y-95415509D01*
X146850015Y-95487984D01*
X146990025Y-95525500D01*
X147134974Y-95525500D01*
X147134975Y-95525500D01*
X147274985Y-95487984D01*
X147400515Y-95415509D01*
X147503009Y-95313015D01*
X147575484Y-95187485D01*
X147613000Y-95047475D01*
X147613000Y-94903541D01*
X164944500Y-94903541D01*
X164944500Y-95096458D01*
X164974675Y-95286969D01*
X165034283Y-95470424D01*
X165034287Y-95470434D01*
X165062345Y-95525500D01*
X165121859Y-95642302D01*
X165235241Y-95798359D01*
X165371641Y-95934759D01*
X165527698Y-96048141D01*
X165699571Y-96135715D01*
X165883028Y-96195324D01*
X165950037Y-96205937D01*
X166073541Y-96225499D01*
X166073548Y-96225499D01*
X166073551Y-96225500D01*
X166073554Y-96225500D01*
X166266446Y-96225500D01*
X166266449Y-96225500D01*
X166266452Y-96225499D01*
X166266458Y-96225499D01*
X166356458Y-96211243D01*
X166456972Y-96195324D01*
X166640429Y-96135715D01*
X166812302Y-96048141D01*
X166968359Y-95934759D01*
X167104759Y-95798359D01*
X167218141Y-95642302D01*
X167305715Y-95470429D01*
X167365324Y-95286972D01*
X167395500Y-95096449D01*
X167395500Y-94903551D01*
X167395499Y-94903548D01*
X167395499Y-94903541D01*
X170024500Y-94903541D01*
X170024500Y-95096458D01*
X170054675Y-95286969D01*
X170114283Y-95470424D01*
X170114287Y-95470434D01*
X170142345Y-95525500D01*
X170201859Y-95642302D01*
X170315241Y-95798359D01*
X170451641Y-95934759D01*
X170607698Y-96048141D01*
X170779571Y-96135715D01*
X170963028Y-96195324D01*
X171030037Y-96205937D01*
X171153541Y-96225499D01*
X171153548Y-96225499D01*
X171153551Y-96225500D01*
X171153554Y-96225500D01*
X171346446Y-96225500D01*
X171346449Y-96225500D01*
X171346452Y-96225499D01*
X171346458Y-96225499D01*
X171436458Y-96211243D01*
X171536972Y-96195324D01*
X171720429Y-96135715D01*
X171892302Y-96048141D01*
X172048359Y-95934759D01*
X172184759Y-95798359D01*
X172298141Y-95642302D01*
X172385715Y-95470429D01*
X172445324Y-95286972D01*
X172475500Y-95096449D01*
X172475500Y-94903551D01*
X172475499Y-94903548D01*
X172475499Y-94903541D01*
X172453162Y-94762515D01*
X172445324Y-94713028D01*
X172385715Y-94529571D01*
X172298141Y-94357698D01*
X172184759Y-94201641D01*
X172048359Y-94065241D01*
X171892302Y-93951859D01*
X171892303Y-93951859D01*
X171892301Y-93951858D01*
X171720434Y-93864287D01*
X171720424Y-93864283D01*
X171536969Y-93804675D01*
X171346458Y-93774500D01*
X171346449Y-93774500D01*
X171153551Y-93774500D01*
X171153541Y-93774500D01*
X170963030Y-93804675D01*
X170779575Y-93864283D01*
X170779565Y-93864287D01*
X170607698Y-93951858D01*
X170451644Y-94065238D01*
X170315238Y-94201644D01*
X170201858Y-94357698D01*
X170114287Y-94529565D01*
X170114283Y-94529575D01*
X170054675Y-94713030D01*
X170024500Y-94903541D01*
X167395499Y-94903541D01*
X167373162Y-94762515D01*
X167365324Y-94713028D01*
X167305715Y-94529571D01*
X167218141Y-94357698D01*
X167104759Y-94201641D01*
X166968359Y-94065241D01*
X166812302Y-93951859D01*
X166812303Y-93951859D01*
X166812301Y-93951858D01*
X166640434Y-93864287D01*
X166640424Y-93864283D01*
X166456969Y-93804675D01*
X166266458Y-93774500D01*
X166266449Y-93774500D01*
X166073551Y-93774500D01*
X166073541Y-93774500D01*
X165883030Y-93804675D01*
X165699575Y-93864283D01*
X165699565Y-93864287D01*
X165527698Y-93951858D01*
X165371644Y-94065238D01*
X165235238Y-94201644D01*
X165121858Y-94357698D01*
X165034287Y-94529565D01*
X165034283Y-94529575D01*
X164974675Y-94713030D01*
X164944500Y-94903541D01*
X147613000Y-94903541D01*
X147613000Y-94902525D01*
X147575484Y-94762515D01*
X147503009Y-94636985D01*
X147400515Y-94534491D01*
X147400512Y-94534489D01*
X147400511Y-94534488D01*
X147274987Y-94462017D01*
X147274982Y-94462015D01*
X147134975Y-94424500D01*
X146990025Y-94424500D01*
X146850017Y-94462015D01*
X146850012Y-94462017D01*
X146724488Y-94534488D01*
X146621988Y-94636988D01*
X146549517Y-94762512D01*
X146549515Y-94762517D01*
X146512000Y-94902524D01*
X135950500Y-94902524D01*
X135950500Y-94834108D01*
X135931317Y-94762517D01*
X135916393Y-94706818D01*
X135916392Y-94706814D01*
X135850500Y-94592686D01*
X135757314Y-94499500D01*
X135643186Y-94433608D01*
X135643183Y-94433607D01*
X135643181Y-94433606D01*
X135515892Y-94399500D01*
X135384108Y-94399500D01*
X135256816Y-94433607D01*
X135149499Y-94495566D01*
X135057499Y-94526795D01*
X134960553Y-94520440D01*
X134900501Y-94495566D01*
X134856816Y-94470345D01*
X134793186Y-94433608D01*
X134793183Y-94433607D01*
X134665892Y-94399500D01*
X134534108Y-94399500D01*
X134406818Y-94433606D01*
X134406815Y-94433607D01*
X134406814Y-94433608D01*
X134292686Y-94499500D01*
X134292684Y-94499501D01*
X134278552Y-94507661D01*
X134277783Y-94506329D01*
X134207451Y-94541015D01*
X134143001Y-94549500D01*
X132835822Y-94549500D01*
X132740534Y-94530546D01*
X132659752Y-94476570D01*
X131733752Y-93550570D01*
X131679776Y-93469788D01*
X131660822Y-93374500D01*
X131679776Y-93279212D01*
X131733752Y-93198430D01*
X131814534Y-93144454D01*
X131909822Y-93125500D01*
X132351866Y-93125500D01*
X132447154Y-93144454D01*
X132476362Y-93158857D01*
X132538614Y-93194799D01*
X132653191Y-93225500D01*
X132653195Y-93225500D01*
X132771805Y-93225500D01*
X132771809Y-93225500D01*
X132886386Y-93194799D01*
X132989113Y-93135489D01*
X133072989Y-93051613D01*
X133132299Y-92948886D01*
X133163000Y-92834309D01*
X133163000Y-92715691D01*
X133132299Y-92601114D01*
X133072989Y-92498387D01*
X132989113Y-92414511D01*
X132886386Y-92355201D01*
X132771809Y-92324500D01*
X132653191Y-92324500D01*
X132538614Y-92355201D01*
X132476365Y-92391140D01*
X132384368Y-92422370D01*
X132351866Y-92424500D01*
X117873322Y-92424500D01*
X117778034Y-92405546D01*
X117697252Y-92351570D01*
X116335930Y-90990248D01*
X116281954Y-90909466D01*
X116263000Y-90814178D01*
X116263000Y-89793982D01*
X133724500Y-89793982D01*
X133724500Y-89906018D01*
X133753497Y-90014237D01*
X133802286Y-90098742D01*
X133810595Y-90135971D01*
X133810854Y-90147132D01*
X133814444Y-90157707D01*
X133811975Y-90195372D01*
X133812852Y-90233099D01*
X133808820Y-90243510D01*
X133808090Y-90254654D01*
X133783215Y-90314708D01*
X133755522Y-90362674D01*
X133726525Y-90470893D01*
X133726525Y-90582930D01*
X133755522Y-90691151D01*
X133761767Y-90706227D01*
X133759956Y-90706976D01*
X133784473Y-90779209D01*
X133778115Y-90876156D01*
X133759681Y-90920659D01*
X133759742Y-90920685D01*
X133753497Y-90935760D01*
X133724500Y-91043981D01*
X133724500Y-91156018D01*
X133753497Y-91264238D01*
X133759999Y-91275500D01*
X133791229Y-91367499D01*
X133784875Y-91464446D01*
X133759999Y-91524500D01*
X133753497Y-91535761D01*
X133724500Y-91643981D01*
X133724500Y-91756018D01*
X133753496Y-91864236D01*
X133753497Y-91864237D01*
X133809515Y-91961263D01*
X133888737Y-92040485D01*
X133985763Y-92096503D01*
X134093982Y-92125500D01*
X134206018Y-92125500D01*
X134314237Y-92096503D01*
X134411263Y-92040485D01*
X134490485Y-91961263D01*
X134546503Y-91864237D01*
X134575500Y-91756018D01*
X134575500Y-91643982D01*
X134546503Y-91535763D01*
X134540001Y-91524501D01*
X134508771Y-91432509D01*
X134515122Y-91335561D01*
X134540000Y-91275500D01*
X134546503Y-91264237D01*
X134575500Y-91156018D01*
X134575500Y-91043982D01*
X134546503Y-90935763D01*
X134546502Y-90935762D01*
X134546502Y-90935760D01*
X134540258Y-90920685D01*
X134542069Y-90919934D01*
X134517552Y-90847709D01*
X134516578Y-90791246D01*
X134521776Y-90737484D01*
X134548528Y-90691149D01*
X134577525Y-90582930D01*
X134577525Y-90470894D01*
X134554271Y-90384107D01*
X137949500Y-90384107D01*
X137949500Y-90515892D01*
X137983606Y-90643181D01*
X137983607Y-90643183D01*
X137983608Y-90643186D01*
X138049500Y-90757314D01*
X138142686Y-90850500D01*
X138256814Y-90916392D01*
X138384108Y-90950500D01*
X138515892Y-90950500D01*
X138643186Y-90916392D01*
X138757314Y-90850500D01*
X138850500Y-90757314D01*
X138916392Y-90643186D01*
X138950500Y-90515892D01*
X138950500Y-90384108D01*
X138916392Y-90256814D01*
X138850500Y-90142686D01*
X138757314Y-90049500D01*
X138643186Y-89983608D01*
X138643183Y-89983607D01*
X138643181Y-89983606D01*
X138515892Y-89949500D01*
X138384108Y-89949500D01*
X138256818Y-89983606D01*
X138256814Y-89983607D01*
X138256814Y-89983608D01*
X138142686Y-90049500D01*
X138049500Y-90142686D01*
X138023660Y-90187443D01*
X137983606Y-90256818D01*
X137949500Y-90384107D01*
X134554271Y-90384107D01*
X134548528Y-90362675D01*
X134510124Y-90296158D01*
X134503612Y-90280054D01*
X134497719Y-90249070D01*
X134487581Y-90219205D01*
X134488723Y-90201773D01*
X134485459Y-90184610D01*
X134491871Y-90153729D01*
X134493934Y-90122258D01*
X134502904Y-90100601D01*
X134505213Y-90089484D01*
X134511082Y-90080857D01*
X134518808Y-90062205D01*
X134546503Y-90014237D01*
X134575500Y-89906018D01*
X134575500Y-89793982D01*
X134546503Y-89685763D01*
X134490485Y-89588737D01*
X134411263Y-89509515D01*
X134385263Y-89494504D01*
X134314236Y-89453496D01*
X134206018Y-89424500D01*
X134093982Y-89424500D01*
X133985763Y-89453496D01*
X133888738Y-89509514D01*
X133809514Y-89588738D01*
X133753496Y-89685763D01*
X133729829Y-89774092D01*
X133724500Y-89793982D01*
X116263000Y-89793982D01*
X116263000Y-88234107D01*
X134399497Y-88234107D01*
X134399497Y-88365892D01*
X134433603Y-88493181D01*
X134433604Y-88493183D01*
X134433605Y-88493186D01*
X134499497Y-88607314D01*
X134592683Y-88700500D01*
X134706811Y-88766392D01*
X134834105Y-88800500D01*
X134965889Y-88800500D01*
X135093183Y-88766392D01*
X135125500Y-88747733D01*
X135217494Y-88716505D01*
X135314441Y-88722858D01*
X135374496Y-88747733D01*
X135406814Y-88766392D01*
X135534108Y-88800500D01*
X135665892Y-88800500D01*
X135793186Y-88766392D01*
X135907314Y-88700500D01*
X136000500Y-88607314D01*
X136066392Y-88493186D01*
X136100500Y-88365892D01*
X136100500Y-88234108D01*
X136100500Y-88234107D01*
X136100500Y-88234106D01*
X136086601Y-88182235D01*
X136086600Y-88182234D01*
X136073705Y-88134108D01*
X137399500Y-88134108D01*
X137399500Y-88265892D01*
X137433608Y-88393186D01*
X137485967Y-88483875D01*
X137494246Y-88521514D01*
X137494463Y-88532292D01*
X137497928Y-88542500D01*
X137495434Y-88580537D01*
X137496202Y-88618649D01*
X137492278Y-88628689D01*
X137491573Y-88639447D01*
X137466699Y-88699498D01*
X137456881Y-88716505D01*
X137433607Y-88756816D01*
X137399500Y-88884107D01*
X137399500Y-89015892D01*
X137433606Y-89143181D01*
X137433607Y-89143183D01*
X137433608Y-89143186D01*
X137499500Y-89257314D01*
X137592686Y-89350500D01*
X137706814Y-89416392D01*
X137834108Y-89450500D01*
X137965892Y-89450500D01*
X138093186Y-89416392D01*
X138207314Y-89350500D01*
X138300500Y-89257314D01*
X138366392Y-89143186D01*
X138400500Y-89015892D01*
X138400500Y-88884108D01*
X138368958Y-88766392D01*
X138366393Y-88756817D01*
X138366392Y-88756816D01*
X138366392Y-88756814D01*
X138333299Y-88699495D01*
X138302071Y-88607502D01*
X138308425Y-88510555D01*
X138333297Y-88450506D01*
X138366392Y-88393186D01*
X138400500Y-88265892D01*
X138400500Y-88134108D01*
X138366392Y-88006814D01*
X138300500Y-87892686D01*
X138207314Y-87799500D01*
X138093186Y-87733608D01*
X138093183Y-87733607D01*
X138093181Y-87733606D01*
X137965892Y-87699500D01*
X137834108Y-87699500D01*
X137706818Y-87733606D01*
X137706814Y-87733607D01*
X137706814Y-87733608D01*
X137592686Y-87799500D01*
X137499500Y-87892686D01*
X137433606Y-88006818D01*
X137404739Y-88114552D01*
X137404739Y-88114553D01*
X137399500Y-88134108D01*
X136073705Y-88134108D01*
X136066392Y-88106814D01*
X136000500Y-87992686D01*
X135907314Y-87899500D01*
X135793186Y-87833608D01*
X135793183Y-87833607D01*
X135793181Y-87833606D01*
X135665892Y-87799500D01*
X135534108Y-87799500D01*
X135406815Y-87833607D01*
X135374495Y-87852267D01*
X135282495Y-87883495D01*
X135185548Y-87877140D01*
X135125500Y-87852266D01*
X135093183Y-87833608D01*
X135093180Y-87833607D01*
X134965889Y-87799500D01*
X134834105Y-87799500D01*
X134706815Y-87833606D01*
X134706811Y-87833607D01*
X134706811Y-87833608D01*
X134604485Y-87892686D01*
X134592683Y-87899500D01*
X134499497Y-87992686D01*
X134433603Y-88106818D01*
X134399497Y-88234107D01*
X116263000Y-88234107D01*
X116263000Y-86702524D01*
X142662000Y-86702524D01*
X142662000Y-86847475D01*
X142699515Y-86987482D01*
X142699517Y-86987487D01*
X142771988Y-87113011D01*
X142771989Y-87113012D01*
X142771991Y-87113015D01*
X142874485Y-87215509D01*
X143000015Y-87287984D01*
X143140025Y-87325500D01*
X143284974Y-87325500D01*
X143284975Y-87325500D01*
X143424985Y-87287984D01*
X143550515Y-87215509D01*
X143653009Y-87113015D01*
X143725484Y-86987485D01*
X143763000Y-86847475D01*
X143763000Y-86702525D01*
X143725484Y-86562515D01*
X143653009Y-86436985D01*
X143550515Y-86334491D01*
X143550512Y-86334489D01*
X143550511Y-86334488D01*
X143424987Y-86262017D01*
X143424982Y-86262015D01*
X143284975Y-86224500D01*
X143140025Y-86224500D01*
X143000017Y-86262015D01*
X143000012Y-86262017D01*
X142874488Y-86334488D01*
X142771988Y-86436988D01*
X142699517Y-86562512D01*
X142699515Y-86562517D01*
X142662000Y-86702524D01*
X116263000Y-86702524D01*
X116263000Y-80882524D01*
X146529500Y-80882524D01*
X146529500Y-81027475D01*
X146567015Y-81167482D01*
X146567017Y-81167487D01*
X146639488Y-81293011D01*
X146639489Y-81293012D01*
X146639491Y-81293015D01*
X146741985Y-81395509D01*
X146867515Y-81467984D01*
X147007525Y-81505500D01*
X147152474Y-81505500D01*
X147152475Y-81505500D01*
X147292485Y-81467984D01*
X147418015Y-81395509D01*
X147520509Y-81293015D01*
X147592984Y-81167485D01*
X147630500Y-81027475D01*
X147630500Y-80882525D01*
X147592984Y-80742515D01*
X147520509Y-80616985D01*
X147418015Y-80514491D01*
X147418012Y-80514489D01*
X147418011Y-80514488D01*
X147292487Y-80442017D01*
X147292482Y-80442015D01*
X147152475Y-80404500D01*
X147007525Y-80404500D01*
X146867517Y-80442015D01*
X146867512Y-80442017D01*
X146741988Y-80514488D01*
X146639488Y-80616988D01*
X146567017Y-80742512D01*
X146567015Y-80742517D01*
X146529500Y-80882524D01*
X116263000Y-80882524D01*
X116263000Y-75975323D01*
X119349500Y-75975323D01*
X119349500Y-78024676D01*
X119364033Y-78097739D01*
X119419397Y-78180599D01*
X119419400Y-78180602D01*
X119438234Y-78193186D01*
X119502260Y-78235966D01*
X119575324Y-78250499D01*
X119575325Y-78250500D01*
X119575326Y-78250500D01*
X122824675Y-78250500D01*
X122824675Y-78250499D01*
X122897740Y-78235966D01*
X122980601Y-78180601D01*
X123035966Y-78097740D01*
X123050500Y-78024674D01*
X123050500Y-77934107D01*
X137399500Y-77934107D01*
X137399500Y-78065892D01*
X137433606Y-78193181D01*
X137433607Y-78193183D01*
X137433608Y-78193186D01*
X137499500Y-78307314D01*
X137592686Y-78400500D01*
X137592688Y-78400501D01*
X137592689Y-78400502D01*
X137608033Y-78409361D01*
X137681077Y-78473420D01*
X137724047Y-78560556D01*
X137730401Y-78657503D01*
X137699170Y-78749502D01*
X137635111Y-78822546D01*
X137608033Y-78840639D01*
X137592689Y-78849497D01*
X137499500Y-78942686D01*
X137433606Y-79056818D01*
X137399500Y-79184107D01*
X137399500Y-79315892D01*
X137433606Y-79443181D01*
X137433607Y-79443183D01*
X137433608Y-79443186D01*
X137499500Y-79557314D01*
X137592686Y-79650500D01*
X137706814Y-79716392D01*
X137834108Y-79750500D01*
X137965892Y-79750500D01*
X138093186Y-79716392D01*
X138207314Y-79650500D01*
X138300500Y-79557314D01*
X138366392Y-79443186D01*
X138400500Y-79315892D01*
X138400500Y-79184108D01*
X138396055Y-79167520D01*
X146529500Y-79167520D01*
X146529500Y-79312471D01*
X146567015Y-79452478D01*
X146567017Y-79452483D01*
X146639488Y-79578007D01*
X146639489Y-79578008D01*
X146639491Y-79578011D01*
X146741985Y-79680505D01*
X146867515Y-79752980D01*
X147007525Y-79790496D01*
X147152474Y-79790496D01*
X147152475Y-79790496D01*
X147292485Y-79752980D01*
X147418015Y-79680505D01*
X147520509Y-79578011D01*
X147592984Y-79452481D01*
X147630500Y-79312471D01*
X147630500Y-79167521D01*
X147592984Y-79027511D01*
X147520509Y-78901981D01*
X147418015Y-78799487D01*
X147418012Y-78799485D01*
X147418011Y-78799484D01*
X147292487Y-78727013D01*
X147292482Y-78727011D01*
X147152475Y-78689496D01*
X147007525Y-78689496D01*
X146867517Y-78727011D01*
X146867512Y-78727013D01*
X146741988Y-78799484D01*
X146639488Y-78901984D01*
X146567017Y-79027508D01*
X146567015Y-79027513D01*
X146529500Y-79167520D01*
X138396055Y-79167520D01*
X138366393Y-79056818D01*
X138366392Y-79056814D01*
X138300500Y-78942686D01*
X138207314Y-78849500D01*
X138207311Y-78849498D01*
X138207310Y-78849497D01*
X138191970Y-78840641D01*
X138118924Y-78776583D01*
X138075953Y-78689448D01*
X138069598Y-78592501D01*
X138100827Y-78500502D01*
X138164885Y-78427456D01*
X138191970Y-78409359D01*
X138196121Y-78406961D01*
X138207314Y-78400500D01*
X138300500Y-78307314D01*
X138366392Y-78193186D01*
X138400500Y-78065892D01*
X138400500Y-77934108D01*
X138366392Y-77806814D01*
X138300500Y-77692686D01*
X138207314Y-77599500D01*
X138093186Y-77533608D01*
X138093183Y-77533607D01*
X138093181Y-77533606D01*
X137965892Y-77499500D01*
X137834108Y-77499500D01*
X137706818Y-77533606D01*
X137706814Y-77533607D01*
X137706814Y-77533608D01*
X137592686Y-77599500D01*
X137499500Y-77692686D01*
X137433606Y-77806818D01*
X137399500Y-77934107D01*
X123050500Y-77934107D01*
X123050500Y-76632524D01*
X146529500Y-76632524D01*
X146529500Y-76777475D01*
X146567015Y-76917482D01*
X146567017Y-76917487D01*
X146639488Y-77043011D01*
X146639489Y-77043012D01*
X146639491Y-77043015D01*
X146741985Y-77145509D01*
X146867515Y-77217984D01*
X147007525Y-77255500D01*
X147152474Y-77255500D01*
X147152475Y-77255500D01*
X147292485Y-77217984D01*
X147418015Y-77145509D01*
X147520509Y-77043015D01*
X147592984Y-76917485D01*
X147630500Y-76777475D01*
X147630500Y-76632525D01*
X147592984Y-76492515D01*
X147520509Y-76366985D01*
X147418015Y-76264491D01*
X147418012Y-76264489D01*
X147418011Y-76264488D01*
X147292487Y-76192017D01*
X147292482Y-76192015D01*
X147152475Y-76154500D01*
X147007525Y-76154500D01*
X146867517Y-76192015D01*
X146867512Y-76192017D01*
X146741988Y-76264488D01*
X146639488Y-76366988D01*
X146567017Y-76492512D01*
X146567015Y-76492517D01*
X146529500Y-76632524D01*
X123050500Y-76632524D01*
X123050500Y-75975326D01*
X123035966Y-75902260D01*
X122980601Y-75819399D01*
X122980599Y-75819397D01*
X122925607Y-75782653D01*
X122897740Y-75764034D01*
X122897739Y-75764033D01*
X122824676Y-75749500D01*
X122824674Y-75749500D01*
X119575326Y-75749500D01*
X119575323Y-75749500D01*
X119502260Y-75764033D01*
X119419400Y-75819397D01*
X119419397Y-75819400D01*
X119364033Y-75902260D01*
X119349500Y-75975323D01*
X116263000Y-75975323D01*
X116263000Y-73801587D01*
X126949500Y-73801587D01*
X126949500Y-73998412D01*
X126949501Y-73998428D01*
X126980290Y-74192822D01*
X127016243Y-74303476D01*
X127041116Y-74380025D01*
X127130476Y-74555405D01*
X127130479Y-74555409D01*
X127130479Y-74555410D01*
X127241602Y-74708356D01*
X127246172Y-74714646D01*
X127385354Y-74853828D01*
X127397459Y-74862623D01*
X127493670Y-74932525D01*
X127544595Y-74969524D01*
X127719975Y-75058884D01*
X127907174Y-75119709D01*
X128101583Y-75150500D01*
X128101587Y-75150500D01*
X128298413Y-75150500D01*
X128298417Y-75150500D01*
X128492826Y-75119709D01*
X128680025Y-75058884D01*
X128855405Y-74969524D01*
X128906331Y-74932524D01*
X146529500Y-74932524D01*
X146529500Y-75077475D01*
X146567015Y-75217482D01*
X146567017Y-75217487D01*
X146639488Y-75343011D01*
X146639489Y-75343012D01*
X146639491Y-75343015D01*
X146741985Y-75445509D01*
X146741987Y-75445510D01*
X146741988Y-75445511D01*
X146785156Y-75470434D01*
X146867515Y-75517984D01*
X147007525Y-75555500D01*
X147152474Y-75555500D01*
X147152475Y-75555500D01*
X147292485Y-75517984D01*
X147418015Y-75445509D01*
X147520509Y-75343015D01*
X147592984Y-75217485D01*
X147630500Y-75077475D01*
X147630500Y-74932525D01*
X147622734Y-74903541D01*
X164944500Y-74903541D01*
X164944500Y-75096458D01*
X164974675Y-75286969D01*
X165034283Y-75470424D01*
X165034287Y-75470434D01*
X165121858Y-75642301D01*
X165199743Y-75749500D01*
X165235241Y-75798359D01*
X165371641Y-75934759D01*
X165527698Y-76048141D01*
X165699571Y-76135715D01*
X165883028Y-76195324D01*
X165950037Y-76205937D01*
X166073541Y-76225499D01*
X166073548Y-76225499D01*
X166073551Y-76225500D01*
X166073554Y-76225500D01*
X166266446Y-76225500D01*
X166266449Y-76225500D01*
X166266452Y-76225499D01*
X166266458Y-76225499D01*
X166356458Y-76211243D01*
X166456972Y-76195324D01*
X166640429Y-76135715D01*
X166812302Y-76048141D01*
X166968359Y-75934759D01*
X167104759Y-75798359D01*
X167218141Y-75642302D01*
X167305715Y-75470429D01*
X167365324Y-75286972D01*
X167386939Y-75150500D01*
X167395499Y-75096458D01*
X167395500Y-75096446D01*
X167395500Y-74903553D01*
X167395499Y-74903541D01*
X170024500Y-74903541D01*
X170024500Y-75096458D01*
X170054675Y-75286969D01*
X170114283Y-75470424D01*
X170114287Y-75470434D01*
X170201858Y-75642301D01*
X170279743Y-75749500D01*
X170315241Y-75798359D01*
X170451641Y-75934759D01*
X170607698Y-76048141D01*
X170779571Y-76135715D01*
X170963028Y-76195324D01*
X171030037Y-76205937D01*
X171153541Y-76225499D01*
X171153548Y-76225499D01*
X171153551Y-76225500D01*
X171153554Y-76225500D01*
X171346446Y-76225500D01*
X171346449Y-76225500D01*
X171346452Y-76225499D01*
X171346458Y-76225499D01*
X171436458Y-76211243D01*
X171536972Y-76195324D01*
X171720429Y-76135715D01*
X171892302Y-76048141D01*
X172048359Y-75934759D01*
X172184759Y-75798359D01*
X172298141Y-75642302D01*
X172385715Y-75470429D01*
X172445324Y-75286972D01*
X172466939Y-75150500D01*
X172475499Y-75096458D01*
X172475500Y-75096446D01*
X172475500Y-74903553D01*
X172475499Y-74903541D01*
X172448333Y-74732026D01*
X172445324Y-74713028D01*
X172385715Y-74529571D01*
X172298141Y-74357698D01*
X172184759Y-74201641D01*
X172048359Y-74065241D01*
X172048355Y-74065238D01*
X171892301Y-73951858D01*
X171720434Y-73864287D01*
X171720424Y-73864283D01*
X171536969Y-73804675D01*
X171346458Y-73774500D01*
X171346449Y-73774500D01*
X171153551Y-73774500D01*
X171153541Y-73774500D01*
X170963030Y-73804675D01*
X170779575Y-73864283D01*
X170779565Y-73864287D01*
X170607698Y-73951858D01*
X170451644Y-74065238D01*
X170315238Y-74201644D01*
X170201858Y-74357698D01*
X170114287Y-74529565D01*
X170114283Y-74529575D01*
X170054675Y-74713030D01*
X170024500Y-74903541D01*
X167395499Y-74903541D01*
X167368333Y-74732026D01*
X167365324Y-74713028D01*
X167305715Y-74529571D01*
X167218141Y-74357698D01*
X167104759Y-74201641D01*
X166968359Y-74065241D01*
X166968355Y-74065238D01*
X166812301Y-73951858D01*
X166640434Y-73864287D01*
X166640424Y-73864283D01*
X166456969Y-73804675D01*
X166266458Y-73774500D01*
X166266449Y-73774500D01*
X166073551Y-73774500D01*
X166073541Y-73774500D01*
X165883030Y-73804675D01*
X165699575Y-73864283D01*
X165699565Y-73864287D01*
X165527698Y-73951858D01*
X165371644Y-74065238D01*
X165235238Y-74201644D01*
X165121858Y-74357698D01*
X165034287Y-74529565D01*
X165034283Y-74529575D01*
X164974675Y-74713030D01*
X164944500Y-74903541D01*
X147622734Y-74903541D01*
X147592984Y-74792515D01*
X147547092Y-74713028D01*
X147520511Y-74666988D01*
X147520510Y-74666987D01*
X147520509Y-74666985D01*
X147418015Y-74564491D01*
X147418012Y-74564489D01*
X147418011Y-74564488D01*
X147292487Y-74492017D01*
X147292482Y-74492015D01*
X147152475Y-74454500D01*
X147007525Y-74454500D01*
X146867517Y-74492015D01*
X146867512Y-74492017D01*
X146741988Y-74564488D01*
X146639488Y-74666988D01*
X146567017Y-74792512D01*
X146567015Y-74792517D01*
X146529500Y-74932524D01*
X128906331Y-74932524D01*
X129014646Y-74853828D01*
X129153828Y-74714646D01*
X129269524Y-74555405D01*
X129358884Y-74380025D01*
X129419709Y-74192826D01*
X129450500Y-73998417D01*
X129450500Y-73801583D01*
X129419709Y-73607174D01*
X129358884Y-73419975D01*
X129269524Y-73244595D01*
X129266382Y-73240271D01*
X129153830Y-73085357D01*
X129153828Y-73085354D01*
X129014646Y-72946172D01*
X129014642Y-72946169D01*
X128855410Y-72830479D01*
X128855407Y-72830477D01*
X128855405Y-72830476D01*
X128680025Y-72741116D01*
X128680024Y-72741115D01*
X128680023Y-72741115D01*
X128680017Y-72741113D01*
X128572928Y-72706318D01*
X128492826Y-72680291D01*
X128492824Y-72680290D01*
X128492822Y-72680290D01*
X128298428Y-72649501D01*
X128298419Y-72649500D01*
X128298417Y-72649500D01*
X128101583Y-72649500D01*
X128101580Y-72649500D01*
X128101571Y-72649501D01*
X127907177Y-72680290D01*
X127719982Y-72741113D01*
X127719976Y-72741115D01*
X127628740Y-72787602D01*
X127544595Y-72830476D01*
X127544592Y-72830477D01*
X127544590Y-72830479D01*
X127544589Y-72830479D01*
X127385357Y-72946169D01*
X127246169Y-73085357D01*
X127130479Y-73244589D01*
X127130479Y-73244590D01*
X127130477Y-73244592D01*
X127130476Y-73244595D01*
X127105598Y-73293421D01*
X127041115Y-73419976D01*
X127041113Y-73419982D01*
X126980290Y-73607177D01*
X126949501Y-73801571D01*
X126949500Y-73801587D01*
X116263000Y-73801587D01*
X116263000Y-71447524D01*
X133549500Y-71447524D01*
X133549500Y-71592475D01*
X133587015Y-71732482D01*
X133587017Y-71732487D01*
X133659488Y-71858011D01*
X133659489Y-71858012D01*
X133659491Y-71858015D01*
X133761985Y-71960509D01*
X133761987Y-71960510D01*
X133773526Y-71972049D01*
X133772075Y-71973499D01*
X133822067Y-72030506D01*
X133853294Y-72122506D01*
X133846937Y-72219452D01*
X133803964Y-72306587D01*
X133773063Y-72337488D01*
X133773526Y-72337951D01*
X133761987Y-72349489D01*
X133761985Y-72349491D01*
X133659491Y-72451985D01*
X133659489Y-72451987D01*
X133659488Y-72451988D01*
X133587017Y-72577512D01*
X133587015Y-72577517D01*
X133549500Y-72717524D01*
X133549500Y-72862475D01*
X133587015Y-73002482D01*
X133587017Y-73002487D01*
X133659488Y-73128011D01*
X133659489Y-73128012D01*
X133659491Y-73128015D01*
X133761985Y-73230509D01*
X133761987Y-73230510D01*
X133774933Y-73240444D01*
X133774008Y-73241649D01*
X133833041Y-73293421D01*
X133876010Y-73380558D01*
X133882363Y-73477505D01*
X133851133Y-73569503D01*
X133787073Y-73642547D01*
X133763808Y-73658092D01*
X133761987Y-73659489D01*
X133659488Y-73761988D01*
X133587017Y-73887512D01*
X133587015Y-73887517D01*
X133549500Y-74027524D01*
X133549500Y-74172475D01*
X133587015Y-74312482D01*
X133587017Y-74312487D01*
X133659488Y-74438011D01*
X133659489Y-74438012D01*
X133659491Y-74438015D01*
X133761985Y-74540509D01*
X133761987Y-74540510D01*
X133761988Y-74540511D01*
X133787792Y-74555409D01*
X133887515Y-74612984D01*
X134027525Y-74650500D01*
X134172474Y-74650500D01*
X134172475Y-74650500D01*
X134312485Y-74612984D01*
X134438015Y-74540509D01*
X134540509Y-74438015D01*
X134612984Y-74312485D01*
X134650500Y-74172475D01*
X134650500Y-74027525D01*
X134642700Y-73998417D01*
X134630225Y-73951858D01*
X134612984Y-73887515D01*
X134540509Y-73761985D01*
X134438015Y-73659491D01*
X134438012Y-73659489D01*
X134425067Y-73649556D01*
X134425992Y-73648350D01*
X134366963Y-73596586D01*
X134323991Y-73509451D01*
X134317635Y-73412504D01*
X134348862Y-73320505D01*
X134412919Y-73247458D01*
X134436186Y-73231911D01*
X134438008Y-73230512D01*
X134438015Y-73230509D01*
X134540509Y-73128015D01*
X134612984Y-73002485D01*
X134650500Y-72862475D01*
X134650500Y-72717525D01*
X134612984Y-72577515D01*
X134540509Y-72451985D01*
X134438015Y-72349491D01*
X134438012Y-72349489D01*
X134426474Y-72337951D01*
X134427924Y-72336500D01*
X134377939Y-72279506D01*
X134346707Y-72187508D01*
X134353059Y-72090561D01*
X134396027Y-72003424D01*
X134426938Y-71972513D01*
X134426474Y-71972049D01*
X134438012Y-71960510D01*
X134438015Y-71960509D01*
X134540509Y-71858015D01*
X134612984Y-71732485D01*
X134650500Y-71592475D01*
X134650500Y-71447525D01*
X134647890Y-71437786D01*
X134627268Y-71360822D01*
X134612984Y-71307515D01*
X134540509Y-71181985D01*
X134438015Y-71079491D01*
X134438012Y-71079489D01*
X134438011Y-71079488D01*
X134312487Y-71007017D01*
X134312482Y-71007015D01*
X134172475Y-70969500D01*
X134027525Y-70969500D01*
X133887517Y-71007015D01*
X133887512Y-71007017D01*
X133761988Y-71079488D01*
X133659488Y-71181988D01*
X133587017Y-71307512D01*
X133587015Y-71307517D01*
X133549500Y-71447524D01*
X116263000Y-71447524D01*
X116263000Y-71066353D01*
X116247100Y-71007016D01*
X116239114Y-70977212D01*
X116226408Y-70955205D01*
X116192970Y-70897288D01*
X115023430Y-69727748D01*
X114969454Y-69646966D01*
X114950500Y-69551678D01*
X114950500Y-68801587D01*
X126949500Y-68801587D01*
X126949500Y-68998412D01*
X126949501Y-68998428D01*
X126980290Y-69192822D01*
X127039606Y-69375380D01*
X127041116Y-69380025D01*
X127130476Y-69555405D01*
X127130479Y-69555409D01*
X127130479Y-69555410D01*
X127196999Y-69646966D01*
X127246172Y-69714646D01*
X127385354Y-69853828D01*
X127438434Y-69892393D01*
X127482864Y-69924674D01*
X127544595Y-69969524D01*
X127719975Y-70058884D01*
X127907174Y-70119709D01*
X128101583Y-70150500D01*
X128101587Y-70150500D01*
X128298413Y-70150500D01*
X128298417Y-70150500D01*
X128492826Y-70119709D01*
X128680025Y-70058884D01*
X128855405Y-69969524D01*
X129014646Y-69853828D01*
X129153828Y-69714646D01*
X129269524Y-69555405D01*
X129358884Y-69380025D01*
X129419709Y-69192826D01*
X129450500Y-68998417D01*
X129450500Y-68897789D01*
X135945300Y-68897789D01*
X135945300Y-69062211D01*
X135971281Y-69192826D01*
X135977378Y-69223476D01*
X136040295Y-69375373D01*
X136040298Y-69375380D01*
X136107974Y-69476663D01*
X136145153Y-69566422D01*
X136145154Y-69663577D01*
X136107974Y-69753337D01*
X136040298Y-69854619D01*
X136040295Y-69854626D01*
X135977378Y-70006523D01*
X135977377Y-70006526D01*
X135977377Y-70006527D01*
X135945300Y-70167789D01*
X135945300Y-70332211D01*
X135977377Y-70493473D01*
X135977378Y-70493476D01*
X136040295Y-70645373D01*
X136040298Y-70645380D01*
X136107974Y-70746663D01*
X136145153Y-70836422D01*
X136145154Y-70933577D01*
X136107974Y-71023337D01*
X136040298Y-71124619D01*
X136040295Y-71124626D01*
X135977378Y-71276523D01*
X135977377Y-71276526D01*
X135977377Y-71276527D01*
X135945300Y-71437789D01*
X135945300Y-71602211D01*
X135971214Y-71732487D01*
X135977378Y-71763476D01*
X136040295Y-71915373D01*
X136040298Y-71915380D01*
X136107974Y-72016663D01*
X136145153Y-72106422D01*
X136145154Y-72203577D01*
X136107974Y-72293337D01*
X136040298Y-72394619D01*
X136040295Y-72394626D01*
X135977378Y-72546523D01*
X135977377Y-72546526D01*
X135977377Y-72546527D01*
X135945300Y-72707789D01*
X135945300Y-72872211D01*
X135971214Y-73002487D01*
X135977378Y-73033476D01*
X136040295Y-73185373D01*
X136040298Y-73185380D01*
X136107974Y-73286663D01*
X136145153Y-73376422D01*
X136145154Y-73473577D01*
X136107974Y-73563337D01*
X136040298Y-73664619D01*
X136040295Y-73664626D01*
X135977378Y-73816523D01*
X135977377Y-73816526D01*
X135977377Y-73816527D01*
X135945300Y-73977789D01*
X135945300Y-74142211D01*
X135957122Y-74201644D01*
X135977378Y-74303476D01*
X136040295Y-74455373D01*
X136040298Y-74455380D01*
X136131643Y-74592086D01*
X136131646Y-74592090D01*
X136247910Y-74708354D01*
X136247913Y-74708356D01*
X136384619Y-74799701D01*
X136384620Y-74799701D01*
X136384621Y-74799702D01*
X136536527Y-74862623D01*
X136697789Y-74894700D01*
X136697792Y-74894700D01*
X136862208Y-74894700D01*
X136862211Y-74894700D01*
X137023473Y-74862623D01*
X137175379Y-74799702D01*
X137276663Y-74732025D01*
X137366421Y-74694846D01*
X137463576Y-74694845D01*
X137553331Y-74732022D01*
X137590871Y-74757105D01*
X137654617Y-74799700D01*
X137654620Y-74799701D01*
X137654621Y-74799702D01*
X137806527Y-74862623D01*
X137967789Y-74894700D01*
X137967792Y-74894700D01*
X138132208Y-74894700D01*
X138132211Y-74894700D01*
X138293473Y-74862623D01*
X138445379Y-74799702D01*
X138546666Y-74732024D01*
X138580872Y-74709168D01*
X138580873Y-74709167D01*
X138582090Y-74708354D01*
X138698354Y-74592090D01*
X138789702Y-74455379D01*
X138852623Y-74303473D01*
X138884700Y-74142211D01*
X138884700Y-73977789D01*
X138852623Y-73816527D01*
X138789702Y-73664621D01*
X138786274Y-73659491D01*
X138698356Y-73527913D01*
X138698354Y-73527910D01*
X138582090Y-73411646D01*
X138582086Y-73411643D01*
X138445380Y-73320298D01*
X138445373Y-73320295D01*
X138293476Y-73257378D01*
X138293474Y-73257377D01*
X138293473Y-73257377D01*
X138132211Y-73225300D01*
X137967789Y-73225300D01*
X137892520Y-73240272D01*
X137795365Y-73240271D01*
X137705605Y-73203091D01*
X137636907Y-73134392D01*
X137599727Y-73044633D01*
X137599728Y-72947478D01*
X137614700Y-72872211D01*
X137614700Y-72707789D01*
X137582623Y-72546527D01*
X137519702Y-72394621D01*
X137519701Y-72394619D01*
X137519700Y-72394617D01*
X137452026Y-72293338D01*
X137414846Y-72203579D01*
X137414845Y-72106424D01*
X137452022Y-72016668D01*
X137519702Y-71915379D01*
X137582623Y-71763473D01*
X137614700Y-71602211D01*
X137614700Y-71437789D01*
X137599727Y-71362519D01*
X137599727Y-71265367D01*
X137636906Y-71175608D01*
X137705604Y-71106908D01*
X137795364Y-71069728D01*
X137892514Y-71069727D01*
X137967789Y-71084700D01*
X138132208Y-71084700D01*
X138132211Y-71084700D01*
X138293473Y-71052623D01*
X138445379Y-70989702D01*
X138582090Y-70898354D01*
X138698354Y-70782090D01*
X138789702Y-70645379D01*
X138852623Y-70493473D01*
X138884700Y-70332211D01*
X138884700Y-70167789D01*
X138852623Y-70006527D01*
X138789702Y-69854621D01*
X138789173Y-69853830D01*
X138698356Y-69717913D01*
X138698354Y-69717910D01*
X138582090Y-69601646D01*
X138582086Y-69601643D01*
X138445380Y-69510298D01*
X138445373Y-69510295D01*
X138293476Y-69447378D01*
X138293474Y-69447377D01*
X138293473Y-69447377D01*
X138132211Y-69415300D01*
X137967789Y-69415300D01*
X137892520Y-69430272D01*
X137795365Y-69430271D01*
X137705605Y-69393091D01*
X137636907Y-69324392D01*
X137599727Y-69234633D01*
X137599728Y-69137478D01*
X137614700Y-69062211D01*
X137614700Y-68897789D01*
X137582623Y-68736527D01*
X137519702Y-68584621D01*
X137428354Y-68447910D01*
X137312090Y-68331646D01*
X137312086Y-68331643D01*
X137175380Y-68240298D01*
X137175373Y-68240295D01*
X137023476Y-68177378D01*
X137023474Y-68177377D01*
X137023473Y-68177377D01*
X136862211Y-68145300D01*
X136697789Y-68145300D01*
X136536527Y-68177377D01*
X136536526Y-68177377D01*
X136536523Y-68177378D01*
X136384626Y-68240295D01*
X136384619Y-68240298D01*
X136247913Y-68331643D01*
X136131643Y-68447913D01*
X136040298Y-68584619D01*
X136040295Y-68584626D01*
X135977378Y-68736523D01*
X135977377Y-68736526D01*
X135977377Y-68736527D01*
X135945300Y-68897789D01*
X129450500Y-68897789D01*
X129450500Y-68801583D01*
X129419709Y-68607174D01*
X129358884Y-68419975D01*
X129269524Y-68244595D01*
X129153828Y-68085354D01*
X129014646Y-67946172D01*
X129014642Y-67946169D01*
X128855410Y-67830479D01*
X128855407Y-67830477D01*
X128855405Y-67830476D01*
X128680025Y-67741116D01*
X128680024Y-67741115D01*
X128680023Y-67741115D01*
X128680017Y-67741113D01*
X128572928Y-67706318D01*
X128492826Y-67680291D01*
X128492824Y-67680290D01*
X128492822Y-67680290D01*
X128298428Y-67649501D01*
X128298419Y-67649500D01*
X128298417Y-67649500D01*
X128101583Y-67649500D01*
X128101580Y-67649500D01*
X128101571Y-67649501D01*
X127907177Y-67680290D01*
X127719982Y-67741113D01*
X127719976Y-67741115D01*
X127628740Y-67787602D01*
X127544595Y-67830476D01*
X127544592Y-67830477D01*
X127544590Y-67830479D01*
X127544589Y-67830479D01*
X127385357Y-67946169D01*
X127246169Y-68085357D01*
X127130479Y-68244589D01*
X127130479Y-68244590D01*
X127041115Y-68419976D01*
X127041113Y-68419982D01*
X126980290Y-68607177D01*
X126949501Y-68801571D01*
X126949500Y-68801587D01*
X114950500Y-68801587D01*
X114950500Y-67875325D01*
X114950499Y-67875323D01*
X114941578Y-67830476D01*
X114935966Y-67802260D01*
X114880601Y-67719399D01*
X114880599Y-67719397D01*
X114822069Y-67680290D01*
X114797740Y-67664034D01*
X114797739Y-67664033D01*
X114724676Y-67649500D01*
X114724674Y-67649500D01*
X112675326Y-67649500D01*
X112675323Y-67649500D01*
X112602260Y-67664033D01*
X112519400Y-67719397D01*
X112519397Y-67719400D01*
X112464033Y-67802260D01*
X112449500Y-67875323D01*
X110613000Y-67875323D01*
X110613000Y-64775323D01*
X119349500Y-64775323D01*
X119349500Y-66824676D01*
X119364033Y-66897739D01*
X119419397Y-66980599D01*
X119419399Y-66980601D01*
X119502260Y-67035966D01*
X119575324Y-67050499D01*
X119575325Y-67050500D01*
X119575326Y-67050500D01*
X122824675Y-67050500D01*
X122824675Y-67050499D01*
X122897740Y-67035966D01*
X122980601Y-66980601D01*
X123035966Y-66897740D01*
X123049933Y-66827524D01*
X142699500Y-66827524D01*
X142699500Y-66972475D01*
X142737015Y-67112482D01*
X142737017Y-67112487D01*
X142809488Y-67238011D01*
X142809489Y-67238012D01*
X142809491Y-67238015D01*
X142911985Y-67340509D01*
X143037515Y-67412984D01*
X143177525Y-67450500D01*
X143322474Y-67450500D01*
X143322475Y-67450500D01*
X143462485Y-67412984D01*
X143588015Y-67340509D01*
X143690509Y-67238015D01*
X143762984Y-67112485D01*
X143800500Y-66972475D01*
X143800500Y-66827525D01*
X143799736Y-66824675D01*
X143787994Y-66780855D01*
X143762984Y-66687515D01*
X143690509Y-66561985D01*
X143588015Y-66459491D01*
X143588012Y-66459489D01*
X143588011Y-66459488D01*
X143462487Y-66387017D01*
X143462482Y-66387015D01*
X143322475Y-66349500D01*
X143177525Y-66349500D01*
X143037517Y-66387015D01*
X143037512Y-66387017D01*
X142911988Y-66459488D01*
X142809488Y-66561988D01*
X142737017Y-66687512D01*
X142737015Y-66687517D01*
X142699500Y-66827524D01*
X123049933Y-66827524D01*
X123050500Y-66824674D01*
X123050500Y-64775326D01*
X123035966Y-64702260D01*
X122980601Y-64619399D01*
X122980599Y-64619397D01*
X122925607Y-64582653D01*
X122897740Y-64564034D01*
X122897739Y-64564033D01*
X122824676Y-64549500D01*
X122824674Y-64549500D01*
X119575326Y-64549500D01*
X119575323Y-64549500D01*
X119502260Y-64564033D01*
X119419400Y-64619397D01*
X119419397Y-64619400D01*
X119364033Y-64702260D01*
X119349500Y-64775323D01*
X110613000Y-64775323D01*
X110613000Y-63174500D01*
X110631954Y-63079212D01*
X110685930Y-62998430D01*
X110766712Y-62944454D01*
X110862000Y-62925500D01*
X177663000Y-62925500D01*
X177758288Y-62944454D01*
G37*
%TD.AperFunction*%
%TD*%
M02*
