%TF.GenerationSoftware,KiCad,Pcbnew,9.0.4*%
%TF.CreationDate,2025-12-21T19:05:22-05:00*%
%TF.ProjectId,esc,6573632e-6b69-4636-9164-5f7063625858,rev?*%
%TF.SameCoordinates,Original*%
%TF.FileFunction,Soldermask,Bot*%
%TF.FilePolarity,Negative*%
%FSLAX46Y46*%
G04 Gerber Fmt 4.6, Leading zero omitted, Abs format (unit mm)*
G04 Created by KiCad (PCBNEW 9.0.4) date 2025-12-21 19:05:22*
%MOMM*%
%LPD*%
G01*
G04 APERTURE LIST*
G04 Aperture macros list*
%AMRoundRect*
0 Rectangle with rounded corners*
0 $1 Rounding radius*
0 $2 $3 $4 $5 $6 $7 $8 $9 X,Y pos of 4 corners*
0 Add a 4 corners polygon primitive as box body*
4,1,4,$2,$3,$4,$5,$6,$7,$8,$9,$2,$3,0*
0 Add four circle primitives for the rounded corners*
1,1,$1+$1,$2,$3*
1,1,$1+$1,$4,$5*
1,1,$1+$1,$6,$7*
1,1,$1+$1,$8,$9*
0 Add four rect primitives between the rounded corners*
20,1,$1+$1,$2,$3,$4,$5,0*
20,1,$1+$1,$4,$5,$6,$7,0*
20,1,$1+$1,$6,$7,$8,$9,0*
20,1,$1+$1,$8,$9,$2,$3,0*%
G04 Aperture macros list end*
%ADD10R,2.000000X2.000000*%
%ADD11C,2.000000*%
%ADD12R,3.200000X2.000000*%
%ADD13C,2.154000*%
%ADD14C,1.168400*%
%ADD15RoundRect,0.112500X0.187500X0.112500X-0.187500X0.112500X-0.187500X-0.112500X0.187500X-0.112500X0*%
%ADD16RoundRect,0.102000X0.305000X-0.635000X0.305000X0.635000X-0.305000X0.635000X-0.305000X-0.635000X0*%
%ADD17RoundRect,0.102000X0.305000X-0.510000X0.305000X0.510000X-0.305000X0.510000X-0.305000X-0.510000X0*%
%ADD18RoundRect,0.102000X1.905000X-1.955000X1.905000X1.955000X-1.905000X1.955000X-1.905000X-1.955000X0*%
%ADD19RoundRect,0.250000X0.325000X0.650000X-0.325000X0.650000X-0.325000X-0.650000X0.325000X-0.650000X0*%
%ADD20RoundRect,0.250000X0.312500X0.625000X-0.312500X0.625000X-0.312500X-0.625000X0.312500X-0.625000X0*%
%ADD21RoundRect,0.250000X-0.325000X-0.650000X0.325000X-0.650000X0.325000X0.650000X-0.325000X0.650000X0*%
%ADD22RoundRect,0.250000X0.450000X-0.262500X0.450000X0.262500X-0.450000X0.262500X-0.450000X-0.262500X0*%
%ADD23RoundRect,0.225000X0.225000X0.250000X-0.225000X0.250000X-0.225000X-0.250000X0.225000X-0.250000X0*%
%ADD24RoundRect,0.250000X0.262500X0.450000X-0.262500X0.450000X-0.262500X-0.450000X0.262500X-0.450000X0*%
%ADD25RoundRect,0.250000X-0.262500X-0.450000X0.262500X-0.450000X0.262500X0.450000X-0.262500X0.450000X0*%
%ADD26RoundRect,0.100500X-0.986500X-0.301500X0.986500X-0.301500X0.986500X0.301500X-0.986500X0.301500X0*%
%ADD27RoundRect,0.250000X-0.250000X-0.475000X0.250000X-0.475000X0.250000X0.475000X-0.250000X0.475000X0*%
G04 APERTURE END LIST*
D10*
%TO.C,SW1*%
X113700000Y-68900000D03*
D11*
X113700000Y-73900000D03*
X113700000Y-71400000D03*
D12*
X121200000Y-65800000D03*
X121200000Y-77000000D03*
D11*
X128200000Y-73900000D03*
X128200000Y-68900000D03*
%TD*%
D13*
%TO.C,J4*%
X166170000Y-115000000D03*
X171250000Y-115000000D03*
%TD*%
%TO.C,J2*%
X166170000Y-75000000D03*
X171250000Y-75000000D03*
%TD*%
D14*
%TO.C,J5*%
X138050000Y-74060000D03*
X136780000Y-74060000D03*
X138050000Y-72790000D03*
X136780000Y-72790000D03*
X138050000Y-71520000D03*
X136780000Y-71520000D03*
X138050000Y-70250000D03*
X136780000Y-70250000D03*
X138050000Y-68980000D03*
X136780000Y-68980000D03*
%TD*%
D13*
%TO.C,J1*%
X115750000Y-117250000D03*
X115750000Y-122250000D03*
%TD*%
%TO.C,J3*%
X166170000Y-95000000D03*
X171250000Y-95000000D03*
%TD*%
D15*
%TO.C,D4*%
X144730000Y-123705000D03*
X142630000Y-123705000D03*
%TD*%
D16*
%TO.C,Q1*%
X158235000Y-73675000D03*
X156965000Y-73675000D03*
X155695000Y-73675000D03*
X154425000Y-73675000D03*
D17*
X154425000Y-68210000D03*
X155695000Y-68210000D03*
X156965000Y-68210000D03*
X158235000Y-68210000D03*
D18*
X156330000Y-70315000D03*
%TD*%
D16*
%TO.C,Q5*%
X158290000Y-113675000D03*
X157020000Y-113675000D03*
X155750000Y-113675000D03*
X154480000Y-113675000D03*
D17*
X154480000Y-108210000D03*
X155750000Y-108210000D03*
X157020000Y-108210000D03*
X158290000Y-108210000D03*
D18*
X156385000Y-110315000D03*
%TD*%
D19*
%TO.C,C21*%
X136475000Y-101250000D03*
X133525000Y-101250000D03*
%TD*%
D20*
%TO.C,R8*%
X152242500Y-80955000D03*
X149317500Y-80955000D03*
%TD*%
D19*
%TO.C,C16*%
X138787500Y-82675000D03*
X135837500Y-82675000D03*
%TD*%
D21*
%TO.C,C28*%
X163250000Y-107750000D03*
X166200000Y-107750000D03*
%TD*%
D22*
%TO.C,R2*%
X115062500Y-106787500D03*
X115062500Y-104962500D03*
%TD*%
D23*
%TO.C,C30*%
X129900000Y-97950000D03*
X128350000Y-97950000D03*
%TD*%
D15*
%TO.C,D3*%
X144730000Y-103605000D03*
X142630000Y-103605000D03*
%TD*%
D21*
%TO.C,C29*%
X163250000Y-110250000D03*
X166200000Y-110250000D03*
%TD*%
D24*
%TO.C,R13*%
X145075000Y-90775000D03*
X143250000Y-90775000D03*
%TD*%
D20*
%TO.C,R12*%
X152242500Y-100955000D03*
X149317500Y-100955000D03*
%TD*%
D25*
%TO.C,R10*%
X143237500Y-68700000D03*
X145062500Y-68700000D03*
%TD*%
D26*
%TO.C,U7*%
X139810000Y-120510000D03*
X139810000Y-119240000D03*
X139810000Y-117970000D03*
X139810000Y-116700000D03*
X144760000Y-116700000D03*
X144760000Y-117970000D03*
X144760000Y-119240000D03*
X144760000Y-120510000D03*
%TD*%
D16*
%TO.C,Q6*%
X158290000Y-122225000D03*
X157020000Y-122225000D03*
X155750000Y-122225000D03*
X154480000Y-122225000D03*
D17*
X154480000Y-116760000D03*
X155750000Y-116760000D03*
X157020000Y-116760000D03*
X158290000Y-116760000D03*
D18*
X156385000Y-118865000D03*
%TD*%
D20*
%TO.C,R15*%
X152212500Y-110500000D03*
X149287500Y-110500000D03*
%TD*%
D27*
%TO.C,C27*%
X141330000Y-114455000D03*
X143230000Y-114455000D03*
%TD*%
D20*
%TO.C,R7*%
X152212500Y-70750000D03*
X149287500Y-70750000D03*
%TD*%
D26*
%TO.C,U5*%
X139755000Y-80510000D03*
X139755000Y-79240000D03*
X139755000Y-77970000D03*
X139755000Y-76700000D03*
X144705000Y-76700000D03*
X144705000Y-77970000D03*
X144705000Y-79240000D03*
X144705000Y-80510000D03*
%TD*%
D21*
%TO.C,C23*%
X163250000Y-88000000D03*
X166200000Y-88000000D03*
%TD*%
D25*
%TO.C,R18*%
X143000000Y-108587500D03*
X144825000Y-108587500D03*
%TD*%
D23*
%TO.C,C20*%
X129850000Y-93416667D03*
X128300000Y-93416667D03*
%TD*%
D26*
%TO.C,U6*%
X139755000Y-100510000D03*
X139755000Y-99240000D03*
X139755000Y-97970000D03*
X139755000Y-96700000D03*
X144705000Y-96700000D03*
X144705000Y-97970000D03*
X144705000Y-99240000D03*
X144705000Y-100510000D03*
%TD*%
D16*
%TO.C,Q2*%
X158235000Y-82225000D03*
X156965000Y-82225000D03*
X155695000Y-82225000D03*
X154425000Y-82225000D03*
D17*
X154425000Y-76760000D03*
X155695000Y-76760000D03*
X156965000Y-76760000D03*
X158235000Y-76760000D03*
D18*
X156330000Y-78865000D03*
%TD*%
D23*
%TO.C,C2*%
X129900000Y-91150000D03*
X128350000Y-91150000D03*
%TD*%
D20*
%TO.C,R16*%
X152297500Y-120955000D03*
X149372500Y-120955000D03*
%TD*%
D24*
%TO.C,R9*%
X145075000Y-70750000D03*
X143250000Y-70750000D03*
%TD*%
D20*
%TO.C,R11*%
X152212500Y-90750000D03*
X149287500Y-90750000D03*
%TD*%
D22*
%TO.C,R1*%
X115062500Y-110587500D03*
X115062500Y-108762500D03*
%TD*%
D27*
%TO.C,C22*%
X141280000Y-94505000D03*
X143180000Y-94505000D03*
%TD*%
D21*
%TO.C,C18*%
X163250000Y-68000000D03*
X166200000Y-68000000D03*
%TD*%
%TO.C,C19*%
X163250000Y-70500000D03*
X166200000Y-70500000D03*
%TD*%
%TO.C,C24*%
X163250000Y-90500000D03*
X166200000Y-90500000D03*
%TD*%
D15*
%TO.C,D2*%
X144800000Y-84250000D03*
X142700000Y-84250000D03*
%TD*%
D16*
%TO.C,Q3*%
X158235000Y-93675000D03*
X156965000Y-93675000D03*
X155695000Y-93675000D03*
X154425000Y-93675000D03*
D17*
X154425000Y-88210000D03*
X155695000Y-88210000D03*
X156965000Y-88210000D03*
X158235000Y-88210000D03*
D18*
X156330000Y-90315000D03*
%TD*%
D25*
%TO.C,R14*%
X143250000Y-88725000D03*
X145075000Y-88725000D03*
%TD*%
D27*
%TO.C,C17*%
X141280000Y-74254996D03*
X143180000Y-74254996D03*
%TD*%
D24*
%TO.C,R17*%
X144825000Y-110600000D03*
X143000000Y-110600000D03*
%TD*%
D19*
%TO.C,C26*%
X136305000Y-121155000D03*
X133355000Y-121155000D03*
%TD*%
D16*
%TO.C,Q4*%
X158235000Y-102225000D03*
X156965000Y-102225000D03*
X155695000Y-102225000D03*
X154425000Y-102225000D03*
D17*
X154425000Y-96760000D03*
X155695000Y-96760000D03*
X156965000Y-96760000D03*
X158235000Y-96760000D03*
D18*
X156330000Y-98865000D03*
%TD*%
D23*
%TO.C,C25*%
X129900000Y-95683333D03*
X128350000Y-95683333D03*
%TD*%
M02*
