%TF.GenerationSoftware,KiCad,Pcbnew,9.0.4*%
%TF.CreationDate,2025-12-21T19:05:22-05:00*%
%TF.ProjectId,esc,6573632e-6b69-4636-9164-5f7063625858,rev?*%
%TF.SameCoordinates,Original*%
%TF.FileFunction,Paste,Top*%
%TF.FilePolarity,Positive*%
%FSLAX46Y46*%
G04 Gerber Fmt 4.6, Leading zero omitted, Abs format (unit mm)*
G04 Created by KiCad (PCBNEW 9.0.4) date 2025-12-21 19:05:22*
%MOMM*%
%LPD*%
G01*
G04 APERTURE LIST*
G04 Aperture macros list*
%AMRoundRect*
0 Rectangle with rounded corners*
0 $1 Rounding radius*
0 $2 $3 $4 $5 $6 $7 $8 $9 X,Y pos of 4 corners*
0 Add a 4 corners polygon primitive as box body*
4,1,4,$2,$3,$4,$5,$6,$7,$8,$9,$2,$3,0*
0 Add four circle primitives for the rounded corners*
1,1,$1+$1,$2,$3*
1,1,$1+$1,$4,$5*
1,1,$1+$1,$6,$7*
1,1,$1+$1,$8,$9*
0 Add four rect primitives between the rounded corners*
20,1,$1+$1,$2,$3,$4,$5,0*
20,1,$1+$1,$4,$5,$6,$7,0*
20,1,$1+$1,$6,$7,$8,$9,0*
20,1,$1+$1,$8,$9,$2,$3,0*%
%AMFreePoly0*
4,1,6,0.180000,0.075000,0.000000,-0.105000,-0.220000,-0.105000,-0.220000,0.105000,0.180000,0.105000,0.180000,0.075000,0.180000,0.075000,$1*%
%AMFreePoly1*
4,1,6,0.180000,-0.075000,0.180000,-0.105000,-0.220000,-0.105000,-0.220000,0.105000,0.000000,0.105000,0.180000,-0.075000,0.180000,-0.075000,$1*%
%AMFreePoly2*
4,1,6,0.220000,-0.105000,0.000000,-0.105000,-0.180000,0.075000,-0.180000,0.105000,0.220000,0.105000,0.220000,-0.105000,0.220000,-0.105000,$1*%
%AMFreePoly3*
4,1,6,0.220000,-0.105000,-0.180000,-0.105000,-0.180000,-0.075000,0.000000,0.105000,0.220000,0.105000,0.220000,-0.105000,0.220000,-0.105000,$1*%
G04 Aperture macros list end*
%ADD10C,0.010000*%
%ADD11R,0.520000X0.470000*%
%ADD12FreePoly0,270.000000*%
%ADD13FreePoly1,270.000000*%
%ADD14FreePoly2,270.000000*%
%ADD15FreePoly3,270.000000*%
%ADD16RoundRect,0.112500X-0.159099X0.000000X0.000000X-0.159099X0.159099X0.000000X0.000000X0.159099X0*%
%ADD17RoundRect,0.250000X0.262500X0.450000X-0.262500X0.450000X-0.262500X-0.450000X0.262500X-0.450000X0*%
%ADD18RoundRect,0.243750X-0.243750X-0.456250X0.243750X-0.456250X0.243750X0.456250X-0.243750X0.456250X0*%
%ADD19RoundRect,0.073750X-0.551250X-0.221250X0.551250X-0.221250X0.551250X0.221250X-0.551250X0.221250X0*%
%ADD20RoundRect,0.250000X-0.250000X-0.475000X0.250000X-0.475000X0.250000X0.475000X-0.250000X0.475000X0*%
%ADD21RoundRect,0.250000X0.650000X-0.325000X0.650000X0.325000X-0.650000X0.325000X-0.650000X-0.325000X0*%
%ADD22RoundRect,0.250000X0.475000X-0.250000X0.475000X0.250000X-0.475000X0.250000X-0.475000X-0.250000X0*%
%ADD23RoundRect,0.250000X-0.450000X0.262500X-0.450000X-0.262500X0.450000X-0.262500X0.450000X0.262500X0*%
%ADD24R,1.470000X1.200000*%
%ADD25R,0.838200X1.803400*%
%ADD26R,0.838200X0.711200*%
%ADD27R,0.320000X0.660000*%
%ADD28RoundRect,0.250000X0.250000X0.475000X-0.250000X0.475000X-0.250000X-0.475000X0.250000X-0.475000X0*%
%ADD29RoundRect,0.250000X0.450000X-0.262500X0.450000X0.262500X-0.450000X0.262500X-0.450000X-0.262500X0*%
%ADD30RoundRect,0.250000X-0.650000X0.325000X-0.650000X-0.325000X0.650000X-0.325000X0.650000X0.325000X0*%
%ADD31RoundRect,0.075000X-0.662500X-0.075000X0.662500X-0.075000X0.662500X0.075000X-0.662500X0.075000X0*%
%ADD32RoundRect,0.075000X-0.075000X-0.662500X0.075000X-0.662500X0.075000X0.662500X-0.075000X0.662500X0*%
%ADD33RoundRect,0.250000X-0.475000X0.250000X-0.475000X-0.250000X0.475000X-0.250000X0.475000X0.250000X0*%
G04 APERTURE END LIST*
D10*
%TO.C,U4*%
X133056000Y-76291000D02*
X132044000Y-76291000D01*
X132044000Y-75659000D01*
X133056000Y-75659000D01*
X133056000Y-76291000D01*
G36*
X133056000Y-76291000D02*
G01*
X132044000Y-76291000D01*
X132044000Y-75659000D01*
X133056000Y-75659000D01*
X133056000Y-76291000D01*
G37*
%TD*%
D11*
%TO.C,Y1*%
X127612500Y-88925000D03*
X126792500Y-88925000D03*
X126792500Y-88255000D03*
X127612500Y-88255000D03*
%TD*%
D12*
%TO.C,U1*%
X134325000Y-98190000D03*
D13*
X133675000Y-98190000D03*
D14*
X134325000Y-99050000D03*
D15*
X133675000Y-99050000D03*
D16*
X134000000Y-98620000D03*
%TD*%
D17*
%TO.C,R19*%
X122087500Y-96750000D03*
X123912500Y-96750000D03*
%TD*%
%TO.C,R20*%
X122037500Y-93950000D03*
X123862500Y-93950000D03*
%TD*%
D18*
%TO.C,D6*%
X117500000Y-94000000D03*
X119375000Y-94000000D03*
%TD*%
%TO.C,D5*%
X117562500Y-96750000D03*
X119437500Y-96750000D03*
%TD*%
D19*
%TO.C,U3*%
X129995000Y-110800000D03*
X129995000Y-111750000D03*
X129995000Y-112700000D03*
X132505000Y-112700000D03*
X132505000Y-111750000D03*
X132505000Y-110800000D03*
%TD*%
D20*
%TO.C,C3*%
X140300000Y-98125000D03*
X142200000Y-98125000D03*
%TD*%
%TO.C,C14*%
X128212500Y-86675000D03*
X130112500Y-86675000D03*
%TD*%
D21*
%TO.C,C8*%
X124250000Y-113150000D03*
X124250000Y-110200000D03*
%TD*%
D22*
%TO.C,C4*%
X132000000Y-99750000D03*
X132000000Y-97850000D03*
%TD*%
D23*
%TO.C,R4*%
X142250000Y-114662500D03*
X142250000Y-112837500D03*
%TD*%
D24*
%TO.C,L1*%
X126750000Y-105610000D03*
X126750000Y-103890000D03*
%TD*%
D25*
%TO.C,D1*%
X122000000Y-119500000D03*
D26*
X122000000Y-121341500D03*
%TD*%
D27*
%TO.C,U4*%
X131900000Y-77000000D03*
X132550000Y-77000000D03*
X133200000Y-77000000D03*
X133200000Y-74950000D03*
X132550000Y-74950000D03*
X131900000Y-74950000D03*
%TD*%
D20*
%TO.C,C15*%
X124312500Y-86675000D03*
X126212500Y-86675000D03*
%TD*%
%TO.C,C1*%
X142200000Y-100500000D03*
X140300000Y-100500000D03*
%TD*%
D22*
%TO.C,C10*%
X126750000Y-110725000D03*
X126750000Y-112625000D03*
%TD*%
D21*
%TO.C,C7*%
X121500000Y-113150000D03*
X121500000Y-110200000D03*
%TD*%
D28*
%TO.C,C11*%
X132200000Y-108500000D03*
X130300000Y-108500000D03*
%TD*%
D29*
%TO.C,R6*%
X135250000Y-112837500D03*
X135250000Y-114662500D03*
%TD*%
D20*
%TO.C,C5*%
X142200000Y-95750000D03*
X140300000Y-95750000D03*
%TD*%
D30*
%TO.C,C12*%
X132691500Y-106225000D03*
X132691500Y-103275000D03*
%TD*%
D31*
%TO.C,U2*%
X132687500Y-86525000D03*
X132687500Y-87025000D03*
X132687500Y-87525000D03*
X132687500Y-88025000D03*
X132687500Y-88525000D03*
X132687500Y-89025000D03*
X132687500Y-89525000D03*
X132687500Y-90025000D03*
X132687500Y-90525000D03*
X132687500Y-91025000D03*
X132687500Y-91525000D03*
X132687500Y-92025000D03*
D32*
X134100000Y-93437500D03*
X134600000Y-93437500D03*
X135100000Y-93437500D03*
X135600000Y-93437500D03*
X136100000Y-93437500D03*
X136600000Y-93437500D03*
X137100000Y-93437500D03*
X137600000Y-93437500D03*
X138100000Y-93437500D03*
X138600000Y-93437500D03*
X139100000Y-93437500D03*
X139600000Y-93437500D03*
D31*
X141012500Y-92025000D03*
X141012500Y-91525000D03*
X141012500Y-91025000D03*
X141012500Y-90525000D03*
X141012500Y-90025000D03*
X141012500Y-89525000D03*
X141012500Y-89025000D03*
X141012500Y-88525000D03*
X141012500Y-88025000D03*
X141012500Y-87525000D03*
X141012500Y-87025000D03*
X141012500Y-86525000D03*
D32*
X139600000Y-85112500D03*
X139100000Y-85112500D03*
X138600000Y-85112500D03*
X138100000Y-85112500D03*
X137600000Y-85112500D03*
X137100000Y-85112500D03*
X136600000Y-85112500D03*
X136100000Y-85112500D03*
X135600000Y-85112500D03*
X135100000Y-85112500D03*
X134600000Y-85112500D03*
X134100000Y-85112500D03*
%TD*%
D30*
%TO.C,C13*%
X135400000Y-103275000D03*
X135400000Y-106225000D03*
%TD*%
D29*
%TO.C,R5*%
X137583333Y-114662500D03*
X137583333Y-112837500D03*
%TD*%
D23*
%TO.C,R3*%
X139916667Y-112837500D03*
X139916667Y-114662500D03*
%TD*%
D33*
%TO.C,C9*%
X136000000Y-97850000D03*
X136000000Y-99750000D03*
%TD*%
M02*
