M48
; DRILL file {KiCad 9.0.4} date 2025-12-21T19:06:57-0500
; FORMAT={-:-/ absolute / metric / decimal}
; #@! TF.CreationDate,2025-12-21T19:06:57-05:00
; #@! TF.GenerationSoftware,Kicad,Pcbnew,9.0.4
; #@! TF.FileFunction,Plated,1,4,PTH
FMAT,2
METRIC
; #@! TA.AperFunction,Plated,PTH,ViaDrill
T1C0.150
; #@! TA.AperFunction,Plated,PTH,ViaDrill
T2C0.200
; #@! TA.AperFunction,Plated,PTH,ViaDrill
T3C0.250
; #@! TA.AperFunction,Plated,PTH,ViaDrill
T4C0.300
; #@! TA.AperFunction,Plated,PTH,ViaDrill
T5C0.350
; #@! TA.AperFunction,Plated,PTH,ViaDrill
T6C0.400
; #@! TA.AperFunction,Plated,PTH,ComponentDrill
T7C0.711
; #@! TA.AperFunction,Plated,PTH,ComponentDrill
T8C1.000
; #@! TA.AperFunction,Plated,PTH,ComponentDrill
T9C1.300
; #@! TA.AperFunction,Plated,PTH,ComponentDrill
T10C1.500
%
G90
G05
T1
X134.15Y-89.85
X134.15Y-91.1
X134.15Y-91.7
X134.152Y-90.527
T2
X123.962Y-84.325
X123.962Y-89.325
X125.612Y-87.725
X126.7Y-91.2
X126.7Y-94.35
X126.7Y-95.7
X126.7Y-97.3
X127.037Y-84.325
X128.562Y-88.875
X128.9Y-84.3
X131.0Y-75.5
X131.9Y-78.0
X132.55Y-78.0
X133.2Y-78.0
X134.0Y-76.0
T3
X134.9Y-88.3
X135.45Y-94.9
X135.6Y-88.3
X137.9Y-78.0
X137.9Y-79.25
X137.9Y-88.2
X137.9Y-88.95
X137.95Y-98.0
X137.95Y-99.25
X138.15Y-118.05
X138.15Y-119.25
X138.45Y-90.45
T4
X115.0Y-103.5
X132.0Y-96.4
X133.2Y-96.4
X134.1Y-71.52
X134.1Y-72.79
X134.1Y-74.1
X134.25Y-111.5
X138.0Y-100.4
X139.5Y-87.0
X140.0Y-111.5
X143.012Y-106.9
X143.213Y-86.775
X143.25Y-66.9
X144.812Y-106.9
X145.062Y-86.775
X145.1Y-66.9
X147.012Y-115.025
X147.012Y-116.725
X147.012Y-119.26
X147.012Y-120.975
X147.062Y-94.975
X147.062Y-96.675
X147.062Y-99.21
X147.062Y-100.925
X147.08Y-75.005
X147.08Y-76.705
X147.08Y-79.24
X147.08Y-80.955
T5
X130.8Y-101.2
T6
X125.0Y-114.75
X125.0Y-117.25
X125.0Y-119.75
X127.0Y-114.75
X127.0Y-117.25
X127.0Y-119.75
X128.875Y-114.75
X128.875Y-117.25
X128.875Y-119.75
X133.35Y-119.1
X155.7Y-84.3
X155.7Y-104.4
X155.8Y-124.4
X156.963Y-84.3
X156.963Y-104.4
X157.0Y-124.4
X159.75Y-82.25
X159.85Y-102.35
X160.6Y-122.4
T7
X136.78Y-68.98
X136.78Y-70.25
X136.78Y-71.52
X136.78Y-72.79
X136.78Y-74.06
X138.05Y-68.98
X138.05Y-70.25
X138.05Y-71.52
X138.05Y-72.79
X138.05Y-74.06
T8
X113.7Y-68.9
X113.7Y-71.4
X113.7Y-73.9
X128.2Y-68.9
X128.2Y-73.9
T9
X115.75Y-117.25
X115.75Y-122.25
X166.17Y-75.0
X166.17Y-95.0
X166.17Y-115.0
X171.25Y-75.0
X171.25Y-95.0
X171.25Y-115.0
T10
X120.55Y-65.8G85X121.85Y-65.8
G05
X120.55Y-77.0G85X121.85Y-77.0
G05
M30
