%TF.GenerationSoftware,KiCad,Pcbnew,9.0.4*%
%TF.CreationDate,2025-12-21T19:05:22-05:00*%
%TF.ProjectId,esc,6573632e-6b69-4636-9164-5f7063625858,rev?*%
%TF.SameCoordinates,Original*%
%TF.FileFunction,Copper,L4,Bot*%
%TF.FilePolarity,Positive*%
%FSLAX46Y46*%
G04 Gerber Fmt 4.6, Leading zero omitted, Abs format (unit mm)*
G04 Created by KiCad (PCBNEW 9.0.4) date 2025-12-21 19:05:22*
%MOMM*%
%LPD*%
G01*
G04 APERTURE LIST*
G04 Aperture macros list*
%AMRoundRect*
0 Rectangle with rounded corners*
0 $1 Rounding radius*
0 $2 $3 $4 $5 $6 $7 $8 $9 X,Y pos of 4 corners*
0 Add a 4 corners polygon primitive as box body*
4,1,4,$2,$3,$4,$5,$6,$7,$8,$9,$2,$3,0*
0 Add four circle primitives for the rounded corners*
1,1,$1+$1,$2,$3*
1,1,$1+$1,$4,$5*
1,1,$1+$1,$6,$7*
1,1,$1+$1,$8,$9*
0 Add four rect primitives between the rounded corners*
20,1,$1+$1,$2,$3,$4,$5,0*
20,1,$1+$1,$4,$5,$6,$7,0*
20,1,$1+$1,$6,$7,$8,$9,0*
20,1,$1+$1,$8,$9,$2,$3,0*%
G04 Aperture macros list end*
%TA.AperFunction,ComponentPad*%
%ADD10R,2.000000X2.000000*%
%TD*%
%TA.AperFunction,ComponentPad*%
%ADD11C,2.000000*%
%TD*%
%TA.AperFunction,ComponentPad*%
%ADD12R,3.200000X2.000000*%
%TD*%
%TA.AperFunction,ComponentPad*%
%ADD13C,1.950000*%
%TD*%
%TA.AperFunction,ComponentPad*%
%ADD14C,1.168400*%
%TD*%
%TA.AperFunction,SMDPad,CuDef*%
%ADD15RoundRect,0.112500X0.187500X0.112500X-0.187500X0.112500X-0.187500X-0.112500X0.187500X-0.112500X0*%
%TD*%
%TA.AperFunction,SMDPad,CuDef*%
%ADD16R,0.610000X1.270000*%
%TD*%
%TA.AperFunction,SMDPad,CuDef*%
%ADD17R,0.610000X1.020000*%
%TD*%
%TA.AperFunction,SMDPad,CuDef*%
%ADD18R,3.810000X3.910000*%
%TD*%
%TA.AperFunction,SMDPad,CuDef*%
%ADD19RoundRect,0.250000X0.325000X0.650000X-0.325000X0.650000X-0.325000X-0.650000X0.325000X-0.650000X0*%
%TD*%
%TA.AperFunction,SMDPad,CuDef*%
%ADD20RoundRect,0.250000X0.312500X0.625000X-0.312500X0.625000X-0.312500X-0.625000X0.312500X-0.625000X0*%
%TD*%
%TA.AperFunction,SMDPad,CuDef*%
%ADD21RoundRect,0.250000X-0.325000X-0.650000X0.325000X-0.650000X0.325000X0.650000X-0.325000X0.650000X0*%
%TD*%
%TA.AperFunction,SMDPad,CuDef*%
%ADD22RoundRect,0.250000X0.450000X-0.262500X0.450000X0.262500X-0.450000X0.262500X-0.450000X-0.262500X0*%
%TD*%
%TA.AperFunction,SMDPad,CuDef*%
%ADD23RoundRect,0.225000X0.225000X0.250000X-0.225000X0.250000X-0.225000X-0.250000X0.225000X-0.250000X0*%
%TD*%
%TA.AperFunction,SMDPad,CuDef*%
%ADD24RoundRect,0.250000X0.262500X0.450000X-0.262500X0.450000X-0.262500X-0.450000X0.262500X-0.450000X0*%
%TD*%
%TA.AperFunction,SMDPad,CuDef*%
%ADD25RoundRect,0.250000X-0.262500X-0.450000X0.262500X-0.450000X0.262500X0.450000X-0.262500X0.450000X0*%
%TD*%
%TA.AperFunction,SMDPad,CuDef*%
%ADD26RoundRect,0.075000X-0.910000X-0.225000X0.910000X-0.225000X0.910000X0.225000X-0.910000X0.225000X0*%
%TD*%
%TA.AperFunction,SMDPad,CuDef*%
%ADD27RoundRect,0.250000X-0.250000X-0.475000X0.250000X-0.475000X0.250000X0.475000X-0.250000X0.475000X0*%
%TD*%
%TA.AperFunction,ViaPad*%
%ADD28C,0.750000*%
%TD*%
%TA.AperFunction,ViaPad*%
%ADD29C,0.600000*%
%TD*%
%TA.AperFunction,ViaPad*%
%ADD30C,0.500000*%
%TD*%
%TA.AperFunction,ViaPad*%
%ADD31C,0.400000*%
%TD*%
%TA.AperFunction,ViaPad*%
%ADD32C,0.350000*%
%TD*%
%TA.AperFunction,Conductor*%
%ADD33C,0.500000*%
%TD*%
%TA.AperFunction,Conductor*%
%ADD34C,0.250000*%
%TD*%
%TA.AperFunction,Conductor*%
%ADD35C,0.200000*%
%TD*%
%TA.AperFunction,Conductor*%
%ADD36C,0.350000*%
%TD*%
%TA.AperFunction,Conductor*%
%ADD37C,0.400000*%
%TD*%
G04 APERTURE END LIST*
D10*
%TO.P,SW1,A,A*%
%TO.N,/STM32/ENC_A*%
X113700000Y-68900000D03*
D11*
%TO.P,SW1,B,B*%
%TO.N,/STM32/ENC_B*%
X113700000Y-73900000D03*
%TO.P,SW1,C,C*%
%TO.N,GND*%
X113700000Y-71400000D03*
D12*
%TO.P,SW1,MP*%
%TO.N,N/C*%
X121200000Y-65800000D03*
X121200000Y-77000000D03*
D11*
%TO.P,SW1,S1*%
X128200000Y-73900000D03*
%TO.P,SW1,S2*%
X128200000Y-68900000D03*
%TD*%
D13*
%TO.P,J4,1_1,1_1*%
%TO.N,/W PHASE/W_PHASE*%
X166170000Y-115000000D03*
%TO.P,J4,1_2,1_2*%
X171250000Y-115000000D03*
%TD*%
%TO.P,J2,1_1,1_1*%
%TO.N,/U PHASE/U_PHASE*%
X166170000Y-75000000D03*
%TO.P,J2,1_2,1_2*%
X171250000Y-75000000D03*
%TD*%
D14*
%TO.P,J5,1,Pin_1*%
%TO.N,+3V3*%
X138050000Y-74060000D03*
%TO.P,J5,2,Pin_2*%
%TO.N,/STM32/SWDIO*%
X136780000Y-74060000D03*
%TO.P,J5,3,Pin_3*%
%TO.N,GND*%
X138050000Y-72790000D03*
%TO.P,J5,4,Pin_4*%
%TO.N,/STM32/SWCLK*%
X136780000Y-72790000D03*
%TO.P,J5,5,Pin_5*%
%TO.N,GND*%
X138050000Y-71520000D03*
%TO.P,J5,6,Pin_6*%
%TO.N,/STM32/SWO*%
X136780000Y-71520000D03*
%TO.P,J5,7,Pin_7*%
%TO.N,unconnected-(J5-Pin_7-Pad7)*%
X138050000Y-70250000D03*
%TO.P,J5,8,Pin_8*%
%TO.N,unconnected-(J5-Pin_8-Pad8)*%
X136780000Y-70250000D03*
%TO.P,J5,9,Pin_9*%
%TO.N,GND*%
X138050000Y-68980000D03*
%TO.P,J5,10,Pin_10*%
%TO.N,unconnected-(J5-Pin_10-Pad10)*%
X136780000Y-68980000D03*
%TD*%
D13*
%TO.P,J1,1,Pin_1*%
%TO.N,VCC*%
X115750000Y-117250000D03*
%TO.P,J1,2,Pin_2*%
%TO.N,GND*%
X115750000Y-122250000D03*
%TD*%
%TO.P,J3,1_1,1_1*%
%TO.N,/V PHASE/V_PHASE*%
X166170000Y-95000000D03*
%TO.P,J3,1_2,1_2*%
X171250000Y-95000000D03*
%TD*%
D15*
%TO.P,D4,1,K*%
%TO.N,Net-(D4-K)*%
X144730000Y-123705000D03*
%TO.P,D4,2,A*%
%TO.N,VCC*%
X142630000Y-123705000D03*
%TD*%
D16*
%TO.P,Q1,1*%
%TO.N,/U PHASE/U_PHASE*%
X158235000Y-73675000D03*
%TO.P,Q1,2*%
X156965000Y-73675000D03*
%TO.P,Q1,3*%
X155695000Y-73675000D03*
%TO.P,Q1,4*%
%TO.N,Net-(Q1-Pad4)*%
X154425000Y-73675000D03*
D17*
%TO.P,Q1,5*%
%TO.N,VCC*%
X154425000Y-68210000D03*
%TO.P,Q1,6*%
X155695000Y-68210000D03*
%TO.P,Q1,7*%
X156965000Y-68210000D03*
%TO.P,Q1,8*%
X158235000Y-68210000D03*
D18*
%TO.P,Q1,9*%
X156330000Y-70315000D03*
%TD*%
D16*
%TO.P,Q5,1*%
%TO.N,/W PHASE/W_PHASE*%
X158290000Y-113675000D03*
%TO.P,Q5,2*%
X157020000Y-113675000D03*
%TO.P,Q5,3*%
X155750000Y-113675000D03*
%TO.P,Q5,4*%
%TO.N,Net-(Q5-Pad4)*%
X154480000Y-113675000D03*
D17*
%TO.P,Q5,5*%
%TO.N,VCC*%
X154480000Y-108210000D03*
%TO.P,Q5,6*%
X155750000Y-108210000D03*
%TO.P,Q5,7*%
X157020000Y-108210000D03*
%TO.P,Q5,8*%
X158290000Y-108210000D03*
D18*
%TO.P,Q5,9*%
X156385000Y-110315000D03*
%TD*%
D19*
%TO.P,C21,1*%
%TO.N,VCC*%
X136475000Y-101250000D03*
%TO.P,C21,2*%
%TO.N,GND*%
X133525000Y-101250000D03*
%TD*%
D20*
%TO.P,R8,1*%
%TO.N,Net-(Q2-Pad4)*%
X152242500Y-80955000D03*
%TO.P,R8,2*%
%TO.N,Net-(U5-LO)*%
X149317500Y-80955000D03*
%TD*%
D19*
%TO.P,C16,1*%
%TO.N,VCC*%
X138787500Y-82675000D03*
%TO.P,C16,2*%
%TO.N,GND*%
X135837500Y-82675000D03*
%TD*%
D21*
%TO.P,C28,1*%
%TO.N,VCC*%
X163250000Y-107750000D03*
%TO.P,C28,2*%
%TO.N,GND*%
X166200000Y-107750000D03*
%TD*%
D22*
%TO.P,R2,1*%
%TO.N,/PWR/VCC_SENSE*%
X115062500Y-106787500D03*
%TO.P,R2,2*%
%TO.N,GND*%
X115062500Y-104962500D03*
%TD*%
D23*
%TO.P,C30,1*%
%TO.N,/STM32/W_VSENSE*%
X129900000Y-97950000D03*
%TO.P,C30,2*%
%TO.N,GND*%
X128350000Y-97950000D03*
%TD*%
D15*
%TO.P,D3,1,K*%
%TO.N,Net-(D3-K)*%
X144730000Y-103605000D03*
%TO.P,D3,2,A*%
%TO.N,VCC*%
X142630000Y-103605000D03*
%TD*%
D21*
%TO.P,C29,1*%
%TO.N,VCC*%
X163250000Y-110250000D03*
%TO.P,C29,2*%
%TO.N,GND*%
X166200000Y-110250000D03*
%TD*%
D24*
%TO.P,R13,1*%
%TO.N,/V PHASE/V_PHASE*%
X145075000Y-90775000D03*
%TO.P,R13,2*%
%TO.N,/STM32/V_VSENSE*%
X143250000Y-90775000D03*
%TD*%
D20*
%TO.P,R12,1*%
%TO.N,Net-(Q4-Pad4)*%
X152242500Y-100955000D03*
%TO.P,R12,2*%
%TO.N,Net-(U6-LO)*%
X149317500Y-100955000D03*
%TD*%
D25*
%TO.P,R10,1*%
%TO.N,/STM32/U_VSENSE*%
X143237500Y-68700000D03*
%TO.P,R10,2*%
%TO.N,GND*%
X145062500Y-68700000D03*
%TD*%
D26*
%TO.P,U7,1,VCC*%
%TO.N,VCC*%
X139810000Y-120510000D03*
%TO.P,U7,2,HIN*%
%TO.N,/STM32/W_HIN*%
X139810000Y-119240000D03*
%TO.P,U7,3,~{LIN}*%
%TO.N,/STM32/W_LIN*%
X139810000Y-117970000D03*
%TO.P,U7,4,COM*%
%TO.N,GND*%
X139810000Y-116700000D03*
%TO.P,U7,5,LO*%
%TO.N,Net-(U7-LO)*%
X144760000Y-116700000D03*
%TO.P,U7,6,VS*%
%TO.N,/W PHASE/W_PHASE*%
X144760000Y-117970000D03*
%TO.P,U7,7,HO*%
%TO.N,Net-(U7-HO)*%
X144760000Y-119240000D03*
%TO.P,U7,8,VB*%
%TO.N,Net-(D4-K)*%
X144760000Y-120510000D03*
%TD*%
D16*
%TO.P,Q6,1*%
%TO.N,GND*%
X158290000Y-122225000D03*
%TO.P,Q6,2*%
X157020000Y-122225000D03*
%TO.P,Q6,3*%
X155750000Y-122225000D03*
%TO.P,Q6,4*%
%TO.N,Net-(Q6-Pad4)*%
X154480000Y-122225000D03*
D17*
%TO.P,Q6,5*%
%TO.N,/W PHASE/W_PHASE*%
X154480000Y-116760000D03*
%TO.P,Q6,6*%
X155750000Y-116760000D03*
%TO.P,Q6,7*%
X157020000Y-116760000D03*
%TO.P,Q6,8*%
X158290000Y-116760000D03*
D18*
%TO.P,Q6,9*%
X156385000Y-118865000D03*
%TD*%
D20*
%TO.P,R15,1*%
%TO.N,Net-(Q5-Pad4)*%
X152212500Y-110500000D03*
%TO.P,R15,2*%
%TO.N,Net-(U7-HO)*%
X149287500Y-110500000D03*
%TD*%
D27*
%TO.P,C27,1*%
%TO.N,Net-(D4-K)*%
X141330000Y-114455000D03*
%TO.P,C27,2*%
%TO.N,/W PHASE/W_PHASE*%
X143230000Y-114455000D03*
%TD*%
D20*
%TO.P,R7,1*%
%TO.N,Net-(Q1-Pad4)*%
X152212500Y-70750000D03*
%TO.P,R7,2*%
%TO.N,Net-(U5-HO)*%
X149287500Y-70750000D03*
%TD*%
D26*
%TO.P,U5,1,VCC*%
%TO.N,VCC*%
X139755000Y-80510000D03*
%TO.P,U5,2,HIN*%
%TO.N,/STM32/U_HIN*%
X139755000Y-79240000D03*
%TO.P,U5,3,~{LIN}*%
%TO.N,/STM32/U_LIN*%
X139755000Y-77970000D03*
%TO.P,U5,4,COM*%
%TO.N,GND*%
X139755000Y-76700000D03*
%TO.P,U5,5,LO*%
%TO.N,Net-(U5-LO)*%
X144705000Y-76700000D03*
%TO.P,U5,6,VS*%
%TO.N,/U PHASE/U_PHASE*%
X144705000Y-77970000D03*
%TO.P,U5,7,HO*%
%TO.N,Net-(U5-HO)*%
X144705000Y-79240000D03*
%TO.P,U5,8,VB*%
%TO.N,Net-(D2-K)*%
X144705000Y-80510000D03*
%TD*%
D21*
%TO.P,C23,1*%
%TO.N,VCC*%
X163250000Y-88000000D03*
%TO.P,C23,2*%
%TO.N,GND*%
X166200000Y-88000000D03*
%TD*%
D25*
%TO.P,R18,1*%
%TO.N,/STM32/W_VSENSE*%
X143000000Y-108587500D03*
%TO.P,R18,2*%
%TO.N,GND*%
X144825000Y-108587500D03*
%TD*%
D23*
%TO.P,C20,1*%
%TO.N,/STM32/U_VSENSE*%
X129850000Y-93416667D03*
%TO.P,C20,2*%
%TO.N,GND*%
X128300000Y-93416667D03*
%TD*%
D26*
%TO.P,U6,1,VCC*%
%TO.N,VCC*%
X139755000Y-100510000D03*
%TO.P,U6,2,HIN*%
%TO.N,/STM32/V_HIN*%
X139755000Y-99240000D03*
%TO.P,U6,3,~{LIN}*%
%TO.N,/STM32/V_LIN*%
X139755000Y-97970000D03*
%TO.P,U6,4,COM*%
%TO.N,GND*%
X139755000Y-96700000D03*
%TO.P,U6,5,LO*%
%TO.N,Net-(U6-LO)*%
X144705000Y-96700000D03*
%TO.P,U6,6,VS*%
%TO.N,/V PHASE/V_PHASE*%
X144705000Y-97970000D03*
%TO.P,U6,7,HO*%
%TO.N,Net-(U6-HO)*%
X144705000Y-99240000D03*
%TO.P,U6,8,VB*%
%TO.N,Net-(D3-K)*%
X144705000Y-100510000D03*
%TD*%
D16*
%TO.P,Q2,1*%
%TO.N,GND*%
X158235000Y-82225000D03*
%TO.P,Q2,2*%
X156965000Y-82225000D03*
%TO.P,Q2,3*%
X155695000Y-82225000D03*
%TO.P,Q2,4*%
%TO.N,Net-(Q2-Pad4)*%
X154425000Y-82225000D03*
D17*
%TO.P,Q2,5*%
%TO.N,/U PHASE/U_PHASE*%
X154425000Y-76760000D03*
%TO.P,Q2,6*%
X155695000Y-76760000D03*
%TO.P,Q2,7*%
X156965000Y-76760000D03*
%TO.P,Q2,8*%
X158235000Y-76760000D03*
D18*
%TO.P,Q2,9*%
X156330000Y-78865000D03*
%TD*%
D23*
%TO.P,C2,1*%
%TO.N,/PWR/VCC_SENSE*%
X129900000Y-91150000D03*
%TO.P,C2,2*%
%TO.N,GND*%
X128350000Y-91150000D03*
%TD*%
D20*
%TO.P,R16,1*%
%TO.N,Net-(Q6-Pad4)*%
X152297500Y-120955000D03*
%TO.P,R16,2*%
%TO.N,Net-(U7-LO)*%
X149372500Y-120955000D03*
%TD*%
D24*
%TO.P,R9,1*%
%TO.N,/U PHASE/U_PHASE*%
X145075000Y-70750000D03*
%TO.P,R9,2*%
%TO.N,/STM32/U_VSENSE*%
X143250000Y-70750000D03*
%TD*%
D20*
%TO.P,R11,1*%
%TO.N,Net-(Q3-Pad4)*%
X152212500Y-90750000D03*
%TO.P,R11,2*%
%TO.N,Net-(U6-HO)*%
X149287500Y-90750000D03*
%TD*%
D22*
%TO.P,R1,1*%
%TO.N,VCC*%
X115062500Y-110587500D03*
%TO.P,R1,2*%
%TO.N,/PWR/VCC_SENSE*%
X115062500Y-108762500D03*
%TD*%
D27*
%TO.P,C22,1*%
%TO.N,Net-(D3-K)*%
X141280000Y-94505000D03*
%TO.P,C22,2*%
%TO.N,/V PHASE/V_PHASE*%
X143180000Y-94505000D03*
%TD*%
D21*
%TO.P,C18,1*%
%TO.N,VCC*%
X163250000Y-68000000D03*
%TO.P,C18,2*%
%TO.N,GND*%
X166200000Y-68000000D03*
%TD*%
%TO.P,C19,1*%
%TO.N,VCC*%
X163250000Y-70500000D03*
%TO.P,C19,2*%
%TO.N,GND*%
X166200000Y-70500000D03*
%TD*%
%TO.P,C24,1*%
%TO.N,VCC*%
X163250000Y-90500000D03*
%TO.P,C24,2*%
%TO.N,GND*%
X166200000Y-90500000D03*
%TD*%
D15*
%TO.P,D2,1,K*%
%TO.N,Net-(D2-K)*%
X144800000Y-84250000D03*
%TO.P,D2,2,A*%
%TO.N,VCC*%
X142700000Y-84250000D03*
%TD*%
D16*
%TO.P,Q3,1*%
%TO.N,/V PHASE/V_PHASE*%
X158235000Y-93675000D03*
%TO.P,Q3,2*%
X156965000Y-93675000D03*
%TO.P,Q3,3*%
X155695000Y-93675000D03*
%TO.P,Q3,4*%
%TO.N,Net-(Q3-Pad4)*%
X154425000Y-93675000D03*
D17*
%TO.P,Q3,5*%
%TO.N,VCC*%
X154425000Y-88210000D03*
%TO.P,Q3,6*%
X155695000Y-88210000D03*
%TO.P,Q3,7*%
X156965000Y-88210000D03*
%TO.P,Q3,8*%
X158235000Y-88210000D03*
D18*
%TO.P,Q3,9*%
X156330000Y-90315000D03*
%TD*%
D25*
%TO.P,R14,1*%
%TO.N,/STM32/V_VSENSE*%
X143250000Y-88725000D03*
%TO.P,R14,2*%
%TO.N,GND*%
X145075000Y-88725000D03*
%TD*%
D27*
%TO.P,C17,1*%
%TO.N,Net-(D2-K)*%
X141280000Y-74254996D03*
%TO.P,C17,2*%
%TO.N,/U PHASE/U_PHASE*%
X143180000Y-74254996D03*
%TD*%
D24*
%TO.P,R17,1*%
%TO.N,/W PHASE/W_PHASE*%
X144825000Y-110600000D03*
%TO.P,R17,2*%
%TO.N,/STM32/W_VSENSE*%
X143000000Y-110600000D03*
%TD*%
D19*
%TO.P,C26,1*%
%TO.N,VCC*%
X136305000Y-121155000D03*
%TO.P,C26,2*%
%TO.N,GND*%
X133355000Y-121155000D03*
%TD*%
D16*
%TO.P,Q4,1*%
%TO.N,GND*%
X158235000Y-102225000D03*
%TO.P,Q4,2*%
X156965000Y-102225000D03*
%TO.P,Q4,3*%
X155695000Y-102225000D03*
%TO.P,Q4,4*%
%TO.N,Net-(Q4-Pad4)*%
X154425000Y-102225000D03*
D17*
%TO.P,Q4,5*%
%TO.N,/V PHASE/V_PHASE*%
X154425000Y-96760000D03*
%TO.P,Q4,6*%
X155695000Y-96760000D03*
%TO.P,Q4,7*%
X156965000Y-96760000D03*
%TO.P,Q4,8*%
X158235000Y-96760000D03*
D18*
%TO.P,Q4,9*%
X156330000Y-98865000D03*
%TD*%
D23*
%TO.P,C25,1*%
%TO.N,/STM32/V_VSENSE*%
X129900000Y-95683333D03*
%TO.P,C25,2*%
%TO.N,GND*%
X128350000Y-95683333D03*
%TD*%
D28*
%TO.N,GND*%
X130800000Y-101200000D03*
D29*
X133200000Y-96400000D03*
X138000000Y-100400000D03*
X132000000Y-96400000D03*
D28*
%TO.N,VCC*%
X125000000Y-114750000D03*
X125000000Y-119750000D03*
X125000000Y-117250000D03*
X127000000Y-117250000D03*
X127000000Y-119750000D03*
X128875000Y-119750000D03*
X128875000Y-114750000D03*
X128875000Y-117250000D03*
X127000000Y-114750000D03*
D29*
%TO.N,/PWR/BUCK_EN*%
X140000000Y-111500000D03*
X134250000Y-111500000D03*
D30*
%TO.N,/STM32/V_LIN*%
X137950000Y-98000000D03*
D29*
%TO.N,GND*%
X139500000Y-87000000D03*
D28*
X155800000Y-124400000D03*
X157000000Y-124400000D03*
X160600000Y-122400000D03*
D31*
X125612500Y-87725000D03*
X134000000Y-76000000D03*
D28*
X155700000Y-104400000D03*
D31*
X131000000Y-75500000D03*
D28*
X133350000Y-119100000D03*
D31*
X133200000Y-78000000D03*
X126700000Y-95700000D03*
D28*
X159750000Y-82250000D03*
D31*
X123962500Y-89325000D03*
D30*
X115000000Y-103500000D03*
D29*
X144812500Y-106900000D03*
X145062500Y-86775000D03*
D28*
X156962500Y-84300000D03*
D31*
X126700000Y-97300000D03*
X126700000Y-91200000D03*
D28*
X159850000Y-102350000D03*
D31*
X123962500Y-84325000D03*
X128900000Y-84300000D03*
X131900000Y-78000000D03*
X127037500Y-84325000D03*
D28*
X156962500Y-104400000D03*
X155700000Y-84300000D03*
D31*
X132550000Y-78000000D03*
X126700000Y-94350000D03*
X128562500Y-88875000D03*
D29*
X145100000Y-66900000D03*
D28*
X168007500Y-90620000D03*
X167952500Y-107770000D03*
X168032500Y-68020000D03*
X139750000Y-95200000D03*
D29*
X167952500Y-110270000D03*
D28*
X135850000Y-80550000D03*
X168032500Y-70520000D03*
X168007500Y-88020000D03*
X137900000Y-76700000D03*
X139810000Y-115510000D03*
D32*
%TO.N,/PWR/VCC_SENSE*%
X134150000Y-89850000D03*
D29*
%TO.N,/STM32/U_VSENSE*%
X143250000Y-66900000D03*
D32*
X134152025Y-90526912D03*
D31*
X129850000Y-94425000D03*
D32*
%TO.N,/STM32/V_VSENSE*%
X134150000Y-91100000D03*
D29*
X143212500Y-86775000D03*
D31*
X129900000Y-96725000D03*
D32*
%TO.N,/STM32/W_VSENSE*%
X134150000Y-91700000D03*
D29*
X143012500Y-106900000D03*
D31*
X129900000Y-98900000D03*
D29*
%TO.N,/STM32/SWDIO*%
X134100000Y-74100000D03*
%TO.N,/STM32/SWCLK*%
X134100000Y-72790000D03*
%TO.N,/STM32/SWO*%
X134100000Y-71520000D03*
%TO.N,Net-(U5-HO)*%
X147080000Y-79239996D03*
X147080000Y-75005000D03*
%TO.N,Net-(U5-LO)*%
X147080000Y-80955000D03*
X147080000Y-76705000D03*
%TO.N,Net-(U6-HO)*%
X147062500Y-94975000D03*
X147062500Y-99209996D03*
%TO.N,Net-(U6-LO)*%
X147062500Y-96675000D03*
X147062500Y-100925000D03*
%TO.N,Net-(U7-HO)*%
X147012500Y-119259996D03*
X147012500Y-115025000D03*
%TO.N,Net-(U7-LO)*%
X147012500Y-116725000D03*
X147012500Y-120975000D03*
D30*
%TO.N,/STM32/W_HIN*%
X137900000Y-88200000D03*
X138150000Y-119250000D03*
%TO.N,/STM32/W_LIN*%
X135450000Y-94900000D03*
X138150000Y-118050000D03*
%TO.N,/STM32/V_LIN*%
X138450000Y-90450000D03*
%TO.N,/STM32/U_LIN*%
X137900000Y-78000000D03*
X134899997Y-88300000D03*
%TO.N,/STM32/V_HIN*%
X137900000Y-88950000D03*
X137950000Y-99250000D03*
%TO.N,/STM32/U_HIN*%
X137900000Y-79250000D03*
X135600000Y-88300000D03*
%TD*%
D33*
%TO.N,GND*%
X130850000Y-101250000D02*
X133525000Y-101250000D01*
X130800000Y-101200000D02*
X130850000Y-101250000D01*
%TO.N,Net-(D3-K)*%
X143110000Y-100510000D02*
X141925000Y-99325000D01*
D34*
%TO.N,/PWR/BUCK_EN*%
X140000000Y-111500000D02*
X134250000Y-111500000D01*
D35*
%TO.N,/STM32/V_VSENSE*%
X129900000Y-96725000D02*
X129900000Y-95775000D01*
%TO.N,GND*%
X157020000Y-124380000D02*
X157000000Y-124400000D01*
D33*
X157020000Y-122225000D02*
X157020000Y-124380000D01*
D36*
%TO.N,Net-(Q5-Pad4)*%
X152675000Y-113675000D02*
X152212500Y-113212500D01*
X154480000Y-113675000D02*
X152675000Y-113675000D01*
X152212500Y-110500000D02*
X152212500Y-113212500D01*
%TO.N,Net-(U7-HO)*%
X147500000Y-110500000D02*
X149287500Y-110500000D01*
X147012500Y-110987500D02*
X147500000Y-110500000D01*
X147012500Y-115025000D02*
X147012500Y-110987500D01*
D34*
%TO.N,/W PHASE/W_PHASE*%
X144825000Y-112860000D02*
X143230000Y-114455000D01*
X144825000Y-110600000D02*
X144825000Y-112860000D01*
D36*
%TO.N,Net-(Q3-Pad4)*%
X152212500Y-93212500D02*
X152212500Y-90750000D01*
X154425000Y-93675000D02*
X152675000Y-93675000D01*
X152675000Y-93675000D02*
X152212500Y-93212500D01*
%TO.N,Net-(U6-HO)*%
X147062500Y-91187500D02*
X147500000Y-90750000D01*
X147062500Y-94975000D02*
X147062500Y-91187500D01*
X147500000Y-90750000D02*
X149287500Y-90750000D01*
%TO.N,Net-(Q1-Pad4)*%
X152212500Y-72962500D02*
X152212500Y-70750000D01*
X152925000Y-73675000D02*
X152212500Y-72962500D01*
X154425000Y-73675000D02*
X152925000Y-73675000D01*
%TO.N,Net-(U5-HO)*%
X147537500Y-70750000D02*
X149287500Y-70750000D01*
X147080000Y-71207500D02*
X147537500Y-70750000D01*
X147080000Y-75005000D02*
X147080000Y-71207500D01*
D34*
%TO.N,/V PHASE/V_PHASE*%
X145075000Y-92610000D02*
X145075000Y-90775000D01*
X143180000Y-94505000D02*
X145075000Y-92610000D01*
%TO.N,/U PHASE/U_PHASE*%
X145075000Y-72359996D02*
X143180000Y-74254996D01*
X145075000Y-70750000D02*
X145075000Y-72359996D01*
%TO.N,/STM32/U_VSENSE*%
X143250000Y-70750000D02*
X143250000Y-68712500D01*
D37*
%TO.N,VCC*%
X142630000Y-84180000D02*
X142700000Y-84250000D01*
D33*
%TO.N,Net-(D2-K)*%
X144730000Y-84180000D02*
X144730000Y-80535000D01*
X144730000Y-80535000D02*
X144705000Y-80510000D01*
X144800000Y-84250000D02*
X144730000Y-84180000D01*
D37*
%TO.N,VCC*%
X139755000Y-80510000D02*
X141185000Y-80510000D01*
X142630000Y-81955000D02*
X142630000Y-84180000D01*
X141185000Y-80510000D02*
X142630000Y-81955000D01*
%TO.N,GND*%
X139810000Y-115510000D02*
X139810000Y-116700000D01*
D33*
X156962500Y-83625000D02*
X156965000Y-83622500D01*
X156962500Y-84300000D02*
X156962500Y-83625000D01*
X156965000Y-83622500D02*
X156965000Y-82225000D01*
X155700000Y-83612500D02*
X155695000Y-83607500D01*
X155695000Y-83607500D02*
X155695000Y-82225000D01*
X155700000Y-84300000D02*
X155700000Y-83612500D01*
X156965000Y-103572500D02*
X156965000Y-102225000D01*
X156962500Y-103575000D02*
X156965000Y-103572500D01*
X156962500Y-104400000D02*
X156962500Y-103575000D01*
X155695000Y-103542500D02*
X155695000Y-102225000D01*
X155700000Y-104400000D02*
X155700000Y-103547500D01*
X155700000Y-103547500D02*
X155695000Y-103542500D01*
X155750000Y-124350000D02*
X155800000Y-124400000D01*
X155750000Y-122225000D02*
X155750000Y-124350000D01*
X160450000Y-122250000D02*
X160600000Y-122400000D01*
X159900000Y-122250000D02*
X160450000Y-122250000D01*
X167932500Y-107750000D02*
X167952500Y-107770000D01*
D35*
X145075000Y-86787500D02*
X145062500Y-86775000D01*
D33*
X166225000Y-68000000D02*
X168012500Y-68000000D01*
D35*
X126716667Y-95683333D02*
X126700000Y-95700000D01*
D33*
X167932500Y-110250000D02*
X167952500Y-110270000D01*
X135850000Y-82662500D02*
X135837500Y-82675000D01*
X139755000Y-76700000D02*
X137900000Y-76700000D01*
D35*
X128350000Y-91150000D02*
X126750000Y-91150000D01*
D33*
X133355000Y-121155000D02*
X133355000Y-119105000D01*
D35*
X144825000Y-106912500D02*
X144812500Y-106900000D01*
D33*
X158260000Y-82250000D02*
X158235000Y-82225000D01*
D34*
X115062500Y-103562500D02*
X115000000Y-103500000D01*
D35*
X145062500Y-66937500D02*
X145100000Y-66900000D01*
X128350000Y-95683333D02*
X126716667Y-95683333D01*
D34*
X145075000Y-88725000D02*
X145075000Y-86787500D01*
D33*
X166200000Y-88000000D02*
X167987500Y-88000000D01*
X166200000Y-107750000D02*
X167932500Y-107750000D01*
D34*
X115062500Y-104962500D02*
X115062500Y-103562500D01*
D33*
X133355000Y-119105000D02*
X133350000Y-119100000D01*
D34*
X144825000Y-108587500D02*
X144825000Y-106912500D01*
D33*
X167887500Y-90500000D02*
X168007500Y-90620000D01*
X166200000Y-110250000D02*
X167932500Y-110250000D01*
D35*
X128350000Y-97950000D02*
X127350000Y-97950000D01*
X127350000Y-97950000D02*
X126700000Y-97300000D01*
D33*
X158360000Y-102350000D02*
X158235000Y-102225000D01*
X139750000Y-95200000D02*
X139750000Y-95400000D01*
X166200000Y-90500000D02*
X167887500Y-90500000D01*
D34*
X145062500Y-68700000D02*
X145062500Y-66937500D01*
D35*
X128300000Y-93416667D02*
X127633333Y-93416667D01*
D33*
X159850000Y-102350000D02*
X158360000Y-102350000D01*
X139755000Y-95405000D02*
X139755000Y-96700000D01*
X168012500Y-70500000D02*
X168032500Y-70520000D01*
D35*
X126750000Y-91150000D02*
X126700000Y-91200000D01*
X127633333Y-93416667D02*
X126700000Y-94350000D01*
D33*
X167987500Y-88000000D02*
X168007500Y-88020000D01*
X139750000Y-95400000D02*
X139755000Y-95405000D01*
X166225000Y-70500000D02*
X168012500Y-70500000D01*
X135850000Y-80550000D02*
X135850000Y-82662500D01*
X168012500Y-68000000D02*
X168032500Y-68020000D01*
X159750000Y-82250000D02*
X158260000Y-82250000D01*
D34*
%TO.N,/PWR/VCC_SENSE*%
X125600000Y-93300000D02*
X126650000Y-92250000D01*
X123662500Y-106787500D02*
X125600000Y-104850000D01*
X125600000Y-104850000D02*
X125600000Y-93300000D01*
X129900000Y-91150000D02*
X129900000Y-90450000D01*
X130500000Y-89850000D02*
X134150000Y-89850000D01*
X129200000Y-92250000D02*
X129900000Y-91550000D01*
X126650000Y-92250000D02*
X129200000Y-92250000D01*
X129900000Y-90450000D02*
X130500000Y-89850000D01*
X129900000Y-91550000D02*
X129900000Y-91150000D01*
X115062500Y-106787500D02*
X123662500Y-106787500D01*
X115062500Y-108762500D02*
X115062500Y-106787500D01*
D37*
%TO.N,VCC*%
X141700000Y-120500000D02*
X141690000Y-120510000D01*
D33*
X136305000Y-121155000D02*
X139165000Y-121155000D01*
X139165000Y-121155000D02*
X139810000Y-120510000D01*
X139015000Y-101250000D02*
X139755000Y-100510000D01*
D37*
X142630000Y-103605000D02*
X142630000Y-101980000D01*
X142630000Y-123705000D02*
X142630000Y-121430000D01*
X141160000Y-100510000D02*
X139755000Y-100510000D01*
D33*
X136475000Y-101250000D02*
X139015000Y-101250000D01*
X138787500Y-82675000D02*
X138787500Y-81477500D01*
D37*
X142630000Y-121430000D02*
X141700000Y-120500000D01*
D33*
X115012500Y-110637500D02*
X115062500Y-110587500D01*
D37*
X141690000Y-120510000D02*
X139810000Y-120510000D01*
X142630000Y-101980000D02*
X141160000Y-100510000D01*
D33*
X138787500Y-81477500D02*
X139755000Y-80510000D01*
%TO.N,Net-(D2-K)*%
X142050000Y-78839999D02*
X142050000Y-75024996D01*
X142050000Y-75024996D02*
X141280000Y-74254996D01*
X143720001Y-80510000D02*
X142050000Y-78839999D01*
X144705000Y-80510000D02*
X143720001Y-80510000D01*
D35*
X144730000Y-80534996D02*
X144705000Y-80509996D01*
%TO.N,/U PHASE/U_PHASE*%
X144705000Y-77969996D02*
X143720001Y-77969996D01*
%TO.N,/STM32/U_VSENSE*%
X143250000Y-68712500D02*
X143237500Y-68700000D01*
X132200000Y-92950000D02*
X131733333Y-93416667D01*
X132200000Y-90950000D02*
X132200000Y-92950000D01*
D34*
X143237500Y-68700000D02*
X143237500Y-66912500D01*
D35*
X143237500Y-66912500D02*
X143250000Y-66900000D01*
X134152025Y-90526912D02*
X132623088Y-90526912D01*
X131733333Y-93416667D02*
X129850000Y-93416667D01*
X132623088Y-90526912D02*
X132200000Y-90950000D01*
X129850000Y-94425000D02*
X129850000Y-93475000D01*
D33*
%TO.N,Net-(D3-K)*%
X141925000Y-99325000D02*
X141925000Y-95150000D01*
X144730000Y-103605000D02*
X144730000Y-100535000D01*
X144705000Y-100510000D02*
X143110000Y-100510000D01*
X141925000Y-95150000D02*
X141280000Y-94505000D01*
X144730000Y-100535000D02*
X144705000Y-100510000D01*
D35*
%TO.N,/STM32/V_VSENSE*%
X133000000Y-95200000D02*
X132516667Y-95683333D01*
X134150000Y-91100000D02*
X133500000Y-91100000D01*
X133000000Y-91600000D02*
X133000000Y-95200000D01*
D34*
X143250000Y-90775000D02*
X143250000Y-88725000D01*
D35*
X130116667Y-95683333D02*
X129900000Y-95683333D01*
X143250000Y-86812500D02*
X143212500Y-86775000D01*
D34*
X143250000Y-88725000D02*
X143250000Y-86812500D01*
D35*
X133500000Y-91100000D02*
X133000000Y-91600000D01*
X132516667Y-95683333D02*
X129900000Y-95683333D01*
D33*
%TO.N,Net-(D4-K)*%
X144730000Y-123705000D02*
X144730000Y-120540000D01*
X144760000Y-120510000D02*
X143775001Y-120510000D01*
X141900000Y-115025000D02*
X141330000Y-114455000D01*
X141900000Y-118634999D02*
X141900000Y-115025000D01*
X143775001Y-120510000D02*
X141900000Y-118634999D01*
X144730000Y-120540000D02*
X144760000Y-120510000D01*
D35*
%TO.N,/STM32/W_VSENSE*%
X134150000Y-97100000D02*
X133300000Y-97950000D01*
X133300000Y-97950000D02*
X129900000Y-97950000D01*
D34*
X143000000Y-110600000D02*
X143000000Y-108587500D01*
D35*
X134150000Y-91700000D02*
X134150000Y-97100000D01*
X143000000Y-106912500D02*
X143012500Y-106900000D01*
D34*
X143000000Y-108587500D02*
X143000000Y-106912500D01*
D35*
X129900000Y-98900000D02*
X129900000Y-97950000D01*
X134100000Y-91700000D02*
X134150000Y-91700000D01*
%TO.N,/STM32/SWDIO*%
X134140000Y-74060000D02*
X134100000Y-74100000D01*
D34*
X136780000Y-74060000D02*
X134140000Y-74060000D01*
%TO.N,/STM32/SWCLK*%
X134100000Y-72790000D02*
X136780000Y-72790000D01*
%TO.N,/STM32/SWO*%
X134100000Y-71520000D02*
X136780000Y-71520000D01*
D36*
%TO.N,Net-(Q2-Pad4)*%
X154425000Y-82225000D02*
X153512500Y-82225000D01*
X153512500Y-82225000D02*
X152242500Y-80955000D01*
%TO.N,Net-(Q4-Pad4)*%
X154425000Y-102225000D02*
X153512500Y-102225000D01*
X153512500Y-102225000D02*
X152242500Y-100955000D01*
%TO.N,Net-(Q6-Pad4)*%
X154480000Y-122225000D02*
X153567500Y-122225000D01*
X153567500Y-122225000D02*
X152297500Y-120955000D01*
%TO.N,Net-(U5-HO)*%
X147080000Y-79239996D02*
X144705000Y-79239996D01*
%TO.N,Net-(U5-LO)*%
X144705000Y-76699996D02*
X147074996Y-76699996D01*
X147080000Y-80955000D02*
X149317500Y-80955000D01*
X147074996Y-76699996D02*
X147080000Y-76705000D01*
%TO.N,Net-(U6-HO)*%
X147062500Y-99209996D02*
X144687500Y-99209996D01*
%TO.N,Net-(U6-LO)*%
X147062500Y-100925000D02*
X149300000Y-100925000D01*
X144687500Y-96669996D02*
X147057496Y-96669996D01*
%TO.N,Net-(U7-HO)*%
X147012500Y-119259996D02*
X144637500Y-119259996D01*
%TO.N,Net-(U7-LO)*%
X147012500Y-120975000D02*
X149250000Y-120975000D01*
X144637500Y-116719996D02*
X147007496Y-116719996D01*
D35*
%TO.N,/STM32/W_HIN*%
X139825000Y-119225000D02*
X139810000Y-119240000D01*
X138160000Y-119240000D02*
X138150000Y-119250000D01*
X139810000Y-119240000D02*
X138160000Y-119240000D01*
%TO.N,/STM32/W_LIN*%
X139810000Y-117970000D02*
X138230000Y-117970000D01*
X138230000Y-117970000D02*
X138150000Y-118050000D01*
%TO.N,/STM32/V_LIN*%
X139760000Y-97975000D02*
X139755000Y-97970000D01*
%TO.N,/STM32/U_LIN*%
X139755000Y-77970000D02*
X137930000Y-77970000D01*
X137930000Y-77970000D02*
X137900000Y-78000000D01*
%TO.N,/STM32/V_HIN*%
X139770000Y-99225000D02*
X139755000Y-99240000D01*
X139755000Y-99240000D02*
X137960000Y-99240000D01*
X137960000Y-99240000D02*
X137950000Y-99250000D01*
%TO.N,/STM32/U_HIN*%
X139755000Y-79240000D02*
X137910000Y-79240000D01*
X137910000Y-79240000D02*
X137900000Y-79250000D01*
D33*
%TO.N,GND*%
X158315000Y-122250000D02*
X158290000Y-122225000D01*
X159900000Y-122250000D02*
X158315000Y-122250000D01*
D35*
%TO.N,/STM32/V_LIN*%
X139755000Y-97970000D02*
X137980000Y-97970000D01*
X137980000Y-97970000D02*
X137950000Y-98000000D01*
%TD*%
%TA.AperFunction,Conductor*%
%TO.N,/W PHASE/W_PHASE*%
G36*
X146324343Y-112662049D02*
G01*
X146393584Y-112717268D01*
X146432011Y-112797060D01*
X146437000Y-112841342D01*
X146437000Y-114565063D01*
X146417293Y-114651406D01*
X146403464Y-114675619D01*
X146391727Y-114693185D01*
X146391722Y-114693193D01*
X146338920Y-114820670D01*
X146338919Y-114820674D01*
X146312000Y-114956007D01*
X146312000Y-115093992D01*
X146338919Y-115229325D01*
X146338920Y-115229329D01*
X146391722Y-115356806D01*
X146391725Y-115356811D01*
X146468386Y-115471542D01*
X146565958Y-115569114D01*
X146680689Y-115645775D01*
X146753663Y-115676002D01*
X146790229Y-115691148D01*
X146796475Y-115695579D01*
X146803908Y-115697430D01*
X146832331Y-115721021D01*
X146862458Y-115742397D01*
X146866163Y-115749100D01*
X146872056Y-115753992D01*
X146887431Y-115787583D01*
X146905297Y-115819910D01*
X146905726Y-115827554D01*
X146908915Y-115834521D01*
X146908192Y-115871459D01*
X146910263Y-115908334D01*
X146907331Y-115915410D01*
X146907182Y-115923068D01*
X146890508Y-115956027D01*
X146876372Y-115990155D01*
X146870660Y-115995258D01*
X146867203Y-116002094D01*
X146843239Y-116019763D01*
X146810335Y-116049169D01*
X146796895Y-116055947D01*
X146793582Y-116057463D01*
X146680689Y-116104225D01*
X146657362Y-116119810D01*
X146642873Y-116126443D01*
X146614728Y-116132290D01*
X146587872Y-116142542D01*
X146560053Y-116144496D01*
X146088187Y-116144496D01*
X146001844Y-116124789D01*
X145968933Y-116104805D01*
X145900226Y-116053372D01*
X145772114Y-116005588D01*
X145739614Y-116002094D01*
X145715486Y-115999500D01*
X143804511Y-115999500D01*
X143747888Y-116005587D01*
X143619771Y-116053373D01*
X143510313Y-116135311D01*
X143510311Y-116135313D01*
X143428372Y-116244772D01*
X143380588Y-116372886D01*
X143374500Y-116429514D01*
X143374500Y-116970488D01*
X143380587Y-117027111D01*
X143428373Y-117155228D01*
X143510311Y-117264686D01*
X143510313Y-117264688D01*
X143619772Y-117346627D01*
X143619773Y-117346627D01*
X143619774Y-117346628D01*
X143747886Y-117394412D01*
X143804515Y-117400500D01*
X145715484Y-117400499D01*
X145715488Y-117400499D01*
X145747844Y-117397020D01*
X145772114Y-117394412D01*
X145900226Y-117346628D01*
X145915510Y-117335186D01*
X145996441Y-117299221D01*
X146034764Y-117295496D01*
X146545075Y-117295496D01*
X146631418Y-117315203D01*
X146655634Y-117329034D01*
X146680686Y-117345773D01*
X146680693Y-117345777D01*
X146682748Y-117346628D01*
X146808172Y-117398580D01*
X146943507Y-117425500D01*
X146943508Y-117425500D01*
X147081492Y-117425500D01*
X147081493Y-117425500D01*
X147216828Y-117398580D01*
X147344311Y-117345775D01*
X147459042Y-117269114D01*
X147556614Y-117171542D01*
X147633275Y-117056811D01*
X147686080Y-116929328D01*
X147713000Y-116793993D01*
X147713000Y-116656007D01*
X147686080Y-116520672D01*
X147633275Y-116393189D01*
X147633271Y-116393183D01*
X147622374Y-116376873D01*
X147594616Y-116335332D01*
X165541773Y-116335332D01*
X165603796Y-116366935D01*
X165603797Y-116366936D01*
X165824598Y-116438679D01*
X165824610Y-116438682D01*
X166053915Y-116475000D01*
X166286085Y-116475000D01*
X166515389Y-116438682D01*
X166515401Y-116438679D01*
X166736199Y-116366937D01*
X166736205Y-116366934D01*
X166798226Y-116335333D01*
X166798226Y-116335332D01*
X170621773Y-116335332D01*
X170683796Y-116366935D01*
X170683797Y-116366936D01*
X170904598Y-116438679D01*
X170904610Y-116438682D01*
X171133915Y-116475000D01*
X171366085Y-116475000D01*
X171595389Y-116438682D01*
X171595401Y-116438679D01*
X171816199Y-116366937D01*
X171816205Y-116366934D01*
X171878226Y-116335333D01*
X171878226Y-116335332D01*
X171250001Y-115707106D01*
X171250000Y-115707106D01*
X170621773Y-116335332D01*
X166798226Y-116335332D01*
X166170001Y-115707106D01*
X166170000Y-115707106D01*
X165541773Y-116335332D01*
X147594616Y-116335332D01*
X147582586Y-116317328D01*
X147556614Y-116278458D01*
X147459042Y-116180886D01*
X147345178Y-116104804D01*
X147344313Y-116104226D01*
X147344306Y-116104222D01*
X147234771Y-116058852D01*
X147162542Y-116007604D01*
X147119702Y-115930091D01*
X147114736Y-115841667D01*
X147148627Y-115759845D01*
X147214663Y-115700831D01*
X147234771Y-115691148D01*
X147344306Y-115645777D01*
X147344305Y-115645777D01*
X147344311Y-115645775D01*
X147459042Y-115569114D01*
X147556614Y-115471542D01*
X147633275Y-115356811D01*
X147686080Y-115229328D01*
X147713000Y-115093993D01*
X147713000Y-114956007D01*
X147698660Y-114883915D01*
X164695000Y-114883915D01*
X164695000Y-115116084D01*
X164731317Y-115345389D01*
X164731320Y-115345401D01*
X164803062Y-115566198D01*
X164803063Y-115566202D01*
X164834666Y-115628225D01*
X165462893Y-115000000D01*
X165398874Y-114935981D01*
X165520000Y-114935981D01*
X165520000Y-115064019D01*
X165544979Y-115189598D01*
X165593978Y-115307890D01*
X165665112Y-115414351D01*
X165755649Y-115504888D01*
X165862110Y-115576022D01*
X165980402Y-115625021D01*
X166105981Y-115650000D01*
X166234019Y-115650000D01*
X166359598Y-115625021D01*
X166477890Y-115576022D01*
X166584351Y-115504888D01*
X166674888Y-115414351D01*
X166746022Y-115307890D01*
X166795021Y-115189598D01*
X166820000Y-115064019D01*
X166820000Y-114999999D01*
X166877106Y-114999999D01*
X166877106Y-115000000D01*
X167505332Y-115628226D01*
X167505333Y-115628226D01*
X167536934Y-115566205D01*
X167536937Y-115566199D01*
X167608679Y-115345401D01*
X167608682Y-115345389D01*
X167645000Y-115116084D01*
X167645000Y-114883915D01*
X169775000Y-114883915D01*
X169775000Y-115116084D01*
X169811317Y-115345389D01*
X169811320Y-115345401D01*
X169883062Y-115566198D01*
X169883063Y-115566202D01*
X169914666Y-115628225D01*
X170542893Y-115000000D01*
X170478874Y-114935981D01*
X170600000Y-114935981D01*
X170600000Y-115064019D01*
X170624979Y-115189598D01*
X170673978Y-115307890D01*
X170745112Y-115414351D01*
X170835649Y-115504888D01*
X170942110Y-115576022D01*
X171060402Y-115625021D01*
X171185981Y-115650000D01*
X171314019Y-115650000D01*
X171439598Y-115625021D01*
X171557890Y-115576022D01*
X171664351Y-115504888D01*
X171754888Y-115414351D01*
X171826022Y-115307890D01*
X171875021Y-115189598D01*
X171900000Y-115064019D01*
X171900000Y-114935981D01*
X171875021Y-114810402D01*
X171826022Y-114692110D01*
X171754888Y-114585649D01*
X171664351Y-114495112D01*
X171557890Y-114423978D01*
X171439598Y-114374979D01*
X171314019Y-114350000D01*
X171185981Y-114350000D01*
X171060402Y-114374979D01*
X170942110Y-114423978D01*
X170835649Y-114495112D01*
X170745112Y-114585649D01*
X170673978Y-114692110D01*
X170624979Y-114810402D01*
X170600000Y-114935981D01*
X170478874Y-114935981D01*
X169914666Y-114371773D01*
X169914665Y-114371773D01*
X169883066Y-114433792D01*
X169883062Y-114433802D01*
X169811320Y-114654599D01*
X169811317Y-114654610D01*
X169775000Y-114883915D01*
X167645000Y-114883915D01*
X167608682Y-114654610D01*
X167608679Y-114654598D01*
X167536936Y-114433797D01*
X167536935Y-114433796D01*
X167505332Y-114371773D01*
X166877106Y-114999999D01*
X166820000Y-114999999D01*
X166820000Y-114935981D01*
X166795021Y-114810402D01*
X166746022Y-114692110D01*
X166674888Y-114585649D01*
X166584351Y-114495112D01*
X166477890Y-114423978D01*
X166359598Y-114374979D01*
X166234019Y-114350000D01*
X166105981Y-114350000D01*
X165980402Y-114374979D01*
X165862110Y-114423978D01*
X165755649Y-114495112D01*
X165665112Y-114585649D01*
X165593978Y-114692110D01*
X165544979Y-114810402D01*
X165520000Y-114935981D01*
X165398874Y-114935981D01*
X164834666Y-114371773D01*
X164834665Y-114371773D01*
X164803066Y-114433792D01*
X164803062Y-114433802D01*
X164731320Y-114654599D01*
X164731317Y-114654610D01*
X164695000Y-114883915D01*
X147698660Y-114883915D01*
X147686080Y-114820672D01*
X147668478Y-114778177D01*
X147633277Y-114693193D01*
X147633272Y-114693185D01*
X147621536Y-114675619D01*
X147589954Y-114592879D01*
X147588000Y-114565063D01*
X147588000Y-112841342D01*
X147607707Y-112754999D01*
X147662926Y-112685758D01*
X147742718Y-112647331D01*
X147787000Y-112642342D01*
X151438000Y-112642342D01*
X151524343Y-112662049D01*
X151593584Y-112717268D01*
X151632011Y-112797060D01*
X151637000Y-112841342D01*
X151637000Y-113136734D01*
X151637000Y-113288266D01*
X151648826Y-113332402D01*
X151676218Y-113434634D01*
X151676219Y-113434635D01*
X151749359Y-113561317D01*
X151751986Y-113565866D01*
X152321633Y-114135513D01*
X152321632Y-114135513D01*
X152321634Y-114135514D01*
X152321635Y-114135515D01*
X152452865Y-114211281D01*
X152599234Y-114250500D01*
X153590123Y-114250500D01*
X153676466Y-114270207D01*
X153745707Y-114325426D01*
X153784134Y-114405218D01*
X153786667Y-114418338D01*
X153789354Y-114435304D01*
X153789354Y-114435305D01*
X153789355Y-114435306D01*
X153846951Y-114548344D01*
X153936657Y-114638050D01*
X154010391Y-114675619D01*
X154049696Y-114695646D01*
X154143481Y-114710500D01*
X154816518Y-114710499D01*
X154910304Y-114695646D01*
X155023342Y-114638050D01*
X155113050Y-114548342D01*
X155170646Y-114435304D01*
X155185500Y-114341519D01*
X155185499Y-113664666D01*
X155185499Y-113664665D01*
X165541773Y-113664665D01*
X165541773Y-113664666D01*
X166170000Y-114292893D01*
X166170001Y-114292893D01*
X166798226Y-113664666D01*
X166798224Y-113664665D01*
X170621773Y-113664665D01*
X170621773Y-113664666D01*
X171250000Y-114292893D01*
X171250001Y-114292893D01*
X171878226Y-113664666D01*
X171816202Y-113633063D01*
X171816198Y-113633062D01*
X171595401Y-113561320D01*
X171595389Y-113561317D01*
X171366085Y-113525000D01*
X171133915Y-113525000D01*
X170904610Y-113561317D01*
X170904599Y-113561320D01*
X170683802Y-113633062D01*
X170683792Y-113633066D01*
X170621773Y-113664665D01*
X166798224Y-113664665D01*
X166736202Y-113633063D01*
X166736198Y-113633062D01*
X166515401Y-113561320D01*
X166515389Y-113561317D01*
X166286085Y-113525000D01*
X166053915Y-113525000D01*
X165824610Y-113561317D01*
X165824599Y-113561320D01*
X165603802Y-113633062D01*
X165603792Y-113633066D01*
X165541773Y-113664665D01*
X155185499Y-113664665D01*
X155185499Y-113008481D01*
X155168418Y-112900627D01*
X155174376Y-112812264D01*
X155218084Y-112735238D01*
X155290884Y-112684803D01*
X155364968Y-112670499D01*
X158321518Y-112670499D01*
X158415304Y-112655646D01*
X158415309Y-112655643D01*
X158426273Y-112652082D01*
X158487767Y-112642342D01*
X172613422Y-112642342D01*
X172699765Y-112662049D01*
X172769006Y-112717268D01*
X172807433Y-112797060D01*
X172812422Y-112841342D01*
X172812422Y-114174741D01*
X172792715Y-114261084D01*
X172737496Y-114330325D01*
X172657704Y-114368752D01*
X172585936Y-114371168D01*
X171957106Y-114999999D01*
X171957106Y-115000000D01*
X172586068Y-115628961D01*
X172670654Y-115634665D01*
X172747682Y-115678371D01*
X172798117Y-115751171D01*
X172812422Y-115825257D01*
X172812422Y-121000326D01*
X172792715Y-121086669D01*
X172737496Y-121155910D01*
X172657704Y-121194337D01*
X172612526Y-121199324D01*
X160352867Y-121144100D01*
X159962422Y-121142342D01*
X159962418Y-121142342D01*
X153661422Y-121142342D01*
X153575079Y-121122635D01*
X153505838Y-121067416D01*
X153467411Y-120987624D01*
X153462422Y-120943342D01*
X153462422Y-118572342D01*
X147146074Y-118572342D01*
X147081493Y-118559496D01*
X146943507Y-118559496D01*
X146878926Y-118572342D01*
X145879747Y-118572342D01*
X145810204Y-118559795D01*
X145772114Y-118545588D01*
X145743799Y-118542544D01*
X145715486Y-118539500D01*
X143804511Y-118539500D01*
X143747888Y-118545587D01*
X143731348Y-118551756D01*
X143709795Y-118559795D01*
X143640252Y-118572342D01*
X142839717Y-118572342D01*
X142807169Y-118564913D01*
X142773991Y-118561175D01*
X142764407Y-118555153D01*
X142753374Y-118552635D01*
X142699003Y-118514056D01*
X142608786Y-118423839D01*
X142561667Y-118348851D01*
X142550500Y-118283125D01*
X142550500Y-114960931D01*
X142525501Y-114835258D01*
X142525501Y-114835256D01*
X142476465Y-114716873D01*
X142456495Y-114686985D01*
X142405277Y-114610331D01*
X142319524Y-114524578D01*
X142313782Y-114517696D01*
X142297657Y-114486027D01*
X142278747Y-114455932D01*
X142276926Y-114445310D01*
X142273598Y-114438774D01*
X142273270Y-114423982D01*
X142267581Y-114390798D01*
X142263011Y-112841928D01*
X142282463Y-112755529D01*
X142337477Y-112686124D01*
X142417156Y-112647463D01*
X142462010Y-112642342D01*
X146238000Y-112642342D01*
X146324343Y-112662049D01*
G37*
%TD.AperFunction*%
%TD*%
%TA.AperFunction,Conductor*%
%TO.N,/U PHASE/U_PHASE*%
G36*
X146391843Y-72694707D02*
G01*
X146461084Y-72749926D01*
X146499511Y-72829718D01*
X146504500Y-72874000D01*
X146504500Y-74545063D01*
X146484793Y-74631406D01*
X146470964Y-74655619D01*
X146459227Y-74673185D01*
X146459222Y-74673193D01*
X146406420Y-74800670D01*
X146406419Y-74800674D01*
X146379500Y-74936007D01*
X146379500Y-75073992D01*
X146406419Y-75209325D01*
X146406420Y-75209329D01*
X146459222Y-75336806D01*
X146459226Y-75336813D01*
X146486475Y-75377594D01*
X146535886Y-75451542D01*
X146633458Y-75549114D01*
X146748189Y-75625775D01*
X146785064Y-75641049D01*
X146857729Y-75671148D01*
X146863975Y-75675579D01*
X146871408Y-75677430D01*
X146899831Y-75701021D01*
X146929958Y-75722397D01*
X146933663Y-75729100D01*
X146939556Y-75733992D01*
X146954931Y-75767583D01*
X146972797Y-75799910D01*
X146973226Y-75807554D01*
X146976415Y-75814521D01*
X146975692Y-75851459D01*
X146977763Y-75888334D01*
X146974831Y-75895410D01*
X146974682Y-75903068D01*
X146958008Y-75936027D01*
X146943872Y-75970155D01*
X146938160Y-75975258D01*
X146934703Y-75982094D01*
X146910739Y-75999763D01*
X146877835Y-76029169D01*
X146864395Y-76035947D01*
X146861082Y-76037463D01*
X146748189Y-76084225D01*
X146724862Y-76099810D01*
X146710373Y-76106443D01*
X146682228Y-76112290D01*
X146655372Y-76122542D01*
X146627553Y-76124496D01*
X146006470Y-76124496D01*
X145920127Y-76104789D01*
X145887214Y-76084804D01*
X145886437Y-76084222D01*
X145845226Y-76053372D01*
X145717114Y-76005588D01*
X145688799Y-76002544D01*
X145660486Y-75999500D01*
X143749511Y-75999500D01*
X143692888Y-76005587D01*
X143564771Y-76053373D01*
X143455313Y-76135311D01*
X143455311Y-76135313D01*
X143373372Y-76244772D01*
X143325588Y-76372886D01*
X143319500Y-76429514D01*
X143319500Y-76970488D01*
X143325587Y-77027111D01*
X143373374Y-77155231D01*
X143373394Y-77155267D01*
X143373413Y-77155334D01*
X143378346Y-77168560D01*
X143377263Y-77168963D01*
X143397475Y-77240494D01*
X143382194Y-77327729D01*
X143356612Y-77371777D01*
X143292736Y-77455021D01*
X143234800Y-77594892D01*
X143234799Y-77594898D01*
X143224911Y-77669999D01*
X143224912Y-77670000D01*
X146185088Y-77670000D01*
X146185088Y-77669999D01*
X146175200Y-77594898D01*
X146175199Y-77594893D01*
X146156873Y-77550648D01*
X146154043Y-77533996D01*
X146146715Y-77518778D01*
X146146715Y-77490858D01*
X146142039Y-77463336D01*
X146146715Y-77447105D01*
X146146715Y-77430214D01*
X146158827Y-77405062D01*
X146166557Y-77378234D01*
X146177814Y-77365637D01*
X146185142Y-77350422D01*
X146206965Y-77333017D01*
X146225572Y-77312198D01*
X146241177Y-77305734D01*
X146254383Y-77295203D01*
X146281600Y-77288990D01*
X146307394Y-77278307D01*
X146340726Y-77275496D01*
X146612575Y-77275496D01*
X146698918Y-77295203D01*
X146723134Y-77309034D01*
X146748186Y-77325773D01*
X146748193Y-77325777D01*
X146807692Y-77350422D01*
X146875672Y-77378580D01*
X147011007Y-77405500D01*
X147011008Y-77405500D01*
X147148992Y-77405500D01*
X147148993Y-77405500D01*
X147284328Y-77378580D01*
X147411811Y-77325775D01*
X147423713Y-77317822D01*
X153620000Y-77317822D01*
X153626401Y-77377372D01*
X153626403Y-77377381D01*
X153676646Y-77512087D01*
X153676647Y-77512090D01*
X153762810Y-77627189D01*
X153845257Y-77688908D01*
X153902567Y-77756427D01*
X153924907Y-77842127D01*
X153925000Y-77848215D01*
X153925000Y-78365000D01*
X158735000Y-78365000D01*
X158735000Y-77848215D01*
X158754707Y-77761872D01*
X158809926Y-77692631D01*
X158814743Y-77688908D01*
X158897189Y-77627189D01*
X158983352Y-77512090D01*
X158983353Y-77512087D01*
X159033596Y-77377381D01*
X159033598Y-77377372D01*
X159040000Y-77317822D01*
X159040000Y-77065000D01*
X153620000Y-77065000D01*
X153620000Y-77317822D01*
X147423713Y-77317822D01*
X147526542Y-77249114D01*
X147624114Y-77151542D01*
X147700775Y-77036811D01*
X147753580Y-76909328D01*
X147780500Y-76773993D01*
X147780500Y-76636007D01*
X147753580Y-76500672D01*
X147724106Y-76429515D01*
X147700777Y-76373193D01*
X147700774Y-76373188D01*
X147700572Y-76372886D01*
X147624114Y-76258458D01*
X147567833Y-76202177D01*
X153620000Y-76202177D01*
X153620000Y-76455000D01*
X154120000Y-76455000D01*
X154730000Y-76455000D01*
X155390000Y-76455000D01*
X156000000Y-76455000D01*
X156660000Y-76455000D01*
X157270000Y-76455000D01*
X157930000Y-76455000D01*
X158540000Y-76455000D01*
X159040000Y-76455000D01*
X159040000Y-76335332D01*
X165541773Y-76335332D01*
X165603796Y-76366935D01*
X165603797Y-76366936D01*
X165824598Y-76438679D01*
X165824610Y-76438682D01*
X166053915Y-76475000D01*
X166286085Y-76475000D01*
X166515389Y-76438682D01*
X166515401Y-76438679D01*
X166736199Y-76366937D01*
X166736205Y-76366934D01*
X166798226Y-76335333D01*
X166798226Y-76335332D01*
X170621773Y-76335332D01*
X170683796Y-76366935D01*
X170683797Y-76366936D01*
X170904598Y-76438679D01*
X170904610Y-76438682D01*
X171133915Y-76475000D01*
X171366085Y-76475000D01*
X171595389Y-76438682D01*
X171595401Y-76438679D01*
X171816199Y-76366937D01*
X171816205Y-76366934D01*
X171878226Y-76335333D01*
X171878226Y-76335332D01*
X171250001Y-75707106D01*
X171250000Y-75707106D01*
X170621773Y-76335332D01*
X166798226Y-76335332D01*
X166170001Y-75707106D01*
X166170000Y-75707106D01*
X165541773Y-76335332D01*
X159040000Y-76335332D01*
X159040000Y-76202177D01*
X159033598Y-76142627D01*
X159033596Y-76142618D01*
X158983353Y-76007912D01*
X158983352Y-76007909D01*
X158897189Y-75892810D01*
X158782090Y-75806647D01*
X158782087Y-75806646D01*
X158647381Y-75756403D01*
X158647372Y-75756401D01*
X158587823Y-75750000D01*
X158540000Y-75750000D01*
X158540000Y-76455000D01*
X157930000Y-76455000D01*
X157930000Y-75750000D01*
X157882177Y-75750000D01*
X157822627Y-75756401D01*
X157822618Y-75756403D01*
X157674574Y-75811621D01*
X157673504Y-75808754D01*
X157610124Y-75826657D01*
X157522890Y-75811368D01*
X157516510Y-75808295D01*
X157377381Y-75756403D01*
X157377372Y-75756401D01*
X157317823Y-75750000D01*
X157270000Y-75750000D01*
X157270000Y-76455000D01*
X156660000Y-76455000D01*
X156660000Y-75750000D01*
X156612177Y-75750000D01*
X156552627Y-75756401D01*
X156552618Y-75756403D01*
X156404574Y-75811621D01*
X156403504Y-75808754D01*
X156340124Y-75826657D01*
X156252890Y-75811368D01*
X156246510Y-75808295D01*
X156107381Y-75756403D01*
X156107372Y-75756401D01*
X156047823Y-75750000D01*
X156000000Y-75750000D01*
X156000000Y-76455000D01*
X155390000Y-76455000D01*
X155390000Y-75750000D01*
X155342177Y-75750000D01*
X155282627Y-75756401D01*
X155282618Y-75756403D01*
X155134574Y-75811621D01*
X155133504Y-75808754D01*
X155070124Y-75826657D01*
X154982890Y-75811368D01*
X154976510Y-75808295D01*
X154837381Y-75756403D01*
X154837372Y-75756401D01*
X154777823Y-75750000D01*
X154730000Y-75750000D01*
X154730000Y-76455000D01*
X154120000Y-76455000D01*
X154120000Y-75750000D01*
X154072177Y-75750000D01*
X154012627Y-75756401D01*
X154012618Y-75756403D01*
X153877912Y-75806646D01*
X153877909Y-75806647D01*
X153762810Y-75892810D01*
X153676647Y-76007909D01*
X153676646Y-76007912D01*
X153626403Y-76142618D01*
X153626401Y-76142627D01*
X153620000Y-76202177D01*
X147567833Y-76202177D01*
X147526542Y-76160886D01*
X147412678Y-76084804D01*
X147411813Y-76084226D01*
X147411806Y-76084222D01*
X147302271Y-76038852D01*
X147230042Y-75987604D01*
X147187202Y-75910091D01*
X147182236Y-75821667D01*
X147216127Y-75739845D01*
X147282163Y-75680831D01*
X147302271Y-75671148D01*
X147411806Y-75625777D01*
X147411805Y-75625777D01*
X147411811Y-75625775D01*
X147526542Y-75549114D01*
X147624114Y-75451542D01*
X147700775Y-75336811D01*
X147753580Y-75209328D01*
X147780500Y-75073993D01*
X147780500Y-74936007D01*
X147770138Y-74883915D01*
X164695000Y-74883915D01*
X164695000Y-75116084D01*
X164731317Y-75345389D01*
X164731320Y-75345401D01*
X164803062Y-75566198D01*
X164803063Y-75566202D01*
X164834666Y-75628225D01*
X165462893Y-75000000D01*
X165398874Y-74935981D01*
X165520000Y-74935981D01*
X165520000Y-75064019D01*
X165544979Y-75189598D01*
X165593978Y-75307890D01*
X165665112Y-75414351D01*
X165755649Y-75504888D01*
X165862110Y-75576022D01*
X165980402Y-75625021D01*
X166105981Y-75650000D01*
X166234019Y-75650000D01*
X166359598Y-75625021D01*
X166477890Y-75576022D01*
X166584351Y-75504888D01*
X166674888Y-75414351D01*
X166746022Y-75307890D01*
X166795021Y-75189598D01*
X166820000Y-75064019D01*
X166820000Y-74999999D01*
X166877106Y-74999999D01*
X166877106Y-75000000D01*
X167505332Y-75628226D01*
X167505333Y-75628226D01*
X167536934Y-75566205D01*
X167536937Y-75566199D01*
X167608679Y-75345401D01*
X167608682Y-75345389D01*
X167645000Y-75116084D01*
X167645000Y-74883915D01*
X169775000Y-74883915D01*
X169775000Y-75116084D01*
X169811317Y-75345389D01*
X169811320Y-75345401D01*
X169883062Y-75566198D01*
X169883063Y-75566202D01*
X169914666Y-75628225D01*
X170542893Y-75000000D01*
X170478874Y-74935981D01*
X170600000Y-74935981D01*
X170600000Y-75064019D01*
X170624979Y-75189598D01*
X170673978Y-75307890D01*
X170745112Y-75414351D01*
X170835649Y-75504888D01*
X170942110Y-75576022D01*
X171060402Y-75625021D01*
X171185981Y-75650000D01*
X171314019Y-75650000D01*
X171439598Y-75625021D01*
X171557890Y-75576022D01*
X171664351Y-75504888D01*
X171754888Y-75414351D01*
X171826022Y-75307890D01*
X171875021Y-75189598D01*
X171900000Y-75064019D01*
X171900000Y-74935981D01*
X171875021Y-74810402D01*
X171826022Y-74692110D01*
X171754888Y-74585649D01*
X171664351Y-74495112D01*
X171557890Y-74423978D01*
X171439598Y-74374979D01*
X171314019Y-74350000D01*
X171185981Y-74350000D01*
X171060402Y-74374979D01*
X170942110Y-74423978D01*
X170835649Y-74495112D01*
X170745112Y-74585649D01*
X170673978Y-74692110D01*
X170624979Y-74810402D01*
X170600000Y-74935981D01*
X170478874Y-74935981D01*
X169914666Y-74371773D01*
X169914665Y-74371773D01*
X169883066Y-74433792D01*
X169883062Y-74433802D01*
X169811320Y-74654599D01*
X169811317Y-74654610D01*
X169775000Y-74883915D01*
X167645000Y-74883915D01*
X167608682Y-74654610D01*
X167608679Y-74654598D01*
X167536936Y-74433797D01*
X167536935Y-74433796D01*
X167505332Y-74371773D01*
X166877106Y-74999999D01*
X166820000Y-74999999D01*
X166820000Y-74935981D01*
X166795021Y-74810402D01*
X166746022Y-74692110D01*
X166674888Y-74585649D01*
X166584351Y-74495112D01*
X166477890Y-74423978D01*
X166359598Y-74374979D01*
X166234019Y-74350000D01*
X166105981Y-74350000D01*
X165980402Y-74374979D01*
X165862110Y-74423978D01*
X165755649Y-74495112D01*
X165665112Y-74585649D01*
X165593978Y-74692110D01*
X165544979Y-74810402D01*
X165520000Y-74935981D01*
X165398874Y-74935981D01*
X164834666Y-74371773D01*
X164834665Y-74371773D01*
X164803066Y-74433792D01*
X164803062Y-74433802D01*
X164731320Y-74654599D01*
X164731317Y-74654610D01*
X164695000Y-74883915D01*
X147770138Y-74883915D01*
X147753580Y-74800672D01*
X147733980Y-74753353D01*
X147700777Y-74673193D01*
X147700772Y-74673185D01*
X147689036Y-74655619D01*
X147657454Y-74572879D01*
X147655500Y-74545063D01*
X147655500Y-72874000D01*
X147675207Y-72787657D01*
X147730426Y-72718416D01*
X147810218Y-72679989D01*
X147854500Y-72675000D01*
X151438000Y-72675000D01*
X151524343Y-72694707D01*
X151593584Y-72749926D01*
X151632011Y-72829718D01*
X151637000Y-72874000D01*
X151637000Y-72886734D01*
X151637000Y-73038266D01*
X151657525Y-73114869D01*
X151676218Y-73184634D01*
X151714102Y-73250250D01*
X151751985Y-73315865D01*
X152464483Y-74028362D01*
X152464485Y-74028365D01*
X152571635Y-74135515D01*
X152667611Y-74190927D01*
X152702865Y-74211281D01*
X152849233Y-74250500D01*
X152849234Y-74250500D01*
X153535123Y-74250500D01*
X153621466Y-74270207D01*
X153690707Y-74325426D01*
X153729134Y-74405218D01*
X153731667Y-74418338D01*
X153734354Y-74435304D01*
X153734354Y-74435305D01*
X153734355Y-74435306D01*
X153791951Y-74548344D01*
X153881657Y-74638050D01*
X153969253Y-74682682D01*
X153994696Y-74695646D01*
X154088481Y-74710500D01*
X154761518Y-74710499D01*
X154855304Y-74695646D01*
X154873135Y-74686560D01*
X154959008Y-74664920D01*
X155045772Y-74682682D01*
X155082737Y-74704563D01*
X155147912Y-74753354D01*
X155282618Y-74803596D01*
X155282627Y-74803598D01*
X155342177Y-74810000D01*
X155390000Y-74810000D01*
X156000000Y-74810000D01*
X156047823Y-74810000D01*
X156107372Y-74803598D01*
X156107381Y-74803596D01*
X156255426Y-74748379D01*
X156256496Y-74751248D01*
X156319846Y-74733343D01*
X156407082Y-74748619D01*
X156413483Y-74751702D01*
X156552618Y-74803596D01*
X156552627Y-74803598D01*
X156612177Y-74810000D01*
X156660000Y-74810000D01*
X157270000Y-74810000D01*
X157317823Y-74810000D01*
X157377372Y-74803598D01*
X157377381Y-74803596D01*
X157525426Y-74748379D01*
X157526496Y-74751248D01*
X157589846Y-74733343D01*
X157677082Y-74748619D01*
X157683483Y-74751702D01*
X157822618Y-74803596D01*
X157822627Y-74803598D01*
X157882177Y-74810000D01*
X157930000Y-74810000D01*
X158540000Y-74810000D01*
X158587823Y-74810000D01*
X158647372Y-74803598D01*
X158647381Y-74803596D01*
X158782087Y-74753353D01*
X158782090Y-74753352D01*
X158830933Y-74716789D01*
X158897189Y-74667189D01*
X158983352Y-74552090D01*
X158983353Y-74552087D01*
X159033596Y-74417381D01*
X159033598Y-74417372D01*
X159040000Y-74357822D01*
X159040000Y-73980000D01*
X158540000Y-73980000D01*
X158540000Y-74810000D01*
X157930000Y-74810000D01*
X157930000Y-73980000D01*
X157270000Y-73980000D01*
X157270000Y-74810000D01*
X156660000Y-74810000D01*
X156660000Y-73980000D01*
X156000000Y-73980000D01*
X156000000Y-74810000D01*
X155390000Y-74810000D01*
X155390000Y-73874000D01*
X155409707Y-73787657D01*
X155464926Y-73718416D01*
X155544718Y-73679989D01*
X155589000Y-73675000D01*
X155695000Y-73675000D01*
X155695000Y-73664665D01*
X165541773Y-73664665D01*
X165541773Y-73664666D01*
X166170000Y-74292893D01*
X166170001Y-74292893D01*
X166798226Y-73664666D01*
X166798224Y-73664665D01*
X170621773Y-73664665D01*
X170621773Y-73664666D01*
X171250000Y-74292893D01*
X171250001Y-74292893D01*
X171878226Y-73664666D01*
X171816202Y-73633063D01*
X171816198Y-73633062D01*
X171595401Y-73561320D01*
X171595389Y-73561317D01*
X171366085Y-73525000D01*
X171133915Y-73525000D01*
X170904610Y-73561317D01*
X170904599Y-73561320D01*
X170683802Y-73633062D01*
X170683792Y-73633066D01*
X170621773Y-73664665D01*
X166798224Y-73664665D01*
X166736202Y-73633063D01*
X166736198Y-73633062D01*
X166515401Y-73561320D01*
X166515389Y-73561317D01*
X166286085Y-73525000D01*
X166053915Y-73525000D01*
X165824610Y-73561317D01*
X165824599Y-73561320D01*
X165603802Y-73633062D01*
X165603792Y-73633066D01*
X165541773Y-73664665D01*
X155695000Y-73664665D01*
X155695000Y-73569000D01*
X155714707Y-73482657D01*
X155769926Y-73413416D01*
X155849718Y-73374989D01*
X155894000Y-73370000D01*
X159040000Y-73370000D01*
X159040000Y-72992177D01*
X159033598Y-72932627D01*
X159030735Y-72920512D01*
X159034483Y-72919626D01*
X159025958Y-72855788D01*
X159053485Y-72771611D01*
X159114808Y-72707713D01*
X159197783Y-72676751D01*
X159224123Y-72675000D01*
X172563500Y-72675000D01*
X172649843Y-72694707D01*
X172719084Y-72749926D01*
X172757511Y-72829718D01*
X172762500Y-72874000D01*
X172762500Y-74166834D01*
X172742793Y-74253177D01*
X172687574Y-74322418D01*
X172607782Y-74360845D01*
X172595858Y-74361246D01*
X171957106Y-74999999D01*
X171957106Y-75000000D01*
X172598156Y-75641049D01*
X172620733Y-75642572D01*
X172697760Y-75686279D01*
X172748195Y-75759078D01*
X172762500Y-75833164D01*
X172762500Y-81032984D01*
X172742793Y-81119327D01*
X172687574Y-81188568D01*
X172607782Y-81226995D01*
X172562604Y-81231982D01*
X160302945Y-81176758D01*
X159912500Y-81175000D01*
X159912496Y-81175000D01*
X158921588Y-81175000D01*
X158835245Y-81155293D01*
X158766004Y-81100074D01*
X158727577Y-81020282D01*
X158727577Y-80939787D01*
X158727267Y-80939754D01*
X158727577Y-80936870D01*
X158727577Y-80931718D01*
X158727923Y-80930232D01*
X158728597Y-80927377D01*
X158735000Y-80867822D01*
X158735000Y-79365000D01*
X153925000Y-79365000D01*
X153925000Y-80867822D01*
X153931402Y-80927377D01*
X153932077Y-80930232D01*
X153932105Y-80933915D01*
X153932733Y-80939754D01*
X153932150Y-80939816D01*
X153932757Y-81018792D01*
X153894944Y-81098878D01*
X153826127Y-81154625D01*
X153739938Y-81174994D01*
X153738412Y-81175000D01*
X153611500Y-81175000D01*
X153525157Y-81155293D01*
X153455916Y-81100074D01*
X153417489Y-81020282D01*
X153412500Y-80976000D01*
X153412500Y-78605000D01*
X147417061Y-78605000D01*
X147340908Y-78589852D01*
X147284328Y-78566416D01*
X147284326Y-78566415D01*
X147284325Y-78566415D01*
X147179619Y-78545588D01*
X147148993Y-78539496D01*
X147011007Y-78539496D01*
X146980381Y-78545588D01*
X146875674Y-78566415D01*
X146875672Y-78566416D01*
X146819091Y-78589852D01*
X146742939Y-78605000D01*
X146364904Y-78605000D01*
X146278561Y-78585293D01*
X146209320Y-78530074D01*
X146170893Y-78450282D01*
X146170893Y-78361718D01*
X146172683Y-78354500D01*
X146175200Y-78345102D01*
X146185088Y-78270000D01*
X143224911Y-78270000D01*
X143234799Y-78345102D01*
X143237317Y-78354500D01*
X143240626Y-78443002D01*
X143205208Y-78524175D01*
X143138077Y-78581942D01*
X143052531Y-78604861D01*
X143045096Y-78605000D01*
X142899500Y-78605000D01*
X142813157Y-78585293D01*
X142743916Y-78530074D01*
X142705489Y-78450282D01*
X142700500Y-78406000D01*
X142700500Y-75437257D01*
X143680000Y-75437257D01*
X143749120Y-75414353D01*
X143898342Y-75322313D01*
X143898346Y-75322310D01*
X144022314Y-75198342D01*
X144022317Y-75198338D01*
X144114357Y-75049117D01*
X144169504Y-74882696D01*
X144180000Y-74779966D01*
X144180000Y-74754996D01*
X143680000Y-74754996D01*
X143680000Y-75437257D01*
X142700500Y-75437257D01*
X142700500Y-74960927D01*
X142683824Y-74877092D01*
X142680000Y-74838269D01*
X142680000Y-74453996D01*
X142699707Y-74367653D01*
X142754926Y-74298412D01*
X142834718Y-74259985D01*
X142879000Y-74254996D01*
X143180000Y-74254996D01*
X143180000Y-73953996D01*
X143199707Y-73867653D01*
X143254926Y-73798412D01*
X143334718Y-73759985D01*
X143379000Y-73754996D01*
X144179999Y-73754996D01*
X144179999Y-73730018D01*
X144179998Y-73730012D01*
X144169506Y-73627300D01*
X144169506Y-73627299D01*
X144114358Y-73460875D01*
X144022317Y-73311653D01*
X144022314Y-73311649D01*
X143898346Y-73187681D01*
X143898342Y-73187678D01*
X143749121Y-73095638D01*
X143650322Y-73062899D01*
X143574561Y-73017033D01*
X143526203Y-72942837D01*
X143514826Y-72855008D01*
X143542684Y-72770940D01*
X143604259Y-72707284D01*
X143687355Y-72676649D01*
X143712918Y-72675000D01*
X146305500Y-72675000D01*
X146391843Y-72694707D01*
G37*
%TD.AperFunction*%
%TD*%
%TA.AperFunction,Conductor*%
%TO.N,/V PHASE/V_PHASE*%
G36*
X146374343Y-92712049D02*
G01*
X146443584Y-92767268D01*
X146482011Y-92847060D01*
X146487000Y-92891342D01*
X146487000Y-94515063D01*
X146467293Y-94601406D01*
X146453464Y-94625619D01*
X146441727Y-94643185D01*
X146441722Y-94643193D01*
X146388920Y-94770670D01*
X146388919Y-94770674D01*
X146381097Y-94810000D01*
X146362000Y-94906007D01*
X146362000Y-95043993D01*
X146369673Y-95082569D01*
X146388919Y-95179325D01*
X146388920Y-95179329D01*
X146441722Y-95306806D01*
X146441725Y-95306811D01*
X146518386Y-95421542D01*
X146615958Y-95519114D01*
X146730689Y-95595775D01*
X146801295Y-95625021D01*
X146840229Y-95641148D01*
X146846475Y-95645579D01*
X146853908Y-95647430D01*
X146882331Y-95671021D01*
X146912458Y-95692397D01*
X146916163Y-95699100D01*
X146922056Y-95703992D01*
X146937431Y-95737583D01*
X146955297Y-95769910D01*
X146955726Y-95777554D01*
X146958915Y-95784521D01*
X146958192Y-95821459D01*
X146960263Y-95858334D01*
X146957331Y-95865410D01*
X146957182Y-95873068D01*
X146940508Y-95906027D01*
X146926372Y-95940155D01*
X146920660Y-95945258D01*
X146917203Y-95952094D01*
X146893239Y-95969763D01*
X146860335Y-95999169D01*
X146846895Y-96005947D01*
X146843582Y-96007463D01*
X146730689Y-96054225D01*
X146707362Y-96069810D01*
X146692873Y-96076443D01*
X146664728Y-96082290D01*
X146637872Y-96092542D01*
X146610053Y-96094496D01*
X145966395Y-96094496D01*
X145880052Y-96074789D01*
X145847143Y-96054807D01*
X145845226Y-96053372D01*
X145845223Y-96053371D01*
X145717114Y-96005588D01*
X145698237Y-96003558D01*
X145660487Y-95999500D01*
X143919739Y-95999500D01*
X143919731Y-95999500D01*
X143749516Y-95999501D01*
X143692886Y-96005588D01*
X143604627Y-96038507D01*
X143604622Y-96038508D01*
X143564773Y-96053371D01*
X143564772Y-96053372D01*
X143455313Y-96135311D01*
X143455311Y-96135313D01*
X143373372Y-96244772D01*
X143325588Y-96372886D01*
X143319500Y-96429514D01*
X143319500Y-96970488D01*
X143325587Y-97027111D01*
X143325587Y-97027113D01*
X143325588Y-97027114D01*
X143360809Y-97121545D01*
X143373374Y-97155231D01*
X143373394Y-97155267D01*
X143373413Y-97155334D01*
X143378346Y-97168560D01*
X143377263Y-97168963D01*
X143397475Y-97240494D01*
X143382194Y-97327729D01*
X143356612Y-97371777D01*
X143292736Y-97455021D01*
X143234800Y-97594892D01*
X143234799Y-97594898D01*
X143224911Y-97669999D01*
X143224912Y-97670000D01*
X146185088Y-97670000D01*
X146185088Y-97669999D01*
X146175200Y-97594898D01*
X146175199Y-97594893D01*
X146144447Y-97520650D01*
X146141617Y-97503997D01*
X146134288Y-97488778D01*
X146134288Y-97460858D01*
X146129612Y-97433338D01*
X146134288Y-97417107D01*
X146134288Y-97400214D01*
X146146402Y-97375059D01*
X146154130Y-97348236D01*
X146165386Y-97335640D01*
X146172715Y-97320422D01*
X146194538Y-97303018D01*
X146213143Y-97282199D01*
X146228750Y-97275734D01*
X146241956Y-97265203D01*
X146269173Y-97258990D01*
X146294965Y-97248308D01*
X146328299Y-97245496D01*
X146595075Y-97245496D01*
X146681418Y-97265203D01*
X146705634Y-97279034D01*
X146730686Y-97295773D01*
X146730693Y-97295777D01*
X146748175Y-97303018D01*
X146858172Y-97348580D01*
X146993507Y-97375500D01*
X146993508Y-97375500D01*
X147131492Y-97375500D01*
X147131493Y-97375500D01*
X147266828Y-97348580D01*
X147341085Y-97317822D01*
X153620000Y-97317822D01*
X153626401Y-97377372D01*
X153626403Y-97377381D01*
X153676646Y-97512087D01*
X153676647Y-97512090D01*
X153762810Y-97627189D01*
X153845257Y-97688908D01*
X153902567Y-97756427D01*
X153924907Y-97842127D01*
X153925000Y-97848215D01*
X153925000Y-98365000D01*
X158735000Y-98365000D01*
X158735000Y-97848215D01*
X158754707Y-97761872D01*
X158809926Y-97692631D01*
X158814743Y-97688908D01*
X158897189Y-97627189D01*
X158983352Y-97512090D01*
X158983353Y-97512087D01*
X159033596Y-97377381D01*
X159033598Y-97377372D01*
X159040000Y-97317822D01*
X159040000Y-97065000D01*
X153620000Y-97065000D01*
X153620000Y-97317822D01*
X147341085Y-97317822D01*
X147394311Y-97295775D01*
X147509042Y-97219114D01*
X147606614Y-97121542D01*
X147683275Y-97006811D01*
X147736080Y-96879328D01*
X147763000Y-96743993D01*
X147763000Y-96606007D01*
X147736080Y-96470672D01*
X147693112Y-96366937D01*
X147683277Y-96343193D01*
X147683273Y-96343186D01*
X147659363Y-96307402D01*
X147617516Y-96244774D01*
X147606614Y-96228458D01*
X147580333Y-96202177D01*
X153620000Y-96202177D01*
X153620000Y-96455000D01*
X154120000Y-96455000D01*
X154730000Y-96455000D01*
X155390000Y-96455000D01*
X156000000Y-96455000D01*
X156660000Y-96455000D01*
X157270000Y-96455000D01*
X157930000Y-96455000D01*
X158540000Y-96455000D01*
X159040000Y-96455000D01*
X159040000Y-96335332D01*
X165541773Y-96335332D01*
X165603796Y-96366935D01*
X165603797Y-96366936D01*
X165824598Y-96438679D01*
X165824610Y-96438682D01*
X166053915Y-96475000D01*
X166286085Y-96475000D01*
X166515389Y-96438682D01*
X166515401Y-96438679D01*
X166736199Y-96366937D01*
X166736205Y-96366934D01*
X166798226Y-96335333D01*
X166798226Y-96335332D01*
X170621773Y-96335332D01*
X170683796Y-96366935D01*
X170683797Y-96366936D01*
X170904598Y-96438679D01*
X170904610Y-96438682D01*
X171133915Y-96475000D01*
X171366085Y-96475000D01*
X171595389Y-96438682D01*
X171595401Y-96438679D01*
X171816199Y-96366937D01*
X171816205Y-96366934D01*
X171878226Y-96335333D01*
X171878226Y-96335332D01*
X171250001Y-95707106D01*
X171250000Y-95707106D01*
X170621773Y-96335332D01*
X166798226Y-96335332D01*
X166170001Y-95707106D01*
X166170000Y-95707106D01*
X165541773Y-96335332D01*
X159040000Y-96335332D01*
X159040000Y-96202177D01*
X159033598Y-96142627D01*
X159033596Y-96142618D01*
X158983353Y-96007912D01*
X158983352Y-96007909D01*
X158897189Y-95892810D01*
X158782090Y-95806647D01*
X158782087Y-95806646D01*
X158647381Y-95756403D01*
X158647372Y-95756401D01*
X158587823Y-95750000D01*
X158540000Y-95750000D01*
X158540000Y-96455000D01*
X157930000Y-96455000D01*
X157930000Y-95750000D01*
X157882177Y-95750000D01*
X157822627Y-95756401D01*
X157822618Y-95756403D01*
X157674574Y-95811621D01*
X157673504Y-95808754D01*
X157610124Y-95826657D01*
X157522890Y-95811368D01*
X157516510Y-95808295D01*
X157377381Y-95756403D01*
X157377372Y-95756401D01*
X157317823Y-95750000D01*
X157270000Y-95750000D01*
X157270000Y-96455000D01*
X156660000Y-96455000D01*
X156660000Y-95750000D01*
X156612177Y-95750000D01*
X156552627Y-95756401D01*
X156552618Y-95756403D01*
X156404574Y-95811621D01*
X156403504Y-95808754D01*
X156340124Y-95826657D01*
X156252890Y-95811368D01*
X156246510Y-95808295D01*
X156107381Y-95756403D01*
X156107372Y-95756401D01*
X156047823Y-95750000D01*
X156000000Y-95750000D01*
X156000000Y-96455000D01*
X155390000Y-96455000D01*
X155390000Y-95750000D01*
X155342177Y-95750000D01*
X155282627Y-95756401D01*
X155282618Y-95756403D01*
X155134574Y-95811621D01*
X155133504Y-95808754D01*
X155070124Y-95826657D01*
X154982890Y-95811368D01*
X154976510Y-95808295D01*
X154837381Y-95756403D01*
X154837372Y-95756401D01*
X154777823Y-95750000D01*
X154730000Y-95750000D01*
X154730000Y-96455000D01*
X154120000Y-96455000D01*
X154120000Y-95750000D01*
X154072177Y-95750000D01*
X154012627Y-95756401D01*
X154012618Y-95756403D01*
X153877912Y-95806646D01*
X153877909Y-95806647D01*
X153762810Y-95892810D01*
X153676647Y-96007909D01*
X153676646Y-96007912D01*
X153626403Y-96142618D01*
X153626401Y-96142627D01*
X153620000Y-96202177D01*
X147580333Y-96202177D01*
X147509042Y-96130886D01*
X147425087Y-96074789D01*
X147394313Y-96054226D01*
X147394306Y-96054222D01*
X147284771Y-96008852D01*
X147212542Y-95957604D01*
X147169702Y-95880091D01*
X147164736Y-95791667D01*
X147198627Y-95709845D01*
X147264663Y-95650831D01*
X147284771Y-95641148D01*
X147394306Y-95595777D01*
X147394305Y-95595777D01*
X147394311Y-95595775D01*
X147509042Y-95519114D01*
X147606614Y-95421542D01*
X147683275Y-95306811D01*
X147736080Y-95179328D01*
X147763000Y-95043993D01*
X147763000Y-94906007D01*
X147758606Y-94883915D01*
X164695000Y-94883915D01*
X164695000Y-95116084D01*
X164731317Y-95345389D01*
X164731320Y-95345401D01*
X164803062Y-95566198D01*
X164803063Y-95566202D01*
X164834666Y-95628225D01*
X165462893Y-95000000D01*
X165398874Y-94935981D01*
X165520000Y-94935981D01*
X165520000Y-95064019D01*
X165544979Y-95189598D01*
X165593978Y-95307890D01*
X165665112Y-95414351D01*
X165755649Y-95504888D01*
X165862110Y-95576022D01*
X165980402Y-95625021D01*
X166105981Y-95650000D01*
X166234019Y-95650000D01*
X166359598Y-95625021D01*
X166477890Y-95576022D01*
X166584351Y-95504888D01*
X166674888Y-95414351D01*
X166746022Y-95307890D01*
X166795021Y-95189598D01*
X166820000Y-95064019D01*
X166820000Y-94999999D01*
X166877106Y-94999999D01*
X166877106Y-95000000D01*
X167505332Y-95628226D01*
X167505333Y-95628226D01*
X167536934Y-95566205D01*
X167536937Y-95566199D01*
X167608679Y-95345401D01*
X167608682Y-95345389D01*
X167645000Y-95116084D01*
X167645000Y-94883915D01*
X169775000Y-94883915D01*
X169775000Y-95116084D01*
X169811317Y-95345389D01*
X169811320Y-95345401D01*
X169883062Y-95566198D01*
X169883063Y-95566202D01*
X169914666Y-95628225D01*
X170542893Y-95000000D01*
X170478874Y-94935981D01*
X170600000Y-94935981D01*
X170600000Y-95064019D01*
X170624979Y-95189598D01*
X170673978Y-95307890D01*
X170745112Y-95414351D01*
X170835649Y-95504888D01*
X170942110Y-95576022D01*
X171060402Y-95625021D01*
X171185981Y-95650000D01*
X171314019Y-95650000D01*
X171439598Y-95625021D01*
X171557890Y-95576022D01*
X171664351Y-95504888D01*
X171754888Y-95414351D01*
X171826022Y-95307890D01*
X171875021Y-95189598D01*
X171900000Y-95064019D01*
X171900000Y-94935981D01*
X171875021Y-94810402D01*
X171826022Y-94692110D01*
X171754888Y-94585649D01*
X171664351Y-94495112D01*
X171557890Y-94423978D01*
X171439598Y-94374979D01*
X171314019Y-94350000D01*
X171185981Y-94350000D01*
X171060402Y-94374979D01*
X170942110Y-94423978D01*
X170835649Y-94495112D01*
X170745112Y-94585649D01*
X170673978Y-94692110D01*
X170624979Y-94810402D01*
X170600000Y-94935981D01*
X170478874Y-94935981D01*
X169914666Y-94371773D01*
X169914665Y-94371773D01*
X169883066Y-94433792D01*
X169883062Y-94433802D01*
X169811320Y-94654599D01*
X169811317Y-94654610D01*
X169775000Y-94883915D01*
X167645000Y-94883915D01*
X167608682Y-94654610D01*
X167608679Y-94654598D01*
X167536936Y-94433797D01*
X167536935Y-94433796D01*
X167505332Y-94371773D01*
X166877106Y-94999999D01*
X166820000Y-94999999D01*
X166820000Y-94935981D01*
X166795021Y-94810402D01*
X166746022Y-94692110D01*
X166674888Y-94585649D01*
X166584351Y-94495112D01*
X166477890Y-94423978D01*
X166359598Y-94374979D01*
X166234019Y-94350000D01*
X166105981Y-94350000D01*
X165980402Y-94374979D01*
X165862110Y-94423978D01*
X165755649Y-94495112D01*
X165665112Y-94585649D01*
X165593978Y-94692110D01*
X165544979Y-94810402D01*
X165520000Y-94935981D01*
X165398874Y-94935981D01*
X164834666Y-94371773D01*
X164834665Y-94371773D01*
X164803066Y-94433792D01*
X164803062Y-94433802D01*
X164731320Y-94654599D01*
X164731317Y-94654610D01*
X164695000Y-94883915D01*
X147758606Y-94883915D01*
X147736080Y-94770672D01*
X147705003Y-94695646D01*
X147683277Y-94643193D01*
X147683272Y-94643185D01*
X147671536Y-94625619D01*
X147639954Y-94542879D01*
X147638000Y-94515063D01*
X147638000Y-92891342D01*
X147657707Y-92804999D01*
X147712926Y-92735758D01*
X147792718Y-92697331D01*
X147837000Y-92692342D01*
X151438000Y-92692342D01*
X151524343Y-92712049D01*
X151593584Y-92767268D01*
X151632011Y-92847060D01*
X151637000Y-92891342D01*
X151637000Y-93136734D01*
X151637000Y-93288266D01*
X151652374Y-93345642D01*
X151676218Y-93434634D01*
X151676219Y-93434635D01*
X151749555Y-93561657D01*
X151751986Y-93565866D01*
X152321633Y-94135513D01*
X152321632Y-94135513D01*
X152321634Y-94135514D01*
X152321635Y-94135515D01*
X152452865Y-94211281D01*
X152599234Y-94250500D01*
X152750767Y-94250500D01*
X153535123Y-94250500D01*
X153621466Y-94270207D01*
X153690707Y-94325426D01*
X153729134Y-94405218D01*
X153731667Y-94418338D01*
X153734354Y-94435304D01*
X153734354Y-94435305D01*
X153734355Y-94435306D01*
X153791951Y-94548344D01*
X153881657Y-94638050D01*
X153934393Y-94664920D01*
X153994696Y-94695646D01*
X154088481Y-94710500D01*
X154761518Y-94710499D01*
X154855304Y-94695646D01*
X154873135Y-94686560D01*
X154959008Y-94664920D01*
X155045772Y-94682682D01*
X155082737Y-94704563D01*
X155147912Y-94753354D01*
X155282618Y-94803596D01*
X155282627Y-94803598D01*
X155342177Y-94810000D01*
X155390000Y-94810000D01*
X156000000Y-94810000D01*
X156047823Y-94810000D01*
X156107372Y-94803598D01*
X156107381Y-94803596D01*
X156255426Y-94748379D01*
X156256496Y-94751248D01*
X156319846Y-94733343D01*
X156407082Y-94748619D01*
X156413483Y-94751702D01*
X156552618Y-94803596D01*
X156552627Y-94803598D01*
X156612177Y-94810000D01*
X156660000Y-94810000D01*
X157270000Y-94810000D01*
X157317823Y-94810000D01*
X157377372Y-94803598D01*
X157377381Y-94803596D01*
X157525426Y-94748379D01*
X157526496Y-94751248D01*
X157589846Y-94733343D01*
X157677082Y-94748619D01*
X157683483Y-94751702D01*
X157822618Y-94803596D01*
X157822627Y-94803598D01*
X157882177Y-94810000D01*
X157930000Y-94810000D01*
X158540000Y-94810000D01*
X158587823Y-94810000D01*
X158647372Y-94803598D01*
X158647381Y-94803596D01*
X158782087Y-94753353D01*
X158782090Y-94753352D01*
X158830933Y-94716789D01*
X158897189Y-94667189D01*
X158983352Y-94552090D01*
X158983353Y-94552087D01*
X159033596Y-94417381D01*
X159033598Y-94417372D01*
X159040000Y-94357822D01*
X159040000Y-93980000D01*
X158540000Y-93980000D01*
X158540000Y-94810000D01*
X157930000Y-94810000D01*
X157930000Y-93980000D01*
X157270000Y-93980000D01*
X157270000Y-94810000D01*
X156660000Y-94810000D01*
X156660000Y-93980000D01*
X156000000Y-93980000D01*
X156000000Y-94810000D01*
X155390000Y-94810000D01*
X155390000Y-93874000D01*
X155409707Y-93787657D01*
X155464926Y-93718416D01*
X155544718Y-93679989D01*
X155589000Y-93675000D01*
X155695000Y-93675000D01*
X155695000Y-93664665D01*
X165541773Y-93664665D01*
X165541773Y-93664666D01*
X166170000Y-94292893D01*
X166170001Y-94292893D01*
X166798226Y-93664666D01*
X166798224Y-93664665D01*
X170621773Y-93664665D01*
X170621773Y-93664666D01*
X171250000Y-94292893D01*
X171250001Y-94292893D01*
X171878226Y-93664666D01*
X171816202Y-93633063D01*
X171816198Y-93633062D01*
X171595401Y-93561320D01*
X171595389Y-93561317D01*
X171366085Y-93525000D01*
X171133915Y-93525000D01*
X170904610Y-93561317D01*
X170904599Y-93561320D01*
X170683802Y-93633062D01*
X170683792Y-93633066D01*
X170621773Y-93664665D01*
X166798224Y-93664665D01*
X166736202Y-93633063D01*
X166736198Y-93633062D01*
X166515401Y-93561320D01*
X166515389Y-93561317D01*
X166286085Y-93525000D01*
X166053915Y-93525000D01*
X165824610Y-93561317D01*
X165824599Y-93561320D01*
X165603802Y-93633062D01*
X165603792Y-93633066D01*
X165541773Y-93664665D01*
X155695000Y-93664665D01*
X155695000Y-93569000D01*
X155714707Y-93482657D01*
X155769926Y-93413416D01*
X155849718Y-93374989D01*
X155894000Y-93370000D01*
X159040000Y-93370000D01*
X159040000Y-92992177D01*
X159032267Y-92920246D01*
X159034526Y-92920003D01*
X159033978Y-92848552D01*
X159071790Y-92768467D01*
X159140605Y-92712718D01*
X159226794Y-92692348D01*
X159228323Y-92692342D01*
X172563422Y-92692342D01*
X172649765Y-92712049D01*
X172719006Y-92767268D01*
X172757433Y-92847060D01*
X172762422Y-92891342D01*
X172762422Y-94166821D01*
X172742715Y-94253164D01*
X172687496Y-94322405D01*
X172607704Y-94360832D01*
X172595874Y-94361230D01*
X171957106Y-94999999D01*
X171957106Y-95000000D01*
X172598174Y-95641067D01*
X172620654Y-95642583D01*
X172697681Y-95686290D01*
X172748117Y-95759089D01*
X172762422Y-95833176D01*
X172762422Y-101050326D01*
X172742715Y-101136669D01*
X172687496Y-101205910D01*
X172607704Y-101244337D01*
X172562526Y-101249324D01*
X160302867Y-101194100D01*
X159912422Y-101192342D01*
X159912418Y-101192342D01*
X158916385Y-101192342D01*
X158830042Y-101172635D01*
X158760801Y-101117416D01*
X158722374Y-101037624D01*
X158722374Y-100949060D01*
X158727603Y-100931580D01*
X158728598Y-100927372D01*
X158735000Y-100867822D01*
X158735000Y-99365000D01*
X153925000Y-99365000D01*
X153925000Y-100867822D01*
X153931401Y-100927372D01*
X153934265Y-100939488D01*
X153932225Y-100939969D01*
X153941776Y-101011591D01*
X153914234Y-101095763D01*
X153852899Y-101159649D01*
X153769919Y-101190596D01*
X153743615Y-101192342D01*
X153611422Y-101192342D01*
X153525079Y-101172635D01*
X153455838Y-101117416D01*
X153417411Y-101037624D01*
X153412422Y-100993342D01*
X153412422Y-98622342D01*
X147504246Y-98622342D01*
X147417903Y-98602635D01*
X147395981Y-98590113D01*
X147394306Y-98589218D01*
X147266829Y-98536416D01*
X147266825Y-98536415D01*
X147176196Y-98518388D01*
X147131493Y-98509496D01*
X146993507Y-98509496D01*
X146959903Y-98516180D01*
X146858174Y-98536415D01*
X146858170Y-98536416D01*
X146730693Y-98589218D01*
X146722066Y-98593830D01*
X146721401Y-98592586D01*
X146718132Y-98593834D01*
X146707097Y-98602635D01*
X146677211Y-98609456D01*
X146648578Y-98620387D01*
X146620754Y-98622342D01*
X146358190Y-98622342D01*
X146271847Y-98602635D01*
X146202606Y-98547416D01*
X146164179Y-98467624D01*
X146164179Y-98379060D01*
X146174336Y-98347193D01*
X146175198Y-98345110D01*
X146175200Y-98345101D01*
X146185088Y-98270000D01*
X143224911Y-98270000D01*
X143234799Y-98345101D01*
X143234801Y-98345110D01*
X143235664Y-98347193D01*
X143236191Y-98350299D01*
X143238176Y-98357705D01*
X143237481Y-98357891D01*
X143250497Y-98434506D01*
X143225977Y-98519607D01*
X143166961Y-98585642D01*
X143085138Y-98619531D01*
X143051810Y-98622342D01*
X142774500Y-98622342D01*
X142688157Y-98602635D01*
X142618916Y-98547416D01*
X142580489Y-98467624D01*
X142575500Y-98423342D01*
X142575500Y-95864482D01*
X142595207Y-95778139D01*
X142650426Y-95708898D01*
X142658000Y-95703148D01*
X142680000Y-95687261D01*
X142680000Y-95628138D01*
X143680000Y-95628138D01*
X143839940Y-95608339D01*
X143898341Y-95572318D01*
X143898346Y-95572314D01*
X144022314Y-95448346D01*
X144022317Y-95448342D01*
X144114357Y-95299121D01*
X144169504Y-95132700D01*
X144180000Y-95029970D01*
X144180000Y-95005000D01*
X143680000Y-95005000D01*
X143680000Y-95628138D01*
X142680000Y-95628138D01*
X142680000Y-94005000D01*
X143680000Y-94005000D01*
X144179999Y-94005000D01*
X144179999Y-93980022D01*
X144179998Y-93980016D01*
X144169506Y-93877304D01*
X144169506Y-93877303D01*
X144114358Y-93710879D01*
X144022317Y-93561657D01*
X144022314Y-93561653D01*
X143898346Y-93437685D01*
X143898342Y-93437682D01*
X143749121Y-93345642D01*
X143680000Y-93322737D01*
X143680000Y-94005000D01*
X142680000Y-94005000D01*
X142680000Y-93322737D01*
X142610877Y-93345642D01*
X142610874Y-93345643D01*
X142517489Y-93403244D01*
X142433655Y-93431798D01*
X142345734Y-93421150D01*
X142271140Y-93373410D01*
X142224647Y-93298031D01*
X142214021Y-93234463D01*
X142213011Y-92891928D01*
X142232463Y-92805528D01*
X142287477Y-92736124D01*
X142367156Y-92697463D01*
X142412010Y-92692342D01*
X146288000Y-92692342D01*
X146374343Y-92712049D01*
G37*
%TD.AperFunction*%
%TD*%
%TA.AperFunction,Conductor*%
%TO.N,VCC*%
G36*
X177659438Y-62945764D02*
G01*
X177767716Y-63004361D01*
X177851100Y-63094941D01*
X177900556Y-63207688D01*
X177912000Y-63299500D01*
X177912000Y-125300500D01*
X177891736Y-125421938D01*
X177833139Y-125530216D01*
X177742559Y-125613600D01*
X177629812Y-125663056D01*
X177538000Y-125674500D01*
X158199232Y-125674500D01*
X158077794Y-125654236D01*
X157969516Y-125595639D01*
X157886132Y-125505059D01*
X157836676Y-125392312D01*
X157826509Y-125269615D01*
X157856733Y-125150266D01*
X157896659Y-125080669D01*
X157962614Y-124989890D01*
X158043042Y-124832042D01*
X158097786Y-124663555D01*
X158125500Y-124488579D01*
X158125500Y-124311421D01*
X158097788Y-124136455D01*
X158097788Y-124136453D01*
X158097786Y-124136448D01*
X158097786Y-124136445D01*
X158085965Y-124100065D01*
X158067714Y-123978311D01*
X158089985Y-123857225D01*
X158150366Y-123749931D01*
X158242313Y-123668057D01*
X158355863Y-123620474D01*
X158441663Y-123610499D01*
X158645006Y-123610499D01*
X158645008Y-123610499D01*
X158747797Y-123599999D01*
X158914334Y-123544814D01*
X159063656Y-123452712D01*
X159156326Y-123360042D01*
X159200225Y-123328698D01*
X159242780Y-123295577D01*
X159250166Y-123293041D01*
X159256524Y-123288502D01*
X159308220Y-123273111D01*
X159359226Y-123255601D01*
X159370048Y-123254704D01*
X159374523Y-123253372D01*
X159420784Y-123250500D01*
X159734279Y-123250500D01*
X159855717Y-123270764D01*
X159954109Y-123321927D01*
X160010110Y-123362614D01*
X160167958Y-123443042D01*
X160336445Y-123497786D01*
X160511421Y-123525500D01*
X160688579Y-123525500D01*
X160863555Y-123497786D01*
X161032042Y-123443042D01*
X161189890Y-123362614D01*
X161333214Y-123258483D01*
X161458483Y-123133214D01*
X161562614Y-122989890D01*
X161643042Y-122832042D01*
X161697786Y-122663555D01*
X161725500Y-122488579D01*
X161725500Y-122311421D01*
X161725499Y-122311416D01*
X161725453Y-122310830D01*
X161725500Y-122310289D01*
X161725500Y-122296726D01*
X161726680Y-122296726D01*
X161736122Y-122188177D01*
X161786039Y-122075633D01*
X161869795Y-121985396D01*
X161978312Y-121927243D01*
X162099828Y-121907476D01*
X172609123Y-121954816D01*
X172695419Y-121950263D01*
X172740597Y-121945276D01*
X172740629Y-121945270D01*
X172740635Y-121945270D01*
X172776412Y-121939384D01*
X172819700Y-121932265D01*
X172985511Y-121875015D01*
X173065303Y-121836588D01*
X173203611Y-121750483D01*
X173328165Y-121626963D01*
X173383384Y-121557722D01*
X173470650Y-121420112D01*
X173529273Y-121254782D01*
X173548980Y-121168439D01*
X173567922Y-121000326D01*
X173567922Y-115825257D01*
X173554221Y-115682026D01*
X173539916Y-115607940D01*
X173539916Y-115607939D01*
X173539914Y-115607930D01*
X173501627Y-115475756D01*
X173501625Y-115475752D01*
X173501624Y-115475747D01*
X173419143Y-115320931D01*
X173368708Y-115248131D01*
X173365676Y-115244632D01*
X173364504Y-115242713D01*
X173362511Y-115240145D01*
X173362798Y-115239922D01*
X173301476Y-115139585D01*
X173274860Y-115019380D01*
X173288718Y-114897045D01*
X173341546Y-114785839D01*
X173355913Y-114766582D01*
X173383384Y-114732137D01*
X173470650Y-114594527D01*
X173529273Y-114429197D01*
X173548980Y-114342854D01*
X173567922Y-114174741D01*
X173567922Y-112841342D01*
X173563172Y-112756759D01*
X173558183Y-112712477D01*
X173545361Y-112635064D01*
X173488111Y-112469253D01*
X173449684Y-112389461D01*
X173363579Y-112251153D01*
X173363578Y-112251151D01*
X173240063Y-112126603D01*
X173240062Y-112126602D01*
X173240059Y-112126599D01*
X173170818Y-112071380D01*
X173158829Y-112063777D01*
X173033210Y-111984115D01*
X173033209Y-111984114D01*
X173033208Y-111984114D01*
X172867878Y-111925491D01*
X172867873Y-111925490D01*
X172867868Y-111925488D01*
X172781549Y-111905786D01*
X172781530Y-111905783D01*
X172613422Y-111886842D01*
X168656488Y-111886842D01*
X168535050Y-111866578D01*
X168426772Y-111807981D01*
X168343388Y-111717401D01*
X168293932Y-111604654D01*
X168283765Y-111481957D01*
X168313989Y-111362608D01*
X168381327Y-111259539D01*
X168448704Y-111201873D01*
X168511363Y-111160005D01*
X168622155Y-111085977D01*
X168768477Y-110939655D01*
X168883441Y-110767598D01*
X168962630Y-110576420D01*
X169003000Y-110373465D01*
X169003000Y-110166535D01*
X168962630Y-109963580D01*
X168883441Y-109772402D01*
X168879769Y-109766907D01*
X168768476Y-109600344D01*
X168622155Y-109454023D01*
X168505653Y-109376179D01*
X168415940Y-109291863D01*
X168358465Y-109182985D01*
X168339457Y-109061344D01*
X168360975Y-108940123D01*
X168420689Y-108832456D01*
X168512126Y-108750012D01*
X168540426Y-108733817D01*
X168542380Y-108732618D01*
X168542390Y-108732614D01*
X168685714Y-108628483D01*
X168810983Y-108503214D01*
X168915114Y-108359890D01*
X168995542Y-108202042D01*
X169050286Y-108033555D01*
X169078000Y-107858579D01*
X169078000Y-107681421D01*
X169050286Y-107506445D01*
X168995542Y-107337958D01*
X168915114Y-107180110D01*
X168810983Y-107036786D01*
X168685714Y-106911517D01*
X168542390Y-106807386D01*
X168384542Y-106726958D01*
X168384540Y-106726957D01*
X168290074Y-106696264D01*
X168216055Y-106672214D01*
X168216053Y-106672213D01*
X168216048Y-106672212D01*
X168041084Y-106644500D01*
X168041079Y-106644500D01*
X167863921Y-106644500D01*
X167756259Y-106661552D01*
X167704936Y-106669681D01*
X167581823Y-106668663D01*
X167465712Y-106627725D01*
X167369184Y-106551304D01*
X167356597Y-106536658D01*
X167236109Y-106388891D01*
X167185447Y-106347582D01*
X167078406Y-106260301D01*
X167078403Y-106260299D01*
X166898055Y-106166093D01*
X166898054Y-106166092D01*
X166702419Y-106110114D01*
X166682521Y-106108345D01*
X166583037Y-106099500D01*
X166583032Y-106099500D01*
X165816967Y-106099500D01*
X165697581Y-106110114D01*
X165501945Y-106166092D01*
X165501944Y-106166093D01*
X165321596Y-106260299D01*
X165321593Y-106260301D01*
X165163892Y-106388889D01*
X165163889Y-106388892D01*
X165035301Y-106546593D01*
X165035299Y-106546596D01*
X164941093Y-106726944D01*
X164941092Y-106726945D01*
X164885114Y-106922580D01*
X164874500Y-107041962D01*
X164874500Y-108458032D01*
X164885114Y-108577418D01*
X164934499Y-108750012D01*
X164941092Y-108773051D01*
X164969189Y-108826841D01*
X165007452Y-108943861D01*
X165005645Y-109066964D01*
X164969189Y-109173159D01*
X164941092Y-109226948D01*
X164885114Y-109422580D01*
X164874500Y-109541962D01*
X164874500Y-110958032D01*
X164885114Y-111077418D01*
X164941092Y-111273052D01*
X164975896Y-111339680D01*
X165014160Y-111456700D01*
X165012355Y-111579803D01*
X164970676Y-111695650D01*
X164893639Y-111791687D01*
X164789594Y-111857507D01*
X164669814Y-111885977D01*
X164644398Y-111886842D01*
X158487767Y-111886842D01*
X158480566Y-111887408D01*
X158369587Y-111896142D01*
X158308065Y-111905886D01*
X158300894Y-111907313D01*
X158300837Y-111907031D01*
X158300834Y-111907032D01*
X158300817Y-111906930D01*
X158300662Y-111906149D01*
X158225851Y-111914999D01*
X155364968Y-111914999D01*
X155221743Y-111928699D01*
X155221740Y-111928699D01*
X155221735Y-111928700D01*
X155221729Y-111928701D01*
X155147664Y-111943001D01*
X155015457Y-111981297D01*
X154860645Y-112063776D01*
X154787853Y-112114205D01*
X154787842Y-112114213D01*
X154748294Y-112148476D01*
X154711676Y-112170853D01*
X154677507Y-112196806D01*
X154659460Y-112202763D01*
X154643241Y-112212676D01*
X154601344Y-112221950D01*
X154560597Y-112235403D01*
X154541589Y-112235178D01*
X154523034Y-112239286D01*
X154480401Y-112234455D01*
X154437489Y-112233948D01*
X154419584Y-112227563D01*
X154400701Y-112225424D01*
X154361940Y-112207009D01*
X154321524Y-112192598D01*
X154296988Y-112176151D01*
X154289496Y-112172592D01*
X154270215Y-112158205D01*
X154242434Y-112136050D01*
X154217162Y-112113970D01*
X154210206Y-112107319D01*
X154200543Y-112102364D01*
X154190466Y-112094605D01*
X154119750Y-112038210D01*
X154106896Y-112031343D01*
X154098911Y-112025210D01*
X154074002Y-112013769D01*
X154064073Y-112008465D01*
X154059865Y-112005226D01*
X154040017Y-111994438D01*
X154023750Y-111984122D01*
X154004864Y-111974930D01*
X154005576Y-111973465D01*
X153904051Y-111940476D01*
X153904051Y-111940475D01*
X153863622Y-111927338D01*
X153858421Y-111925494D01*
X153856822Y-111925128D01*
X153840775Y-111919914D01*
X153840762Y-111919911D01*
X153831719Y-111916972D01*
X153820883Y-111916702D01*
X153808422Y-111914080D01*
X153794167Y-111910827D01*
X153794154Y-111910825D01*
X153753569Y-111901562D01*
X153639685Y-111854784D01*
X153547161Y-111773562D01*
X153486022Y-111666699D01*
X153462894Y-111545774D01*
X153477219Y-111434058D01*
X153514886Y-111302418D01*
X153525500Y-111183037D01*
X153525499Y-109816964D01*
X153514886Y-109697582D01*
X153458909Y-109501951D01*
X153458908Y-109501949D01*
X153458907Y-109501945D01*
X153458906Y-109501944D01*
X153364700Y-109321596D01*
X153364698Y-109321593D01*
X153236110Y-109163892D01*
X153236107Y-109163889D01*
X153078406Y-109035301D01*
X153078403Y-109035299D01*
X152898055Y-108941093D01*
X152898054Y-108941092D01*
X152702419Y-108885114D01*
X152682521Y-108883345D01*
X152583037Y-108874500D01*
X152583032Y-108874500D01*
X151841967Y-108874500D01*
X151722581Y-108885114D01*
X151526945Y-108941092D01*
X151526944Y-108941093D01*
X151346596Y-109035299D01*
X151346593Y-109035301D01*
X151188892Y-109163889D01*
X151188889Y-109163892D01*
X151048316Y-109336293D01*
X151046914Y-109335150D01*
X150978527Y-109408843D01*
X150870015Y-109467004D01*
X150748496Y-109486780D01*
X150627141Y-109466028D01*
X150519100Y-109406996D01*
X150453014Y-109335208D01*
X150451684Y-109336293D01*
X150389369Y-109259870D01*
X150352716Y-109214918D01*
X150311110Y-109163892D01*
X150311107Y-109163889D01*
X150153406Y-109035301D01*
X150153403Y-109035299D01*
X149973055Y-108941093D01*
X149973054Y-108941092D01*
X149777419Y-108885114D01*
X149757521Y-108883345D01*
X149658037Y-108874500D01*
X149658032Y-108874500D01*
X148916967Y-108874500D01*
X148797581Y-108885114D01*
X148601945Y-108941092D01*
X148601944Y-108941093D01*
X148421596Y-109035299D01*
X148421593Y-109035301D01*
X148263892Y-109163889D01*
X148263889Y-109163892D01*
X148135303Y-109321591D01*
X148135302Y-109321593D01*
X148108102Y-109373663D01*
X148033919Y-109471915D01*
X147931849Y-109540758D01*
X147812956Y-109572729D01*
X147776606Y-109574500D01*
X147408841Y-109574500D01*
X147230044Y-109610066D01*
X147230042Y-109610066D01*
X147061610Y-109679832D01*
X146910027Y-109781117D01*
X146910021Y-109781122D01*
X146669281Y-110021862D01*
X146638629Y-110043747D01*
X146611051Y-110069408D01*
X146588855Y-110079285D01*
X146569083Y-110093403D01*
X146532979Y-110104151D01*
X146498570Y-110119464D01*
X146474370Y-110121599D01*
X146451084Y-110128532D01*
X146413448Y-110126975D01*
X146375930Y-110130286D01*
X146352348Y-110124448D01*
X146328073Y-110123444D01*
X146292979Y-110109750D01*
X146256421Y-110100700D01*
X146236014Y-110087522D01*
X146213378Y-110078690D01*
X146184633Y-110054344D01*
X146152993Y-110033913D01*
X146137968Y-110014820D01*
X146119430Y-109999119D01*
X146100150Y-109966763D01*
X146076856Y-109937162D01*
X146064271Y-109906550D01*
X146056409Y-109893355D01*
X146051742Y-109880728D01*
X146048209Y-109870612D01*
X146021409Y-109776951D01*
X146003559Y-109742779D01*
X145994581Y-109717074D01*
X145988686Y-109682877D01*
X145977902Y-109649898D01*
X145978301Y-109622627D01*
X145973668Y-109595747D01*
X145979196Y-109561489D01*
X145979705Y-109526795D01*
X145989312Y-109498808D01*
X145993284Y-109474203D01*
X146005806Y-109450765D01*
X146016168Y-109420583D01*
X146021407Y-109410552D01*
X146021409Y-109410549D01*
X146077386Y-109214918D01*
X146088000Y-109095537D01*
X146087999Y-108079464D01*
X146077386Y-107960082D01*
X146021409Y-107764451D01*
X146021408Y-107764449D01*
X146021407Y-107764445D01*
X146021406Y-107764444D01*
X145927200Y-107584096D01*
X145927194Y-107584088D01*
X145893330Y-107542556D01*
X145832294Y-107435634D01*
X145809283Y-107314687D01*
X145821558Y-107224941D01*
X145819045Y-107224441D01*
X145822629Y-107206422D01*
X145822630Y-107206420D01*
X145863000Y-107003465D01*
X145863000Y-106796535D01*
X145822630Y-106593580D01*
X145743441Y-106402402D01*
X145734413Y-106388891D01*
X145628476Y-106230344D01*
X145482155Y-106084023D01*
X145310099Y-105969059D01*
X145118920Y-105889870D01*
X144915965Y-105849500D01*
X144709035Y-105849500D01*
X144580837Y-105875000D01*
X144506079Y-105889870D01*
X144314900Y-105969059D01*
X144196518Y-106048160D01*
X144142845Y-106084023D01*
X144142843Y-106084024D01*
X144127570Y-106094230D01*
X144126063Y-106091975D01*
X144043022Y-106139726D01*
X143922147Y-106163116D01*
X143800227Y-106145990D01*
X143697673Y-106093865D01*
X143697430Y-106094230D01*
X143694375Y-106092188D01*
X143690474Y-106090206D01*
X143684810Y-106085798D01*
X143682157Y-106084025D01*
X143682155Y-106084023D01*
X143580151Y-106015867D01*
X143510099Y-105969059D01*
X143318920Y-105889870D01*
X143115965Y-105849500D01*
X142909035Y-105849500D01*
X142780837Y-105875000D01*
X142706079Y-105889870D01*
X142514900Y-105969059D01*
X142342844Y-106084023D01*
X142196523Y-106230344D01*
X142081559Y-106402400D01*
X142019881Y-106551304D01*
X142002370Y-106593580D01*
X141962000Y-106796535D01*
X141962000Y-107003465D01*
X141997136Y-107180109D01*
X142005955Y-107224441D01*
X142003258Y-107224977D01*
X142015569Y-107319732D01*
X141990928Y-107440357D01*
X141931670Y-107542556D01*
X141897805Y-107584088D01*
X141897799Y-107584096D01*
X141803593Y-107764444D01*
X141803592Y-107764445D01*
X141747614Y-107960080D01*
X141737000Y-108079462D01*
X141737000Y-109095532D01*
X141747614Y-109214918D01*
X141803592Y-109410554D01*
X141803594Y-109410558D01*
X141808836Y-109420593D01*
X141847099Y-109537613D01*
X141845292Y-109660716D01*
X141808836Y-109766907D01*
X141803594Y-109776941D01*
X141803592Y-109776945D01*
X141747614Y-109972580D01*
X141737000Y-110091962D01*
X141737000Y-111039085D01*
X141737000Y-111039090D01*
X141737001Y-111108036D01*
X141747614Y-111227418D01*
X141796005Y-111396536D01*
X141803592Y-111423052D01*
X141803593Y-111423055D01*
X141897799Y-111603403D01*
X141908239Y-111619243D01*
X141905844Y-111620820D01*
X141952510Y-111702568D01*
X141975522Y-111823515D01*
X141958015Y-111945381D01*
X141901887Y-112054959D01*
X141865759Y-112096766D01*
X141745424Y-112216813D01*
X141745402Y-112216837D01*
X141690406Y-112286220D01*
X141690394Y-112286236D01*
X141603550Y-112424081D01*
X141603548Y-112424085D01*
X141603548Y-112424086D01*
X141601140Y-112430941D01*
X141545411Y-112589590D01*
X141523655Y-112686224D01*
X141521084Y-112685645D01*
X141487407Y-112783626D01*
X141411751Y-112880755D01*
X141308657Y-112948055D01*
X141189296Y-112978234D01*
X141158553Y-112979500D01*
X141021967Y-112979500D01*
X140987831Y-112982535D01*
X140987829Y-112982535D01*
X140902582Y-112990114D01*
X140706951Y-113046091D01*
X140526593Y-113140302D01*
X140414851Y-113231414D01*
X140414847Y-113231417D01*
X140368893Y-113268888D01*
X140368889Y-113268892D01*
X140240301Y-113426593D01*
X140240299Y-113426596D01*
X140146093Y-113606944D01*
X140146092Y-113606945D01*
X140090114Y-113802580D01*
X140079500Y-113921962D01*
X140079500Y-114010596D01*
X140059236Y-114132034D01*
X140000639Y-114240312D01*
X139910059Y-114323696D01*
X139797312Y-114373152D01*
X139734852Y-114383442D01*
X139721424Y-114384499D01*
X139546452Y-114412212D01*
X139546451Y-114412212D01*
X139377959Y-114466957D01*
X139377957Y-114466958D01*
X139220112Y-114547385D01*
X139220109Y-114547386D01*
X139076789Y-114651514D01*
X139076782Y-114651520D01*
X138951520Y-114776782D01*
X138951514Y-114776789D01*
X138847386Y-114920109D01*
X138847385Y-114920112D01*
X138766958Y-115077957D01*
X138766957Y-115077959D01*
X138712212Y-115246451D01*
X138712212Y-115246452D01*
X138684500Y-115421415D01*
X138684500Y-115428446D01*
X138683453Y-115434717D01*
X138683347Y-115436071D01*
X138683229Y-115436061D01*
X138664236Y-115549884D01*
X138605639Y-115658162D01*
X138515059Y-115741546D01*
X138476677Y-115763500D01*
X138452792Y-115775345D01*
X138452788Y-115775348D01*
X138312841Y-115887841D01*
X138200348Y-116027788D01*
X138120566Y-116188653D01*
X138077233Y-116362903D01*
X138077233Y-116362906D01*
X138074500Y-116403216D01*
X138074500Y-116748441D01*
X138054236Y-116869879D01*
X137995639Y-116978157D01*
X137905059Y-117061541D01*
X137843623Y-117093972D01*
X137676084Y-117163368D01*
X137512220Y-117272859D01*
X137372859Y-117412220D01*
X137263369Y-117576082D01*
X137187948Y-117758166D01*
X137174451Y-117826022D01*
X137149500Y-117951459D01*
X137149500Y-118148541D01*
X137167994Y-118241514D01*
X137187948Y-118341833D01*
X137187949Y-118341835D01*
X137243107Y-118475000D01*
X137256312Y-118506878D01*
X137284061Y-118626827D01*
X137271360Y-118749286D01*
X137256312Y-118793122D01*
X137187948Y-118958166D01*
X137162257Y-119087320D01*
X137149500Y-119151459D01*
X137149500Y-119348541D01*
X137168636Y-119444748D01*
X137187948Y-119541833D01*
X137263369Y-119723917D01*
X137310125Y-119793891D01*
X137372861Y-119887782D01*
X137512218Y-120027139D01*
X137545684Y-120049500D01*
X137676082Y-120136630D01*
X137676084Y-120136631D01*
X137676086Y-120136632D01*
X137858165Y-120212051D01*
X138051459Y-120250500D01*
X138051461Y-120250500D01*
X138248540Y-120250500D01*
X138248541Y-120250500D01*
X138392935Y-120221777D01*
X138515990Y-120217961D01*
X138594874Y-120237534D01*
X138613643Y-120244429D01*
X138613651Y-120244433D01*
X138787900Y-120287766D01*
X138828216Y-120290500D01*
X138828217Y-120290500D01*
X140791783Y-120290500D01*
X140791784Y-120290500D01*
X140832100Y-120287766D01*
X141006349Y-120244433D01*
X141167210Y-120164653D01*
X141307159Y-120052159D01*
X141311160Y-120047182D01*
X141320198Y-120039119D01*
X141321498Y-120037820D01*
X141321572Y-120037894D01*
X141403036Y-119965227D01*
X141516545Y-119917545D01*
X141639385Y-119909303D01*
X141758246Y-119941394D01*
X141860247Y-120010340D01*
X141867119Y-120017038D01*
X142997859Y-121147778D01*
X142997862Y-121147782D01*
X143137219Y-121287139D01*
X143301087Y-121396632D01*
X143392879Y-121434653D01*
X143453014Y-121459561D01*
X143488692Y-121477256D01*
X143488695Y-121477258D01*
X143521674Y-121493614D01*
X143621463Y-121565725D01*
X143692430Y-121666330D01*
X143726886Y-121784527D01*
X143729500Y-121828669D01*
X143729500Y-123239936D01*
X143718445Y-123330195D01*
X143682358Y-123475305D01*
X143682357Y-123475309D01*
X143679500Y-123517454D01*
X143679500Y-123892546D01*
X143679724Y-123895851D01*
X143682357Y-123934689D01*
X143727661Y-124116860D01*
X143727661Y-124116861D01*
X143811059Y-124285017D01*
X143811064Y-124285025D01*
X143832277Y-124311416D01*
X143928668Y-124431332D01*
X144074975Y-124548936D01*
X144074977Y-124548937D01*
X144074982Y-124548940D01*
X144243138Y-124632338D01*
X144243139Y-124632338D01*
X144243143Y-124632340D01*
X144425308Y-124677642D01*
X144467454Y-124680500D01*
X144505777Y-124680500D01*
X144631459Y-124705500D01*
X144828541Y-124705500D01*
X144954223Y-124680500D01*
X144992546Y-124680500D01*
X145034692Y-124677642D01*
X145216857Y-124632340D01*
X145385025Y-124548936D01*
X145531332Y-124431332D01*
X145648936Y-124285025D01*
X145732340Y-124116857D01*
X145777642Y-123934692D01*
X145780500Y-123892546D01*
X145780500Y-123517454D01*
X145777642Y-123475308D01*
X145767646Y-123435116D01*
X145741555Y-123330195D01*
X145730500Y-123239936D01*
X145730500Y-122079194D01*
X145750764Y-121957756D01*
X145809361Y-121849478D01*
X145899941Y-121766094D01*
X146012688Y-121716638D01*
X146135385Y-121706471D01*
X146254734Y-121736695D01*
X146327280Y-121781203D01*
X146327570Y-121780770D01*
X146338743Y-121788235D01*
X146341764Y-121790089D01*
X146342840Y-121790972D01*
X146342845Y-121790977D01*
X146430399Y-121849478D01*
X146514900Y-121905940D01*
X146514901Y-121905940D01*
X146514902Y-121905941D01*
X146706080Y-121985130D01*
X146909035Y-122025500D01*
X146909037Y-122025500D01*
X147115963Y-122025500D01*
X147115965Y-122025500D01*
X147318920Y-121985130D01*
X147454501Y-121928969D01*
X147495888Y-121919394D01*
X147536068Y-121905601D01*
X147566357Y-121903091D01*
X147574449Y-121901219D01*
X147597626Y-121900500D01*
X147872053Y-121900500D01*
X147993491Y-121920764D01*
X148101769Y-121979361D01*
X148185153Y-122069941D01*
X148203552Y-122101341D01*
X148220299Y-122133403D01*
X148220301Y-122133406D01*
X148348889Y-122291107D01*
X148348892Y-122291110D01*
X148506593Y-122419698D01*
X148506596Y-122419700D01*
X148686944Y-122513906D01*
X148686945Y-122513907D01*
X148686949Y-122513908D01*
X148686951Y-122513909D01*
X148882582Y-122569886D01*
X149001963Y-122580500D01*
X149743036Y-122580499D01*
X149862418Y-122569886D01*
X150058049Y-122513909D01*
X150058051Y-122513907D01*
X150058054Y-122513907D01*
X150058055Y-122513906D01*
X150238403Y-122419700D01*
X150238402Y-122419700D01*
X150238407Y-122419698D01*
X150396109Y-122291109D01*
X150524698Y-122133407D01*
X150524698Y-122133405D01*
X150536684Y-122118707D01*
X150538085Y-122119849D01*
X150606462Y-122046165D01*
X150714973Y-121987999D01*
X150836490Y-121968219D01*
X150957846Y-121988967D01*
X151065890Y-122047995D01*
X151131984Y-122119792D01*
X151133316Y-122118707D01*
X151273889Y-122291107D01*
X151273892Y-122291110D01*
X151431593Y-122419698D01*
X151431596Y-122419700D01*
X151611944Y-122513906D01*
X151611945Y-122513907D01*
X151611949Y-122513908D01*
X151611951Y-122513909D01*
X151807582Y-122569886D01*
X151926963Y-122580500D01*
X152459228Y-122580499D01*
X152580665Y-122600763D01*
X152688943Y-122659360D01*
X152723686Y-122690041D01*
X152977527Y-122943882D01*
X153129110Y-123045167D01*
X153221224Y-123083321D01*
X153297542Y-123114933D01*
X153312034Y-123117815D01*
X153427181Y-123161379D01*
X153521948Y-123239973D01*
X153557387Y-123288285D01*
X153582288Y-123328656D01*
X153706344Y-123452712D01*
X153855666Y-123544814D01*
X154022203Y-123599999D01*
X154124991Y-123610500D01*
X154358338Y-123610499D01*
X154479773Y-123630763D01*
X154588051Y-123689360D01*
X154671436Y-123779939D01*
X154720892Y-123892686D01*
X154731060Y-124015382D01*
X154714034Y-124100064D01*
X154708578Y-124116860D01*
X154702213Y-124136449D01*
X154702211Y-124136455D01*
X154674500Y-124311416D01*
X154674500Y-124488584D01*
X154702212Y-124663547D01*
X154702212Y-124663548D01*
X154702213Y-124663553D01*
X154702214Y-124663555D01*
X154756958Y-124832042D01*
X154837386Y-124989890D01*
X154903341Y-125080669D01*
X154958326Y-125190825D01*
X154974564Y-125312866D01*
X154950295Y-125433567D01*
X154888150Y-125539849D01*
X154794862Y-125620193D01*
X154680542Y-125665893D01*
X154600768Y-125674500D01*
X110987000Y-125674500D01*
X110865562Y-125654236D01*
X110757284Y-125595639D01*
X110673900Y-125505059D01*
X110624444Y-125392312D01*
X110613000Y-125300500D01*
X110613000Y-122136898D01*
X114024500Y-122136898D01*
X114024500Y-122363101D01*
X114054022Y-122587340D01*
X114054023Y-122587346D01*
X114054024Y-122587351D01*
X114112477Y-122805499D01*
X114112566Y-122805830D01*
X114112570Y-122805841D01*
X114199121Y-123014797D01*
X114199123Y-123014800D01*
X114312220Y-123210693D01*
X114402737Y-123328656D01*
X114449917Y-123390142D01*
X114609858Y-123550083D01*
X114609866Y-123550089D01*
X114609867Y-123550090D01*
X114789306Y-123687779D01*
X114866554Y-123732377D01*
X114985194Y-123800874D01*
X114985199Y-123800876D01*
X114985202Y-123800878D01*
X115089680Y-123844153D01*
X115194166Y-123887433D01*
X115412649Y-123945976D01*
X115636905Y-123975500D01*
X115636913Y-123975500D01*
X115863087Y-123975500D01*
X115863095Y-123975500D01*
X116087351Y-123945976D01*
X116305834Y-123887433D01*
X116473376Y-123818034D01*
X116514797Y-123800878D01*
X116514798Y-123800877D01*
X116514806Y-123800874D01*
X116710693Y-123687779D01*
X116890142Y-123550083D01*
X117050083Y-123390142D01*
X117187779Y-123210693D01*
X117300874Y-123014806D01*
X117387433Y-122805834D01*
X117445976Y-122587351D01*
X117475500Y-122363095D01*
X117475500Y-122136905D01*
X117445976Y-121912649D01*
X117387433Y-121694166D01*
X117332067Y-121560500D01*
X117300878Y-121485202D01*
X117300876Y-121485199D01*
X117300874Y-121485194D01*
X117232377Y-121366554D01*
X117187779Y-121289306D01*
X117050090Y-121109867D01*
X117050089Y-121109866D01*
X117050083Y-121109858D01*
X116890142Y-120949917D01*
X116890132Y-120949909D01*
X116710693Y-120812220D01*
X116624690Y-120762567D01*
X116624688Y-120762566D01*
X116514806Y-120699126D01*
X116514799Y-120699123D01*
X116514796Y-120699121D01*
X116514797Y-120699121D01*
X116305841Y-120612570D01*
X116305842Y-120612570D01*
X116305834Y-120612567D01*
X116087351Y-120554024D01*
X116087346Y-120554023D01*
X116087340Y-120554022D01*
X115863101Y-120524500D01*
X115863095Y-120524500D01*
X115636905Y-120524500D01*
X115636898Y-120524500D01*
X115412659Y-120554022D01*
X115412651Y-120554023D01*
X115412649Y-120554024D01*
X115412644Y-120554025D01*
X115412641Y-120554026D01*
X115194169Y-120612566D01*
X115194158Y-120612570D01*
X114985202Y-120699121D01*
X114985199Y-120699123D01*
X114789306Y-120812220D01*
X114609867Y-120949909D01*
X114609857Y-120949918D01*
X114449918Y-121109857D01*
X114449909Y-121109867D01*
X114312220Y-121289306D01*
X114199123Y-121485199D01*
X114199121Y-121485202D01*
X114112570Y-121694158D01*
X114112566Y-121694169D01*
X114054026Y-121912641D01*
X114054022Y-121912659D01*
X114024500Y-122136898D01*
X110613000Y-122136898D01*
X110613000Y-120446962D01*
X132029500Y-120446962D01*
X132029500Y-121863032D01*
X132040114Y-121982418D01*
X132096092Y-122178054D01*
X132096093Y-122178055D01*
X132190299Y-122358403D01*
X132190301Y-122358406D01*
X132318889Y-122516107D01*
X132318892Y-122516110D01*
X132476593Y-122644698D01*
X132476596Y-122644700D01*
X132656944Y-122738906D01*
X132656945Y-122738907D01*
X132656949Y-122738908D01*
X132656951Y-122738909D01*
X132852582Y-122794886D01*
X132971963Y-122805500D01*
X133738036Y-122805499D01*
X133857418Y-122794886D01*
X134053049Y-122738909D01*
X134053051Y-122738907D01*
X134053054Y-122738907D01*
X134053055Y-122738906D01*
X134233403Y-122644700D01*
X134233402Y-122644700D01*
X134233407Y-122644698D01*
X134391109Y-122516109D01*
X134519698Y-122358407D01*
X134613906Y-122178055D01*
X134613907Y-122178054D01*
X134613907Y-122178051D01*
X134613909Y-122178049D01*
X134669886Y-121982418D01*
X134680500Y-121863037D01*
X134680499Y-120446964D01*
X134669886Y-120327582D01*
X134613909Y-120131951D01*
X134613908Y-120131949D01*
X134613907Y-120131945D01*
X134613906Y-120131944D01*
X134519701Y-119951598D01*
X134519699Y-119951596D01*
X134519698Y-119951593D01*
X134460493Y-119878983D01*
X134399460Y-119772067D01*
X134376448Y-119651120D01*
X134393955Y-119529254D01*
X134394657Y-119527070D01*
X134447786Y-119363555D01*
X134475500Y-119188579D01*
X134475500Y-119011421D01*
X134447786Y-118836445D01*
X134393042Y-118667958D01*
X134312614Y-118510110D01*
X134208483Y-118366786D01*
X134083214Y-118241517D01*
X133939890Y-118137386D01*
X133782042Y-118056958D01*
X133782040Y-118056957D01*
X133687574Y-118026264D01*
X133613555Y-118002214D01*
X133613553Y-118002213D01*
X133613548Y-118002212D01*
X133438584Y-117974500D01*
X133438579Y-117974500D01*
X133261421Y-117974500D01*
X133261415Y-117974500D01*
X133086452Y-118002212D01*
X133086451Y-118002212D01*
X132917959Y-118056957D01*
X132917957Y-118056958D01*
X132760112Y-118137385D01*
X132760109Y-118137386D01*
X132616789Y-118241514D01*
X132616782Y-118241520D01*
X132491520Y-118366782D01*
X132491514Y-118366789D01*
X132387386Y-118510109D01*
X132387385Y-118510112D01*
X132306958Y-118667957D01*
X132306957Y-118667959D01*
X132252212Y-118836451D01*
X132252212Y-118836452D01*
X132224500Y-119011415D01*
X132224500Y-119188584D01*
X132252212Y-119363547D01*
X132252213Y-119363552D01*
X132308192Y-119535843D01*
X132326445Y-119657599D01*
X132304174Y-119778685D01*
X132243794Y-119885979D01*
X132242353Y-119887756D01*
X132190305Y-119951588D01*
X132190299Y-119951596D01*
X132096093Y-120131944D01*
X132096092Y-120131945D01*
X132040114Y-120327580D01*
X132029500Y-120446962D01*
X110613000Y-120446962D01*
X110613000Y-118395574D01*
X115311531Y-118395574D01*
X115463142Y-118444835D01*
X115463154Y-118444838D01*
X115653584Y-118474999D01*
X115653590Y-118475000D01*
X115846410Y-118475000D01*
X115846415Y-118474999D01*
X116036844Y-118444838D01*
X116036858Y-118444835D01*
X116188466Y-118395574D01*
X115750000Y-117957106D01*
X115311531Y-118395574D01*
X110613000Y-118395574D01*
X110613000Y-117153585D01*
X114525000Y-117153585D01*
X114525000Y-117346414D01*
X114555161Y-117536844D01*
X114555163Y-117536853D01*
X114604425Y-117688466D01*
X115042892Y-117249999D01*
X114978874Y-117185981D01*
X115100000Y-117185981D01*
X115100000Y-117314019D01*
X115124979Y-117439598D01*
X115173978Y-117557890D01*
X115245112Y-117664351D01*
X115335649Y-117754888D01*
X115442110Y-117826022D01*
X115560402Y-117875021D01*
X115685981Y-117900000D01*
X115814019Y-117900000D01*
X115939598Y-117875021D01*
X116057890Y-117826022D01*
X116164351Y-117754888D01*
X116254888Y-117664351D01*
X116326022Y-117557890D01*
X116375021Y-117439598D01*
X116400000Y-117314019D01*
X116400000Y-117249999D01*
X116457106Y-117249999D01*
X116895574Y-117688466D01*
X116944835Y-117536858D01*
X116944838Y-117536844D01*
X116974999Y-117346415D01*
X116975000Y-117346409D01*
X116975000Y-117153590D01*
X116974999Y-117153584D01*
X116944838Y-116963154D01*
X116944835Y-116963142D01*
X116895574Y-116811531D01*
X116457106Y-117249999D01*
X116400000Y-117249999D01*
X116400000Y-117185981D01*
X116375021Y-117060402D01*
X116326022Y-116942110D01*
X116254888Y-116835649D01*
X116164351Y-116745112D01*
X116057890Y-116673978D01*
X115939598Y-116624979D01*
X115814019Y-116600000D01*
X115685981Y-116600000D01*
X115560402Y-116624979D01*
X115442110Y-116673978D01*
X115335649Y-116745112D01*
X115245112Y-116835649D01*
X115173978Y-116942110D01*
X115124979Y-117060402D01*
X115100000Y-117185981D01*
X114978874Y-117185981D01*
X114604425Y-116811532D01*
X114555163Y-116963146D01*
X114555161Y-116963155D01*
X114525000Y-117153585D01*
X110613000Y-117153585D01*
X110613000Y-116104425D01*
X115311532Y-116104425D01*
X115749999Y-116542892D01*
X116188466Y-116104425D01*
X116036853Y-116055163D01*
X116036844Y-116055161D01*
X115846414Y-116025000D01*
X115653585Y-116025000D01*
X115463155Y-116055161D01*
X115463146Y-116055163D01*
X115311532Y-116104425D01*
X110613000Y-116104425D01*
X110613000Y-111396535D01*
X133199500Y-111396535D01*
X133199500Y-111603465D01*
X133202952Y-111620820D01*
X133239870Y-111806420D01*
X133319059Y-111997599D01*
X133434023Y-112169655D01*
X133580344Y-112315976D01*
X133752400Y-112430940D01*
X133752401Y-112430940D01*
X133752402Y-112430941D01*
X133943580Y-112510130D01*
X134146535Y-112550500D01*
X134146537Y-112550500D01*
X134353463Y-112550500D01*
X134353465Y-112550500D01*
X134556420Y-112510130D01*
X134747598Y-112430941D01*
X134747601Y-112430939D01*
X134763801Y-112422281D01*
X134765445Y-112425357D01*
X134848487Y-112387908D01*
X134944024Y-112375500D01*
X139305976Y-112375500D01*
X139427414Y-112395764D01*
X139485101Y-112424334D01*
X139486199Y-112422281D01*
X139502398Y-112430939D01*
X139502400Y-112430940D01*
X139502402Y-112430941D01*
X139693580Y-112510130D01*
X139896535Y-112550500D01*
X139896537Y-112550500D01*
X140103461Y-112550500D01*
X140103465Y-112550500D01*
X140306420Y-112510130D01*
X140497598Y-112430941D01*
X140669655Y-112315977D01*
X140815977Y-112169655D01*
X140930941Y-111997598D01*
X141010130Y-111806420D01*
X141050500Y-111603465D01*
X141050500Y-111396535D01*
X141010130Y-111193580D01*
X140930941Y-111002402D01*
X140815977Y-110830345D01*
X140669655Y-110684023D01*
X140580572Y-110624500D01*
X140497599Y-110569059D01*
X140306420Y-110489870D01*
X140103465Y-110449500D01*
X139896535Y-110449500D01*
X139761231Y-110476413D01*
X139693579Y-110489870D01*
X139502398Y-110569060D01*
X139486199Y-110577719D01*
X139484554Y-110574642D01*
X139401513Y-110612092D01*
X139305976Y-110624500D01*
X134944024Y-110624500D01*
X134822586Y-110604236D01*
X134764898Y-110575665D01*
X134763801Y-110577719D01*
X134747601Y-110569060D01*
X134556420Y-110489870D01*
X134353465Y-110449500D01*
X134146535Y-110449500D01*
X134011231Y-110476413D01*
X133943579Y-110489870D01*
X133752400Y-110569059D01*
X133580344Y-110684023D01*
X133434023Y-110830344D01*
X133319059Y-111002400D01*
X133244237Y-111183036D01*
X133239870Y-111193580D01*
X133199500Y-111396535D01*
X110613000Y-111396535D01*
X110613000Y-104641962D01*
X113612000Y-104641962D01*
X113612000Y-105283032D01*
X113622614Y-105402418D01*
X113678592Y-105598053D01*
X113732806Y-105701840D01*
X113771069Y-105818860D01*
X113769263Y-105941963D01*
X113732806Y-106048160D01*
X113678592Y-106151946D01*
X113622614Y-106347580D01*
X113612000Y-106466962D01*
X113612000Y-107108032D01*
X113622614Y-107227418D01*
X113678591Y-107423050D01*
X113771983Y-107601839D01*
X113810246Y-107718859D01*
X113808441Y-107841963D01*
X113771983Y-107948161D01*
X113678591Y-108126949D01*
X113622614Y-108322580D01*
X113612000Y-108441962D01*
X113612000Y-109083032D01*
X113622614Y-109202418D01*
X113678592Y-109398054D01*
X113678593Y-109398055D01*
X113772799Y-109578403D01*
X113772801Y-109578406D01*
X113901389Y-109736107D01*
X113901392Y-109736110D01*
X114059093Y-109864698D01*
X114059096Y-109864700D01*
X114239444Y-109958906D01*
X114239445Y-109958907D01*
X114239449Y-109958908D01*
X114239451Y-109958909D01*
X114435082Y-110014886D01*
X114554463Y-110025500D01*
X115570536Y-110025499D01*
X115689918Y-110014886D01*
X115885549Y-109958909D01*
X115885551Y-109958907D01*
X115885554Y-109958907D01*
X115885555Y-109958906D01*
X116065903Y-109864700D01*
X116065902Y-109864700D01*
X116065907Y-109864698D01*
X116223609Y-109736109D01*
X116352198Y-109578407D01*
X116440771Y-109408843D01*
X116446406Y-109398055D01*
X116446407Y-109398054D01*
X116446407Y-109398051D01*
X116446409Y-109398049D01*
X116502386Y-109202418D01*
X116513000Y-109083037D01*
X116512999Y-108441964D01*
X116502386Y-108322582D01*
X116450110Y-108139885D01*
X116436186Y-108017558D01*
X116462735Y-107897338D01*
X116526882Y-107792253D01*
X116621674Y-107713690D01*
X116736839Y-107670162D01*
X116809680Y-107663000D01*
X123748726Y-107663000D01*
X123748729Y-107663000D01*
X123917874Y-107629355D01*
X124077205Y-107563358D01*
X124220599Y-107467545D01*
X126280045Y-105408099D01*
X126375858Y-105264705D01*
X126441855Y-105105374D01*
X126475500Y-104936229D01*
X126475500Y-104763771D01*
X126475500Y-99068075D01*
X126479968Y-99041297D01*
X126479407Y-99014158D01*
X126490030Y-98980994D01*
X126495764Y-98946637D01*
X126508686Y-98922757D01*
X126516967Y-98896910D01*
X126537781Y-98868994D01*
X126554361Y-98838359D01*
X126574335Y-98819971D01*
X126590561Y-98798211D01*
X126619316Y-98778563D01*
X126644941Y-98754975D01*
X126669800Y-98744070D01*
X126692216Y-98728755D01*
X126725793Y-98719509D01*
X126757688Y-98705519D01*
X126784744Y-98703276D01*
X126810915Y-98696071D01*
X126845672Y-98698228D01*
X126880385Y-98695352D01*
X126908303Y-98702115D01*
X126933795Y-98703698D01*
X126992614Y-98722541D01*
X126992619Y-98722542D01*
X127044592Y-98744070D01*
X127056584Y-98749037D01*
X127056587Y-98749039D01*
X127056591Y-98749040D01*
X127101918Y-98767816D01*
X127245570Y-98796390D01*
X127360719Y-98839954D01*
X127416003Y-98882526D01*
X127416960Y-98881354D01*
X127585419Y-99018715D01*
X127585421Y-99018716D01*
X127761272Y-99110573D01*
X127952015Y-99165151D01*
X128068414Y-99175500D01*
X128068422Y-99175500D01*
X128631578Y-99175500D01*
X128631586Y-99175500D01*
X128702823Y-99169166D01*
X128825574Y-99178595D01*
X128938617Y-99227371D01*
X129029697Y-99310209D01*
X129046358Y-99335697D01*
X129047471Y-99334954D01*
X129057676Y-99350227D01*
X129057678Y-99350231D01*
X129161698Y-99505908D01*
X129294092Y-99638302D01*
X129449769Y-99742322D01*
X129449774Y-99742324D01*
X129449774Y-99742325D01*
X129532506Y-99776593D01*
X129622749Y-99813973D01*
X129746876Y-99838663D01*
X129862024Y-99882228D01*
X129956790Y-99960823D01*
X130020901Y-100065930D01*
X130047411Y-100186159D01*
X130033446Y-100308481D01*
X129980520Y-100419641D01*
X129950660Y-100455269D01*
X129951061Y-100455612D01*
X129941514Y-100466789D01*
X129837386Y-100610109D01*
X129837385Y-100610112D01*
X129756958Y-100767957D01*
X129756957Y-100767959D01*
X129702212Y-100936451D01*
X129702212Y-100936452D01*
X129674500Y-101111415D01*
X129674500Y-101288584D01*
X129702212Y-101463547D01*
X129702212Y-101463548D01*
X129702213Y-101463553D01*
X129702214Y-101463555D01*
X129756958Y-101632042D01*
X129837386Y-101789890D01*
X129941517Y-101933214D01*
X130066786Y-102058483D01*
X130210110Y-102162614D01*
X130367958Y-102243042D01*
X130536445Y-102297786D01*
X130711421Y-102325500D01*
X130888579Y-102325500D01*
X131063555Y-102297786D01*
X131122230Y-102278721D01*
X131152755Y-102268804D01*
X131268324Y-102250500D01*
X132027723Y-102250500D01*
X132149161Y-102270764D01*
X132257439Y-102329361D01*
X132340823Y-102419941D01*
X132359219Y-102451334D01*
X132360300Y-102453405D01*
X132360301Y-102453406D01*
X132488889Y-102611107D01*
X132488892Y-102611110D01*
X132646593Y-102739698D01*
X132646596Y-102739700D01*
X132826944Y-102833906D01*
X132826945Y-102833907D01*
X132826949Y-102833908D01*
X132826951Y-102833909D01*
X133022582Y-102889886D01*
X133141963Y-102900500D01*
X133908036Y-102900499D01*
X134027418Y-102889886D01*
X134223049Y-102833909D01*
X134223051Y-102833907D01*
X134223054Y-102833907D01*
X134223055Y-102833906D01*
X134403403Y-102739700D01*
X134403402Y-102739700D01*
X134403407Y-102739698D01*
X134561109Y-102611109D01*
X134689698Y-102453407D01*
X134756511Y-102325500D01*
X134783906Y-102273055D01*
X134783907Y-102273054D01*
X134783907Y-102273051D01*
X134783909Y-102273049D01*
X134839886Y-102077418D01*
X134850500Y-101958037D01*
X134850499Y-100541964D01*
X134839886Y-100422582D01*
X134783909Y-100226951D01*
X134783908Y-100226949D01*
X134783907Y-100226945D01*
X134783906Y-100226944D01*
X134689700Y-100046596D01*
X134689698Y-100046593D01*
X134561110Y-99888892D01*
X134561107Y-99888889D01*
X134403406Y-99760301D01*
X134403403Y-99760299D01*
X134223055Y-99666093D01*
X134223054Y-99666092D01*
X134027419Y-99610114D01*
X134007521Y-99608345D01*
X133908037Y-99599500D01*
X133908032Y-99599500D01*
X133141967Y-99599500D01*
X133022581Y-99610114D01*
X132826945Y-99666092D01*
X132826944Y-99666093D01*
X132646596Y-99760299D01*
X132646593Y-99760301D01*
X132488892Y-99888889D01*
X132488889Y-99888892D01*
X132360301Y-100046593D01*
X132360300Y-100046594D01*
X132359219Y-100048666D01*
X132356992Y-100051614D01*
X132349864Y-100062431D01*
X132349170Y-100061973D01*
X132329688Y-100087775D01*
X132302884Y-100128803D01*
X132292759Y-100136683D01*
X132285030Y-100146920D01*
X132244397Y-100174324D01*
X132205727Y-100204423D01*
X132193596Y-100208587D01*
X132182959Y-100215762D01*
X132135624Y-100228489D01*
X132089281Y-100244399D01*
X132070739Y-100245935D01*
X132064065Y-100247730D01*
X132027723Y-100249500D01*
X131503455Y-100249500D01*
X131382017Y-100229236D01*
X131333661Y-100208735D01*
X131232053Y-100156962D01*
X131232040Y-100156957D01*
X131137574Y-100126264D01*
X131063555Y-100102214D01*
X131063553Y-100102213D01*
X131063548Y-100102212D01*
X130895743Y-100075634D01*
X130778970Y-100036622D01*
X130681192Y-99961808D01*
X130613004Y-99859299D01*
X130581795Y-99740203D01*
X130590948Y-99617427D01*
X130639470Y-99504275D01*
X130643235Y-99498524D01*
X130742322Y-99350231D01*
X130742324Y-99350225D01*
X130742325Y-99350225D01*
X130771314Y-99280236D01*
X130813973Y-99177251D01*
X130829034Y-99101533D01*
X130872599Y-98986386D01*
X130951195Y-98891620D01*
X131056302Y-98827509D01*
X131176530Y-98800999D01*
X131195847Y-98800500D01*
X133383765Y-98800500D01*
X133383767Y-98800500D01*
X133548082Y-98767816D01*
X133593403Y-98749041D01*
X133593414Y-98749038D01*
X133664705Y-98719509D01*
X133702863Y-98703704D01*
X133842162Y-98610627D01*
X134810627Y-97642162D01*
X134903704Y-97502862D01*
X134950917Y-97388879D01*
X134967816Y-97348082D01*
X135000500Y-97183767D01*
X135000500Y-96274500D01*
X135020764Y-96153062D01*
X135079361Y-96044784D01*
X135169941Y-95961400D01*
X135282688Y-95911944D01*
X135374500Y-95900500D01*
X135548539Y-95900500D01*
X135548541Y-95900500D01*
X135741835Y-95862051D01*
X135923914Y-95786632D01*
X136087782Y-95677139D01*
X136227139Y-95537782D01*
X136336632Y-95373914D01*
X136412051Y-95191835D01*
X136450500Y-94998541D01*
X136450500Y-94801459D01*
X136412051Y-94608165D01*
X136336632Y-94426086D01*
X136336631Y-94426084D01*
X136336630Y-94426082D01*
X136227140Y-94262220D01*
X136227138Y-94262217D01*
X136087783Y-94122862D01*
X136087779Y-94122859D01*
X135923917Y-94013369D01*
X135741833Y-93937948D01*
X135624267Y-93914563D01*
X135548541Y-93899500D01*
X135374500Y-93899500D01*
X135253062Y-93879236D01*
X135144784Y-93820639D01*
X135061400Y-93730059D01*
X135011944Y-93617312D01*
X135000500Y-93525500D01*
X135000500Y-92139550D01*
X135001067Y-92118956D01*
X135004576Y-92055316D01*
X135039933Y-91969958D01*
X135075500Y-91791154D01*
X135075500Y-91608846D01*
X135039933Y-91430042D01*
X135039161Y-91428179D01*
X135041851Y-91379406D01*
X135045116Y-91364831D01*
X135044654Y-91349908D01*
X135048471Y-91327034D01*
X135075500Y-91191154D01*
X135075500Y-91008846D01*
X135052159Y-90891509D01*
X135048343Y-90768455D01*
X135052160Y-90745580D01*
X135052905Y-90741835D01*
X135077525Y-90618066D01*
X135077525Y-90435758D01*
X135041958Y-90256954D01*
X135041834Y-90256330D01*
X135040458Y-90236332D01*
X135036757Y-90223041D01*
X135037860Y-90198548D01*
X135035299Y-90161289D01*
X135037378Y-90126125D01*
X135039933Y-90119958D01*
X135075500Y-89941154D01*
X135075500Y-89758846D01*
X135062854Y-89695273D01*
X135065689Y-89647334D01*
X135068846Y-89633498D01*
X135068407Y-89619317D01*
X135082477Y-89573779D01*
X135093086Y-89527304D01*
X135100565Y-89515243D01*
X135104754Y-89501688D01*
X135132848Y-89463186D01*
X135157972Y-89422674D01*
X135168960Y-89413696D01*
X135177325Y-89402234D01*
X135216400Y-89374939D01*
X135253316Y-89344781D01*
X135266625Y-89339857D01*
X135278257Y-89331733D01*
X135324077Y-89318605D01*
X135368786Y-89302067D01*
X135382971Y-89301731D01*
X135396612Y-89297824D01*
X135451770Y-89300107D01*
X135483109Y-89299366D01*
X135483175Y-89298699D01*
X135488631Y-89299236D01*
X135491868Y-89299160D01*
X135493675Y-89299733D01*
X135501458Y-89300499D01*
X135501459Y-89300500D01*
X135501460Y-89300500D01*
X135698539Y-89300500D01*
X135698541Y-89300500D01*
X135891835Y-89262051D01*
X136073914Y-89186632D01*
X136237782Y-89077139D01*
X136299693Y-89015227D01*
X136399888Y-88943689D01*
X136517886Y-88908558D01*
X136640898Y-88913645D01*
X136755593Y-88958399D01*
X136849542Y-89037968D01*
X136912564Y-89143732D01*
X136930962Y-89206716D01*
X136937946Y-89241827D01*
X136937948Y-89241833D01*
X136937949Y-89241835D01*
X136975186Y-89331733D01*
X137013369Y-89423917D01*
X137115548Y-89576837D01*
X137122861Y-89587782D01*
X137262218Y-89727139D01*
X137329362Y-89772003D01*
X137419074Y-89856318D01*
X137476549Y-89965196D01*
X137495558Y-90086836D01*
X137488392Y-90155935D01*
X137459854Y-90299404D01*
X137449500Y-90351459D01*
X137449500Y-90548541D01*
X137463330Y-90618066D01*
X137487948Y-90741833D01*
X137563369Y-90923917D01*
X137620118Y-91008847D01*
X137672861Y-91087782D01*
X137812218Y-91227139D01*
X137866840Y-91263636D01*
X137976082Y-91336630D01*
X137976084Y-91336631D01*
X137976086Y-91336632D01*
X138158165Y-91412051D01*
X138351459Y-91450500D01*
X138351461Y-91450500D01*
X138548539Y-91450500D01*
X138548541Y-91450500D01*
X138741835Y-91412051D01*
X138923914Y-91336632D01*
X139087782Y-91227139D01*
X139227139Y-91087782D01*
X139336632Y-90923914D01*
X139412051Y-90741835D01*
X139450500Y-90548541D01*
X139450500Y-90351459D01*
X139412051Y-90158165D01*
X139336632Y-89976086D01*
X139336631Y-89976084D01*
X139336630Y-89976082D01*
X139243452Y-89836632D01*
X139227139Y-89812218D01*
X139087782Y-89672861D01*
X139020637Y-89627996D01*
X138930924Y-89543680D01*
X138873449Y-89434802D01*
X138854422Y-89317826D01*
X138854299Y-89260548D01*
X138862051Y-89241835D01*
X138900500Y-89048541D01*
X138900500Y-88851459D01*
X138862051Y-88658165D01*
X138852965Y-88636229D01*
X138852836Y-88575799D01*
X138856999Y-88550517D01*
X138856205Y-88524908D01*
X138860021Y-88502036D01*
X138862049Y-88491839D01*
X138862051Y-88491835D01*
X138893877Y-88331834D01*
X138937442Y-88216690D01*
X139016037Y-88121925D01*
X139121144Y-88057813D01*
X139241373Y-88031304D01*
X139333651Y-88037991D01*
X139396535Y-88050500D01*
X139396537Y-88050500D01*
X139603463Y-88050500D01*
X139603465Y-88050500D01*
X139806420Y-88010130D01*
X139997598Y-87930941D01*
X140169655Y-87815977D01*
X140315977Y-87669655D01*
X140430941Y-87497598D01*
X140510130Y-87306420D01*
X140550500Y-87103465D01*
X140550500Y-86896535D01*
X140510130Y-86693580D01*
X140430941Y-86502402D01*
X140408341Y-86468579D01*
X140335868Y-86360114D01*
X140315977Y-86330345D01*
X140169655Y-86184023D01*
X139997599Y-86069059D01*
X139806420Y-85989870D01*
X139754165Y-85979476D01*
X139603465Y-85949500D01*
X139396535Y-85949500D01*
X139261231Y-85976413D01*
X139193579Y-85989870D01*
X139002400Y-86069059D01*
X138830344Y-86184023D01*
X138684023Y-86330344D01*
X138569059Y-86502400D01*
X138489871Y-86693577D01*
X138489870Y-86693580D01*
X138462490Y-86831231D01*
X138447330Y-86907444D01*
X138403763Y-87022594D01*
X138325168Y-87117360D01*
X138220060Y-87181471D01*
X138099831Y-87207980D01*
X138007550Y-87201292D01*
X137998542Y-87199500D01*
X137998541Y-87199500D01*
X137801459Y-87199500D01*
X137758828Y-87207980D01*
X137608166Y-87237948D01*
X137426082Y-87313369D01*
X137262220Y-87422859D01*
X137122857Y-87562222D01*
X137027558Y-87704846D01*
X136943241Y-87794559D01*
X136834363Y-87852034D01*
X136712722Y-87871041D01*
X136591501Y-87849522D01*
X136483835Y-87789808D01*
X136405619Y-87704842D01*
X136377139Y-87662218D01*
X136237783Y-87522862D01*
X136237779Y-87522859D01*
X136073917Y-87413369D01*
X135891833Y-87337948D01*
X135768259Y-87313368D01*
X135698541Y-87299500D01*
X135501459Y-87299500D01*
X135322959Y-87335006D01*
X135199905Y-87338822D01*
X135177055Y-87335009D01*
X134998538Y-87299500D01*
X134801456Y-87299500D01*
X134737317Y-87312257D01*
X134608163Y-87337948D01*
X134426079Y-87413369D01*
X134262217Y-87522859D01*
X134122856Y-87662220D01*
X134013366Y-87826082D01*
X133937945Y-88008166D01*
X133919388Y-88101459D01*
X133899497Y-88201459D01*
X133899497Y-88398541D01*
X133916233Y-88482678D01*
X133925156Y-88527536D01*
X133928972Y-88650594D01*
X133892625Y-88768223D01*
X133820053Y-88867677D01*
X133719120Y-88938178D01*
X133600765Y-88972086D01*
X133558342Y-88974500D01*
X130586229Y-88974500D01*
X130413771Y-88974500D01*
X130244626Y-89008145D01*
X130244625Y-89008145D01*
X130244622Y-89008146D01*
X130085295Y-89074141D01*
X130069091Y-89082803D01*
X130067675Y-89080154D01*
X129981945Y-89118810D01*
X129859359Y-89130232D01*
X129739707Y-89101231D01*
X129635954Y-89034951D01*
X129559344Y-88938573D01*
X129518179Y-88822542D01*
X129514230Y-88793874D01*
X129513000Y-88781395D01*
X129513000Y-88781384D01*
X129476473Y-88597749D01*
X129474023Y-88591835D01*
X129404824Y-88424774D01*
X129404822Y-88424769D01*
X129300802Y-88269092D01*
X129168408Y-88136698D01*
X129012731Y-88032678D01*
X129012727Y-88032676D01*
X129012725Y-88032675D01*
X129012725Y-88032674D01*
X128839753Y-87961027D01*
X128747933Y-87942763D01*
X128656116Y-87924500D01*
X128468884Y-87924500D01*
X128395430Y-87939110D01*
X128285246Y-87961027D01*
X128112274Y-88032674D01*
X128112274Y-88032675D01*
X128112270Y-88032677D01*
X128112269Y-88032678D01*
X128074652Y-88057813D01*
X127956591Y-88136698D01*
X127956591Y-88136699D01*
X127824199Y-88269091D01*
X127824198Y-88269091D01*
X127782894Y-88330908D01*
X127747052Y-88384550D01*
X127720175Y-88424774D01*
X127720174Y-88424774D01*
X127648527Y-88597746D01*
X127621131Y-88735475D01*
X127612000Y-88781384D01*
X127612000Y-88968616D01*
X127619461Y-89006124D01*
X127648527Y-89152253D01*
X127720175Y-89325225D01*
X127720176Y-89325227D01*
X127720178Y-89325231D01*
X127824198Y-89480908D01*
X127828335Y-89487099D01*
X127833423Y-89498380D01*
X127841290Y-89507936D01*
X127858621Y-89554251D01*
X127878953Y-89599329D01*
X127880102Y-89611651D01*
X127884440Y-89623243D01*
X127885794Y-89672676D01*
X127890387Y-89721914D01*
X127887473Y-89733941D01*
X127887812Y-89746314D01*
X127873040Y-89793512D01*
X127861398Y-89841569D01*
X127854736Y-89851998D01*
X127851040Y-89863811D01*
X127821745Y-89903652D01*
X127795128Y-89945329D01*
X127783728Y-89955359D01*
X127778109Y-89963002D01*
X127760836Y-89975500D01*
X127730422Y-90002262D01*
X127711217Y-90015573D01*
X127585421Y-90081284D01*
X127431660Y-90206660D01*
X127426624Y-90212835D01*
X127397706Y-90232880D01*
X127355043Y-90253004D01*
X127314074Y-90276392D01*
X127299641Y-90279137D01*
X127286356Y-90285405D01*
X127239468Y-90290586D01*
X127193127Y-90299404D01*
X127184649Y-90299500D01*
X127077142Y-90299500D01*
X126995705Y-90287420D01*
X126995270Y-90289612D01*
X126977254Y-90286028D01*
X126977251Y-90286027D01*
X126793616Y-90249500D01*
X126606384Y-90249500D01*
X126532930Y-90264110D01*
X126422746Y-90286027D01*
X126249774Y-90357674D01*
X126249774Y-90357675D01*
X126249770Y-90357677D01*
X126249769Y-90357678D01*
X126197179Y-90392816D01*
X126094091Y-90461698D01*
X126094091Y-90461699D01*
X125961699Y-90594091D01*
X125961698Y-90594091D01*
X125945679Y-90618066D01*
X125862980Y-90741835D01*
X125857675Y-90749774D01*
X125857674Y-90749774D01*
X125786027Y-90922746D01*
X125768902Y-91008844D01*
X125749500Y-91106384D01*
X125749500Y-91293616D01*
X125764685Y-91369958D01*
X125786027Y-91477253D01*
X125807135Y-91528211D01*
X125834885Y-91648160D01*
X125822185Y-91770620D01*
X125770409Y-91882320D01*
X125726062Y-91935792D01*
X125041901Y-92619955D01*
X124919953Y-92741903D01*
X124824141Y-92885295D01*
X124758146Y-93044622D01*
X124758145Y-93044625D01*
X124758145Y-93044626D01*
X124724500Y-93213771D01*
X124724500Y-93213774D01*
X124724500Y-104332440D01*
X124704236Y-104453878D01*
X124645639Y-104562156D01*
X124614958Y-104596898D01*
X123409398Y-105802458D01*
X123309200Y-105873998D01*
X123191201Y-105909128D01*
X123144940Y-105912000D01*
X116852600Y-105912000D01*
X116731162Y-105891736D01*
X116622884Y-105833139D01*
X116539500Y-105742559D01*
X116490044Y-105629812D01*
X116479877Y-105507115D01*
X116493031Y-105435112D01*
X116502385Y-105402420D01*
X116502386Y-105402418D01*
X116513000Y-105283037D01*
X116512999Y-104641964D01*
X116502386Y-104522582D01*
X116446409Y-104326951D01*
X116446408Y-104326949D01*
X116446407Y-104326945D01*
X116446406Y-104326944D01*
X116352200Y-104146596D01*
X116352198Y-104146593D01*
X116223610Y-103988892D01*
X116223607Y-103988889D01*
X116137019Y-103918286D01*
X116055709Y-103825839D01*
X116008821Y-103712000D01*
X116002771Y-103616915D01*
X116000500Y-103616915D01*
X116000500Y-103401461D01*
X115998825Y-103393042D01*
X115962051Y-103208165D01*
X115886632Y-103026086D01*
X115886631Y-103026084D01*
X115886630Y-103026082D01*
X115802718Y-102900500D01*
X115777139Y-102862218D01*
X115637782Y-102722861D01*
X115637042Y-102722367D01*
X115473917Y-102613369D01*
X115291833Y-102537948D01*
X115170964Y-102513906D01*
X115098541Y-102499500D01*
X114901459Y-102499500D01*
X114837320Y-102512257D01*
X114708166Y-102537948D01*
X114526082Y-102613369D01*
X114362220Y-102722859D01*
X114222859Y-102862220D01*
X114113369Y-103026082D01*
X114037948Y-103208166D01*
X114013982Y-103328656D01*
X114001175Y-103393042D01*
X113999500Y-103401461D01*
X113999500Y-103598540D01*
X114008986Y-103646230D01*
X114012802Y-103769288D01*
X113976454Y-103886917D01*
X113906637Y-103983644D01*
X113901392Y-103988888D01*
X113772801Y-104146593D01*
X113772799Y-104146596D01*
X113678593Y-104326944D01*
X113678592Y-104326945D01*
X113622614Y-104522580D01*
X113612000Y-104641962D01*
X110613000Y-104641962D01*
X110613000Y-89231384D01*
X123012000Y-89231384D01*
X123012000Y-89418616D01*
X123023949Y-89478686D01*
X123048527Y-89602253D01*
X123120175Y-89775225D01*
X123120176Y-89775227D01*
X123120178Y-89775231D01*
X123224198Y-89930908D01*
X123356592Y-90063302D01*
X123512269Y-90167322D01*
X123512274Y-90167324D01*
X123512274Y-90167325D01*
X123685246Y-90238972D01*
X123685247Y-90238972D01*
X123685249Y-90238973D01*
X123868884Y-90275500D01*
X123868886Y-90275500D01*
X124056114Y-90275500D01*
X124056116Y-90275500D01*
X124239751Y-90238973D01*
X124317761Y-90206660D01*
X124412725Y-90167325D01*
X124412725Y-90167324D01*
X124412731Y-90167322D01*
X124568408Y-90063302D01*
X124700802Y-89930908D01*
X124804822Y-89775231D01*
X124804824Y-89775225D01*
X124804825Y-89775225D01*
X124869404Y-89619317D01*
X124876473Y-89602251D01*
X124913000Y-89418616D01*
X124913000Y-89231384D01*
X124882109Y-89076087D01*
X124878294Y-88953034D01*
X124914641Y-88835405D01*
X124987213Y-88735951D01*
X125088146Y-88665450D01*
X125206501Y-88631542D01*
X125321889Y-88636314D01*
X125335242Y-88638970D01*
X125335249Y-88638973D01*
X125518884Y-88675500D01*
X125518888Y-88675500D01*
X125706114Y-88675500D01*
X125706116Y-88675500D01*
X125889751Y-88638973D01*
X125932996Y-88621060D01*
X126062725Y-88567325D01*
X126062725Y-88567324D01*
X126062731Y-88567322D01*
X126218408Y-88463302D01*
X126350802Y-88330908D01*
X126454822Y-88175231D01*
X126454824Y-88175225D01*
X126454825Y-88175225D01*
X126508560Y-88045496D01*
X126526473Y-88002251D01*
X126563000Y-87818616D01*
X126563000Y-87631384D01*
X126526473Y-87447749D01*
X126519167Y-87430112D01*
X126459798Y-87286782D01*
X126454822Y-87274769D01*
X126350802Y-87119092D01*
X126218408Y-86986698D01*
X126062731Y-86882678D01*
X126062727Y-86882676D01*
X126062725Y-86882675D01*
X126062725Y-86882674D01*
X125889753Y-86811027D01*
X125797933Y-86792763D01*
X125706116Y-86774500D01*
X125518884Y-86774500D01*
X125445430Y-86789110D01*
X125335246Y-86811027D01*
X125162274Y-86882674D01*
X125162274Y-86882675D01*
X125162270Y-86882677D01*
X125162269Y-86882678D01*
X125144576Y-86894500D01*
X125006591Y-86986698D01*
X125006591Y-86986699D01*
X124874199Y-87119091D01*
X124874198Y-87119091D01*
X124770175Y-87274774D01*
X124770174Y-87274774D01*
X124698527Y-87447746D01*
X124662000Y-87631385D01*
X124662000Y-87818616D01*
X124692889Y-87973909D01*
X124696705Y-88096967D01*
X124660357Y-88214596D01*
X124587785Y-88314049D01*
X124486852Y-88384550D01*
X124368496Y-88418457D01*
X124253112Y-88413685D01*
X124239752Y-88411027D01*
X124239751Y-88411027D01*
X124056116Y-88374500D01*
X123868884Y-88374500D01*
X123818359Y-88384550D01*
X123685246Y-88411027D01*
X123512274Y-88482674D01*
X123512274Y-88482675D01*
X123512270Y-88482677D01*
X123512269Y-88482678D01*
X123498565Y-88491835D01*
X123356591Y-88586698D01*
X123356591Y-88586699D01*
X123224199Y-88719091D01*
X123224198Y-88719091D01*
X123120175Y-88874774D01*
X123120174Y-88874774D01*
X123048527Y-89047746D01*
X123034596Y-89117786D01*
X123012000Y-89231384D01*
X110613000Y-89231384D01*
X110613000Y-84231384D01*
X123012000Y-84231384D01*
X123012000Y-84418616D01*
X123024148Y-84479689D01*
X123048527Y-84602253D01*
X123120175Y-84775225D01*
X123120176Y-84775227D01*
X123120178Y-84775231D01*
X123224198Y-84930908D01*
X123356592Y-85063302D01*
X123512269Y-85167322D01*
X123512274Y-85167324D01*
X123512274Y-85167325D01*
X123685246Y-85238972D01*
X123685247Y-85238972D01*
X123685249Y-85238973D01*
X123868884Y-85275500D01*
X123868886Y-85275500D01*
X124056114Y-85275500D01*
X124056116Y-85275500D01*
X124239751Y-85238973D01*
X124300106Y-85213973D01*
X124412725Y-85167325D01*
X124412725Y-85167324D01*
X124412731Y-85167322D01*
X124568408Y-85063302D01*
X124700802Y-84930908D01*
X124804822Y-84775231D01*
X124804824Y-84775225D01*
X124804825Y-84775225D01*
X124876472Y-84602253D01*
X124876471Y-84602253D01*
X124876473Y-84602251D01*
X124913000Y-84418616D01*
X124913000Y-84231384D01*
X126087000Y-84231384D01*
X126087000Y-84418616D01*
X126099148Y-84479689D01*
X126123527Y-84602253D01*
X126195175Y-84775225D01*
X126195176Y-84775227D01*
X126195178Y-84775231D01*
X126299198Y-84930908D01*
X126431592Y-85063302D01*
X126587269Y-85167322D01*
X126587274Y-85167324D01*
X126587274Y-85167325D01*
X126760246Y-85238972D01*
X126760247Y-85238972D01*
X126760249Y-85238973D01*
X126943884Y-85275500D01*
X126943886Y-85275500D01*
X127131114Y-85275500D01*
X127131116Y-85275500D01*
X127314751Y-85238973D01*
X127375106Y-85213973D01*
X127487725Y-85167325D01*
X127487725Y-85167324D01*
X127487731Y-85167322D01*
X127643408Y-85063302D01*
X127716792Y-84989918D01*
X127816990Y-84918378D01*
X127934989Y-84883248D01*
X128058001Y-84888336D01*
X128172695Y-84933090D01*
X128245708Y-84989918D01*
X128294092Y-85038302D01*
X128449769Y-85142322D01*
X128449774Y-85142324D01*
X128449774Y-85142325D01*
X128622746Y-85213972D01*
X128622747Y-85213972D01*
X128622749Y-85213973D01*
X128806384Y-85250500D01*
X128806386Y-85250500D01*
X128993614Y-85250500D01*
X128993616Y-85250500D01*
X129177251Y-85213973D01*
X129220496Y-85196060D01*
X129350225Y-85142325D01*
X129350225Y-85142324D01*
X129350231Y-85142322D01*
X129505908Y-85038302D01*
X129638302Y-84905908D01*
X129742322Y-84750231D01*
X129742324Y-84750225D01*
X129742325Y-84750225D01*
X129813972Y-84577253D01*
X129813971Y-84577253D01*
X129813973Y-84577251D01*
X129850500Y-84393616D01*
X129850500Y-84206384D01*
X129813973Y-84022749D01*
X129771368Y-83919893D01*
X129742324Y-83849774D01*
X129742322Y-83849769D01*
X129638302Y-83694092D01*
X129505908Y-83561698D01*
X129350231Y-83457678D01*
X129350227Y-83457676D01*
X129350225Y-83457675D01*
X129350225Y-83457674D01*
X129177253Y-83386027D01*
X129085433Y-83367763D01*
X128993616Y-83349500D01*
X128806384Y-83349500D01*
X128732930Y-83364110D01*
X128622746Y-83386027D01*
X128449774Y-83457674D01*
X128449774Y-83457675D01*
X128449770Y-83457677D01*
X128449769Y-83457678D01*
X128412360Y-83482674D01*
X128294091Y-83561698D01*
X128294091Y-83561699D01*
X128220708Y-83635082D01*
X128120510Y-83706622D01*
X128002511Y-83741752D01*
X127879499Y-83736664D01*
X127764805Y-83691910D01*
X127691792Y-83635082D01*
X127643408Y-83586698D01*
X127605994Y-83561699D01*
X127487731Y-83482678D01*
X127487727Y-83482676D01*
X127487725Y-83482675D01*
X127487725Y-83482674D01*
X127314753Y-83411027D01*
X127222933Y-83392763D01*
X127131116Y-83374500D01*
X126943884Y-83374500D01*
X126870430Y-83389110D01*
X126760246Y-83411027D01*
X126587274Y-83482674D01*
X126587274Y-83482675D01*
X126587270Y-83482677D01*
X126587269Y-83482678D01*
X126534679Y-83517816D01*
X126431591Y-83586698D01*
X126431591Y-83586699D01*
X126299199Y-83719091D01*
X126299198Y-83719091D01*
X126284057Y-83741752D01*
X126211883Y-83849769D01*
X126195175Y-83874774D01*
X126195174Y-83874774D01*
X126123527Y-84047746D01*
X126100264Y-84164700D01*
X126087000Y-84231384D01*
X124913000Y-84231384D01*
X124876473Y-84047749D01*
X124874508Y-84043006D01*
X124806329Y-83878407D01*
X124804822Y-83874769D01*
X124700802Y-83719092D01*
X124568408Y-83586698D01*
X124412731Y-83482678D01*
X124412727Y-83482676D01*
X124412725Y-83482675D01*
X124412725Y-83482674D01*
X124239753Y-83411027D01*
X124147933Y-83392763D01*
X124056116Y-83374500D01*
X123868884Y-83374500D01*
X123795430Y-83389110D01*
X123685246Y-83411027D01*
X123512274Y-83482674D01*
X123512274Y-83482675D01*
X123512270Y-83482677D01*
X123512269Y-83482678D01*
X123459679Y-83517816D01*
X123356591Y-83586698D01*
X123356591Y-83586699D01*
X123224199Y-83719091D01*
X123224198Y-83719091D01*
X123209057Y-83741752D01*
X123136883Y-83849769D01*
X123120175Y-83874774D01*
X123120174Y-83874774D01*
X123048527Y-84047746D01*
X123025264Y-84164700D01*
X123012000Y-84231384D01*
X110613000Y-84231384D01*
X110613000Y-79374000D01*
X110633264Y-79252562D01*
X110691861Y-79144284D01*
X110782441Y-79060900D01*
X110895188Y-79011444D01*
X110987000Y-79000000D01*
X130000000Y-79000000D01*
X130000000Y-77906385D01*
X130949500Y-77906385D01*
X130949500Y-78093614D01*
X130986027Y-78277253D01*
X131057675Y-78450225D01*
X131057676Y-78450227D01*
X131057678Y-78450231D01*
X131161698Y-78605908D01*
X131294092Y-78738302D01*
X131449769Y-78842322D01*
X131449774Y-78842324D01*
X131449774Y-78842325D01*
X131622746Y-78913972D01*
X131622747Y-78913972D01*
X131622749Y-78913973D01*
X131806384Y-78950500D01*
X131806386Y-78950500D01*
X131993614Y-78950500D01*
X131993616Y-78950500D01*
X132152040Y-78918987D01*
X132225000Y-78911802D01*
X132267508Y-78911802D01*
X132272749Y-78913973D01*
X132456384Y-78950500D01*
X132643616Y-78950500D01*
X132827251Y-78913973D01*
X132832492Y-78911802D01*
X132875000Y-78911802D01*
X132899881Y-78915953D01*
X132925094Y-78915172D01*
X132947952Y-78918986D01*
X133106384Y-78950500D01*
X133106386Y-78950500D01*
X133293614Y-78950500D01*
X133293616Y-78950500D01*
X133477251Y-78913973D01*
X133525002Y-78894194D01*
X133650225Y-78842325D01*
X133650225Y-78842324D01*
X133650231Y-78842322D01*
X133805908Y-78738302D01*
X133938302Y-78605908D01*
X134042322Y-78450231D01*
X134042324Y-78450225D01*
X134042325Y-78450225D01*
X134113972Y-78277253D01*
X134113971Y-78277253D01*
X134113973Y-78277251D01*
X134150500Y-78093616D01*
X134150500Y-77906384D01*
X134113973Y-77722749D01*
X134077705Y-77635190D01*
X134042325Y-77549774D01*
X134042321Y-77549768D01*
X134026497Y-77526086D01*
X134005865Y-77495207D01*
X133955247Y-77382977D01*
X133943813Y-77260393D01*
X133972802Y-77140737D01*
X134039072Y-77036978D01*
X134135442Y-76960358D01*
X134243872Y-76920612D01*
X134277251Y-76913973D01*
X134354095Y-76882143D01*
X134450225Y-76842325D01*
X134450225Y-76842324D01*
X134450231Y-76842322D01*
X134605908Y-76738302D01*
X134738302Y-76605908D01*
X134842322Y-76450231D01*
X134842324Y-76450225D01*
X134842325Y-76450225D01*
X134913972Y-76277253D01*
X134913971Y-76277253D01*
X134913973Y-76277251D01*
X134950500Y-76093616D01*
X134950500Y-75906384D01*
X134913973Y-75722749D01*
X134902714Y-75695567D01*
X134842325Y-75549774D01*
X134842321Y-75549768D01*
X134820615Y-75517282D01*
X134819811Y-75515499D01*
X134818485Y-75514059D01*
X134794509Y-75459400D01*
X134769997Y-75405052D01*
X134769815Y-75403104D01*
X134769029Y-75401312D01*
X134764101Y-75341847D01*
X134758563Y-75282468D01*
X134759023Y-75280566D01*
X134758862Y-75278615D01*
X134773507Y-75220783D01*
X134787552Y-75162812D01*
X134788605Y-75161161D01*
X134789086Y-75159266D01*
X134821703Y-75109340D01*
X134853822Y-75059053D01*
X134855353Y-75057835D01*
X134856424Y-75056197D01*
X134903472Y-75019577D01*
X134950192Y-74982433D01*
X134952038Y-74981777D01*
X134953581Y-74980577D01*
X135009986Y-74961212D01*
X135066219Y-74941257D01*
X135068770Y-74941032D01*
X135070027Y-74940601D01*
X135131585Y-74935500D01*
X135613033Y-74935500D01*
X135734471Y-74955764D01*
X135842749Y-75014361D01*
X135877491Y-75045042D01*
X135910501Y-75078052D01*
X135910503Y-75078053D01*
X135910506Y-75078056D01*
X136080457Y-75201533D01*
X136080460Y-75201534D01*
X136080465Y-75201538D01*
X136187435Y-75256042D01*
X136267648Y-75296913D01*
X136267650Y-75296913D01*
X136267653Y-75296915D01*
X136467457Y-75361835D01*
X136467470Y-75361837D01*
X136674950Y-75394699D01*
X136674952Y-75394699D01*
X136674957Y-75394700D01*
X136674959Y-75394700D01*
X136723146Y-75394700D01*
X136844584Y-75414964D01*
X136952862Y-75473561D01*
X137036246Y-75564141D01*
X137085702Y-75676888D01*
X137095869Y-75799585D01*
X137065645Y-75918934D01*
X137025718Y-75988532D01*
X136937388Y-76110107D01*
X136937385Y-76110112D01*
X136856958Y-76267957D01*
X136856957Y-76267959D01*
X136802212Y-76436451D01*
X136802212Y-76436452D01*
X136774500Y-76611415D01*
X136774500Y-76788584D01*
X136802212Y-76963547D01*
X136802212Y-76963548D01*
X136856957Y-77132040D01*
X136856958Y-77132042D01*
X136937386Y-77289890D01*
X136941530Y-77296652D01*
X136987703Y-77410782D01*
X136994317Y-77533721D01*
X136968176Y-77635190D01*
X136937949Y-77708164D01*
X136935048Y-77722749D01*
X136899500Y-77901459D01*
X136899500Y-78098541D01*
X136937949Y-78291835D01*
X137011190Y-78468656D01*
X137016667Y-78481878D01*
X137044416Y-78601827D01*
X137034103Y-78715167D01*
X137022284Y-78762740D01*
X137013368Y-78776086D01*
X136937949Y-78958165D01*
X136899500Y-79151459D01*
X136899500Y-79257012D01*
X136888468Y-79301422D01*
X136881939Y-79316490D01*
X136879236Y-79332693D01*
X136857593Y-79372684D01*
X136839524Y-79414392D01*
X136828457Y-79426522D01*
X136820639Y-79440971D01*
X136787184Y-79471767D01*
X136756551Y-79505349D01*
X136742143Y-79513230D01*
X136730059Y-79524355D01*
X136688420Y-79542619D01*
X136648540Y-79564436D01*
X136632355Y-79567212D01*
X136617312Y-79573811D01*
X136571996Y-79577565D01*
X136527195Y-79585251D01*
X136510984Y-79582621D01*
X136494615Y-79583978D01*
X136450544Y-79572817D01*
X136405667Y-79565538D01*
X136391185Y-79557785D01*
X136375266Y-79553754D01*
X136355709Y-79544492D01*
X136282049Y-79506961D01*
X136282040Y-79506957D01*
X136173734Y-79471767D01*
X136113555Y-79452214D01*
X136113553Y-79452213D01*
X136113548Y-79452212D01*
X135938584Y-79424500D01*
X135938579Y-79424500D01*
X135761421Y-79424500D01*
X135761415Y-79424500D01*
X135586452Y-79452212D01*
X135586451Y-79452212D01*
X135417959Y-79506957D01*
X135417957Y-79506958D01*
X135260112Y-79587385D01*
X135260109Y-79587386D01*
X135116789Y-79691514D01*
X135116782Y-79691520D01*
X134991520Y-79816782D01*
X134991514Y-79816789D01*
X134887386Y-79960109D01*
X134887385Y-79960112D01*
X134806958Y-80117957D01*
X134806957Y-80117959D01*
X134752212Y-80286451D01*
X134752212Y-80286452D01*
X134724500Y-80461415D01*
X134724500Y-80638584D01*
X134752212Y-80813547D01*
X134752213Y-80813555D01*
X134806955Y-80982035D01*
X134810760Y-80991220D01*
X134838508Y-81111169D01*
X134825805Y-81233629D01*
X134774028Y-81345329D01*
X134755084Y-81370681D01*
X134672800Y-81471594D01*
X134672799Y-81471596D01*
X134578593Y-81651944D01*
X134578592Y-81651945D01*
X134522614Y-81847580D01*
X134512000Y-81966962D01*
X134512000Y-83383032D01*
X134522614Y-83502418D01*
X134578592Y-83698054D01*
X134578593Y-83698055D01*
X134672799Y-83878403D01*
X134672801Y-83878406D01*
X134801389Y-84036107D01*
X134801392Y-84036110D01*
X134959093Y-84164698D01*
X134959096Y-84164700D01*
X135139444Y-84258906D01*
X135139445Y-84258907D01*
X135139449Y-84258908D01*
X135139451Y-84258909D01*
X135335082Y-84314886D01*
X135454463Y-84325500D01*
X136220536Y-84325499D01*
X136339918Y-84314886D01*
X136535549Y-84258909D01*
X136535551Y-84258907D01*
X136535554Y-84258907D01*
X136535555Y-84258906D01*
X136715903Y-84164700D01*
X136715902Y-84164700D01*
X136715907Y-84164698D01*
X136873609Y-84036109D01*
X137002198Y-83878407D01*
X137057878Y-83771813D01*
X137096406Y-83698055D01*
X137096407Y-83698054D01*
X137096407Y-83698051D01*
X137096409Y-83698049D01*
X137152386Y-83502418D01*
X137163000Y-83383037D01*
X137162999Y-81966964D01*
X137152386Y-81847582D01*
X137096409Y-81651951D01*
X137096408Y-81651949D01*
X137096407Y-81651945D01*
X137096406Y-81651944D01*
X137002200Y-81471596D01*
X137002198Y-81471593D01*
X136935561Y-81389869D01*
X136874524Y-81282946D01*
X136851513Y-81161999D01*
X136858176Y-81082743D01*
X136868180Y-81030834D01*
X136893042Y-80982042D01*
X136947786Y-80813555D01*
X136975500Y-80638579D01*
X136975500Y-80474011D01*
X136982259Y-80438943D01*
X136991429Y-80414261D01*
X136995764Y-80388285D01*
X137012727Y-80356938D01*
X137025139Y-80323535D01*
X137041826Y-80303168D01*
X137054361Y-80280007D01*
X137080582Y-80255868D01*
X137103169Y-80228303D01*
X137125567Y-80214457D01*
X137144941Y-80196623D01*
X137177579Y-80182306D01*
X137207893Y-80163568D01*
X137233570Y-80157745D01*
X137257688Y-80147167D01*
X137293209Y-80144223D01*
X137327962Y-80136344D01*
X137354138Y-80139174D01*
X137380385Y-80137000D01*
X137417760Y-80146055D01*
X137450365Y-80149581D01*
X137469665Y-80158630D01*
X137492621Y-80164191D01*
X137608165Y-80212051D01*
X137801459Y-80250500D01*
X137801461Y-80250500D01*
X137998539Y-80250500D01*
X137998541Y-80250500D01*
X138191835Y-80212051D01*
X138199107Y-80209039D01*
X138319055Y-80181288D01*
X138441515Y-80193988D01*
X138508400Y-80219510D01*
X138558651Y-80244433D01*
X138732900Y-80287766D01*
X138773216Y-80290500D01*
X138773217Y-80290500D01*
X140736783Y-80290500D01*
X140736784Y-80290500D01*
X140777100Y-80287766D01*
X140951349Y-80244433D01*
X141112210Y-80164653D01*
X141252159Y-80052159D01*
X141256160Y-80047182D01*
X141265198Y-80039119D01*
X141266498Y-80037820D01*
X141266572Y-80037894D01*
X141348036Y-79965227D01*
X141461545Y-79917545D01*
X141584385Y-79909303D01*
X141703246Y-79941394D01*
X141805247Y-80010340D01*
X141812119Y-80017038D01*
X142942859Y-81147778D01*
X142942862Y-81147782D01*
X143082219Y-81287139D01*
X143246087Y-81396632D01*
X143337879Y-81434653D01*
X143398014Y-81459561D01*
X143508651Y-81514433D01*
X143508652Y-81514433D01*
X143521675Y-81520892D01*
X143621463Y-81593003D01*
X143692430Y-81693608D01*
X143726886Y-81811805D01*
X143729500Y-81855947D01*
X143729500Y-84278539D01*
X143742314Y-84342960D01*
X143749500Y-84415923D01*
X143749500Y-84437545D01*
X143752357Y-84479689D01*
X143797661Y-84661860D01*
X143797661Y-84661861D01*
X143881059Y-84830017D01*
X143881064Y-84830025D01*
X143952083Y-84918378D01*
X143998668Y-84976332D01*
X144144975Y-85093936D01*
X144144977Y-85093937D01*
X144144982Y-85093940D01*
X144313138Y-85177338D01*
X144313140Y-85177338D01*
X144313143Y-85177340D01*
X144403120Y-85199716D01*
X144426795Y-85209980D01*
X144452003Y-85215508D01*
X144482897Y-85234303D01*
X144516078Y-85248689D01*
X144535140Y-85266086D01*
X144557184Y-85279498D01*
X144580300Y-85307304D01*
X144607014Y-85331686D01*
X144619393Y-85354329D01*
X144635889Y-85374172D01*
X144648725Y-85407980D01*
X144666073Y-85439712D01*
X144670429Y-85465146D01*
X144679589Y-85489272D01*
X144680751Y-85525416D01*
X144686857Y-85561062D01*
X144682718Y-85586534D01*
X144683548Y-85612326D01*
X144672911Y-85646889D01*
X144667112Y-85682585D01*
X144654927Y-85705332D01*
X144647337Y-85729997D01*
X144626053Y-85759235D01*
X144608978Y-85791112D01*
X144588879Y-85810302D01*
X144574880Y-85829534D01*
X144533509Y-85863170D01*
X144527381Y-85869022D01*
X144524025Y-85871371D01*
X144392845Y-85959023D01*
X144378820Y-85973047D01*
X144352021Y-85991813D01*
X144325592Y-86004433D01*
X144301760Y-86021450D01*
X144270425Y-86030778D01*
X144240922Y-86044868D01*
X144211829Y-86048223D01*
X144183761Y-86056580D01*
X144151094Y-86055228D01*
X144118616Y-86058975D01*
X144090009Y-86052702D01*
X144060749Y-86051492D01*
X144030292Y-86039607D01*
X143998357Y-86032605D01*
X143973337Y-86017383D01*
X143946055Y-86006738D01*
X143911029Y-85979476D01*
X143896434Y-85970597D01*
X143896364Y-85970684D01*
X143895753Y-85970183D01*
X143893176Y-85968615D01*
X143891744Y-85966893D01*
X143882155Y-85959023D01*
X143710099Y-85844059D01*
X143518920Y-85764870D01*
X143315965Y-85724500D01*
X143109035Y-85724500D01*
X142973731Y-85751413D01*
X142906079Y-85764870D01*
X142714900Y-85844059D01*
X142542844Y-85959023D01*
X142396523Y-86105344D01*
X142281559Y-86277400D01*
X142202370Y-86468579D01*
X142202370Y-86468580D01*
X142162000Y-86671535D01*
X142162000Y-86878465D01*
X142170702Y-86922212D01*
X142202370Y-87081422D01*
X142274352Y-87255201D01*
X142302102Y-87375149D01*
X142289402Y-87497609D01*
X142237627Y-87609310D01*
X142218679Y-87634668D01*
X142147801Y-87721594D01*
X142147799Y-87721596D01*
X142053593Y-87901944D01*
X142053592Y-87901945D01*
X141997614Y-88097580D01*
X141987000Y-88216962D01*
X141987000Y-89233032D01*
X141997614Y-89352418D01*
X142053592Y-89548054D01*
X142068630Y-89576842D01*
X142106893Y-89693862D01*
X142105086Y-89816966D01*
X142068630Y-89923158D01*
X142053592Y-89951945D01*
X141997614Y-90147580D01*
X141987000Y-90266962D01*
X141987000Y-91283032D01*
X141997614Y-91402418D01*
X142053592Y-91598054D01*
X142060629Y-91615670D01*
X142058388Y-91616564D01*
X142088495Y-91708639D01*
X142086688Y-91831742D01*
X142045008Y-91947589D01*
X141967971Y-92043626D01*
X141917330Y-92081692D01*
X141819609Y-92142929D01*
X141819608Y-92142930D01*
X141695416Y-92266822D01*
X141640403Y-92336225D01*
X141553546Y-92474086D01*
X141495413Y-92639586D01*
X141495410Y-92639593D01*
X141473655Y-92736226D01*
X141471098Y-92735650D01*
X141437346Y-92833740D01*
X141361656Y-92930842D01*
X141258539Y-92998107D01*
X141139168Y-93028245D01*
X141108553Y-93029500D01*
X140971968Y-93029500D01*
X140852581Y-93040114D01*
X140656945Y-93096092D01*
X140656944Y-93096093D01*
X140476596Y-93190299D01*
X140476593Y-93190301D01*
X140318892Y-93318889D01*
X140318889Y-93318892D01*
X140190301Y-93476593D01*
X140190299Y-93476596D01*
X140096093Y-93656944D01*
X140096092Y-93656945D01*
X140054191Y-93803386D01*
X140001301Y-93914563D01*
X139915178Y-94002544D01*
X139805154Y-94057793D01*
X139694621Y-94074500D01*
X139661415Y-94074500D01*
X139486452Y-94102212D01*
X139486451Y-94102212D01*
X139317959Y-94156957D01*
X139317957Y-94156958D01*
X139160112Y-94237385D01*
X139160109Y-94237386D01*
X139016789Y-94341514D01*
X139016782Y-94341520D01*
X138891520Y-94466782D01*
X138891514Y-94466789D01*
X138787386Y-94610109D01*
X138787385Y-94610112D01*
X138706958Y-94767957D01*
X138706957Y-94767959D01*
X138652212Y-94936451D01*
X138652212Y-94936452D01*
X138624500Y-95111415D01*
X138624500Y-95288586D01*
X138636476Y-95364196D01*
X138635459Y-95487308D01*
X138594521Y-95603420D01*
X138518101Y-95699948D01*
X138433258Y-95757756D01*
X138397793Y-95775345D01*
X138397788Y-95775348D01*
X138257841Y-95887841D01*
X138145348Y-96027788D01*
X138065566Y-96188653D01*
X138022233Y-96362903D01*
X138022233Y-96362906D01*
X138019500Y-96403216D01*
X138019500Y-96659141D01*
X137999236Y-96780579D01*
X137940639Y-96888857D01*
X137850059Y-96972241D01*
X137737312Y-97021697D01*
X137718485Y-97025950D01*
X137658165Y-97037949D01*
X137476082Y-97113369D01*
X137312220Y-97222859D01*
X137172859Y-97362220D01*
X137063369Y-97526082D01*
X136987948Y-97708166D01*
X136962257Y-97837320D01*
X136949500Y-97901459D01*
X136949500Y-98098541D01*
X136987949Y-98291835D01*
X137063368Y-98473914D01*
X137066667Y-98481878D01*
X137094416Y-98601827D01*
X137081715Y-98724287D01*
X137066667Y-98768122D01*
X137063368Y-98776085D01*
X137063368Y-98776086D01*
X136987949Y-98958165D01*
X136949500Y-99151459D01*
X136949500Y-99348541D01*
X136972569Y-99464517D01*
X136987949Y-99541837D01*
X137043896Y-99676907D01*
X137071646Y-99796855D01*
X137058944Y-99919315D01*
X137043896Y-99963149D01*
X136989870Y-100093579D01*
X136982864Y-100128803D01*
X136949500Y-100296535D01*
X136949500Y-100503465D01*
X136970713Y-100610109D01*
X136989870Y-100706420D01*
X137069059Y-100897599D01*
X137095020Y-100936452D01*
X137184023Y-101069655D01*
X137330345Y-101215977D01*
X137334030Y-101218439D01*
X137502400Y-101330940D01*
X137502401Y-101330940D01*
X137502402Y-101330941D01*
X137693580Y-101410130D01*
X137896535Y-101450500D01*
X137896537Y-101450500D01*
X138103463Y-101450500D01*
X138103465Y-101450500D01*
X138306420Y-101410130D01*
X138497598Y-101330941D01*
X138669655Y-101215977D01*
X138815977Y-101069655D01*
X138930941Y-100897598D01*
X139010130Y-100706420D01*
X139032982Y-100591534D01*
X139076547Y-100476386D01*
X139155142Y-100381620D01*
X139260249Y-100317509D01*
X139380478Y-100290999D01*
X139399795Y-100290500D01*
X140736783Y-100290500D01*
X140736784Y-100290500D01*
X140777100Y-100287766D01*
X140951349Y-100244433D01*
X141030317Y-100205267D01*
X141148107Y-100169466D01*
X141271146Y-100173851D01*
X141386094Y-100217949D01*
X141460946Y-100275866D01*
X142332858Y-101147778D01*
X142332861Y-101147782D01*
X142472218Y-101287139D01*
X142636086Y-101396632D01*
X142727878Y-101434653D01*
X142791632Y-101461061D01*
X142818161Y-101472050D01*
X142818162Y-101472050D01*
X142818164Y-101472051D01*
X142908254Y-101489971D01*
X142908257Y-101489972D01*
X142937914Y-101495870D01*
X143011459Y-101510500D01*
X143011460Y-101510500D01*
X143208540Y-101510500D01*
X143355500Y-101510500D01*
X143476938Y-101530764D01*
X143585216Y-101589361D01*
X143668600Y-101679941D01*
X143718056Y-101792688D01*
X143729500Y-101884500D01*
X143729500Y-103139936D01*
X143718445Y-103230195D01*
X143682358Y-103375305D01*
X143682357Y-103375309D01*
X143679500Y-103417454D01*
X143679500Y-103792545D01*
X143682357Y-103834689D01*
X143688727Y-103860302D01*
X143720705Y-103988892D01*
X143727661Y-104016860D01*
X143727661Y-104016861D01*
X143811059Y-104185017D01*
X143811064Y-104185025D01*
X143925141Y-104326945D01*
X143928668Y-104331332D01*
X144074975Y-104448936D01*
X144074977Y-104448937D01*
X144074982Y-104448940D01*
X144243138Y-104532338D01*
X144243139Y-104532338D01*
X144243143Y-104532340D01*
X144425308Y-104577642D01*
X144467454Y-104580500D01*
X144505777Y-104580500D01*
X144631459Y-104605500D01*
X144828541Y-104605500D01*
X144954223Y-104580500D01*
X144992546Y-104580500D01*
X145034692Y-104577642D01*
X145216857Y-104532340D01*
X145272913Y-104504538D01*
X145385017Y-104448940D01*
X145385017Y-104448939D01*
X145385025Y-104448936D01*
X145531332Y-104331332D01*
X145648936Y-104185025D01*
X145732340Y-104016857D01*
X145777642Y-103834692D01*
X145780500Y-103792546D01*
X145780500Y-103417454D01*
X145777642Y-103375308D01*
X145756002Y-103288289D01*
X145741555Y-103230195D01*
X145730500Y-103139936D01*
X145730500Y-101981548D01*
X145750764Y-101860110D01*
X145809361Y-101751832D01*
X145899941Y-101668448D01*
X146012688Y-101618992D01*
X146135385Y-101608825D01*
X146254734Y-101639049D01*
X146357803Y-101706387D01*
X146368958Y-101717090D01*
X146392844Y-101740976D01*
X146564900Y-101855940D01*
X146564901Y-101855940D01*
X146564902Y-101855941D01*
X146756080Y-101935130D01*
X146959035Y-101975500D01*
X146959037Y-101975500D01*
X147165963Y-101975500D01*
X147165965Y-101975500D01*
X147368920Y-101935130D01*
X147504501Y-101878969D01*
X147545888Y-101869394D01*
X147586068Y-101855601D01*
X147616357Y-101853091D01*
X147624449Y-101851219D01*
X147647626Y-101850500D01*
X147790935Y-101850500D01*
X147912373Y-101870764D01*
X148020651Y-101929361D01*
X148104035Y-102019941D01*
X148122432Y-102051337D01*
X148165301Y-102133406D01*
X148293889Y-102291107D01*
X148293892Y-102291110D01*
X148451593Y-102419698D01*
X148451596Y-102419700D01*
X148631944Y-102513906D01*
X148631945Y-102513907D01*
X148631949Y-102513908D01*
X148631951Y-102513909D01*
X148827582Y-102569886D01*
X148946963Y-102580500D01*
X149688036Y-102580499D01*
X149807418Y-102569886D01*
X150003049Y-102513909D01*
X150003051Y-102513907D01*
X150003054Y-102513907D01*
X150003055Y-102513906D01*
X150122843Y-102451334D01*
X150183407Y-102419698D01*
X150341109Y-102291109D01*
X150469698Y-102133407D01*
X150469698Y-102133405D01*
X150481684Y-102118707D01*
X150483085Y-102119849D01*
X150551462Y-102046165D01*
X150659973Y-101987999D01*
X150781490Y-101968219D01*
X150902846Y-101988967D01*
X151010890Y-102047995D01*
X151076984Y-102119792D01*
X151078316Y-102118707D01*
X151218889Y-102291107D01*
X151218892Y-102291110D01*
X151376593Y-102419698D01*
X151376596Y-102419700D01*
X151556944Y-102513906D01*
X151556945Y-102513907D01*
X151556949Y-102513908D01*
X151556951Y-102513909D01*
X151752582Y-102569886D01*
X151871963Y-102580500D01*
X152404228Y-102580499D01*
X152525665Y-102600763D01*
X152633943Y-102659360D01*
X152668686Y-102690041D01*
X152922527Y-102943882D01*
X153074110Y-103045167D01*
X153165955Y-103083210D01*
X153242542Y-103114933D01*
X153257034Y-103117815D01*
X153372181Y-103161379D01*
X153466948Y-103239973D01*
X153502387Y-103288285D01*
X153527288Y-103328656D01*
X153651344Y-103452712D01*
X153800666Y-103544814D01*
X153967203Y-103599999D01*
X154069991Y-103610500D01*
X154258339Y-103610499D01*
X154379773Y-103630763D01*
X154488051Y-103689359D01*
X154571436Y-103779939D01*
X154620892Y-103892686D01*
X154631060Y-104015382D01*
X154614034Y-104100067D01*
X154602211Y-104136453D01*
X154574500Y-104311415D01*
X154574500Y-104488584D01*
X154602212Y-104663547D01*
X154602212Y-104663548D01*
X154602213Y-104663553D01*
X154602214Y-104663555D01*
X154656958Y-104832042D01*
X154737386Y-104989890D01*
X154841517Y-105133214D01*
X154966786Y-105258483D01*
X155110110Y-105362614D01*
X155267958Y-105443042D01*
X155436445Y-105497786D01*
X155611421Y-105525500D01*
X155788579Y-105525500D01*
X155963555Y-105497786D01*
X156132042Y-105443042D01*
X156161452Y-105428056D01*
X156278852Y-105390979D01*
X156401930Y-105394030D01*
X156501047Y-105428056D01*
X156530458Y-105443042D01*
X156698945Y-105497786D01*
X156873921Y-105525500D01*
X157051079Y-105525500D01*
X157226055Y-105497786D01*
X157394542Y-105443042D01*
X157552390Y-105362614D01*
X157695714Y-105258483D01*
X157820983Y-105133214D01*
X157925114Y-104989890D01*
X158005542Y-104832042D01*
X158060286Y-104663555D01*
X158088000Y-104488579D01*
X158088000Y-104311421D01*
X158086239Y-104300308D01*
X158060288Y-104136453D01*
X158060286Y-104136448D01*
X158060286Y-104136445D01*
X158048465Y-104100065D01*
X158030214Y-103978311D01*
X158052485Y-103857225D01*
X158112866Y-103749931D01*
X158204813Y-103668057D01*
X158318363Y-103620474D01*
X158404163Y-103610499D01*
X158590006Y-103610499D01*
X158590008Y-103610499D01*
X158692797Y-103599999D01*
X158859334Y-103544814D01*
X159008656Y-103452712D01*
X159008662Y-103452705D01*
X159025743Y-103439201D01*
X159028501Y-103442689D01*
X159094221Y-103395714D01*
X159212201Y-103360522D01*
X159335215Y-103365544D01*
X159403478Y-103389594D01*
X159404380Y-103387418D01*
X159417953Y-103393039D01*
X159417958Y-103393042D01*
X159586445Y-103447786D01*
X159761421Y-103475500D01*
X159938579Y-103475500D01*
X160113555Y-103447786D01*
X160282042Y-103393042D01*
X160439890Y-103312614D01*
X160583214Y-103208483D01*
X160708483Y-103083214D01*
X160812614Y-102939890D01*
X160893042Y-102782042D01*
X160947786Y-102613555D01*
X160975500Y-102438579D01*
X160975500Y-102328325D01*
X160995764Y-102206887D01*
X161054361Y-102098609D01*
X161144941Y-102015225D01*
X161257688Y-101965769D01*
X161351181Y-101954329D01*
X172559123Y-102004816D01*
X172645419Y-102000263D01*
X172690597Y-101995276D01*
X172690629Y-101995270D01*
X172690635Y-101995270D01*
X172734839Y-101987999D01*
X172769700Y-101982265D01*
X172935511Y-101925015D01*
X173015303Y-101886588D01*
X173153611Y-101800483D01*
X173278165Y-101676963D01*
X173333384Y-101607722D01*
X173420650Y-101470112D01*
X173479273Y-101304782D01*
X173498980Y-101218439D01*
X173517922Y-101050326D01*
X173517922Y-95833176D01*
X173504221Y-95689947D01*
X173489916Y-95615860D01*
X173451619Y-95483654D01*
X173369137Y-95328839D01*
X173318701Y-95256040D01*
X173309095Y-95244952D01*
X173244895Y-95139900D01*
X173218284Y-95019693D01*
X173232145Y-94897359D01*
X173284977Y-94786155D01*
X173299335Y-94766911D01*
X173333384Y-94724217D01*
X173420650Y-94586607D01*
X173479273Y-94421277D01*
X173497477Y-94341520D01*
X173498977Y-94334948D01*
X173498977Y-94334945D01*
X173498980Y-94334934D01*
X173517922Y-94166821D01*
X173517922Y-92891342D01*
X173513172Y-92806759D01*
X173508183Y-92762477D01*
X173495361Y-92685064D01*
X173438111Y-92519253D01*
X173399684Y-92439461D01*
X173336954Y-92338700D01*
X173313578Y-92301151D01*
X173190063Y-92176603D01*
X173190062Y-92176602D01*
X173190059Y-92176599D01*
X173120818Y-92121380D01*
X173111010Y-92115160D01*
X172983210Y-92034115D01*
X172983209Y-92034114D01*
X172983208Y-92034114D01*
X172817878Y-91975491D01*
X172817873Y-91975490D01*
X172817868Y-91975488D01*
X172731549Y-91955786D01*
X172731530Y-91955783D01*
X172563422Y-91936842D01*
X169175969Y-91936842D01*
X169054531Y-91916578D01*
X168946253Y-91857981D01*
X168862869Y-91767401D01*
X168813413Y-91654654D01*
X168803246Y-91531957D01*
X168833470Y-91412608D01*
X168873396Y-91343011D01*
X168916973Y-91283032D01*
X168970114Y-91209890D01*
X169050542Y-91052042D01*
X169105286Y-90883555D01*
X169133000Y-90708579D01*
X169133000Y-90531421D01*
X169105286Y-90356445D01*
X169050542Y-90187958D01*
X168970114Y-90030110D01*
X168865983Y-89886786D01*
X168740714Y-89761517D01*
X168706666Y-89736780D01*
X168597390Y-89657386D01*
X168597384Y-89657383D01*
X168589248Y-89653237D01*
X168490247Y-89580052D01*
X168420372Y-89478686D01*
X168387196Y-89360123D01*
X168394316Y-89237212D01*
X168440959Y-89123273D01*
X168522071Y-89030652D01*
X168589249Y-88986762D01*
X168597390Y-88982614D01*
X168740714Y-88878483D01*
X168865983Y-88753214D01*
X168970114Y-88609890D01*
X169050542Y-88452042D01*
X169105286Y-88283555D01*
X169133000Y-88108579D01*
X169133000Y-87931421D01*
X169105286Y-87756445D01*
X169050542Y-87587958D01*
X168970114Y-87430110D01*
X168865983Y-87286786D01*
X168740714Y-87161517D01*
X168597390Y-87057386D01*
X168439542Y-86976958D01*
X168439540Y-86976957D01*
X168345074Y-86946264D01*
X168271055Y-86922214D01*
X168271053Y-86922213D01*
X168271048Y-86922212D01*
X168096084Y-86894500D01*
X168096079Y-86894500D01*
X167918921Y-86894500D01*
X167918915Y-86894500D01*
X167743943Y-86922213D01*
X167741029Y-86922913D01*
X167738326Y-86923103D01*
X167729431Y-86924512D01*
X167729308Y-86923737D01*
X167618216Y-86931553D01*
X167499252Y-86899847D01*
X167397028Y-86831231D01*
X167363879Y-86795589D01*
X167346683Y-86774500D01*
X167262728Y-86671537D01*
X167236110Y-86638892D01*
X167236107Y-86638889D01*
X167078406Y-86510301D01*
X167078403Y-86510299D01*
X166898055Y-86416093D01*
X166898054Y-86416092D01*
X166702419Y-86360114D01*
X166682521Y-86358345D01*
X166583037Y-86349500D01*
X166583032Y-86349500D01*
X165816967Y-86349500D01*
X165697581Y-86360114D01*
X165501945Y-86416092D01*
X165501944Y-86416093D01*
X165321596Y-86510299D01*
X165321593Y-86510301D01*
X165163892Y-86638889D01*
X165163889Y-86638892D01*
X165035301Y-86796593D01*
X165035299Y-86796596D01*
X164941093Y-86976944D01*
X164941092Y-86976945D01*
X164885114Y-87172580D01*
X164874500Y-87291962D01*
X164874500Y-88708032D01*
X164885114Y-88827418D01*
X164936826Y-89008145D01*
X164941092Y-89023051D01*
X164969189Y-89076841D01*
X165007452Y-89193861D01*
X165005645Y-89316964D01*
X164969189Y-89423159D01*
X164941092Y-89476948D01*
X164885114Y-89672580D01*
X164874500Y-89791962D01*
X164874500Y-91208032D01*
X164885114Y-91327420D01*
X164923038Y-91459957D01*
X164936962Y-91582284D01*
X164910413Y-91702504D01*
X164846266Y-91807589D01*
X164751474Y-91886153D01*
X164636309Y-91929680D01*
X164563468Y-91936842D01*
X159228125Y-91936842D01*
X159225487Y-91936846D01*
X159223836Y-91936853D01*
X159223829Y-91936853D01*
X159053035Y-91957101D01*
X159053013Y-91957105D01*
X158966840Y-91977471D01*
X158813234Y-92031830D01*
X158813230Y-92031832D01*
X158665032Y-92125681D01*
X158665031Y-92125682D01*
X158596211Y-92181436D01*
X158588714Y-92188212D01*
X158587580Y-92186958D01*
X158564339Y-92203674D01*
X158532854Y-92231762D01*
X158514662Y-92239404D01*
X158498645Y-92250925D01*
X158458250Y-92263104D01*
X158419347Y-92279448D01*
X158394376Y-92282362D01*
X158380769Y-92286465D01*
X158358268Y-92288660D01*
X158345751Y-92289500D01*
X157879992Y-92289501D01*
X157777203Y-92300001D01*
X157672502Y-92334695D01*
X157625049Y-92337881D01*
X157610469Y-92336442D01*
X157595990Y-92338700D01*
X157541985Y-92329688D01*
X157502527Y-92325796D01*
X157493259Y-92321556D01*
X157482360Y-92319738D01*
X157422800Y-92300002D01*
X157422797Y-92300001D01*
X157422792Y-92300000D01*
X157422790Y-92300000D01*
X157320012Y-92289500D01*
X156609994Y-92289500D01*
X156507201Y-92300000D01*
X156447638Y-92319738D01*
X156325990Y-92338700D01*
X156212360Y-92319738D01*
X156152800Y-92300002D01*
X156152797Y-92300001D01*
X156152792Y-92300000D01*
X156152790Y-92300000D01*
X156050012Y-92289500D01*
X155339994Y-92289500D01*
X155237201Y-92300000D01*
X155177638Y-92319738D01*
X155055990Y-92338700D01*
X155030822Y-92337581D01*
X154985503Y-92334034D01*
X154882797Y-92300001D01*
X154780009Y-92289500D01*
X154416388Y-92289500D01*
X154401820Y-92288360D01*
X154356066Y-92276996D01*
X154309559Y-92269236D01*
X154296615Y-92262231D01*
X154282333Y-92258684D01*
X154242750Y-92233081D01*
X154201281Y-92210639D01*
X154183020Y-92194446D01*
X154178957Y-92191818D01*
X154176430Y-92188602D01*
X154165454Y-92178869D01*
X154163186Y-92176582D01*
X154163185Y-92176581D01*
X154163181Y-92176577D01*
X154157845Y-92172322D01*
X154157844Y-92172322D01*
X154154998Y-92170052D01*
X154142160Y-92155772D01*
X154122614Y-92142232D01*
X154122586Y-92142212D01*
X154113889Y-92136186D01*
X154113882Y-92136179D01*
X154093692Y-92121161D01*
X154086168Y-92115160D01*
X154086023Y-92115050D01*
X154075096Y-92106336D01*
X154067326Y-92103198D01*
X154046017Y-92090160D01*
X154046482Y-92089491D01*
X154040871Y-92085604D01*
X154020307Y-92074428D01*
X154012128Y-92069424D01*
X154011486Y-92068867D01*
X154007029Y-92066247D01*
X153956364Y-92034117D01*
X153954641Y-92033506D01*
X153901055Y-92009621D01*
X153897716Y-92007806D01*
X153897713Y-92007805D01*
X153835463Y-91990348D01*
X153820255Y-91985732D01*
X153815863Y-91984296D01*
X153791034Y-91975492D01*
X153784379Y-91973973D01*
X153784372Y-91974000D01*
X153767788Y-91968578D01*
X153728091Y-91947844D01*
X153686686Y-91930803D01*
X153673832Y-91919503D01*
X153658660Y-91911579D01*
X153627849Y-91879081D01*
X153594218Y-91849517D01*
X153585728Y-91834653D01*
X153573953Y-91822234D01*
X153555366Y-91781500D01*
X153533153Y-91742611D01*
X153529949Y-91725795D01*
X153522845Y-91710226D01*
X153518492Y-91665663D01*
X153510110Y-91621670D01*
X153511956Y-91598756D01*
X153510876Y-91587693D01*
X153513860Y-91575134D01*
X153514257Y-91570212D01*
X153513311Y-91570128D01*
X153514885Y-91552420D01*
X153514886Y-91552418D01*
X153525500Y-91433037D01*
X153525499Y-90066964D01*
X153514886Y-89947582D01*
X153458909Y-89751951D01*
X153458908Y-89751949D01*
X153458907Y-89751945D01*
X153458906Y-89751944D01*
X153364700Y-89571596D01*
X153364698Y-89571593D01*
X153236110Y-89413892D01*
X153236107Y-89413889D01*
X153078406Y-89285301D01*
X153078403Y-89285299D01*
X152898055Y-89191093D01*
X152898054Y-89191092D01*
X152702419Y-89135114D01*
X152682521Y-89133345D01*
X152583037Y-89124500D01*
X152583032Y-89124500D01*
X151841967Y-89124500D01*
X151722581Y-89135114D01*
X151526945Y-89191092D01*
X151526944Y-89191093D01*
X151346596Y-89285299D01*
X151346593Y-89285301D01*
X151188892Y-89413889D01*
X151188889Y-89413892D01*
X151048316Y-89586293D01*
X151046914Y-89585150D01*
X150978527Y-89658843D01*
X150870015Y-89717004D01*
X150748496Y-89736780D01*
X150627141Y-89716028D01*
X150519100Y-89656996D01*
X150453014Y-89585208D01*
X150451684Y-89586293D01*
X150311110Y-89413892D01*
X150311107Y-89413889D01*
X150153406Y-89285301D01*
X150153403Y-89285299D01*
X149973055Y-89191093D01*
X149973054Y-89191092D01*
X149777419Y-89135114D01*
X149757521Y-89133345D01*
X149658037Y-89124500D01*
X149658032Y-89124500D01*
X148916967Y-89124500D01*
X148797581Y-89135114D01*
X148601945Y-89191092D01*
X148601944Y-89191093D01*
X148421596Y-89285299D01*
X148421593Y-89285301D01*
X148263892Y-89413889D01*
X148263889Y-89413892D01*
X148135303Y-89571591D01*
X148135302Y-89571593D01*
X148108102Y-89623663D01*
X148033919Y-89721915D01*
X147931849Y-89790758D01*
X147812956Y-89822729D01*
X147776606Y-89824500D01*
X147408841Y-89824500D01*
X147230044Y-89860066D01*
X147230042Y-89860066D01*
X147061610Y-89929832D01*
X146936147Y-90013664D01*
X146911537Y-90030109D01*
X146911531Y-90030113D01*
X146910029Y-90031116D01*
X146910023Y-90031120D01*
X146877554Y-90063590D01*
X146777355Y-90135129D01*
X146659356Y-90170257D01*
X146536344Y-90165168D01*
X146421650Y-90120413D01*
X146327703Y-90040842D01*
X146283365Y-89967107D01*
X146280193Y-89968765D01*
X146256372Y-89923163D01*
X146238782Y-89869372D01*
X146219750Y-89816064D01*
X146219687Y-89810978D01*
X146218107Y-89806144D01*
X146218936Y-89749548D01*
X146218245Y-89692957D01*
X146219837Y-89688126D01*
X146219912Y-89683040D01*
X146256372Y-89576837D01*
X146271407Y-89548054D01*
X146271407Y-89548051D01*
X146271409Y-89548049D01*
X146327386Y-89352418D01*
X146338000Y-89233037D01*
X146337999Y-88216964D01*
X146327386Y-88097582D01*
X146271409Y-87901951D01*
X146271408Y-87901949D01*
X146271407Y-87901945D01*
X146271406Y-87901944D01*
X146177200Y-87721596D01*
X146177198Y-87721593D01*
X146073165Y-87594007D01*
X146012129Y-87487085D01*
X145989117Y-87366138D01*
X146006624Y-87244273D01*
X146017491Y-87214536D01*
X146039451Y-87161520D01*
X146072630Y-87081420D01*
X146113000Y-86878465D01*
X146113000Y-86671535D01*
X146072630Y-86468580D01*
X145993441Y-86277402D01*
X145878477Y-86105345D01*
X145732155Y-85959023D01*
X145560098Y-85844059D01*
X145560099Y-85844059D01*
X145560097Y-85844058D01*
X145439005Y-85793900D01*
X145334566Y-85728706D01*
X145256954Y-85633133D01*
X145214580Y-85517538D01*
X145212035Y-85394448D01*
X145249596Y-85277201D01*
X145323192Y-85178502D01*
X145415957Y-85113312D01*
X145455019Y-85093939D01*
X145455019Y-85093938D01*
X145455025Y-85093936D01*
X145601332Y-84976332D01*
X145718936Y-84830025D01*
X145802340Y-84661857D01*
X145847642Y-84479692D01*
X145850500Y-84437546D01*
X145850500Y-84062454D01*
X145847642Y-84020308D01*
X145802340Y-83838143D01*
X145785299Y-83803782D01*
X145769444Y-83771813D01*
X145733642Y-83654017D01*
X145730500Y-83605641D01*
X145730500Y-81994048D01*
X145750764Y-81872610D01*
X145809361Y-81764332D01*
X145899941Y-81680948D01*
X146012688Y-81631492D01*
X146135385Y-81621325D01*
X146254734Y-81651549D01*
X146357803Y-81718887D01*
X146368958Y-81729590D01*
X146410345Y-81770977D01*
X146428550Y-81783141D01*
X146582400Y-81885940D01*
X146582401Y-81885940D01*
X146582402Y-81885941D01*
X146773580Y-81965130D01*
X146976535Y-82005500D01*
X146976537Y-82005500D01*
X147183463Y-82005500D01*
X147183465Y-82005500D01*
X147386420Y-81965130D01*
X147522001Y-81908969D01*
X147563388Y-81899394D01*
X147603568Y-81885601D01*
X147633857Y-81883091D01*
X147641949Y-81881219D01*
X147665126Y-81880500D01*
X147806606Y-81880500D01*
X147928044Y-81900764D01*
X148036322Y-81959361D01*
X148119706Y-82049941D01*
X148138097Y-82081325D01*
X148165302Y-82133407D01*
X148165303Y-82133408D01*
X148293889Y-82291107D01*
X148293892Y-82291110D01*
X148451593Y-82419698D01*
X148451596Y-82419700D01*
X148631944Y-82513906D01*
X148631945Y-82513907D01*
X148631949Y-82513908D01*
X148631951Y-82513909D01*
X148827582Y-82569886D01*
X148946963Y-82580500D01*
X149688036Y-82580499D01*
X149807418Y-82569886D01*
X150003049Y-82513909D01*
X150003051Y-82513907D01*
X150003054Y-82513907D01*
X150003055Y-82513906D01*
X150183403Y-82419700D01*
X150183402Y-82419700D01*
X150183407Y-82419698D01*
X150341109Y-82291109D01*
X150469698Y-82133407D01*
X150469698Y-82133405D01*
X150481684Y-82118707D01*
X150483085Y-82119849D01*
X150551462Y-82046165D01*
X150659973Y-81987999D01*
X150781490Y-81968219D01*
X150902846Y-81988967D01*
X151010890Y-82047995D01*
X151076984Y-82119792D01*
X151078316Y-82118707D01*
X151090301Y-82133406D01*
X151090302Y-82133407D01*
X151135708Y-82189093D01*
X151218889Y-82291107D01*
X151218892Y-82291110D01*
X151376593Y-82419698D01*
X151376596Y-82419700D01*
X151556944Y-82513906D01*
X151556945Y-82513907D01*
X151556949Y-82513908D01*
X151556951Y-82513909D01*
X151752582Y-82569886D01*
X151871963Y-82580500D01*
X152404228Y-82580499D01*
X152525665Y-82600763D01*
X152633943Y-82659360D01*
X152668686Y-82690041D01*
X152922527Y-82943882D01*
X153074110Y-83045167D01*
X153166224Y-83083321D01*
X153242542Y-83114933D01*
X153257034Y-83117815D01*
X153372181Y-83161379D01*
X153466948Y-83239973D01*
X153502387Y-83288285D01*
X153527288Y-83328656D01*
X153651344Y-83452712D01*
X153800666Y-83544814D01*
X153967203Y-83599999D01*
X154069991Y-83610500D01*
X154231780Y-83610499D01*
X154353214Y-83630763D01*
X154461492Y-83689359D01*
X154544877Y-83779939D01*
X154594333Y-83892685D01*
X154604501Y-84015381D01*
X154601174Y-84043004D01*
X154588646Y-84122106D01*
X154575298Y-84206386D01*
X154574500Y-84211422D01*
X154574500Y-84388584D01*
X154602212Y-84563547D01*
X154602212Y-84563548D01*
X154602213Y-84563553D01*
X154602214Y-84563555D01*
X154656958Y-84732042D01*
X154737386Y-84889890D01*
X154841517Y-85033214D01*
X154966786Y-85158483D01*
X155110110Y-85262614D01*
X155267958Y-85343042D01*
X155436445Y-85397786D01*
X155611421Y-85425500D01*
X155788579Y-85425500D01*
X155963555Y-85397786D01*
X156132042Y-85343042D01*
X156161452Y-85328056D01*
X156278852Y-85290979D01*
X156401930Y-85294030D01*
X156501047Y-85328056D01*
X156530458Y-85343042D01*
X156698945Y-85397786D01*
X156873921Y-85425500D01*
X157051079Y-85425500D01*
X157226055Y-85397786D01*
X157394542Y-85343042D01*
X157552390Y-85262614D01*
X157695714Y-85158483D01*
X157820983Y-85033214D01*
X157925114Y-84889890D01*
X158005542Y-84732042D01*
X158060286Y-84563555D01*
X158088000Y-84388579D01*
X158088000Y-84211421D01*
X158067416Y-84081460D01*
X158061326Y-84043006D01*
X158062343Y-83919893D01*
X158103281Y-83803782D01*
X158179701Y-83707254D01*
X158283323Y-83640769D01*
X158402919Y-83611534D01*
X158430721Y-83610499D01*
X158590006Y-83610499D01*
X158590008Y-83610499D01*
X158692797Y-83599999D01*
X158859334Y-83544814D01*
X159008656Y-83452712D01*
X159042961Y-83418406D01*
X159143156Y-83346867D01*
X159261154Y-83311737D01*
X159384166Y-83316823D01*
X159422985Y-83327167D01*
X159486445Y-83347786D01*
X159486450Y-83347786D01*
X159486451Y-83347787D01*
X159573933Y-83361643D01*
X159661421Y-83375500D01*
X159838579Y-83375500D01*
X160013555Y-83347786D01*
X160182042Y-83293042D01*
X160339890Y-83212614D01*
X160483214Y-83108483D01*
X160608483Y-82983214D01*
X160712614Y-82839890D01*
X160793042Y-82682042D01*
X160847786Y-82513555D01*
X160875500Y-82338579D01*
X160875500Y-82310531D01*
X160895764Y-82189093D01*
X160954361Y-82080815D01*
X161044941Y-81997431D01*
X161157688Y-81947975D01*
X161251177Y-81936535D01*
X172559201Y-81987474D01*
X172645497Y-81982921D01*
X172690675Y-81977934D01*
X172690707Y-81977928D01*
X172690713Y-81977928D01*
X172726490Y-81972042D01*
X172769778Y-81964923D01*
X172935589Y-81907673D01*
X173015381Y-81869246D01*
X173153689Y-81783141D01*
X173278243Y-81659621D01*
X173333462Y-81590380D01*
X173420728Y-81452770D01*
X173479351Y-81287440D01*
X173499058Y-81201097D01*
X173518000Y-81032984D01*
X173518000Y-75833164D01*
X173504299Y-75689933D01*
X173489994Y-75615847D01*
X173451700Y-75483649D01*
X173369219Y-75328834D01*
X173347104Y-75296913D01*
X173318789Y-75256042D01*
X173318787Y-75256040D01*
X173318784Y-75256035D01*
X173309184Y-75244955D01*
X173244984Y-75139906D01*
X173218371Y-75019700D01*
X173232231Y-74897366D01*
X173285061Y-74786160D01*
X173299421Y-74766914D01*
X173333462Y-74724230D01*
X173420728Y-74586620D01*
X173479351Y-74421290D01*
X173499058Y-74334947D01*
X173518000Y-74166834D01*
X173518000Y-72874000D01*
X173513250Y-72789417D01*
X173508261Y-72745135D01*
X173495439Y-72667722D01*
X173438189Y-72501911D01*
X173399762Y-72422119D01*
X173398697Y-72420409D01*
X173313656Y-72283809D01*
X173190141Y-72159261D01*
X173190140Y-72159260D01*
X173190137Y-72159257D01*
X173120896Y-72104038D01*
X173019011Y-72039427D01*
X172983288Y-72016773D01*
X172983287Y-72016772D01*
X172983286Y-72016772D01*
X172817956Y-71958149D01*
X172817951Y-71958148D01*
X172817946Y-71958146D01*
X172731627Y-71938444D01*
X172731608Y-71938441D01*
X172563500Y-71919500D01*
X169127613Y-71919500D01*
X169006175Y-71899236D01*
X168897897Y-71840639D01*
X168814513Y-71750059D01*
X168765057Y-71637312D01*
X168754890Y-71514615D01*
X168785114Y-71395266D01*
X168852452Y-71292197D01*
X168863155Y-71281042D01*
X168890983Y-71253214D01*
X168995114Y-71109890D01*
X169075542Y-70952042D01*
X169130286Y-70783555D01*
X169158000Y-70608579D01*
X169158000Y-70431421D01*
X169130286Y-70256445D01*
X169075542Y-70087958D01*
X168995114Y-69930110D01*
X168890983Y-69786786D01*
X168765714Y-69661517D01*
X168643289Y-69572570D01*
X168556958Y-69484800D01*
X168503801Y-69373750D01*
X168489583Y-69251457D01*
X168515843Y-69131173D01*
X168579737Y-69025934D01*
X168643287Y-68967430D01*
X168765714Y-68878483D01*
X168890983Y-68753214D01*
X168995114Y-68609890D01*
X169075542Y-68452042D01*
X169130286Y-68283555D01*
X169158000Y-68108579D01*
X169158000Y-67931421D01*
X169130286Y-67756445D01*
X169075542Y-67587958D01*
X168995114Y-67430110D01*
X168890983Y-67286786D01*
X168765714Y-67161517D01*
X168763627Y-67160001D01*
X168622390Y-67057386D01*
X168464542Y-66976958D01*
X168464540Y-66976957D01*
X168306605Y-66925642D01*
X168296055Y-66922214D01*
X168296053Y-66922213D01*
X168296048Y-66922212D01*
X168121084Y-66894500D01*
X168121079Y-66894500D01*
X167943921Y-66894500D01*
X167943915Y-66894500D01*
X167768952Y-66922212D01*
X167754667Y-66925642D01*
X167754167Y-66923559D01*
X167652155Y-66938851D01*
X167531070Y-66916578D01*
X167423777Y-66856196D01*
X167368492Y-66801247D01*
X167364699Y-66796595D01*
X167364698Y-66796593D01*
X167236109Y-66638891D01*
X167180539Y-66593580D01*
X167078406Y-66510301D01*
X167078403Y-66510299D01*
X166898055Y-66416093D01*
X166898054Y-66416092D01*
X166702419Y-66360114D01*
X166682521Y-66358345D01*
X166583037Y-66349500D01*
X166583032Y-66349500D01*
X165816967Y-66349500D01*
X165697581Y-66360114D01*
X165501945Y-66416092D01*
X165501944Y-66416093D01*
X165321596Y-66510299D01*
X165321593Y-66510301D01*
X165163892Y-66638889D01*
X165163889Y-66638892D01*
X165035301Y-66796593D01*
X165035299Y-66796596D01*
X164941093Y-66976944D01*
X164941092Y-66976945D01*
X164885114Y-67172580D01*
X164874500Y-67291962D01*
X164874500Y-68708032D01*
X164885114Y-68827418D01*
X164941092Y-69023051D01*
X164969189Y-69076841D01*
X165007452Y-69193861D01*
X165005645Y-69316964D01*
X164969189Y-69423159D01*
X164941092Y-69476948D01*
X164885114Y-69672580D01*
X164874500Y-69791962D01*
X164874500Y-71208032D01*
X164885114Y-71327420D01*
X164918076Y-71442615D01*
X164932000Y-71564941D01*
X164905451Y-71685161D01*
X164841304Y-71790247D01*
X164746512Y-71868810D01*
X164631347Y-71912338D01*
X164558506Y-71919500D01*
X159224123Y-71919500D01*
X159174004Y-71921164D01*
X159147683Y-71922914D01*
X159147678Y-71922914D01*
X159147670Y-71922915D01*
X159104014Y-71927093D01*
X159104011Y-71927093D01*
X159104008Y-71927094D01*
X158933667Y-71968921D01*
X158933639Y-71968930D01*
X158850695Y-71999880D01*
X158850674Y-71999890D01*
X158705057Y-72072980D01*
X158705048Y-72072986D01*
X158569714Y-72184593D01*
X158564188Y-72189719D01*
X158535647Y-72208517D01*
X158510196Y-72231322D01*
X158484589Y-72242145D01*
X158461369Y-72257440D01*
X158428268Y-72265953D01*
X158396795Y-72279257D01*
X158359412Y-72283661D01*
X158342133Y-72288106D01*
X158335736Y-72288604D01*
X158322810Y-72289500D01*
X157879992Y-72289501D01*
X157777203Y-72300001D01*
X157672898Y-72334564D01*
X157625869Y-72337825D01*
X157610876Y-72336379D01*
X157595990Y-72338700D01*
X157542681Y-72329804D01*
X157503321Y-72326009D01*
X157493688Y-72321628D01*
X157482360Y-72319738D01*
X157422800Y-72300002D01*
X157422797Y-72300001D01*
X157422792Y-72300000D01*
X157422790Y-72300000D01*
X157320012Y-72289500D01*
X156609994Y-72289500D01*
X156507201Y-72300000D01*
X156447638Y-72319738D01*
X156325990Y-72338700D01*
X156212360Y-72319738D01*
X156152800Y-72300002D01*
X156152797Y-72300001D01*
X156152792Y-72300000D01*
X156152790Y-72300000D01*
X156050012Y-72289500D01*
X155339994Y-72289500D01*
X155237201Y-72300000D01*
X155177638Y-72319738D01*
X155055990Y-72338700D01*
X154942360Y-72319738D01*
X154882800Y-72300002D01*
X154882797Y-72300001D01*
X154882792Y-72300000D01*
X154882790Y-72300000D01*
X154780012Y-72289500D01*
X154069994Y-72289500D01*
X153967201Y-72300000D01*
X153880646Y-72328682D01*
X153758998Y-72347644D01*
X153637784Y-72326079D01*
X153530141Y-72266324D01*
X153447732Y-72174855D01*
X153399488Y-72061585D01*
X153390637Y-71938787D01*
X153422138Y-71819768D01*
X153431510Y-71800501D01*
X153458909Y-71748049D01*
X153514886Y-71552418D01*
X153525500Y-71433037D01*
X153525499Y-70066964D01*
X153514886Y-69947582D01*
X153458909Y-69751951D01*
X153458908Y-69751949D01*
X153458907Y-69751945D01*
X153458906Y-69751944D01*
X153364700Y-69571596D01*
X153364698Y-69571593D01*
X153236110Y-69413892D01*
X153236107Y-69413889D01*
X153078406Y-69285301D01*
X153078403Y-69285299D01*
X152898055Y-69191093D01*
X152898054Y-69191092D01*
X152702419Y-69135114D01*
X152682521Y-69133345D01*
X152583037Y-69124500D01*
X152583032Y-69124500D01*
X151841967Y-69124500D01*
X151722581Y-69135114D01*
X151526945Y-69191092D01*
X151526944Y-69191093D01*
X151346596Y-69285299D01*
X151346593Y-69285301D01*
X151188892Y-69413889D01*
X151188889Y-69413892D01*
X151048316Y-69586293D01*
X151046914Y-69585150D01*
X150978527Y-69658843D01*
X150870015Y-69717004D01*
X150748496Y-69736780D01*
X150627141Y-69716028D01*
X150519100Y-69656996D01*
X150453014Y-69585208D01*
X150451684Y-69586293D01*
X150425570Y-69554267D01*
X150311109Y-69413891D01*
X150205059Y-69327419D01*
X150153406Y-69285301D01*
X150153403Y-69285299D01*
X149973055Y-69191093D01*
X149973054Y-69191092D01*
X149777419Y-69135114D01*
X149757521Y-69133345D01*
X149658037Y-69124500D01*
X149658032Y-69124500D01*
X148916967Y-69124500D01*
X148797581Y-69135114D01*
X148601945Y-69191092D01*
X148601944Y-69191093D01*
X148421596Y-69285299D01*
X148421593Y-69285301D01*
X148263892Y-69413889D01*
X148263889Y-69413892D01*
X148135303Y-69571591D01*
X148135302Y-69571593D01*
X148108102Y-69623663D01*
X148033919Y-69721915D01*
X147931849Y-69790758D01*
X147812956Y-69822729D01*
X147776606Y-69824500D01*
X147628654Y-69824500D01*
X147446346Y-69824500D01*
X147374824Y-69838726D01*
X147267539Y-69860066D01*
X147151471Y-69908144D01*
X147151469Y-69908146D01*
X147099107Y-69929834D01*
X146947531Y-70031114D01*
X146947525Y-70031118D01*
X146894252Y-70084392D01*
X146794053Y-70155931D01*
X146676054Y-70191060D01*
X146553043Y-70185972D01*
X146438349Y-70141217D01*
X146344401Y-70061646D01*
X146281380Y-69955881D01*
X146272770Y-69930358D01*
X146271408Y-69926947D01*
X146250120Y-69886194D01*
X146237043Y-69846203D01*
X146219829Y-69807816D01*
X146218027Y-69788045D01*
X146211857Y-69769175D01*
X146212474Y-69727106D01*
X146208656Y-69685208D01*
X146213371Y-69665922D01*
X146213663Y-69646071D01*
X146229519Y-69599884D01*
X146237899Y-69565614D01*
X146245179Y-69554267D01*
X146250122Y-69539869D01*
X146258909Y-69523049D01*
X146314886Y-69327418D01*
X146325500Y-69208037D01*
X146325499Y-68191964D01*
X146314886Y-68072582D01*
X146258909Y-67876951D01*
X146258908Y-67876949D01*
X146258907Y-67876945D01*
X146258906Y-67876944D01*
X146164700Y-67696596D01*
X146164698Y-67696594D01*
X146164698Y-67696593D01*
X146135023Y-67660200D01*
X146073987Y-67553279D01*
X146050975Y-67432332D01*
X146068481Y-67310466D01*
X146079340Y-67280751D01*
X146110130Y-67206420D01*
X146150500Y-67003465D01*
X146150500Y-66796535D01*
X146110130Y-66593580D01*
X146030941Y-66402402D01*
X145915977Y-66230345D01*
X145769655Y-66084023D01*
X145597599Y-65969059D01*
X145406420Y-65889870D01*
X145203465Y-65849500D01*
X144996535Y-65849500D01*
X144861231Y-65876413D01*
X144793579Y-65889870D01*
X144602400Y-65969059D01*
X144430344Y-66084023D01*
X144416136Y-66095684D01*
X144414002Y-66093084D01*
X144339260Y-66146450D01*
X144221261Y-66181580D01*
X144098249Y-66176492D01*
X143983555Y-66131738D01*
X143935176Y-66094084D01*
X143933864Y-66095684D01*
X143919655Y-66084023D01*
X143747599Y-65969059D01*
X143556420Y-65889870D01*
X143353465Y-65849500D01*
X143146535Y-65849500D01*
X143011231Y-65876413D01*
X142943579Y-65889870D01*
X142752400Y-65969059D01*
X142580344Y-66084023D01*
X142434023Y-66230344D01*
X142319059Y-66402400D01*
X142239870Y-66593579D01*
X142230857Y-66638891D01*
X142199500Y-66796535D01*
X142199500Y-67003465D01*
X142222548Y-67119334D01*
X142239870Y-67206420D01*
X142253808Y-67240069D01*
X142281557Y-67360018D01*
X142268856Y-67482478D01*
X142217081Y-67594178D01*
X142198134Y-67619535D01*
X142135300Y-67696594D01*
X142135299Y-67696596D01*
X142041093Y-67876944D01*
X142041092Y-67876945D01*
X141985114Y-68072580D01*
X141974500Y-68191962D01*
X141974500Y-69208032D01*
X141985114Y-69327418D01*
X142041091Y-69523050D01*
X142062379Y-69563803D01*
X142100642Y-69680823D01*
X142098837Y-69803927D01*
X142062383Y-69910117D01*
X142053592Y-69926946D01*
X141997614Y-70122580D01*
X141987000Y-70241962D01*
X141987000Y-71258032D01*
X141997614Y-71377418D01*
X142053592Y-71573054D01*
X142053593Y-71573055D01*
X142147799Y-71753403D01*
X142147801Y-71753406D01*
X142266709Y-71899236D01*
X142276391Y-71911109D01*
X142434093Y-72039698D01*
X142614451Y-72133909D01*
X142614452Y-72133909D01*
X142625310Y-72139581D01*
X142662850Y-72167925D01*
X142702495Y-72193226D01*
X142711728Y-72204830D01*
X142723565Y-72213768D01*
X142749864Y-72252760D01*
X142779150Y-72289568D01*
X142784115Y-72303544D01*
X142792408Y-72315839D01*
X142804621Y-72361258D01*
X142820369Y-72405580D01*
X142820527Y-72420409D01*
X142824379Y-72434732D01*
X142821182Y-72481661D01*
X142821685Y-72528690D01*
X142816525Y-72550018D01*
X142816012Y-72557564D01*
X142807163Y-72588728D01*
X142801311Y-72606387D01*
X142743875Y-72715285D01*
X142654192Y-72799634D01*
X142573714Y-72836942D01*
X142574558Y-72839054D01*
X142556947Y-72846087D01*
X142403160Y-72926420D01*
X142286141Y-72964683D01*
X142163037Y-72962877D01*
X142056840Y-72926420D01*
X141903053Y-72846088D01*
X141707419Y-72790110D01*
X141687521Y-72788341D01*
X141588037Y-72779496D01*
X141588032Y-72779496D01*
X140971967Y-72779496D01*
X140852581Y-72790110D01*
X140656945Y-72846088D01*
X140656944Y-72846089D01*
X140476596Y-72940295D01*
X140476593Y-72940297D01*
X140318892Y-73068885D01*
X140318889Y-73068888D01*
X140190301Y-73226589D01*
X140190299Y-73226592D01*
X140096093Y-73406940D01*
X140096092Y-73406941D01*
X140035223Y-73619672D01*
X140032943Y-73619019D01*
X140030866Y-73624728D01*
X140025323Y-73654867D01*
X140009954Y-73682175D01*
X139999236Y-73711623D01*
X139979971Y-73735456D01*
X139964943Y-73762161D01*
X139941540Y-73783000D01*
X139921841Y-73807371D01*
X139895882Y-73823656D01*
X139872997Y-73844036D01*
X139844096Y-73856146D01*
X139817550Y-73872802D01*
X139787706Y-73879777D01*
X139759447Y-73891620D01*
X139728182Y-73893690D01*
X139697665Y-73900824D01*
X139667175Y-73897731D01*
X139636599Y-73899757D01*
X139606352Y-73891562D01*
X139575176Y-73888401D01*
X139547344Y-73875576D01*
X139517766Y-73867564D01*
X139491819Y-73849993D01*
X139463358Y-73836879D01*
X139441196Y-73815711D01*
X139415825Y-73798530D01*
X139396991Y-73773488D01*
X139374328Y-73751842D01*
X139360135Y-73724486D01*
X139341822Y-73700136D01*
X139317953Y-73643180D01*
X139286915Y-73547653D01*
X139286912Y-73547647D01*
X139284613Y-73540571D01*
X139266360Y-73418815D01*
X139284614Y-73309427D01*
X139286913Y-73302350D01*
X139286915Y-73302347D01*
X139351835Y-73102543D01*
X139384700Y-72895043D01*
X139384700Y-72684957D01*
X139351835Y-72477457D01*
X139286915Y-72277653D01*
X139286913Y-72277649D01*
X139284614Y-72270573D01*
X139266360Y-72148817D01*
X139284614Y-72039427D01*
X139286913Y-72032350D01*
X139286915Y-72032347D01*
X139351835Y-71832543D01*
X139384700Y-71625043D01*
X139384700Y-71414957D01*
X139351835Y-71207457D01*
X139286915Y-71007653D01*
X139286913Y-71007649D01*
X139284614Y-71000573D01*
X139266360Y-70878817D01*
X139284614Y-70769427D01*
X139286913Y-70762350D01*
X139286915Y-70762347D01*
X139351835Y-70562543D01*
X139384700Y-70355043D01*
X139384700Y-70144957D01*
X139351835Y-69937457D01*
X139286915Y-69737653D01*
X139286913Y-69737649D01*
X139284614Y-69730573D01*
X139266360Y-69608817D01*
X139284614Y-69499427D01*
X139286913Y-69492350D01*
X139286915Y-69492347D01*
X139351835Y-69292543D01*
X139384700Y-69085043D01*
X139384700Y-68874957D01*
X139351835Y-68667457D01*
X139286915Y-68467653D01*
X139286913Y-68467650D01*
X139286913Y-68467648D01*
X139219892Y-68336113D01*
X139191538Y-68280465D01*
X139191534Y-68280460D01*
X139191533Y-68280457D01*
X139068056Y-68110506D01*
X139068048Y-68110497D01*
X138919502Y-67961951D01*
X138919493Y-67961943D01*
X138749542Y-67838466D01*
X138749536Y-67838463D01*
X138749537Y-67838463D01*
X138749535Y-67838462D01*
X138689473Y-67807859D01*
X138562351Y-67743086D01*
X138470210Y-67713148D01*
X138362543Y-67678165D01*
X138362537Y-67678164D01*
X138362529Y-67678162D01*
X138155049Y-67645300D01*
X138155043Y-67645300D01*
X137944957Y-67645300D01*
X137944950Y-67645300D01*
X137737470Y-67678162D01*
X137737445Y-67678168D01*
X137530571Y-67745385D01*
X137408815Y-67763639D01*
X137299429Y-67745385D01*
X137092554Y-67678168D01*
X137092547Y-67678166D01*
X137092543Y-67678165D01*
X137092538Y-67678164D01*
X137092529Y-67678162D01*
X136885049Y-67645300D01*
X136885043Y-67645300D01*
X136674957Y-67645300D01*
X136674950Y-67645300D01*
X136467470Y-67678162D01*
X136467459Y-67678164D01*
X136467457Y-67678165D01*
X136467454Y-67678166D01*
X136267648Y-67743086D01*
X136080463Y-67838463D01*
X136080457Y-67838466D01*
X135910506Y-67961943D01*
X135910497Y-67961951D01*
X135761951Y-68110497D01*
X135761943Y-68110506D01*
X135638466Y-68280457D01*
X135638463Y-68280463D01*
X135543086Y-68467648D01*
X135478166Y-68667454D01*
X135478162Y-68667470D01*
X135445300Y-68874950D01*
X135445300Y-69085049D01*
X135478162Y-69292529D01*
X135478168Y-69292554D01*
X135545385Y-69499429D01*
X135554404Y-69559587D01*
X135563657Y-69619988D01*
X135563553Y-69620614D01*
X135563639Y-69621185D01*
X135557735Y-69681473D01*
X135550061Y-69723961D01*
X135543085Y-69737653D01*
X135478165Y-69937457D01*
X135445300Y-70144957D01*
X135445300Y-70304001D01*
X135439345Y-70336973D01*
X135429729Y-70363811D01*
X135425036Y-70391938D01*
X135409106Y-70421373D01*
X135397820Y-70452875D01*
X135380011Y-70475136D01*
X135366439Y-70500216D01*
X135341813Y-70522885D01*
X135320911Y-70549014D01*
X135296838Y-70564287D01*
X135275859Y-70583600D01*
X135245208Y-70597044D01*
X135216953Y-70614972D01*
X135189225Y-70621601D01*
X135163112Y-70633056D01*
X135117576Y-70638731D01*
X135097211Y-70643601D01*
X135086662Y-70642585D01*
X135071300Y-70644500D01*
X134794024Y-70644500D01*
X134672586Y-70624236D01*
X134614898Y-70595665D01*
X134613801Y-70597719D01*
X134597601Y-70589060D01*
X134406420Y-70509870D01*
X134203465Y-70469500D01*
X133996535Y-70469500D01*
X133900427Y-70488617D01*
X133793579Y-70509870D01*
X133602400Y-70589059D01*
X133430344Y-70704023D01*
X133284023Y-70850344D01*
X133169059Y-71022400D01*
X133092168Y-71208032D01*
X133089870Y-71213580D01*
X133049500Y-71416535D01*
X133049500Y-71623465D01*
X133061772Y-71685161D01*
X133089870Y-71826422D01*
X133166688Y-72011877D01*
X133194438Y-72131826D01*
X133181738Y-72254286D01*
X133166688Y-72298123D01*
X133089870Y-72483577D01*
X133072413Y-72571344D01*
X133049500Y-72686535D01*
X133049500Y-72893465D01*
X133084393Y-73068885D01*
X133089870Y-73096420D01*
X133174973Y-73301876D01*
X133202723Y-73421825D01*
X133190023Y-73544285D01*
X133174973Y-73588124D01*
X133089870Y-73793579D01*
X133081257Y-73836879D01*
X133049500Y-73996535D01*
X133049500Y-74203465D01*
X133089870Y-74406420D01*
X133169059Y-74597599D01*
X133284023Y-74769655D01*
X133320621Y-74806253D01*
X133392161Y-74906451D01*
X133427291Y-75024450D01*
X133422203Y-75147462D01*
X133377449Y-75262156D01*
X133320621Y-75335169D01*
X133261699Y-75394091D01*
X133261698Y-75394091D01*
X133201859Y-75483647D01*
X133180577Y-75515499D01*
X133157675Y-75549774D01*
X133157674Y-75549774D01*
X133086027Y-75722746D01*
X133070743Y-75799585D01*
X133049500Y-75906384D01*
X133049500Y-76093616D01*
X133067763Y-76185433D01*
X133086027Y-76277253D01*
X133157674Y-76450225D01*
X133157677Y-76450229D01*
X133194135Y-76504793D01*
X133205295Y-76529538D01*
X133220840Y-76551792D01*
X133230433Y-76585274D01*
X133244752Y-76617023D01*
X133247272Y-76644050D01*
X133254750Y-76670147D01*
X133252951Y-76704928D01*
X133256186Y-76739607D01*
X133249793Y-76765991D01*
X133248392Y-76793100D01*
X133235398Y-76825409D01*
X133227197Y-76859263D01*
X133212583Y-76882143D01*
X133202456Y-76907326D01*
X133179674Y-76933667D01*
X133160926Y-76963022D01*
X133139676Y-76979916D01*
X133121920Y-77000448D01*
X133091818Y-77017965D01*
X133064556Y-77039641D01*
X133037584Y-77049528D01*
X133015511Y-77062374D01*
X132956131Y-77079386D01*
X132947966Y-77081011D01*
X132824910Y-77084828D01*
X132802047Y-77081013D01*
X132643616Y-77049500D01*
X132456384Y-77049500D01*
X132297960Y-77081012D01*
X132174906Y-77084828D01*
X132152047Y-77081013D01*
X131993616Y-77049500D01*
X131806384Y-77049500D01*
X131741662Y-77062374D01*
X131622746Y-77086027D01*
X131449774Y-77157674D01*
X131449774Y-77157675D01*
X131449770Y-77157677D01*
X131449769Y-77157678D01*
X131397179Y-77192816D01*
X131294091Y-77261698D01*
X131294091Y-77261699D01*
X131161699Y-77394091D01*
X131161698Y-77394091D01*
X131121977Y-77453539D01*
X131073503Y-77526086D01*
X131057675Y-77549774D01*
X131057674Y-77549774D01*
X130986027Y-77722746D01*
X130949500Y-77906385D01*
X130000000Y-77906385D01*
X130000000Y-76672445D01*
X130020264Y-76551007D01*
X130078861Y-76442729D01*
X130169441Y-76359345D01*
X130282188Y-76309889D01*
X130404885Y-76299722D01*
X130524234Y-76329946D01*
X130549409Y-76342173D01*
X130722746Y-76413972D01*
X130722747Y-76413972D01*
X130722749Y-76413973D01*
X130906384Y-76450500D01*
X130906386Y-76450500D01*
X131093614Y-76450500D01*
X131093616Y-76450500D01*
X131277251Y-76413973D01*
X131320496Y-76396060D01*
X131450225Y-76342325D01*
X131450225Y-76342324D01*
X131450231Y-76342322D01*
X131605908Y-76238302D01*
X131738302Y-76105908D01*
X131842322Y-75950231D01*
X131842324Y-75950225D01*
X131842325Y-75950225D01*
X131913972Y-75777253D01*
X131913971Y-75777253D01*
X131913973Y-75777251D01*
X131950500Y-75593616D01*
X131950500Y-75406384D01*
X131913973Y-75222749D01*
X131867324Y-75110130D01*
X131842324Y-75049774D01*
X131842322Y-75049769D01*
X131738302Y-74894092D01*
X131605908Y-74761698D01*
X131450231Y-74657678D01*
X131450227Y-74657676D01*
X131450225Y-74657675D01*
X131450225Y-74657674D01*
X131277253Y-74586027D01*
X131185433Y-74567763D01*
X131093616Y-74549500D01*
X130906384Y-74549500D01*
X130832930Y-74564110D01*
X130722746Y-74586027D01*
X130532793Y-74664709D01*
X130532281Y-74663474D01*
X130433655Y-74696766D01*
X130310540Y-74696131D01*
X130194302Y-74655555D01*
X130097537Y-74579435D01*
X130030731Y-74476020D01*
X130001123Y-74356516D01*
X130000000Y-74327554D01*
X130000000Y-63299500D01*
X130020264Y-63178062D01*
X130078861Y-63069784D01*
X130169441Y-62986400D01*
X130282188Y-62936944D01*
X130374000Y-62925500D01*
X177538000Y-62925500D01*
X177659438Y-62945764D01*
G37*
%TD.AperFunction*%
%TD*%
M02*
