%TF.GenerationSoftware,KiCad,Pcbnew,9.0.4*%
%TF.CreationDate,2025-12-21T19:05:22-05:00*%
%TF.ProjectId,esc,6573632e-6b69-4636-9164-5f7063625858,rev?*%
%TF.SameCoordinates,Original*%
%TF.FileFunction,Legend,Top*%
%TF.FilePolarity,Positive*%
%FSLAX46Y46*%
G04 Gerber Fmt 4.6, Leading zero omitted, Abs format (unit mm)*
G04 Created by KiCad (PCBNEW 9.0.4) date 2025-12-21 19:05:22*
%MOMM*%
%LPD*%
G01*
G04 APERTURE LIST*
%ADD10C,0.100000*%
%ADD11C,0.150000*%
%ADD12C,0.125000*%
%ADD13C,0.200000*%
%ADD14C,0.120000*%
%ADD15C,0.140357*%
%ADD16C,0.127000*%
%ADD17C,0.152400*%
%ADD18C,0.508000*%
%ADD19C,0.400000*%
G04 APERTURE END LIST*
D10*
X112911027Y-93622419D02*
X113244360Y-94622419D01*
X113244360Y-94622419D02*
X113577693Y-93622419D01*
X113911027Y-94622419D02*
X113911027Y-93622419D01*
X113911027Y-93622419D02*
X114149122Y-93622419D01*
X114149122Y-93622419D02*
X114291979Y-93670038D01*
X114291979Y-93670038D02*
X114387217Y-93765276D01*
X114387217Y-93765276D02*
X114434836Y-93860514D01*
X114434836Y-93860514D02*
X114482455Y-94050990D01*
X114482455Y-94050990D02*
X114482455Y-94193847D01*
X114482455Y-94193847D02*
X114434836Y-94384323D01*
X114434836Y-94384323D02*
X114387217Y-94479561D01*
X114387217Y-94479561D02*
X114291979Y-94574800D01*
X114291979Y-94574800D02*
X114149122Y-94622419D01*
X114149122Y-94622419D02*
X113911027Y-94622419D01*
X114911027Y-94622419D02*
X114911027Y-93622419D01*
X114911027Y-93622419D02*
X115149122Y-93622419D01*
X115149122Y-93622419D02*
X115291979Y-93670038D01*
X115291979Y-93670038D02*
X115387217Y-93765276D01*
X115387217Y-93765276D02*
X115434836Y-93860514D01*
X115434836Y-93860514D02*
X115482455Y-94050990D01*
X115482455Y-94050990D02*
X115482455Y-94193847D01*
X115482455Y-94193847D02*
X115434836Y-94384323D01*
X115434836Y-94384323D02*
X115387217Y-94479561D01*
X115387217Y-94479561D02*
X115291979Y-94574800D01*
X115291979Y-94574800D02*
X115149122Y-94622419D01*
X115149122Y-94622419D02*
X114911027Y-94622419D01*
X115863408Y-94336704D02*
X116339598Y-94336704D01*
X115768170Y-94622419D02*
X116101503Y-93622419D01*
X116101503Y-93622419D02*
X116434836Y-94622419D01*
X113958646Y-96372419D02*
X114577693Y-96372419D01*
X114577693Y-96372419D02*
X114244360Y-96753371D01*
X114244360Y-96753371D02*
X114387217Y-96753371D01*
X114387217Y-96753371D02*
X114482455Y-96800990D01*
X114482455Y-96800990D02*
X114530074Y-96848609D01*
X114530074Y-96848609D02*
X114577693Y-96943847D01*
X114577693Y-96943847D02*
X114577693Y-97181942D01*
X114577693Y-97181942D02*
X114530074Y-97277180D01*
X114530074Y-97277180D02*
X114482455Y-97324800D01*
X114482455Y-97324800D02*
X114387217Y-97372419D01*
X114387217Y-97372419D02*
X114101503Y-97372419D01*
X114101503Y-97372419D02*
X114006265Y-97324800D01*
X114006265Y-97324800D02*
X113958646Y-97277180D01*
X114863408Y-96372419D02*
X115196741Y-97372419D01*
X115196741Y-97372419D02*
X115530074Y-96372419D01*
X115768170Y-96372419D02*
X116387217Y-96372419D01*
X116387217Y-96372419D02*
X116053884Y-96753371D01*
X116053884Y-96753371D02*
X116196741Y-96753371D01*
X116196741Y-96753371D02*
X116291979Y-96800990D01*
X116291979Y-96800990D02*
X116339598Y-96848609D01*
X116339598Y-96848609D02*
X116387217Y-96943847D01*
X116387217Y-96943847D02*
X116387217Y-97181942D01*
X116387217Y-97181942D02*
X116339598Y-97277180D01*
X116339598Y-97277180D02*
X116291979Y-97324800D01*
X116291979Y-97324800D02*
X116196741Y-97372419D01*
X116196741Y-97372419D02*
X115911027Y-97372419D01*
X115911027Y-97372419D02*
X115815789Y-97324800D01*
X115815789Y-97324800D02*
X115768170Y-97277180D01*
D11*
X126773809Y-90228628D02*
X126773809Y-90704819D01*
X126440476Y-89704819D02*
X126773809Y-90228628D01*
X126773809Y-90228628D02*
X127107142Y-89704819D01*
X127964285Y-90704819D02*
X127392857Y-90704819D01*
X127678571Y-90704819D02*
X127678571Y-89704819D01*
X127678571Y-89704819D02*
X127583333Y-89847676D01*
X127583333Y-89847676D02*
X127488095Y-89942914D01*
X127488095Y-89942914D02*
X127392857Y-89990533D01*
X133404819Y-101281904D02*
X134214342Y-101281904D01*
X134214342Y-101281904D02*
X134309580Y-101234285D01*
X134309580Y-101234285D02*
X134357200Y-101186666D01*
X134357200Y-101186666D02*
X134404819Y-101091428D01*
X134404819Y-101091428D02*
X134404819Y-100900952D01*
X134404819Y-100900952D02*
X134357200Y-100805714D01*
X134357200Y-100805714D02*
X134309580Y-100758095D01*
X134309580Y-100758095D02*
X134214342Y-100710476D01*
X134214342Y-100710476D02*
X133404819Y-100710476D01*
X134404819Y-99710476D02*
X134404819Y-100281904D01*
X134404819Y-99996190D02*
X133404819Y-99996190D01*
X133404819Y-99996190D02*
X133547676Y-100091428D01*
X133547676Y-100091428D02*
X133642914Y-100186666D01*
X133642914Y-100186666D02*
X133690533Y-100281904D01*
X122357142Y-98954819D02*
X122023809Y-98478628D01*
X121785714Y-98954819D02*
X121785714Y-97954819D01*
X121785714Y-97954819D02*
X122166666Y-97954819D01*
X122166666Y-97954819D02*
X122261904Y-98002438D01*
X122261904Y-98002438D02*
X122309523Y-98050057D01*
X122309523Y-98050057D02*
X122357142Y-98145295D01*
X122357142Y-98145295D02*
X122357142Y-98288152D01*
X122357142Y-98288152D02*
X122309523Y-98383390D01*
X122309523Y-98383390D02*
X122261904Y-98431009D01*
X122261904Y-98431009D02*
X122166666Y-98478628D01*
X122166666Y-98478628D02*
X121785714Y-98478628D01*
X123309523Y-98954819D02*
X122738095Y-98954819D01*
X123023809Y-98954819D02*
X123023809Y-97954819D01*
X123023809Y-97954819D02*
X122928571Y-98097676D01*
X122928571Y-98097676D02*
X122833333Y-98192914D01*
X122833333Y-98192914D02*
X122738095Y-98240533D01*
X123785714Y-98954819D02*
X123976190Y-98954819D01*
X123976190Y-98954819D02*
X124071428Y-98907200D01*
X124071428Y-98907200D02*
X124119047Y-98859580D01*
X124119047Y-98859580D02*
X124214285Y-98716723D01*
X124214285Y-98716723D02*
X124261904Y-98526247D01*
X124261904Y-98526247D02*
X124261904Y-98145295D01*
X124261904Y-98145295D02*
X124214285Y-98050057D01*
X124214285Y-98050057D02*
X124166666Y-98002438D01*
X124166666Y-98002438D02*
X124071428Y-97954819D01*
X124071428Y-97954819D02*
X123880952Y-97954819D01*
X123880952Y-97954819D02*
X123785714Y-98002438D01*
X123785714Y-98002438D02*
X123738095Y-98050057D01*
X123738095Y-98050057D02*
X123690476Y-98145295D01*
X123690476Y-98145295D02*
X123690476Y-98383390D01*
X123690476Y-98383390D02*
X123738095Y-98478628D01*
X123738095Y-98478628D02*
X123785714Y-98526247D01*
X123785714Y-98526247D02*
X123880952Y-98573866D01*
X123880952Y-98573866D02*
X124071428Y-98573866D01*
X124071428Y-98573866D02*
X124166666Y-98526247D01*
X124166666Y-98526247D02*
X124214285Y-98478628D01*
X124214285Y-98478628D02*
X124261904Y-98383390D01*
X122357142Y-92704819D02*
X122023809Y-92228628D01*
X121785714Y-92704819D02*
X121785714Y-91704819D01*
X121785714Y-91704819D02*
X122166666Y-91704819D01*
X122166666Y-91704819D02*
X122261904Y-91752438D01*
X122261904Y-91752438D02*
X122309523Y-91800057D01*
X122309523Y-91800057D02*
X122357142Y-91895295D01*
X122357142Y-91895295D02*
X122357142Y-92038152D01*
X122357142Y-92038152D02*
X122309523Y-92133390D01*
X122309523Y-92133390D02*
X122261904Y-92181009D01*
X122261904Y-92181009D02*
X122166666Y-92228628D01*
X122166666Y-92228628D02*
X121785714Y-92228628D01*
X122738095Y-91800057D02*
X122785714Y-91752438D01*
X122785714Y-91752438D02*
X122880952Y-91704819D01*
X122880952Y-91704819D02*
X123119047Y-91704819D01*
X123119047Y-91704819D02*
X123214285Y-91752438D01*
X123214285Y-91752438D02*
X123261904Y-91800057D01*
X123261904Y-91800057D02*
X123309523Y-91895295D01*
X123309523Y-91895295D02*
X123309523Y-91990533D01*
X123309523Y-91990533D02*
X123261904Y-92133390D01*
X123261904Y-92133390D02*
X122690476Y-92704819D01*
X122690476Y-92704819D02*
X123309523Y-92704819D01*
X123928571Y-91704819D02*
X124023809Y-91704819D01*
X124023809Y-91704819D02*
X124119047Y-91752438D01*
X124119047Y-91752438D02*
X124166666Y-91800057D01*
X124166666Y-91800057D02*
X124214285Y-91895295D01*
X124214285Y-91895295D02*
X124261904Y-92085771D01*
X124261904Y-92085771D02*
X124261904Y-92323866D01*
X124261904Y-92323866D02*
X124214285Y-92514342D01*
X124214285Y-92514342D02*
X124166666Y-92609580D01*
X124166666Y-92609580D02*
X124119047Y-92657200D01*
X124119047Y-92657200D02*
X124023809Y-92704819D01*
X124023809Y-92704819D02*
X123928571Y-92704819D01*
X123928571Y-92704819D02*
X123833333Y-92657200D01*
X123833333Y-92657200D02*
X123785714Y-92609580D01*
X123785714Y-92609580D02*
X123738095Y-92514342D01*
X123738095Y-92514342D02*
X123690476Y-92323866D01*
X123690476Y-92323866D02*
X123690476Y-92085771D01*
X123690476Y-92085771D02*
X123738095Y-91895295D01*
X123738095Y-91895295D02*
X123785714Y-91800057D01*
X123785714Y-91800057D02*
X123833333Y-91752438D01*
X123833333Y-91752438D02*
X123928571Y-91704819D01*
X117699405Y-92704819D02*
X117699405Y-91704819D01*
X117699405Y-91704819D02*
X117937500Y-91704819D01*
X117937500Y-91704819D02*
X118080357Y-91752438D01*
X118080357Y-91752438D02*
X118175595Y-91847676D01*
X118175595Y-91847676D02*
X118223214Y-91942914D01*
X118223214Y-91942914D02*
X118270833Y-92133390D01*
X118270833Y-92133390D02*
X118270833Y-92276247D01*
X118270833Y-92276247D02*
X118223214Y-92466723D01*
X118223214Y-92466723D02*
X118175595Y-92561961D01*
X118175595Y-92561961D02*
X118080357Y-92657200D01*
X118080357Y-92657200D02*
X117937500Y-92704819D01*
X117937500Y-92704819D02*
X117699405Y-92704819D01*
X119127976Y-91704819D02*
X118937500Y-91704819D01*
X118937500Y-91704819D02*
X118842262Y-91752438D01*
X118842262Y-91752438D02*
X118794643Y-91800057D01*
X118794643Y-91800057D02*
X118699405Y-91942914D01*
X118699405Y-91942914D02*
X118651786Y-92133390D01*
X118651786Y-92133390D02*
X118651786Y-92514342D01*
X118651786Y-92514342D02*
X118699405Y-92609580D01*
X118699405Y-92609580D02*
X118747024Y-92657200D01*
X118747024Y-92657200D02*
X118842262Y-92704819D01*
X118842262Y-92704819D02*
X119032738Y-92704819D01*
X119032738Y-92704819D02*
X119127976Y-92657200D01*
X119127976Y-92657200D02*
X119175595Y-92609580D01*
X119175595Y-92609580D02*
X119223214Y-92514342D01*
X119223214Y-92514342D02*
X119223214Y-92276247D01*
X119223214Y-92276247D02*
X119175595Y-92181009D01*
X119175595Y-92181009D02*
X119127976Y-92133390D01*
X119127976Y-92133390D02*
X119032738Y-92085771D01*
X119032738Y-92085771D02*
X118842262Y-92085771D01*
X118842262Y-92085771D02*
X118747024Y-92133390D01*
X118747024Y-92133390D02*
X118699405Y-92181009D01*
X118699405Y-92181009D02*
X118651786Y-92276247D01*
X117699405Y-99204819D02*
X117699405Y-98204819D01*
X117699405Y-98204819D02*
X117937500Y-98204819D01*
X117937500Y-98204819D02*
X118080357Y-98252438D01*
X118080357Y-98252438D02*
X118175595Y-98347676D01*
X118175595Y-98347676D02*
X118223214Y-98442914D01*
X118223214Y-98442914D02*
X118270833Y-98633390D01*
X118270833Y-98633390D02*
X118270833Y-98776247D01*
X118270833Y-98776247D02*
X118223214Y-98966723D01*
X118223214Y-98966723D02*
X118175595Y-99061961D01*
X118175595Y-99061961D02*
X118080357Y-99157200D01*
X118080357Y-99157200D02*
X117937500Y-99204819D01*
X117937500Y-99204819D02*
X117699405Y-99204819D01*
X119175595Y-98204819D02*
X118699405Y-98204819D01*
X118699405Y-98204819D02*
X118651786Y-98681009D01*
X118651786Y-98681009D02*
X118699405Y-98633390D01*
X118699405Y-98633390D02*
X118794643Y-98585771D01*
X118794643Y-98585771D02*
X119032738Y-98585771D01*
X119032738Y-98585771D02*
X119127976Y-98633390D01*
X119127976Y-98633390D02*
X119175595Y-98681009D01*
X119175595Y-98681009D02*
X119223214Y-98776247D01*
X119223214Y-98776247D02*
X119223214Y-99014342D01*
X119223214Y-99014342D02*
X119175595Y-99109580D01*
X119175595Y-99109580D02*
X119127976Y-99157200D01*
X119127976Y-99157200D02*
X119032738Y-99204819D01*
X119032738Y-99204819D02*
X118794643Y-99204819D01*
X118794643Y-99204819D02*
X118699405Y-99157200D01*
X118699405Y-99157200D02*
X118651786Y-99109580D01*
X130505595Y-113779819D02*
X130505595Y-114589342D01*
X130505595Y-114589342D02*
X130553214Y-114684580D01*
X130553214Y-114684580D02*
X130600833Y-114732200D01*
X130600833Y-114732200D02*
X130696071Y-114779819D01*
X130696071Y-114779819D02*
X130886547Y-114779819D01*
X130886547Y-114779819D02*
X130981785Y-114732200D01*
X130981785Y-114732200D02*
X131029404Y-114684580D01*
X131029404Y-114684580D02*
X131077023Y-114589342D01*
X131077023Y-114589342D02*
X131077023Y-113779819D01*
X131457976Y-113779819D02*
X132077023Y-113779819D01*
X132077023Y-113779819D02*
X131743690Y-114160771D01*
X131743690Y-114160771D02*
X131886547Y-114160771D01*
X131886547Y-114160771D02*
X131981785Y-114208390D01*
X131981785Y-114208390D02*
X132029404Y-114256009D01*
X132029404Y-114256009D02*
X132077023Y-114351247D01*
X132077023Y-114351247D02*
X132077023Y-114589342D01*
X132077023Y-114589342D02*
X132029404Y-114684580D01*
X132029404Y-114684580D02*
X131981785Y-114732200D01*
X131981785Y-114732200D02*
X131886547Y-114779819D01*
X131886547Y-114779819D02*
X131600833Y-114779819D01*
X131600833Y-114779819D02*
X131505595Y-114732200D01*
X131505595Y-114732200D02*
X131457976Y-114684580D01*
X143833333Y-98484580D02*
X143785714Y-98532200D01*
X143785714Y-98532200D02*
X143642857Y-98579819D01*
X143642857Y-98579819D02*
X143547619Y-98579819D01*
X143547619Y-98579819D02*
X143404762Y-98532200D01*
X143404762Y-98532200D02*
X143309524Y-98436961D01*
X143309524Y-98436961D02*
X143261905Y-98341723D01*
X143261905Y-98341723D02*
X143214286Y-98151247D01*
X143214286Y-98151247D02*
X143214286Y-98008390D01*
X143214286Y-98008390D02*
X143261905Y-97817914D01*
X143261905Y-97817914D02*
X143309524Y-97722676D01*
X143309524Y-97722676D02*
X143404762Y-97627438D01*
X143404762Y-97627438D02*
X143547619Y-97579819D01*
X143547619Y-97579819D02*
X143642857Y-97579819D01*
X143642857Y-97579819D02*
X143785714Y-97627438D01*
X143785714Y-97627438D02*
X143833333Y-97675057D01*
X144166667Y-97579819D02*
X144785714Y-97579819D01*
X144785714Y-97579819D02*
X144452381Y-97960771D01*
X144452381Y-97960771D02*
X144595238Y-97960771D01*
X144595238Y-97960771D02*
X144690476Y-98008390D01*
X144690476Y-98008390D02*
X144738095Y-98056009D01*
X144738095Y-98056009D02*
X144785714Y-98151247D01*
X144785714Y-98151247D02*
X144785714Y-98389342D01*
X144785714Y-98389342D02*
X144738095Y-98484580D01*
X144738095Y-98484580D02*
X144690476Y-98532200D01*
X144690476Y-98532200D02*
X144595238Y-98579819D01*
X144595238Y-98579819D02*
X144309524Y-98579819D01*
X144309524Y-98579819D02*
X144214286Y-98532200D01*
X144214286Y-98532200D02*
X144166667Y-98484580D01*
X128519642Y-85354580D02*
X128472023Y-85402200D01*
X128472023Y-85402200D02*
X128329166Y-85449819D01*
X128329166Y-85449819D02*
X128233928Y-85449819D01*
X128233928Y-85449819D02*
X128091071Y-85402200D01*
X128091071Y-85402200D02*
X127995833Y-85306961D01*
X127995833Y-85306961D02*
X127948214Y-85211723D01*
X127948214Y-85211723D02*
X127900595Y-85021247D01*
X127900595Y-85021247D02*
X127900595Y-84878390D01*
X127900595Y-84878390D02*
X127948214Y-84687914D01*
X127948214Y-84687914D02*
X127995833Y-84592676D01*
X127995833Y-84592676D02*
X128091071Y-84497438D01*
X128091071Y-84497438D02*
X128233928Y-84449819D01*
X128233928Y-84449819D02*
X128329166Y-84449819D01*
X128329166Y-84449819D02*
X128472023Y-84497438D01*
X128472023Y-84497438D02*
X128519642Y-84545057D01*
X129472023Y-85449819D02*
X128900595Y-85449819D01*
X129186309Y-85449819D02*
X129186309Y-84449819D01*
X129186309Y-84449819D02*
X129091071Y-84592676D01*
X129091071Y-84592676D02*
X128995833Y-84687914D01*
X128995833Y-84687914D02*
X128900595Y-84735533D01*
X130329166Y-84783152D02*
X130329166Y-85449819D01*
X130091071Y-84402200D02*
X129852976Y-85116485D01*
X129852976Y-85116485D02*
X130472023Y-85116485D01*
X115166667Y-64607200D02*
X115309524Y-64654819D01*
X115309524Y-64654819D02*
X115547619Y-64654819D01*
X115547619Y-64654819D02*
X115642857Y-64607200D01*
X115642857Y-64607200D02*
X115690476Y-64559580D01*
X115690476Y-64559580D02*
X115738095Y-64464342D01*
X115738095Y-64464342D02*
X115738095Y-64369104D01*
X115738095Y-64369104D02*
X115690476Y-64273866D01*
X115690476Y-64273866D02*
X115642857Y-64226247D01*
X115642857Y-64226247D02*
X115547619Y-64178628D01*
X115547619Y-64178628D02*
X115357143Y-64131009D01*
X115357143Y-64131009D02*
X115261905Y-64083390D01*
X115261905Y-64083390D02*
X115214286Y-64035771D01*
X115214286Y-64035771D02*
X115166667Y-63940533D01*
X115166667Y-63940533D02*
X115166667Y-63845295D01*
X115166667Y-63845295D02*
X115214286Y-63750057D01*
X115214286Y-63750057D02*
X115261905Y-63702438D01*
X115261905Y-63702438D02*
X115357143Y-63654819D01*
X115357143Y-63654819D02*
X115595238Y-63654819D01*
X115595238Y-63654819D02*
X115738095Y-63702438D01*
X116071429Y-63654819D02*
X116309524Y-64654819D01*
X116309524Y-64654819D02*
X116500000Y-63940533D01*
X116500000Y-63940533D02*
X116690476Y-64654819D01*
X116690476Y-64654819D02*
X116928572Y-63654819D01*
X117833333Y-64654819D02*
X117261905Y-64654819D01*
X117547619Y-64654819D02*
X117547619Y-63654819D01*
X117547619Y-63654819D02*
X117452381Y-63797676D01*
X117452381Y-63797676D02*
X117357143Y-63892914D01*
X117357143Y-63892914D02*
X117261905Y-63940533D01*
X124609580Y-108366666D02*
X124657200Y-108414285D01*
X124657200Y-108414285D02*
X124704819Y-108557142D01*
X124704819Y-108557142D02*
X124704819Y-108652380D01*
X124704819Y-108652380D02*
X124657200Y-108795237D01*
X124657200Y-108795237D02*
X124561961Y-108890475D01*
X124561961Y-108890475D02*
X124466723Y-108938094D01*
X124466723Y-108938094D02*
X124276247Y-108985713D01*
X124276247Y-108985713D02*
X124133390Y-108985713D01*
X124133390Y-108985713D02*
X123942914Y-108938094D01*
X123942914Y-108938094D02*
X123847676Y-108890475D01*
X123847676Y-108890475D02*
X123752438Y-108795237D01*
X123752438Y-108795237D02*
X123704819Y-108652380D01*
X123704819Y-108652380D02*
X123704819Y-108557142D01*
X123704819Y-108557142D02*
X123752438Y-108414285D01*
X123752438Y-108414285D02*
X123800057Y-108366666D01*
X124133390Y-107795237D02*
X124085771Y-107890475D01*
X124085771Y-107890475D02*
X124038152Y-107938094D01*
X124038152Y-107938094D02*
X123942914Y-107985713D01*
X123942914Y-107985713D02*
X123895295Y-107985713D01*
X123895295Y-107985713D02*
X123800057Y-107938094D01*
X123800057Y-107938094D02*
X123752438Y-107890475D01*
X123752438Y-107890475D02*
X123704819Y-107795237D01*
X123704819Y-107795237D02*
X123704819Y-107604761D01*
X123704819Y-107604761D02*
X123752438Y-107509523D01*
X123752438Y-107509523D02*
X123800057Y-107461904D01*
X123800057Y-107461904D02*
X123895295Y-107414285D01*
X123895295Y-107414285D02*
X123942914Y-107414285D01*
X123942914Y-107414285D02*
X124038152Y-107461904D01*
X124038152Y-107461904D02*
X124085771Y-107509523D01*
X124085771Y-107509523D02*
X124133390Y-107604761D01*
X124133390Y-107604761D02*
X124133390Y-107795237D01*
X124133390Y-107795237D02*
X124181009Y-107890475D01*
X124181009Y-107890475D02*
X124228628Y-107938094D01*
X124228628Y-107938094D02*
X124323866Y-107985713D01*
X124323866Y-107985713D02*
X124514342Y-107985713D01*
X124514342Y-107985713D02*
X124609580Y-107938094D01*
X124609580Y-107938094D02*
X124657200Y-107890475D01*
X124657200Y-107890475D02*
X124704819Y-107795237D01*
X124704819Y-107795237D02*
X124704819Y-107604761D01*
X124704819Y-107604761D02*
X124657200Y-107509523D01*
X124657200Y-107509523D02*
X124609580Y-107461904D01*
X124609580Y-107461904D02*
X124514342Y-107414285D01*
X124514342Y-107414285D02*
X124323866Y-107414285D01*
X124323866Y-107414285D02*
X124228628Y-107461904D01*
X124228628Y-107461904D02*
X124181009Y-107509523D01*
X124181009Y-107509523D02*
X124133390Y-107604761D01*
X132359580Y-101566666D02*
X132407200Y-101614285D01*
X132407200Y-101614285D02*
X132454819Y-101757142D01*
X132454819Y-101757142D02*
X132454819Y-101852380D01*
X132454819Y-101852380D02*
X132407200Y-101995237D01*
X132407200Y-101995237D02*
X132311961Y-102090475D01*
X132311961Y-102090475D02*
X132216723Y-102138094D01*
X132216723Y-102138094D02*
X132026247Y-102185713D01*
X132026247Y-102185713D02*
X131883390Y-102185713D01*
X131883390Y-102185713D02*
X131692914Y-102138094D01*
X131692914Y-102138094D02*
X131597676Y-102090475D01*
X131597676Y-102090475D02*
X131502438Y-101995237D01*
X131502438Y-101995237D02*
X131454819Y-101852380D01*
X131454819Y-101852380D02*
X131454819Y-101757142D01*
X131454819Y-101757142D02*
X131502438Y-101614285D01*
X131502438Y-101614285D02*
X131550057Y-101566666D01*
X131788152Y-100709523D02*
X132454819Y-100709523D01*
X131407200Y-100947618D02*
X132121485Y-101185713D01*
X132121485Y-101185713D02*
X132121485Y-100566666D01*
X142704819Y-116591666D02*
X142228628Y-116924999D01*
X142704819Y-117163094D02*
X141704819Y-117163094D01*
X141704819Y-117163094D02*
X141704819Y-116782142D01*
X141704819Y-116782142D02*
X141752438Y-116686904D01*
X141752438Y-116686904D02*
X141800057Y-116639285D01*
X141800057Y-116639285D02*
X141895295Y-116591666D01*
X141895295Y-116591666D02*
X142038152Y-116591666D01*
X142038152Y-116591666D02*
X142133390Y-116639285D01*
X142133390Y-116639285D02*
X142181009Y-116686904D01*
X142181009Y-116686904D02*
X142228628Y-116782142D01*
X142228628Y-116782142D02*
X142228628Y-117163094D01*
X142038152Y-115734523D02*
X142704819Y-115734523D01*
X141657200Y-115972618D02*
X142371485Y-116210713D01*
X142371485Y-116210713D02*
X142371485Y-115591666D01*
X127204819Y-102316666D02*
X127204819Y-102792856D01*
X127204819Y-102792856D02*
X126204819Y-102792856D01*
X127204819Y-101459523D02*
X127204819Y-102030951D01*
X127204819Y-101745237D02*
X126204819Y-101745237D01*
X126204819Y-101745237D02*
X126347676Y-101840475D01*
X126347676Y-101840475D02*
X126442914Y-101935713D01*
X126442914Y-101935713D02*
X126490533Y-102030951D01*
X174704819Y-109083333D02*
X175419104Y-109083333D01*
X175419104Y-109083333D02*
X175561961Y-109130952D01*
X175561961Y-109130952D02*
X175657200Y-109226190D01*
X175657200Y-109226190D02*
X175704819Y-109369047D01*
X175704819Y-109369047D02*
X175704819Y-109464285D01*
X175038152Y-108178571D02*
X175704819Y-108178571D01*
X174657200Y-108416666D02*
X175371485Y-108654761D01*
X175371485Y-108654761D02*
X175371485Y-108035714D01*
X123449405Y-121902519D02*
X123449405Y-120902519D01*
X123449405Y-120902519D02*
X123687500Y-120902519D01*
X123687500Y-120902519D02*
X123830357Y-120950138D01*
X123830357Y-120950138D02*
X123925595Y-121045376D01*
X123925595Y-121045376D02*
X123973214Y-121140614D01*
X123973214Y-121140614D02*
X124020833Y-121331090D01*
X124020833Y-121331090D02*
X124020833Y-121473947D01*
X124020833Y-121473947D02*
X123973214Y-121664423D01*
X123973214Y-121664423D02*
X123925595Y-121759661D01*
X123925595Y-121759661D02*
X123830357Y-121854900D01*
X123830357Y-121854900D02*
X123687500Y-121902519D01*
X123687500Y-121902519D02*
X123449405Y-121902519D01*
X124973214Y-121902519D02*
X124401786Y-121902519D01*
X124687500Y-121902519D02*
X124687500Y-120902519D01*
X124687500Y-120902519D02*
X124592262Y-121045376D01*
X124592262Y-121045376D02*
X124497024Y-121140614D01*
X124497024Y-121140614D02*
X124401786Y-121188233D01*
X121454819Y-118217299D02*
X121692914Y-118217299D01*
X121597676Y-118455394D02*
X121692914Y-118217299D01*
X121692914Y-118217299D02*
X121597676Y-117979204D01*
X121883390Y-118360156D02*
X121692914Y-118217299D01*
X121692914Y-118217299D02*
X121883390Y-118074442D01*
X122545180Y-118217300D02*
X122307085Y-118217300D01*
X122402323Y-117979205D02*
X122307085Y-118217300D01*
X122307085Y-118217300D02*
X122402323Y-118455395D01*
X122116609Y-118074443D02*
X122307085Y-118217300D01*
X122307085Y-118217300D02*
X122116609Y-118360157D01*
X131788095Y-73329819D02*
X131788095Y-74139342D01*
X131788095Y-74139342D02*
X131835714Y-74234580D01*
X131835714Y-74234580D02*
X131883333Y-74282200D01*
X131883333Y-74282200D02*
X131978571Y-74329819D01*
X131978571Y-74329819D02*
X132169047Y-74329819D01*
X132169047Y-74329819D02*
X132264285Y-74282200D01*
X132264285Y-74282200D02*
X132311904Y-74234580D01*
X132311904Y-74234580D02*
X132359523Y-74139342D01*
X132359523Y-74139342D02*
X132359523Y-73329819D01*
X133264285Y-73663152D02*
X133264285Y-74329819D01*
X133026190Y-73282200D02*
X132788095Y-73996485D01*
X132788095Y-73996485D02*
X133407142Y-73996485D01*
X124619642Y-85354580D02*
X124572023Y-85402200D01*
X124572023Y-85402200D02*
X124429166Y-85449819D01*
X124429166Y-85449819D02*
X124333928Y-85449819D01*
X124333928Y-85449819D02*
X124191071Y-85402200D01*
X124191071Y-85402200D02*
X124095833Y-85306961D01*
X124095833Y-85306961D02*
X124048214Y-85211723D01*
X124048214Y-85211723D02*
X124000595Y-85021247D01*
X124000595Y-85021247D02*
X124000595Y-84878390D01*
X124000595Y-84878390D02*
X124048214Y-84687914D01*
X124048214Y-84687914D02*
X124095833Y-84592676D01*
X124095833Y-84592676D02*
X124191071Y-84497438D01*
X124191071Y-84497438D02*
X124333928Y-84449819D01*
X124333928Y-84449819D02*
X124429166Y-84449819D01*
X124429166Y-84449819D02*
X124572023Y-84497438D01*
X124572023Y-84497438D02*
X124619642Y-84545057D01*
X125572023Y-85449819D02*
X125000595Y-85449819D01*
X125286309Y-85449819D02*
X125286309Y-84449819D01*
X125286309Y-84449819D02*
X125191071Y-84592676D01*
X125191071Y-84592676D02*
X125095833Y-84687914D01*
X125095833Y-84687914D02*
X125000595Y-84735533D01*
X126476785Y-84449819D02*
X126000595Y-84449819D01*
X126000595Y-84449819D02*
X125952976Y-84926009D01*
X125952976Y-84926009D02*
X126000595Y-84878390D01*
X126000595Y-84878390D02*
X126095833Y-84830771D01*
X126095833Y-84830771D02*
X126333928Y-84830771D01*
X126333928Y-84830771D02*
X126429166Y-84878390D01*
X126429166Y-84878390D02*
X126476785Y-84926009D01*
X126476785Y-84926009D02*
X126524404Y-85021247D01*
X126524404Y-85021247D02*
X126524404Y-85259342D01*
X126524404Y-85259342D02*
X126476785Y-85354580D01*
X126476785Y-85354580D02*
X126429166Y-85402200D01*
X126429166Y-85402200D02*
X126333928Y-85449819D01*
X126333928Y-85449819D02*
X126095833Y-85449819D01*
X126095833Y-85449819D02*
X126000595Y-85402200D01*
X126000595Y-85402200D02*
X125952976Y-85354580D01*
X143833333Y-100859580D02*
X143785714Y-100907200D01*
X143785714Y-100907200D02*
X143642857Y-100954819D01*
X143642857Y-100954819D02*
X143547619Y-100954819D01*
X143547619Y-100954819D02*
X143404762Y-100907200D01*
X143404762Y-100907200D02*
X143309524Y-100811961D01*
X143309524Y-100811961D02*
X143261905Y-100716723D01*
X143261905Y-100716723D02*
X143214286Y-100526247D01*
X143214286Y-100526247D02*
X143214286Y-100383390D01*
X143214286Y-100383390D02*
X143261905Y-100192914D01*
X143261905Y-100192914D02*
X143309524Y-100097676D01*
X143309524Y-100097676D02*
X143404762Y-100002438D01*
X143404762Y-100002438D02*
X143547619Y-99954819D01*
X143547619Y-99954819D02*
X143642857Y-99954819D01*
X143642857Y-99954819D02*
X143785714Y-100002438D01*
X143785714Y-100002438D02*
X143833333Y-100050057D01*
X144785714Y-100954819D02*
X144214286Y-100954819D01*
X144500000Y-100954819D02*
X144500000Y-99954819D01*
X144500000Y-99954819D02*
X144404762Y-100097676D01*
X144404762Y-100097676D02*
X144309524Y-100192914D01*
X144309524Y-100192914D02*
X144214286Y-100240533D01*
X127109580Y-108842857D02*
X127157200Y-108890476D01*
X127157200Y-108890476D02*
X127204819Y-109033333D01*
X127204819Y-109033333D02*
X127204819Y-109128571D01*
X127204819Y-109128571D02*
X127157200Y-109271428D01*
X127157200Y-109271428D02*
X127061961Y-109366666D01*
X127061961Y-109366666D02*
X126966723Y-109414285D01*
X126966723Y-109414285D02*
X126776247Y-109461904D01*
X126776247Y-109461904D02*
X126633390Y-109461904D01*
X126633390Y-109461904D02*
X126442914Y-109414285D01*
X126442914Y-109414285D02*
X126347676Y-109366666D01*
X126347676Y-109366666D02*
X126252438Y-109271428D01*
X126252438Y-109271428D02*
X126204819Y-109128571D01*
X126204819Y-109128571D02*
X126204819Y-109033333D01*
X126204819Y-109033333D02*
X126252438Y-108890476D01*
X126252438Y-108890476D02*
X126300057Y-108842857D01*
X127204819Y-107890476D02*
X127204819Y-108461904D01*
X127204819Y-108176190D02*
X126204819Y-108176190D01*
X126204819Y-108176190D02*
X126347676Y-108271428D01*
X126347676Y-108271428D02*
X126442914Y-108366666D01*
X126442914Y-108366666D02*
X126490533Y-108461904D01*
X126204819Y-107271428D02*
X126204819Y-107176190D01*
X126204819Y-107176190D02*
X126252438Y-107080952D01*
X126252438Y-107080952D02*
X126300057Y-107033333D01*
X126300057Y-107033333D02*
X126395295Y-106985714D01*
X126395295Y-106985714D02*
X126585771Y-106938095D01*
X126585771Y-106938095D02*
X126823866Y-106938095D01*
X126823866Y-106938095D02*
X127014342Y-106985714D01*
X127014342Y-106985714D02*
X127109580Y-107033333D01*
X127109580Y-107033333D02*
X127157200Y-107080952D01*
X127157200Y-107080952D02*
X127204819Y-107176190D01*
X127204819Y-107176190D02*
X127204819Y-107271428D01*
X127204819Y-107271428D02*
X127157200Y-107366666D01*
X127157200Y-107366666D02*
X127109580Y-107414285D01*
X127109580Y-107414285D02*
X127014342Y-107461904D01*
X127014342Y-107461904D02*
X126823866Y-107509523D01*
X126823866Y-107509523D02*
X126585771Y-107509523D01*
X126585771Y-107509523D02*
X126395295Y-107461904D01*
X126395295Y-107461904D02*
X126300057Y-107414285D01*
X126300057Y-107414285D02*
X126252438Y-107366666D01*
X126252438Y-107366666D02*
X126204819Y-107271428D01*
X174704819Y-69083333D02*
X175419104Y-69083333D01*
X175419104Y-69083333D02*
X175561961Y-69130952D01*
X175561961Y-69130952D02*
X175657200Y-69226190D01*
X175657200Y-69226190D02*
X175704819Y-69369047D01*
X175704819Y-69369047D02*
X175704819Y-69464285D01*
X174800057Y-68654761D02*
X174752438Y-68607142D01*
X174752438Y-68607142D02*
X174704819Y-68511904D01*
X174704819Y-68511904D02*
X174704819Y-68273809D01*
X174704819Y-68273809D02*
X174752438Y-68178571D01*
X174752438Y-68178571D02*
X174800057Y-68130952D01*
X174800057Y-68130952D02*
X174895295Y-68083333D01*
X174895295Y-68083333D02*
X174990533Y-68083333D01*
X174990533Y-68083333D02*
X175133390Y-68130952D01*
X175133390Y-68130952D02*
X175704819Y-68702380D01*
X175704819Y-68702380D02*
X175704819Y-68083333D01*
X121859580Y-108366666D02*
X121907200Y-108414285D01*
X121907200Y-108414285D02*
X121954819Y-108557142D01*
X121954819Y-108557142D02*
X121954819Y-108652380D01*
X121954819Y-108652380D02*
X121907200Y-108795237D01*
X121907200Y-108795237D02*
X121811961Y-108890475D01*
X121811961Y-108890475D02*
X121716723Y-108938094D01*
X121716723Y-108938094D02*
X121526247Y-108985713D01*
X121526247Y-108985713D02*
X121383390Y-108985713D01*
X121383390Y-108985713D02*
X121192914Y-108938094D01*
X121192914Y-108938094D02*
X121097676Y-108890475D01*
X121097676Y-108890475D02*
X121002438Y-108795237D01*
X121002438Y-108795237D02*
X120954819Y-108652380D01*
X120954819Y-108652380D02*
X120954819Y-108557142D01*
X120954819Y-108557142D02*
X121002438Y-108414285D01*
X121002438Y-108414285D02*
X121050057Y-108366666D01*
X120954819Y-108033332D02*
X120954819Y-107366666D01*
X120954819Y-107366666D02*
X121954819Y-107795237D01*
X133957142Y-108859580D02*
X133909523Y-108907200D01*
X133909523Y-108907200D02*
X133766666Y-108954819D01*
X133766666Y-108954819D02*
X133671428Y-108954819D01*
X133671428Y-108954819D02*
X133528571Y-108907200D01*
X133528571Y-108907200D02*
X133433333Y-108811961D01*
X133433333Y-108811961D02*
X133385714Y-108716723D01*
X133385714Y-108716723D02*
X133338095Y-108526247D01*
X133338095Y-108526247D02*
X133338095Y-108383390D01*
X133338095Y-108383390D02*
X133385714Y-108192914D01*
X133385714Y-108192914D02*
X133433333Y-108097676D01*
X133433333Y-108097676D02*
X133528571Y-108002438D01*
X133528571Y-108002438D02*
X133671428Y-107954819D01*
X133671428Y-107954819D02*
X133766666Y-107954819D01*
X133766666Y-107954819D02*
X133909523Y-108002438D01*
X133909523Y-108002438D02*
X133957142Y-108050057D01*
X134909523Y-108954819D02*
X134338095Y-108954819D01*
X134623809Y-108954819D02*
X134623809Y-107954819D01*
X134623809Y-107954819D02*
X134528571Y-108097676D01*
X134528571Y-108097676D02*
X134433333Y-108192914D01*
X134433333Y-108192914D02*
X134338095Y-108240533D01*
X135861904Y-108954819D02*
X135290476Y-108954819D01*
X135576190Y-108954819D02*
X135576190Y-107954819D01*
X135576190Y-107954819D02*
X135480952Y-108097676D01*
X135480952Y-108097676D02*
X135385714Y-108192914D01*
X135385714Y-108192914D02*
X135290476Y-108240533D01*
X135704819Y-116604166D02*
X135228628Y-116937499D01*
X135704819Y-117175594D02*
X134704819Y-117175594D01*
X134704819Y-117175594D02*
X134704819Y-116794642D01*
X134704819Y-116794642D02*
X134752438Y-116699404D01*
X134752438Y-116699404D02*
X134800057Y-116651785D01*
X134800057Y-116651785D02*
X134895295Y-116604166D01*
X134895295Y-116604166D02*
X135038152Y-116604166D01*
X135038152Y-116604166D02*
X135133390Y-116651785D01*
X135133390Y-116651785D02*
X135181009Y-116699404D01*
X135181009Y-116699404D02*
X135228628Y-116794642D01*
X135228628Y-116794642D02*
X135228628Y-117175594D01*
X134704819Y-115747023D02*
X134704819Y-115937499D01*
X134704819Y-115937499D02*
X134752438Y-116032737D01*
X134752438Y-116032737D02*
X134800057Y-116080356D01*
X134800057Y-116080356D02*
X134942914Y-116175594D01*
X134942914Y-116175594D02*
X135133390Y-116223213D01*
X135133390Y-116223213D02*
X135514342Y-116223213D01*
X135514342Y-116223213D02*
X135609580Y-116175594D01*
X135609580Y-116175594D02*
X135657200Y-116127975D01*
X135657200Y-116127975D02*
X135704819Y-116032737D01*
X135704819Y-116032737D02*
X135704819Y-115842261D01*
X135704819Y-115842261D02*
X135657200Y-115747023D01*
X135657200Y-115747023D02*
X135609580Y-115699404D01*
X135609580Y-115699404D02*
X135514342Y-115651785D01*
X135514342Y-115651785D02*
X135276247Y-115651785D01*
X135276247Y-115651785D02*
X135181009Y-115699404D01*
X135181009Y-115699404D02*
X135133390Y-115747023D01*
X135133390Y-115747023D02*
X135085771Y-115842261D01*
X135085771Y-115842261D02*
X135085771Y-116032737D01*
X135085771Y-116032737D02*
X135133390Y-116127975D01*
X135133390Y-116127975D02*
X135181009Y-116175594D01*
X135181009Y-116175594D02*
X135276247Y-116223213D01*
D12*
X143833333Y-96110880D02*
X143785714Y-96158500D01*
X143785714Y-96158500D02*
X143642857Y-96206119D01*
X143642857Y-96206119D02*
X143547619Y-96206119D01*
X143547619Y-96206119D02*
X143404762Y-96158500D01*
X143404762Y-96158500D02*
X143309524Y-96063261D01*
X143309524Y-96063261D02*
X143261905Y-95968023D01*
X143261905Y-95968023D02*
X143214286Y-95777547D01*
X143214286Y-95777547D02*
X143214286Y-95634690D01*
X143214286Y-95634690D02*
X143261905Y-95444214D01*
X143261905Y-95444214D02*
X143309524Y-95348976D01*
X143309524Y-95348976D02*
X143404762Y-95253738D01*
X143404762Y-95253738D02*
X143547619Y-95206119D01*
X143547619Y-95206119D02*
X143642857Y-95206119D01*
X143642857Y-95206119D02*
X143785714Y-95253738D01*
X143785714Y-95253738D02*
X143833333Y-95301357D01*
X144738095Y-95206119D02*
X144261905Y-95206119D01*
X144261905Y-95206119D02*
X144214286Y-95682309D01*
X144214286Y-95682309D02*
X144261905Y-95634690D01*
X144261905Y-95634690D02*
X144357143Y-95587071D01*
X144357143Y-95587071D02*
X144595238Y-95587071D01*
X144595238Y-95587071D02*
X144690476Y-95634690D01*
X144690476Y-95634690D02*
X144738095Y-95682309D01*
X144738095Y-95682309D02*
X144785714Y-95777547D01*
X144785714Y-95777547D02*
X144785714Y-96015642D01*
X144785714Y-96015642D02*
X144738095Y-96110880D01*
X144738095Y-96110880D02*
X144690476Y-96158500D01*
X144690476Y-96158500D02*
X144595238Y-96206119D01*
X144595238Y-96206119D02*
X144357143Y-96206119D01*
X144357143Y-96206119D02*
X144261905Y-96158500D01*
X144261905Y-96158500D02*
X144214286Y-96110880D01*
D11*
X131159580Y-105392857D02*
X131207200Y-105440476D01*
X131207200Y-105440476D02*
X131254819Y-105583333D01*
X131254819Y-105583333D02*
X131254819Y-105678571D01*
X131254819Y-105678571D02*
X131207200Y-105821428D01*
X131207200Y-105821428D02*
X131111961Y-105916666D01*
X131111961Y-105916666D02*
X131016723Y-105964285D01*
X131016723Y-105964285D02*
X130826247Y-106011904D01*
X130826247Y-106011904D02*
X130683390Y-106011904D01*
X130683390Y-106011904D02*
X130492914Y-105964285D01*
X130492914Y-105964285D02*
X130397676Y-105916666D01*
X130397676Y-105916666D02*
X130302438Y-105821428D01*
X130302438Y-105821428D02*
X130254819Y-105678571D01*
X130254819Y-105678571D02*
X130254819Y-105583333D01*
X130254819Y-105583333D02*
X130302438Y-105440476D01*
X130302438Y-105440476D02*
X130350057Y-105392857D01*
X131254819Y-104440476D02*
X131254819Y-105011904D01*
X131254819Y-104726190D02*
X130254819Y-104726190D01*
X130254819Y-104726190D02*
X130397676Y-104821428D01*
X130397676Y-104821428D02*
X130492914Y-104916666D01*
X130492914Y-104916666D02*
X130540533Y-105011904D01*
X130350057Y-104059523D02*
X130302438Y-104011904D01*
X130302438Y-104011904D02*
X130254819Y-103916666D01*
X130254819Y-103916666D02*
X130254819Y-103678571D01*
X130254819Y-103678571D02*
X130302438Y-103583333D01*
X130302438Y-103583333D02*
X130350057Y-103535714D01*
X130350057Y-103535714D02*
X130445295Y-103488095D01*
X130445295Y-103488095D02*
X130540533Y-103488095D01*
X130540533Y-103488095D02*
X130683390Y-103535714D01*
X130683390Y-103535714D02*
X131254819Y-104107142D01*
X131254819Y-104107142D02*
X131254819Y-103488095D01*
X138963333Y-78650473D02*
X138963333Y-79543330D01*
X138963333Y-79543330D02*
X138903810Y-79721902D01*
X138903810Y-79721902D02*
X138784762Y-79840950D01*
X138784762Y-79840950D02*
X138606191Y-79900473D01*
X138606191Y-79900473D02*
X138487143Y-79900473D01*
X140153810Y-78650473D02*
X139558572Y-78650473D01*
X139558572Y-78650473D02*
X139499048Y-79245711D01*
X139499048Y-79245711D02*
X139558572Y-79186188D01*
X139558572Y-79186188D02*
X139677619Y-79126664D01*
X139677619Y-79126664D02*
X139975238Y-79126664D01*
X139975238Y-79126664D02*
X140094286Y-79186188D01*
X140094286Y-79186188D02*
X140153810Y-79245711D01*
X140153810Y-79245711D02*
X140213333Y-79364759D01*
X140213333Y-79364759D02*
X140213333Y-79662378D01*
X140213333Y-79662378D02*
X140153810Y-79781426D01*
X140153810Y-79781426D02*
X140094286Y-79840950D01*
X140094286Y-79840950D02*
X139975238Y-79900473D01*
X139975238Y-79900473D02*
X139677619Y-79900473D01*
X139677619Y-79900473D02*
X139558572Y-79840950D01*
X139558572Y-79840950D02*
X139499048Y-79781426D01*
X131838095Y-84354819D02*
X131838095Y-85164342D01*
X131838095Y-85164342D02*
X131885714Y-85259580D01*
X131885714Y-85259580D02*
X131933333Y-85307200D01*
X131933333Y-85307200D02*
X132028571Y-85354819D01*
X132028571Y-85354819D02*
X132219047Y-85354819D01*
X132219047Y-85354819D02*
X132314285Y-85307200D01*
X132314285Y-85307200D02*
X132361904Y-85259580D01*
X132361904Y-85259580D02*
X132409523Y-85164342D01*
X132409523Y-85164342D02*
X132409523Y-84354819D01*
X132838095Y-84450057D02*
X132885714Y-84402438D01*
X132885714Y-84402438D02*
X132980952Y-84354819D01*
X132980952Y-84354819D02*
X133219047Y-84354819D01*
X133219047Y-84354819D02*
X133314285Y-84402438D01*
X133314285Y-84402438D02*
X133361904Y-84450057D01*
X133361904Y-84450057D02*
X133409523Y-84545295D01*
X133409523Y-84545295D02*
X133409523Y-84640533D01*
X133409523Y-84640533D02*
X133361904Y-84783390D01*
X133361904Y-84783390D02*
X132790476Y-85354819D01*
X132790476Y-85354819D02*
X133409523Y-85354819D01*
X119654819Y-115533333D02*
X120369104Y-115533333D01*
X120369104Y-115533333D02*
X120511961Y-115580952D01*
X120511961Y-115580952D02*
X120607200Y-115676190D01*
X120607200Y-115676190D02*
X120654819Y-115819047D01*
X120654819Y-115819047D02*
X120654819Y-115914285D01*
X120654819Y-114533333D02*
X120654819Y-115104761D01*
X120654819Y-114819047D02*
X119654819Y-114819047D01*
X119654819Y-114819047D02*
X119797676Y-114914285D01*
X119797676Y-114914285D02*
X119892914Y-115009523D01*
X119892914Y-115009523D02*
X119940533Y-115104761D01*
X137759580Y-105242857D02*
X137807200Y-105290476D01*
X137807200Y-105290476D02*
X137854819Y-105433333D01*
X137854819Y-105433333D02*
X137854819Y-105528571D01*
X137854819Y-105528571D02*
X137807200Y-105671428D01*
X137807200Y-105671428D02*
X137711961Y-105766666D01*
X137711961Y-105766666D02*
X137616723Y-105814285D01*
X137616723Y-105814285D02*
X137426247Y-105861904D01*
X137426247Y-105861904D02*
X137283390Y-105861904D01*
X137283390Y-105861904D02*
X137092914Y-105814285D01*
X137092914Y-105814285D02*
X136997676Y-105766666D01*
X136997676Y-105766666D02*
X136902438Y-105671428D01*
X136902438Y-105671428D02*
X136854819Y-105528571D01*
X136854819Y-105528571D02*
X136854819Y-105433333D01*
X136854819Y-105433333D02*
X136902438Y-105290476D01*
X136902438Y-105290476D02*
X136950057Y-105242857D01*
X137854819Y-104290476D02*
X137854819Y-104861904D01*
X137854819Y-104576190D02*
X136854819Y-104576190D01*
X136854819Y-104576190D02*
X136997676Y-104671428D01*
X136997676Y-104671428D02*
X137092914Y-104766666D01*
X137092914Y-104766666D02*
X137140533Y-104861904D01*
X136854819Y-103957142D02*
X136854819Y-103338095D01*
X136854819Y-103338095D02*
X137235771Y-103671428D01*
X137235771Y-103671428D02*
X137235771Y-103528571D01*
X137235771Y-103528571D02*
X137283390Y-103433333D01*
X137283390Y-103433333D02*
X137331009Y-103385714D01*
X137331009Y-103385714D02*
X137426247Y-103338095D01*
X137426247Y-103338095D02*
X137664342Y-103338095D01*
X137664342Y-103338095D02*
X137759580Y-103385714D01*
X137759580Y-103385714D02*
X137807200Y-103433333D01*
X137807200Y-103433333D02*
X137854819Y-103528571D01*
X137854819Y-103528571D02*
X137854819Y-103814285D01*
X137854819Y-103814285D02*
X137807200Y-103909523D01*
X137807200Y-103909523D02*
X137759580Y-103957142D01*
X138038152Y-116604166D02*
X137561961Y-116937499D01*
X138038152Y-117175594D02*
X137038152Y-117175594D01*
X137038152Y-117175594D02*
X137038152Y-116794642D01*
X137038152Y-116794642D02*
X137085771Y-116699404D01*
X137085771Y-116699404D02*
X137133390Y-116651785D01*
X137133390Y-116651785D02*
X137228628Y-116604166D01*
X137228628Y-116604166D02*
X137371485Y-116604166D01*
X137371485Y-116604166D02*
X137466723Y-116651785D01*
X137466723Y-116651785D02*
X137514342Y-116699404D01*
X137514342Y-116699404D02*
X137561961Y-116794642D01*
X137561961Y-116794642D02*
X137561961Y-117175594D01*
X137038152Y-115699404D02*
X137038152Y-116175594D01*
X137038152Y-116175594D02*
X137514342Y-116223213D01*
X137514342Y-116223213D02*
X137466723Y-116175594D01*
X137466723Y-116175594D02*
X137419104Y-116080356D01*
X137419104Y-116080356D02*
X137419104Y-115842261D01*
X137419104Y-115842261D02*
X137466723Y-115747023D01*
X137466723Y-115747023D02*
X137514342Y-115699404D01*
X137514342Y-115699404D02*
X137609580Y-115651785D01*
X137609580Y-115651785D02*
X137847675Y-115651785D01*
X137847675Y-115651785D02*
X137942913Y-115699404D01*
X137942913Y-115699404D02*
X137990533Y-115747023D01*
X137990533Y-115747023D02*
X138038152Y-115842261D01*
X138038152Y-115842261D02*
X138038152Y-116080356D01*
X138038152Y-116080356D02*
X137990533Y-116175594D01*
X137990533Y-116175594D02*
X137942913Y-116223213D01*
X140371486Y-116604166D02*
X139895295Y-116937499D01*
X140371486Y-117175594D02*
X139371486Y-117175594D01*
X139371486Y-117175594D02*
X139371486Y-116794642D01*
X139371486Y-116794642D02*
X139419105Y-116699404D01*
X139419105Y-116699404D02*
X139466724Y-116651785D01*
X139466724Y-116651785D02*
X139561962Y-116604166D01*
X139561962Y-116604166D02*
X139704819Y-116604166D01*
X139704819Y-116604166D02*
X139800057Y-116651785D01*
X139800057Y-116651785D02*
X139847676Y-116699404D01*
X139847676Y-116699404D02*
X139895295Y-116794642D01*
X139895295Y-116794642D02*
X139895295Y-117175594D01*
X139371486Y-116270832D02*
X139371486Y-115651785D01*
X139371486Y-115651785D02*
X139752438Y-115985118D01*
X139752438Y-115985118D02*
X139752438Y-115842261D01*
X139752438Y-115842261D02*
X139800057Y-115747023D01*
X139800057Y-115747023D02*
X139847676Y-115699404D01*
X139847676Y-115699404D02*
X139942914Y-115651785D01*
X139942914Y-115651785D02*
X140181009Y-115651785D01*
X140181009Y-115651785D02*
X140276247Y-115699404D01*
X140276247Y-115699404D02*
X140323867Y-115747023D01*
X140323867Y-115747023D02*
X140371486Y-115842261D01*
X140371486Y-115842261D02*
X140371486Y-116127975D01*
X140371486Y-116127975D02*
X140323867Y-116223213D01*
X140323867Y-116223213D02*
X140276247Y-116270832D01*
D12*
X136410880Y-101566666D02*
X136458500Y-101614285D01*
X136458500Y-101614285D02*
X136506119Y-101757142D01*
X136506119Y-101757142D02*
X136506119Y-101852380D01*
X136506119Y-101852380D02*
X136458500Y-101995237D01*
X136458500Y-101995237D02*
X136363261Y-102090475D01*
X136363261Y-102090475D02*
X136268023Y-102138094D01*
X136268023Y-102138094D02*
X136077547Y-102185713D01*
X136077547Y-102185713D02*
X135934690Y-102185713D01*
X135934690Y-102185713D02*
X135744214Y-102138094D01*
X135744214Y-102138094D02*
X135648976Y-102090475D01*
X135648976Y-102090475D02*
X135553738Y-101995237D01*
X135553738Y-101995237D02*
X135506119Y-101852380D01*
X135506119Y-101852380D02*
X135506119Y-101757142D01*
X135506119Y-101757142D02*
X135553738Y-101614285D01*
X135553738Y-101614285D02*
X135601357Y-101566666D01*
X136506119Y-101090475D02*
X136506119Y-100899999D01*
X136506119Y-100899999D02*
X136458500Y-100804761D01*
X136458500Y-100804761D02*
X136410880Y-100757142D01*
X136410880Y-100757142D02*
X136268023Y-100661904D01*
X136268023Y-100661904D02*
X136077547Y-100614285D01*
X136077547Y-100614285D02*
X135696595Y-100614285D01*
X135696595Y-100614285D02*
X135601357Y-100661904D01*
X135601357Y-100661904D02*
X135553738Y-100709523D01*
X135553738Y-100709523D02*
X135506119Y-100804761D01*
X135506119Y-100804761D02*
X135506119Y-100995237D01*
X135506119Y-100995237D02*
X135553738Y-101090475D01*
X135553738Y-101090475D02*
X135601357Y-101138094D01*
X135601357Y-101138094D02*
X135696595Y-101185713D01*
X135696595Y-101185713D02*
X135934690Y-101185713D01*
X135934690Y-101185713D02*
X136029928Y-101138094D01*
X136029928Y-101138094D02*
X136077547Y-101090475D01*
X136077547Y-101090475D02*
X136125166Y-100995237D01*
X136125166Y-100995237D02*
X136125166Y-100804761D01*
X136125166Y-100804761D02*
X136077547Y-100709523D01*
X136077547Y-100709523D02*
X136029928Y-100661904D01*
X136029928Y-100661904D02*
X135934690Y-100614285D01*
D11*
X174704819Y-89083333D02*
X175419104Y-89083333D01*
X175419104Y-89083333D02*
X175561961Y-89130952D01*
X175561961Y-89130952D02*
X175657200Y-89226190D01*
X175657200Y-89226190D02*
X175704819Y-89369047D01*
X175704819Y-89369047D02*
X175704819Y-89464285D01*
X174704819Y-88702380D02*
X174704819Y-88083333D01*
X174704819Y-88083333D02*
X175085771Y-88416666D01*
X175085771Y-88416666D02*
X175085771Y-88273809D01*
X175085771Y-88273809D02*
X175133390Y-88178571D01*
X175133390Y-88178571D02*
X175181009Y-88130952D01*
X175181009Y-88130952D02*
X175276247Y-88083333D01*
X175276247Y-88083333D02*
X175514342Y-88083333D01*
X175514342Y-88083333D02*
X175609580Y-88130952D01*
X175609580Y-88130952D02*
X175657200Y-88178571D01*
X175657200Y-88178571D02*
X175704819Y-88273809D01*
X175704819Y-88273809D02*
X175704819Y-88559523D01*
X175704819Y-88559523D02*
X175657200Y-88654761D01*
X175657200Y-88654761D02*
X175609580Y-88702380D01*
D13*
%TO.C,Y1*%
X128552500Y-87940000D02*
G75*
G02*
X128352500Y-87940000I-100000J0D01*
G01*
X128352500Y-87940000D02*
G75*
G02*
X128552500Y-87940000I100000J0D01*
G01*
D14*
%TO.C,U1*%
X133260000Y-98120000D02*
X133260000Y-99120000D01*
X134740000Y-98120000D02*
X134740000Y-99120000D01*
D15*
X134520178Y-97620000D02*
G75*
G02*
X134379822Y-97620000I-70178J0D01*
G01*
X134379822Y-97620000D02*
G75*
G02*
X134520178Y-97620000I70178J0D01*
G01*
D14*
%TO.C,R19*%
X123227064Y-96015000D02*
X122772936Y-96015000D01*
X123227064Y-97485000D02*
X122772936Y-97485000D01*
%TO.C,R20*%
X123177064Y-93215000D02*
X122722936Y-93215000D01*
X123177064Y-94685000D02*
X122722936Y-94685000D01*
%TO.C,D6*%
X116752500Y-93040000D02*
X116752500Y-94960000D01*
X116752500Y-94960000D02*
X119437500Y-94960000D01*
X119437500Y-93040000D02*
X116752500Y-93040000D01*
%TO.C,D5*%
X116815000Y-95790000D02*
X116815000Y-97710000D01*
X116815000Y-97710000D02*
X119500000Y-97710000D01*
X119500000Y-95790000D02*
X116815000Y-95790000D01*
D16*
%TO.C,U3*%
X130450000Y-110185000D02*
X132050000Y-110185000D01*
X130450000Y-113315000D02*
X132050000Y-113315000D01*
D13*
X128950000Y-110550000D02*
G75*
G02*
X128750000Y-110550000I-100000J0D01*
G01*
X128750000Y-110550000D02*
G75*
G02*
X128950000Y-110550000I100000J0D01*
G01*
D14*
%TO.C,C3*%
X140988748Y-97390000D02*
X141511252Y-97390000D01*
X140988748Y-98860000D02*
X141511252Y-98860000D01*
%TO.C,C14*%
X128901248Y-85940000D02*
X129423752Y-85940000D01*
X128901248Y-87410000D02*
X129423752Y-87410000D01*
%TO.C,SW1*%
X113400000Y-67300000D02*
X114000000Y-67300000D01*
X113700000Y-67600000D02*
X113400000Y-67300000D01*
X114000000Y-67300000D02*
X113700000Y-67600000D01*
X115100000Y-65500000D02*
X115100000Y-77300000D01*
X119200000Y-65500000D02*
X115100000Y-65500000D01*
X119200000Y-77300000D02*
X115100000Y-77300000D01*
X120700000Y-71400000D02*
X121700000Y-71400000D01*
X121200000Y-70900000D02*
X121200000Y-71900000D01*
X123200000Y-65500000D02*
X127300000Y-65500000D01*
X127300000Y-65500000D02*
X127300000Y-67900000D01*
X127300000Y-70100000D02*
X127300000Y-72700000D01*
X127300000Y-74900000D02*
X127300000Y-77300000D01*
X127300000Y-77300000D02*
X123200000Y-77300000D01*
X124200000Y-71400000D02*
G75*
G02*
X118200000Y-71400000I-3000000J0D01*
G01*
X118200000Y-71400000D02*
G75*
G02*
X124200000Y-71400000I3000000J0D01*
G01*
%TO.C,C8*%
X123340000Y-112386252D02*
X123340000Y-110963748D01*
X125160000Y-112386252D02*
X125160000Y-110963748D01*
%TO.C,C4*%
X131265000Y-99061252D02*
X131265000Y-98538748D01*
X132735000Y-99061252D02*
X132735000Y-98538748D01*
%TO.C,R4*%
X142985000Y-113522936D02*
X142985000Y-113977064D01*
X141515000Y-113522936D02*
X141515000Y-113977064D01*
D16*
%TO.C,J4*%
X159000000Y-109920000D02*
X175900000Y-109920000D01*
X159000000Y-117540000D02*
X159000000Y-109920000D01*
X175900000Y-109920000D02*
X175900000Y-117540000D01*
X175900000Y-117540000D02*
X159000000Y-117540000D01*
D17*
%TO.C,D1*%
X121123700Y-118966600D02*
X121123700Y-121328800D01*
X122876300Y-121328800D02*
X122876300Y-118966600D01*
D16*
%TO.C,U4*%
X131420000Y-76975000D02*
X131420000Y-74975000D01*
X133680000Y-76975000D02*
X133680000Y-74975000D01*
D13*
X131150000Y-76975000D02*
G75*
G02*
X130950000Y-76975000I-100000J0D01*
G01*
X130950000Y-76975000D02*
G75*
G02*
X131150000Y-76975000I100000J0D01*
G01*
D14*
%TO.C,C15*%
X125001248Y-85940000D02*
X125523752Y-85940000D01*
X125001248Y-87410000D02*
X125523752Y-87410000D01*
%TO.C,C1*%
X140988748Y-101235000D02*
X141511252Y-101235000D01*
X140988748Y-99765000D02*
X141511252Y-99765000D01*
%TO.C,C10*%
X127485000Y-111936252D02*
X127485000Y-111413748D01*
X126015000Y-111936252D02*
X126015000Y-111413748D01*
D16*
%TO.C,J2*%
X159000000Y-69920000D02*
X175900000Y-69920000D01*
X159000000Y-77540000D02*
X159000000Y-69920000D01*
X175900000Y-69920000D02*
X175900000Y-77540000D01*
X175900000Y-77540000D02*
X159000000Y-77540000D01*
D14*
%TO.C,C7*%
X120590000Y-112386252D02*
X120590000Y-110963748D01*
X122410000Y-112386252D02*
X122410000Y-110963748D01*
%TO.C,C11*%
X131511252Y-107765000D02*
X130988748Y-107765000D01*
X131511252Y-109235000D02*
X130988748Y-109235000D01*
%TO.C,R6*%
X135985000Y-113977064D02*
X135985000Y-113522936D01*
X134515000Y-113977064D02*
X134515000Y-113522936D01*
%TO.C,C5*%
X140988748Y-95015000D02*
X141511252Y-95015000D01*
X140988748Y-96485000D02*
X141511252Y-96485000D01*
%TO.C,C12*%
X133601500Y-104038748D02*
X133601500Y-105461252D01*
X131781500Y-104038748D02*
X131781500Y-105461252D01*
D17*
%TO.C,J5*%
X134786100Y-64789000D02*
X134786100Y-78251000D01*
X134786100Y-78251000D02*
X140043900Y-78251000D01*
X140043900Y-64789000D02*
X134786100Y-64789000D01*
X140043900Y-78251000D02*
X140043900Y-64789000D01*
D18*
X141431000Y-74060000D02*
G75*
G02*
X140669000Y-74060000I-381000J0D01*
G01*
X140669000Y-74060000D02*
G75*
G02*
X141431000Y-74060000I381000J0D01*
G01*
D14*
%TO.C,U2*%
X133240000Y-85665000D02*
X133240000Y-86115000D01*
X133240000Y-92885000D02*
X133240000Y-92435000D01*
X133690000Y-85665000D02*
X133240000Y-85665000D01*
X133690000Y-92885000D02*
X133240000Y-92885000D01*
X140010000Y-85665000D02*
X140460000Y-85665000D01*
X140010000Y-92885000D02*
X140460000Y-92885000D01*
X140460000Y-85665000D02*
X140460000Y-86115000D01*
X140460000Y-92885000D02*
X140460000Y-92435000D01*
X132650000Y-86115000D02*
X132310000Y-85645000D01*
X132990000Y-85645000D01*
X132650000Y-86115000D01*
G36*
X132650000Y-86115000D02*
G01*
X132310000Y-85645000D01*
X132990000Y-85645000D01*
X132650000Y-86115000D01*
G37*
D13*
%TO.C,J1*%
X111650000Y-114650000D02*
X119350000Y-114650000D01*
X111650000Y-124850000D02*
X111650000Y-114650000D01*
X119350000Y-114650000D02*
X119350000Y-124850000D01*
X119350000Y-124850000D02*
X111650000Y-124850000D01*
D19*
X117250000Y-116350000D02*
G75*
G02*
X117050000Y-116350000I-100000J0D01*
G01*
X117050000Y-116350000D02*
G75*
G02*
X117250000Y-116350000I100000J0D01*
G01*
D14*
%TO.C,C13*%
X134490000Y-104038748D02*
X134490000Y-105461252D01*
X136310000Y-104038748D02*
X136310000Y-105461252D01*
%TO.C,R5*%
X136848333Y-113977064D02*
X136848333Y-113522936D01*
X138318333Y-113977064D02*
X138318333Y-113522936D01*
%TO.C,R3*%
X139181667Y-113522936D02*
X139181667Y-113977064D01*
X140651667Y-113522936D02*
X140651667Y-113977064D01*
%TO.C,C9*%
X136735000Y-98538748D02*
X136735000Y-99061252D01*
X135265000Y-98538748D02*
X135265000Y-99061252D01*
D16*
%TO.C,J3*%
X159000000Y-89920000D02*
X175900000Y-89920000D01*
X159000000Y-97540000D02*
X159000000Y-89920000D01*
X175900000Y-89920000D02*
X175900000Y-97540000D01*
X175900000Y-97540000D02*
X159000000Y-97540000D01*
%TD*%
M02*
