%TF.GenerationSoftware,KiCad,Pcbnew,9.0.4*%
%TF.CreationDate,2025-12-21T19:05:22-05:00*%
%TF.ProjectId,esc,6573632e-6b69-4636-9164-5f7063625858,rev?*%
%TF.SameCoordinates,Original*%
%TF.FileFunction,Soldermask,Top*%
%TF.FilePolarity,Negative*%
%FSLAX46Y46*%
G04 Gerber Fmt 4.6, Leading zero omitted, Abs format (unit mm)*
G04 Created by KiCad (PCBNEW 9.0.4) date 2025-12-21 19:05:22*
%MOMM*%
%LPD*%
G01*
G04 APERTURE LIST*
G04 Aperture macros list*
%AMRoundRect*
0 Rectangle with rounded corners*
0 $1 Rounding radius*
0 $2 $3 $4 $5 $6 $7 $8 $9 X,Y pos of 4 corners*
0 Add a 4 corners polygon primitive as box body*
4,1,4,$2,$3,$4,$5,$6,$7,$8,$9,$2,$3,0*
0 Add four circle primitives for the rounded corners*
1,1,$1+$1,$2,$3*
1,1,$1+$1,$4,$5*
1,1,$1+$1,$6,$7*
1,1,$1+$1,$8,$9*
0 Add four rect primitives between the rounded corners*
20,1,$1+$1,$2,$3,$4,$5,0*
20,1,$1+$1,$4,$5,$6,$7,0*
20,1,$1+$1,$6,$7,$8,$9,0*
20,1,$1+$1,$8,$9,$2,$3,0*%
%AMFreePoly0*
4,1,6,0.180000,0.075000,0.000000,-0.105000,-0.180000,-0.105000,-0.180000,0.105000,0.180000,0.105000,0.180000,0.075000,0.180000,0.075000,$1*%
%AMFreePoly1*
4,1,6,0.180000,-0.075000,0.180000,-0.105000,-0.180000,-0.105000,-0.180000,0.105000,0.000000,0.105000,0.180000,-0.075000,0.180000,-0.075000,$1*%
%AMFreePoly2*
4,1,6,0.180000,-0.105000,0.000000,-0.105000,-0.180000,0.075000,-0.180000,0.105000,0.180000,0.105000,0.180000,-0.105000,0.180000,-0.105000,$1*%
%AMFreePoly3*
4,1,6,0.180000,-0.105000,-0.180000,-0.105000,-0.180000,-0.075000,0.000000,0.105000,0.180000,0.105000,0.180000,-0.105000,0.180000,-0.105000,$1*%
G04 Aperture macros list end*
%ADD10RoundRect,0.102000X-0.260000X0.235000X-0.260000X-0.235000X0.260000X-0.235000X0.260000X0.235000X0*%
%ADD11FreePoly0,270.000000*%
%ADD12FreePoly1,270.000000*%
%ADD13FreePoly2,270.000000*%
%ADD14FreePoly3,270.000000*%
%ADD15RoundRect,0.120000X-0.169706X0.000000X0.000000X-0.169706X0.169706X0.000000X0.000000X0.169706X0*%
%ADD16RoundRect,0.250000X0.262500X0.450000X-0.262500X0.450000X-0.262500X-0.450000X0.262500X-0.450000X0*%
%ADD17RoundRect,0.243750X-0.243750X-0.456250X0.243750X-0.456250X0.243750X0.456250X-0.243750X0.456250X0*%
%ADD18RoundRect,0.099250X-0.627750X-0.297750X0.627750X-0.297750X0.627750X0.297750X-0.627750X0.297750X0*%
%ADD19RoundRect,0.250000X-0.250000X-0.475000X0.250000X-0.475000X0.250000X0.475000X-0.250000X0.475000X0*%
%ADD20R,2.000000X2.000000*%
%ADD21C,2.000000*%
%ADD22R,3.200000X2.000000*%
%ADD23RoundRect,0.250000X0.650000X-0.325000X0.650000X0.325000X-0.650000X0.325000X-0.650000X-0.325000X0*%
%ADD24RoundRect,0.250000X0.475000X-0.250000X0.475000X0.250000X-0.475000X0.250000X-0.475000X-0.250000X0*%
%ADD25RoundRect,0.250000X-0.450000X0.262500X-0.450000X-0.262500X0.450000X-0.262500X0.450000X0.262500X0*%
%ADD26RoundRect,0.102000X0.735000X-0.600000X0.735000X0.600000X-0.735000X0.600000X-0.735000X-0.600000X0*%
%ADD27C,2.154000*%
%ADD28R,0.838200X1.803400*%
%ADD29R,0.838200X0.711200*%
%ADD30RoundRect,0.102000X0.160000X-0.330000X0.160000X0.330000X-0.160000X0.330000X-0.160000X-0.330000X0*%
%ADD31RoundRect,0.102000X0.800000X-0.500000X0.800000X0.500000X-0.800000X0.500000X-0.800000X-0.500000X0*%
%ADD32RoundRect,0.250000X0.250000X0.475000X-0.250000X0.475000X-0.250000X-0.475000X0.250000X-0.475000X0*%
%ADD33RoundRect,0.250000X0.450000X-0.262500X0.450000X0.262500X-0.450000X0.262500X-0.450000X-0.262500X0*%
%ADD34RoundRect,0.250000X-0.650000X0.325000X-0.650000X-0.325000X0.650000X-0.325000X0.650000X0.325000X0*%
%ADD35C,1.168400*%
%ADD36RoundRect,0.075000X-0.662500X-0.075000X0.662500X-0.075000X0.662500X0.075000X-0.662500X0.075000X0*%
%ADD37RoundRect,0.075000X-0.075000X-0.662500X0.075000X-0.662500X0.075000X0.662500X-0.075000X0.662500X0*%
%ADD38RoundRect,0.250000X-0.475000X0.250000X-0.475000X-0.250000X0.475000X-0.250000X0.475000X0.250000X0*%
G04 APERTURE END LIST*
D10*
%TO.C,Y1*%
X127612500Y-88925000D03*
X126792500Y-88925000D03*
X126792500Y-88255000D03*
X127612500Y-88255000D03*
%TD*%
D11*
%TO.C,U1*%
X134325000Y-98190000D03*
D12*
X133675000Y-98190000D03*
D13*
X134325000Y-99050000D03*
D14*
X133675000Y-99050000D03*
D15*
X134000000Y-98620000D03*
%TD*%
D16*
%TO.C,R19*%
X122087500Y-96750000D03*
X123912500Y-96750000D03*
%TD*%
%TO.C,R20*%
X122037500Y-93950000D03*
X123862500Y-93950000D03*
%TD*%
D17*
%TO.C,D6*%
X117500000Y-94000000D03*
X119375000Y-94000000D03*
%TD*%
%TO.C,D5*%
X117562500Y-96750000D03*
X119437500Y-96750000D03*
%TD*%
D18*
%TO.C,U3*%
X129995000Y-110800000D03*
X129995000Y-111750000D03*
X129995000Y-112700000D03*
X132505000Y-112700000D03*
X132505000Y-111750000D03*
X132505000Y-110800000D03*
%TD*%
D19*
%TO.C,C3*%
X140300000Y-98125000D03*
X142200000Y-98125000D03*
%TD*%
%TO.C,C14*%
X128212500Y-86675000D03*
X130112500Y-86675000D03*
%TD*%
D20*
%TO.C,SW1*%
X113700000Y-68900000D03*
D21*
X113700000Y-73900000D03*
X113700000Y-71400000D03*
D22*
X121200000Y-65800000D03*
X121200000Y-77000000D03*
D21*
X128200000Y-73900000D03*
X128200000Y-68900000D03*
%TD*%
D23*
%TO.C,C8*%
X124250000Y-113150000D03*
X124250000Y-110200000D03*
%TD*%
D24*
%TO.C,C4*%
X132000000Y-99750000D03*
X132000000Y-97850000D03*
%TD*%
D25*
%TO.C,R4*%
X142250000Y-114662500D03*
X142250000Y-112837500D03*
%TD*%
D26*
%TO.C,L1*%
X126750000Y-105610000D03*
X126750000Y-103890000D03*
%TD*%
D27*
%TO.C,J4*%
X166170000Y-115000000D03*
X171250000Y-115000000D03*
%TD*%
D28*
%TO.C,D1*%
X122000000Y-119500000D03*
D29*
X122000000Y-121341500D03*
%TD*%
D30*
%TO.C,U4*%
X131900000Y-77000000D03*
X132550000Y-77000000D03*
X133200000Y-77000000D03*
X133200000Y-74950000D03*
X132550000Y-74950000D03*
X131900000Y-74950000D03*
D31*
X132550000Y-75975000D03*
%TD*%
D19*
%TO.C,C15*%
X124312500Y-86675000D03*
X126212500Y-86675000D03*
%TD*%
%TO.C,C1*%
X142200000Y-100500000D03*
X140300000Y-100500000D03*
%TD*%
D24*
%TO.C,C10*%
X126750000Y-110725000D03*
X126750000Y-112625000D03*
%TD*%
D27*
%TO.C,J2*%
X166170000Y-75000000D03*
X171250000Y-75000000D03*
%TD*%
D23*
%TO.C,C7*%
X121500000Y-113150000D03*
X121500000Y-110200000D03*
%TD*%
D32*
%TO.C,C11*%
X132200000Y-108500000D03*
X130300000Y-108500000D03*
%TD*%
D33*
%TO.C,R6*%
X135250000Y-112837500D03*
X135250000Y-114662500D03*
%TD*%
D19*
%TO.C,C5*%
X142200000Y-95750000D03*
X140300000Y-95750000D03*
%TD*%
D34*
%TO.C,C12*%
X132691500Y-106225000D03*
X132691500Y-103275000D03*
%TD*%
D35*
%TO.C,J5*%
X138050000Y-74060000D03*
X136780000Y-74060000D03*
X138050000Y-72790000D03*
X136780000Y-72790000D03*
X138050000Y-71520000D03*
X136780000Y-71520000D03*
X138050000Y-70250000D03*
X136780000Y-70250000D03*
X138050000Y-68980000D03*
X136780000Y-68980000D03*
%TD*%
D36*
%TO.C,U2*%
X132687500Y-86525000D03*
X132687500Y-87025000D03*
X132687500Y-87525000D03*
X132687500Y-88025000D03*
X132687500Y-88525000D03*
X132687500Y-89025000D03*
X132687500Y-89525000D03*
X132687500Y-90025000D03*
X132687500Y-90525000D03*
X132687500Y-91025000D03*
X132687500Y-91525000D03*
X132687500Y-92025000D03*
D37*
X134100000Y-93437500D03*
X134600000Y-93437500D03*
X135100000Y-93437500D03*
X135600000Y-93437500D03*
X136100000Y-93437500D03*
X136600000Y-93437500D03*
X137100000Y-93437500D03*
X137600000Y-93437500D03*
X138100000Y-93437500D03*
X138600000Y-93437500D03*
X139100000Y-93437500D03*
X139600000Y-93437500D03*
D36*
X141012500Y-92025000D03*
X141012500Y-91525000D03*
X141012500Y-91025000D03*
X141012500Y-90525000D03*
X141012500Y-90025000D03*
X141012500Y-89525000D03*
X141012500Y-89025000D03*
X141012500Y-88525000D03*
X141012500Y-88025000D03*
X141012500Y-87525000D03*
X141012500Y-87025000D03*
X141012500Y-86525000D03*
D37*
X139600000Y-85112500D03*
X139100000Y-85112500D03*
X138600000Y-85112500D03*
X138100000Y-85112500D03*
X137600000Y-85112500D03*
X137100000Y-85112500D03*
X136600000Y-85112500D03*
X136100000Y-85112500D03*
X135600000Y-85112500D03*
X135100000Y-85112500D03*
X134600000Y-85112500D03*
X134100000Y-85112500D03*
%TD*%
D27*
%TO.C,J1*%
X115750000Y-117250000D03*
X115750000Y-122250000D03*
%TD*%
D34*
%TO.C,C13*%
X135400000Y-103275000D03*
X135400000Y-106225000D03*
%TD*%
D33*
%TO.C,R5*%
X137583333Y-114662500D03*
X137583333Y-112837500D03*
%TD*%
D25*
%TO.C,R3*%
X139916667Y-112837500D03*
X139916667Y-114662500D03*
%TD*%
D38*
%TO.C,C9*%
X136000000Y-97850000D03*
X136000000Y-99750000D03*
%TD*%
D27*
%TO.C,J3*%
X166170000Y-95000000D03*
X171250000Y-95000000D03*
%TD*%
M02*
